<?xml version="1.0" encoding="UTF-8"?><svg xmlns="http://www.w3.org/2000/svg" viewBox="0 0 317.49 159.47"><defs><style>.d{stroke-miterlimit:10;}.d,.e{fill:#f07f12;stroke:#000;stroke-width:2px;}.f{fill:#fff;}.e{stroke-linecap:round;stroke-linejoin:round;}</style></defs><g id="a"/><g id="b"><g id="c"><g><g><path class="f" d="M26.83,60.05c-4.43,0-9.06-.52-13.77-1.55-4.76-1.04-8.65-2.52-11.55-4.4l-.46-.3V29.1l1.66,1.45c2.38,2.09,5.88,3.84,10.38,5.23,4.54,1.4,9.09,2.11,13.5,2.11,4.85,0,6.58-.86,6.58-1.66,0-.13,0-.54-1.09-.93-1.09-.39-2.56-.67-4.37-.85-1.9-.18-3.98-.38-6.25-.59-2.32-.21-4.67-.66-6.98-1.32-2.33-.67-4.51-1.58-6.48-2.71-2.06-1.18-3.74-2.99-5-5.36-1.24-2.35-1.87-5.18-1.87-8.4,0-4.81,1.47-8.57,4.35-11.18C8.34,2.31,12.21,1,16.98,1c5.04,0,9.1,1.46,12.07,4.35,1.9,1.84,3.2,4.25,3.89,7.17V2.17h19.19V29.27l-16.18-.15c.21,.04,.42,.08,.63,.12,2.82,.53,5.48,1.21,7.91,2.03,2.57,.87,4.74,2.38,6.44,4.5,1.73,2.15,2.6,4.89,2.6,8.13,0,5.27-2.57,9.35-7.63,12.13-4.87,2.67-11.29,4.03-19.08,4.03Zm-.7-36.97c-3.23,0-4.86,.69-4.86,2.05,0,.26,0,1.05,1.76,1.77,1.49,.61,3.4,1.02,5.69,1.22,1.58,.14,3.25,.34,5.01,.62v-.79c0-1.38-.65-2.49-1.98-3.39-1.44-.97-3.33-1.47-5.61-1.47Z"/><path d="M16.98,2c4.79,0,8.58,1.36,11.37,4.06,2.79,2.71,4.18,6.7,4.18,11.96h1.41V3.17h17.19V28.26l-16.41-.16v-.16c0-1.72-.81-3.13-2.42-4.22-1.62-1.09-3.67-1.64-6.17-1.64-3.91,0-5.86,1.02-5.86,3.05,0,1.15,.79,2.04,2.38,2.7,1.59,.65,3.58,1.08,5.98,1.29,2.4,.21,4.99,.57,7.78,1.09,2.79,.52,5.38,1.19,7.78,1.99,2.4,.81,4.39,2.2,5.98,4.18,1.59,1.98,2.38,4.48,2.38,7.5,0,4.9-2.37,8.65-7.11,11.25-4.74,2.61-10.94,3.91-18.6,3.91-4.38,0-8.9-.51-13.56-1.52-4.66-1.02-8.4-2.44-11.21-4.26V31.31c2.5,2.19,6.08,4,10.75,5.43,4.66,1.43,9.26,2.15,13.79,2.15,5.05,0,7.58-.89,7.58-2.66,0-.83-.59-1.46-1.76-1.88-1.17-.42-2.71-.72-4.61-.9-1.9-.18-3.99-.38-6.25-.59-2.27-.21-4.53-.64-6.8-1.29-2.27-.65-4.35-1.52-6.25-2.62-1.9-1.09-3.44-2.75-4.61-4.96-1.17-2.21-1.76-4.86-1.76-7.93,0-4.53,1.34-8.01,4.02-10.43,2.68-2.42,6.29-3.63,10.82-3.63m0-2C11.96,0,7.86,1.4,4.81,4.15,1.71,6.96,.13,10.96,.13,16.07c0,3.39,.67,6.37,1.99,8.87,1.35,2.54,3.16,4.48,5.38,5.76,2.03,1.17,4.29,2.11,6.7,2.81,2.38,.68,4.79,1.14,7.17,1.36,2.26,.21,4.34,.4,6.24,.59,1.73,.17,3.12,.43,4.13,.79l.06,.02c-.63,.26-2.08,.63-5.21,.63-4.32,0-8.76-.69-13.21-2.06-4.37-1.34-7.74-3.03-10.02-5.02L.05,26.9v27.45l.91,.59c3,1.95,7,3.47,11.88,4.54,4.78,1.04,9.49,1.57,13.98,1.57,7.96,0,14.55-1.4,19.56-4.15,5.41-2.97,8.15-7.35,8.15-13.01,0-3.47-.95-6.42-2.82-8.75-1.83-2.27-4.15-3.9-6.9-4.82-.11-.04-.23-.08-.34-.11l6.64,.06,2.02,.02V1.17H31.94V7.38c-.62-1.01-1.35-1.93-2.19-2.75C26.58,1.56,22.29,0,16.98,0h0Zm15.72,27.58c-1.36-.19-2.66-.34-3.9-.45-2.19-.19-4-.58-5.39-1.15-.53-.22-1.14-.57-1.14-.85,0-.72,1.94-1.05,3.86-1.05,2.08,0,3.78,.44,5.05,1.3,1.14,.77,1.45,1.55,1.52,2.19h0Z"/></g><g><path class="f" d="M62.95,58.88v-21.69h9.05c.58,0,1.04-.19,1.46-.58,.4-.39,.59-.83,.59-1.39v-13.61c-.63,.03-1.6,.3-1.6,2.75v9.6h-18.57V2.17h58.27v31.78h-18.57v-9.6c0-2.44-.97-2.72-1.59-2.75v13.61c0,.56,.19,1,.59,1.39,.42,.4,.88,.58,1.46,.58h9.13v21.69H62.95Z"/><path d="M111.15,3.17v29.78h-16.57v-8.6c0-2.5-.94-3.75-2.81-3.75h-.78v14.61c0,.83,.3,1.54,.9,2.11,.6,.57,1.32,.86,2.15,.86h8.13v19.69H63.95v-19.69h8.05c.83,0,1.55-.29,2.15-.86,.6-.57,.9-1.28,.9-2.11v-14.61h-.78c-1.88,0-2.81,1.25-2.81,3.75v8.6h-16.57V3.17h56.27m2-2H52.88V34.95h20.16v.27c0,.29-.08,.47-.28,.67-.23,.22-.45,.3-.77,.3h-10.05v23.69h42.22v-23.69h-10.13c-.32,0-.54-.09-.77-.3-.21-.2-.28-.38-.28-.67v-.27h20.16V1.17h0Z"/></g><g><path class="f" d="M143.66,59.27c-8.54,0-15.1-1.88-19.48-5.59-4.44-3.75-6.68-8.31-6.68-13.54,0-1.2,.11-2.44,.33-3.69l1.55-10.69v-.24c0-.25-.06-.64-.55-1.11-.38-.37-.9-.54-1.58-.54h-3.97V2.17h29.59V23.87h-2.8c-.56,0-.99,.17-1.35,.55-.4,.41-.63,.97-.71,1.69l-.71,5.72c-.05,.3-.07,.56-.07,.82,0,1.46,.54,2.71,1.66,3.83,1.12,1.12,2.67,1.66,4.76,1.66s3.63-.53,4.72-1.62c1.09-1.09,1.62-2.33,1.62-3.79,0-.26-.02-.55-.07-.88l-.71-5.72c-.08-.72-.32-1.27-.73-1.68-.39-.39-.81-.57-1.32-.57h-2.88V2.17h29.59V23.87h-3.89c-.63,0-1.14,.18-1.55,.56-.51,.47-.57,.85-.57,1.1v.24l1.47,10.72c.21,1.27,.32,2.54,.32,3.73,0,5.24-2.25,9.78-6.69,13.5-4.38,3.68-10.88,5.55-19.32,5.55Z"/><path d="M172.89,3.17V22.87h-2.89c-.89,0-1.63,.27-2.23,.82-.6,.55-.9,1.16-.9,1.84v.31l1.48,10.78c.21,1.25,.31,2.45,.31,3.6,0,4.95-2.11,9.2-6.33,12.74-4.22,3.54-10.45,5.31-18.68,5.31s-14.61-1.78-18.83-5.35c-4.22-3.57-6.33-7.83-6.33-12.78,0-1.15,.1-2.32,.31-3.52l1.56-10.78v-.31c0-.68-.29-1.29-.86-1.84-.57-.55-1.33-.82-2.27-.82h-2.97V3.17h27.59V22.87h-1.8c-.83,0-1.52,.29-2.07,.86-.55,.57-.87,1.33-.98,2.27l-.7,5.71c-.05,.31-.08,.62-.08,.94,0,1.72,.65,3.23,1.95,4.53,1.3,1.3,3.13,1.95,5.47,1.95s4.15-.64,5.43-1.91c1.28-1.28,1.91-2.77,1.91-4.49,0-.31-.03-.65-.08-1.02l-.7-5.71c-.1-.94-.44-1.69-1.02-2.27-.57-.57-1.25-.86-2.03-.86h-1.88V3.17h27.59m2-2h-62.61V24.87h4.97c.61,0,.81,.2,.89,.27,.24,.23,.24,.34,.24,.39v.17l-1.54,10.61c-.22,1.3-.34,2.58-.34,3.83,0,5.54,2.37,10.36,7.04,14.31,4.57,3.87,11.34,5.83,20.13,5.83s15.39-1.95,19.96-5.78c4.67-3.92,7.04-8.72,7.04-14.27,0-1.24-.11-2.55-.33-3.9l-1.46-10.62v-.18c0-.11,.13-.26,.25-.36,.16-.15,.39-.3,.88-.3h4.89V1.17h0Zm-31.59,23.69h3.88c.21,0,.39,.05,.62,.28,.15,.15,.37,.44,.44,1.07l.71,5.73c.04,.31,.06,.56,.06,.77,0,1.19-.42,2.17-1.33,3.08-.89,.89-2.21,1.33-4.02,1.33s-3.14-.45-4.06-1.37c-.93-.93-1.37-1.92-1.37-3.12,0-.2,.02-.41,.05-.61v-.09l.72-5.71c.06-.52,.2-.88,.44-1.13,.14-.15,.3-.24,.62-.24h3.24Z"/></g><g><path class="f" d="M175.17,58.88v-21.69h3.81c.62,0,1.13-.19,1.54-.58,.4-.39,.59-.83,.59-1.39v-9.38c0-.56-.19-1-.59-1.39-.41-.39-.91-.58-1.54-.58h-3.81V2.17h26.87c9.17,0,16.13,2.67,20.68,7.93,4.52,5.22,6.81,12.09,6.81,20.43s-2.29,15.21-6.81,20.43c-4.55,5.26-11.51,7.93-20.68,7.93h-26.87Zm27.73-21.69c2.57,0,4.46-.61,5.61-1.8,1.18-1.22,1.75-2.81,1.75-4.85s-.57-3.63-1.75-4.86c-1.15-1.2-3.04-1.8-5.61-1.8h-3.14v13.32h3.14Z"/><path d="M202.04,3.17c8.91,0,15.55,2.53,19.93,7.58,4.38,5.05,6.56,11.64,6.56,19.77s-2.19,14.72-6.56,19.77c-4.38,5.05-11.02,7.58-19.93,7.58h-25.87v-19.69h2.81c.88,0,1.63-.29,2.23-.86,.6-.57,.9-1.28,.9-2.11v-9.38c0-.83-.3-1.54-.9-2.11-.6-.57-1.34-.86-2.23-.86h-2.81V3.17h25.87m-3.28,35.01h4.14c2.87,0,4.97-.7,6.33-2.11,1.35-1.41,2.03-3.26,2.03-5.55s-.68-4.14-2.03-5.55c-1.36-1.41-3.46-2.11-6.33-2.11h-4.14v15.32m3.28-37.01h-27.87V24.87h4.81c.46,0,.69,.15,.85,.31,.2,.19,.28,.38,.28,.66v9.38c0,.29-.08,.47-.28,.67-.16,.15-.38,.3-.84,.3h-4.81v23.69h27.87c9.47,0,16.69-2.78,21.44-8.27,4.68-5.4,7.05-12.5,7.05-21.08s-2.37-15.68-7.05-21.08c-4.75-5.49-11.97-8.27-21.44-8.27h0Zm-1.28,23.69h2.14c2.29,0,3.93,.5,4.89,1.5,.99,1.03,1.47,2.39,1.47,4.16s-.48,3.13-1.47,4.16c-.96,.99-2.6,1.5-4.89,1.5h-2.14v-11.32h0Z"/></g><g><path class="f" d="M230.11,58.88v-21.85h3.81c.63,0,1.12-.19,1.54-.58,.4-.39,.59-.83,.59-1.39v-9.07c0-.56-.19-1-.59-1.39-.41-.39-.91-.58-1.53-.58h-3.81V2.17h30.45V24.02h-3.81c-.58,0-1.04,.19-1.46,.58-.4,.39-.59,.83-.59,1.39v9.07c0,.56,.19,1,.59,1.39,.42,.4,.88,.58,1.46,.58h3.81v21.85h-30.45Z"/><path d="M259.56,3.17V23.02h-2.81c-.83,0-1.55,.29-2.15,.86-.6,.57-.9,1.28-.9,2.11v9.07c0,.83,.3,1.54,.9,2.11,.6,.57,1.31,.86,2.15,.86h2.81v19.85h-28.45v-19.85h2.81c.88,0,1.63-.29,2.23-.86,.6-.57,.9-1.28,.9-2.11v-9.07c0-.83-.3-1.54-.9-2.11-.6-.57-1.34-.86-2.23-.86h-2.81V3.17h28.45m2-2h-32.45V25.02h4.81c.46,0,.69,.15,.85,.31,.2,.2,.28,.38,.28,.66v9.07c0,.29-.08,.47-.28,.67-.16,.15-.38,.3-.84,.3h-4.81v23.85h32.45v-23.85h-4.81c-.32,0-.54-.09-.76-.3-.21-.2-.28-.38-.28-.67v-9.07c0-.29,.08-.47,.28-.66,.23-.22,.45-.3,.77-.3h4.81V1.17h0Z"/></g><g><path class="f" d="M288.71,60.05c-8.96,0-15.91-2.76-20.64-8.2-4.7-5.4-7.08-12.57-7.08-21.33s2.38-15.93,7.08-21.33c4.73-5.44,11.68-8.2,20.64-8.2s15.91,2.76,20.64,8.2c4.7,5.4,7.08,12.58,7.08,21.33s-2.37,15.92-7.05,21.29c-4.76,5.47-11.72,8.24-20.68,8.24Zm0-37.12c-2.6,0-4.5,.67-5.8,2.03-1.31,1.38-1.95,3.2-1.95,5.56s.65,4.18,1.99,5.56c1.27,1.36,3.2,2.04,5.77,2.04s4.52-.67,5.85-2.04c1.33-1.38,1.98-3.2,1.98-5.56s-.65-4.17-1.99-5.56c-1.31-1.35-3.28-2.04-5.85-2.04Z"/><path d="M288.71,2c8.7,0,15.33,2.62,19.89,7.85,4.56,5.24,6.84,12.13,6.84,20.67s-2.27,15.42-6.8,20.63c-4.58,5.26-11.23,7.89-19.93,7.89s-15.33-2.62-19.89-7.85c-4.56-5.24-6.84-12.13-6.84-20.67s2.28-15.43,6.84-20.67c4.56-5.24,11.19-7.85,19.89-7.85m0,37.12c2.87,0,5.05-.78,6.57-2.34,1.51-1.56,2.27-3.65,2.27-6.25s-.76-4.69-2.27-6.25c-1.51-1.56-3.7-2.34-6.57-2.34s-5.04,.78-6.53,2.34c-1.48,1.56-2.23,3.65-2.23,6.25s.75,4.69,2.27,6.25c1.46,1.56,3.62,2.34,6.49,2.34m0-39.12c-9.27,0-16.46,2.87-21.4,8.54-4.86,5.59-7.33,12.98-7.33,21.98s2.47,16.4,7.33,21.98c4.93,5.67,12.13,8.54,21.4,8.54s16.48-2.89,21.44-8.58c4.84-5.56,7.29-12.94,7.29-21.95s-2.47-16.4-7.33-21.98c-4.93-5.67-12.13-8.54-21.4-8.54h0Zm0,37.12c-2.31,0-3.95-.56-5.02-1.71-1.17-1.21-1.73-2.8-1.73-4.89s.55-3.69,1.68-4.87c1.1-1.16,2.76-1.72,5.08-1.72s4,.57,5.13,1.74c1.15,1.19,1.7,2.78,1.7,4.86s-.56,3.68-1.7,4.86c-1.13,1.17-2.81,1.73-5.13,1.73h0Z"/></g></g><g><path class="d" d="M178.71,86.48c-29.98,0-59.17-11.76-81.15-33.74-6.67-6.67-6.67-17.48,0-24.15,6.67-6.67,17.48-6.67,24.15,0,21.56,21.56,53.01,29.14,82.06,19.77,8.98-2.89,18.6,2.04,21.49,11.01,2.9,8.98-2.03,18.6-11.01,21.49-11.71,3.77-23.69,5.61-35.54,5.61Z"/><path class="e" d="M93.2,5.32c-1.29-.96-3.12-.92-4.37,.08-1.7,1.36-1.81,3.86-.31,5.36-1.4-1.4-3.68-1.4-5.09,0s-1.4,3.68,0,5.08c-1.4-1.4-3.68-1.4-5.09,0s-1.4,3.68,0,5.08c-1.5-1.5-3.99-1.4-5.36,.31-1,1.25-1.04,3.08-.08,4.37,.78,1.05,1.98,1.54,3.15,1.46,.69-.05,1.38,0,2.05,.17l12.01,3c2.16,.54,4.45-.09,6.03-1.67h0c1.58-1.58,2.21-3.87,1.67-6.03l-3-12.01c-.17-.67-.21-1.36-.17-2.05,.08-1.17-.4-2.36-1.46-3.15Z"/><path class="e" d="M248.52,65.76c1.38-.81,2.06-2.51,1.62-4.06-.6-2.1-2.85-3.16-4.82-2.36,1.84-.75,2.72-2.85,1.98-4.69s-2.85-2.72-4.69-1.98c1.84-.75,2.72-2.85,1.98-4.69s-2.85-2.72-4.69-1.98c1.96-.8,2.84-3.14,1.8-5.06-.76-1.41-2.43-2.15-3.99-1.77-1.27,.31-2.19,1.23-2.57,2.33-.22,.65-.53,1.27-.95,1.82l-7.43,9.9c-1.34,1.78-1.64,4.14-.8,6.21h0c.84,2.07,2.7,3.54,4.91,3.88l12.24,1.9c.68,.11,1.34,.33,1.95,.64,1.04,.53,2.34,.55,3.47-.12Z"/></g><g><g><path class="f" d="M28.31,123.12c-4.7,0-9.62-.55-14.61-1.64-5.05-1.1-9.17-2.67-12.24-4.66l-.46-.3v-26.07l1.66,1.45c2.54,2.22,6.25,4.09,11.05,5.56,4.83,1.49,9.66,2.24,14.36,2.24,6.54,0,7.05-1.4,7.05-1.82,0-.15,0-.62-1.2-1.05-1.16-.41-2.73-.72-4.66-.9-2.02-.19-4.23-.4-6.64-.62-2.46-.22-4.95-.7-7.41-1.4-2.47-.71-4.78-1.68-6.86-2.87-2.18-1.25-3.95-3.16-5.28-5.67-1.32-2.49-1.98-5.48-1.98-8.89,0-5.09,1.55-9.07,4.6-11.82,3.02-2.73,7.12-4.12,12.17-4.12,5.33,0,9.63,1.55,12.77,4.6,2.12,2.06,3.54,4.79,4.24,8.14v-11.49h20.26v28.65l-17.87-.17c.46,.08,.93,.16,1.41,.25,2.99,.56,5.81,1.28,8.39,2.15,2.72,.92,5.01,2.52,6.81,4.76,1.83,2.28,2.75,5.17,2.75,8.59,0,5.57-2.72,9.89-8.07,12.83-5.16,2.84-11.97,4.27-20.24,4.27Zm-.75-39.26c-3.47,0-5.23,.75-5.23,2.24,0,.29,0,1.16,1.91,1.94,1.59,.65,3.62,1.09,6.06,1.3,1.69,.15,3.5,.37,5.39,.67v-.91c0-1.49-.7-2.68-2.13-3.65-1.54-1.04-3.56-1.57-6-1.57Z"/><path d="M17.85,61.53c5.09,0,9.12,1.44,12.08,4.32,2.96,2.88,4.44,7.11,4.44,12.7h1.49v-15.77h18.26v26.64l-17.43-.17v-.17c0-1.83-.86-3.32-2.57-4.48-1.72-1.16-3.9-1.74-6.56-1.74-4.15,0-6.23,1.08-6.23,3.24,0,1.22,.84,2.17,2.53,2.86,1.69,.69,3.8,1.15,6.35,1.37,2.54,.22,5.3,.61,8.26,1.16,2.96,.55,5.71,1.26,8.26,2.12,2.54,.86,4.66,2.34,6.35,4.44,1.69,2.1,2.53,4.76,2.53,7.97,0,5.2-2.52,9.19-7.55,11.95-5.04,2.77-11.62,4.15-19.75,4.15-4.65,0-9.45-.54-14.4-1.62-4.95-1.08-8.92-2.59-11.91-4.52v-23.32c2.66,2.32,6.46,4.25,11.41,5.77,4.95,1.52,9.84,2.28,14.65,2.28,5.37,0,8.05-.94,8.05-2.82,0-.88-.62-1.55-1.87-1.99-1.25-.44-2.88-.76-4.9-.95-2.02-.19-4.23-.4-6.64-.62-2.41-.22-4.81-.68-7.22-1.37-2.41-.69-4.62-1.62-6.64-2.78-2.02-1.16-3.65-2.92-4.9-5.27-1.24-2.35-1.87-5.16-1.87-8.42,0-4.81,1.42-8.51,4.27-11.08,2.85-2.57,6.68-3.86,11.5-3.86m0-2c-5.3,0-9.62,1.47-12.84,4.38C1.74,66.86,.08,71.09,.08,76.47c0,3.58,.71,6.73,2.1,9.36,1.42,2.68,3.32,4.72,5.67,6.07,2.15,1.24,4.54,2.24,7.09,2.97,2.52,.72,5.07,1.21,7.59,1.44,2.4,.22,4.61,.43,6.63,.62,1.85,.18,3.33,.46,4.42,.85,.14,.05,.24,.1,.33,.14-.52,.28-2.01,.79-5.84,.79-4.6,0-9.33-.74-14.06-2.19-4.66-1.43-8.25-3.23-10.68-5.36l-3.32-2.9v28.82l.91,.59c3.17,2.06,7.4,3.67,12.57,4.8,5.07,1.1,10.06,1.66,14.83,1.66,8.44,0,15.41-1.48,20.72-4.4,5.7-3.13,8.59-7.74,8.59-13.7,0-3.66-1-6.76-2.97-9.22-1.92-2.39-4.37-4.1-7.27-5.08-.38-.13-.76-.25-1.15-.37l7.87,.07,2.02,.02v-30.66h-22.26v6.92c-.7-1.22-1.55-2.32-2.54-3.29-3.33-3.24-7.87-4.88-13.47-4.88h0Zm16.83,29.31c-1.49-.21-2.93-.38-4.29-.5-2.33-.2-4.27-.62-5.76-1.23-.3-.12-1.29-.56-1.29-1.01,0-1.18,3.52-1.24,4.23-1.24,2.24,0,4.06,.47,5.44,1.4,1.35,.91,1.64,1.83,1.69,2.58h0Z"/></g><g><path class="f" d="M85.66,123.12c-9.5,0-16.86-2.92-21.88-8.69-4.98-5.72-7.51-13.33-7.51-22.61s2.53-16.89,7.51-22.61c5.02-5.76,12.38-8.69,21.88-8.69s16.86,2.92,21.88,8.69c4.98,5.72,7.51,13.33,7.51,22.61s-2.51,16.87-7.47,22.57c-5.04,5.79-12.42,8.73-21.92,8.73Zm0-39.43c-2.74,0-4.83,.73-6.21,2.18-1.41,1.48-2.09,3.43-2.09,5.95s.7,4.47,2.13,5.94c1.36,1.45,3.43,2.19,6.17,2.19s4.85-.74,6.25-2.19c1.43-1.48,2.13-3.42,2.13-5.94s-.7-4.46-2.13-5.95c-1.4-1.45-3.51-2.19-6.25-2.19Z"/><path d="M85.66,61.53c9.24,0,16.28,2.78,21.12,8.34,4.84,5.56,7.26,12.88,7.26,21.95s-2.41,16.38-7.22,21.91c-4.87,5.59-11.92,8.38-21.17,8.38s-16.28-2.78-21.12-8.34c-4.84-5.56-7.26-12.88-7.26-21.95s2.42-16.39,7.26-21.95c4.84-5.56,11.88-8.34,21.12-8.34m0,39.43c3.04,0,5.37-.83,6.97-2.49,1.6-1.66,2.41-3.87,2.41-6.64s-.8-4.98-2.41-6.64c-1.61-1.66-3.93-2.49-6.97-2.49s-5.35,.83-6.93,2.49c-1.58,1.66-2.37,3.87-2.37,6.64s.8,4.98,2.41,6.64c1.55,1.66,3.85,2.49,6.89,2.49m0-41.43c-9.8,0-17.42,3.04-22.63,9.03-5.14,5.91-7.75,13.74-7.75,23.27s2.61,17.36,7.75,23.27c5.22,5.99,12.83,9.03,22.63,9.03s17.43-3.05,22.67-9.07c5.12-5.88,7.71-13.7,7.71-23.23s-2.61-17.36-7.75-23.27c-5.22-5.99-12.83-9.03-22.63-9.03h0Zm0,39.43c-2.49,0-4.26-.61-5.43-1.85-1.27-1.31-1.87-3.03-1.87-5.28s.59-3.98,1.82-5.26c1.19-1.26,2.99-1.87,5.48-1.87s4.31,.62,5.53,1.88c1.24,1.28,1.84,3,1.84,5.25s-.6,3.96-1.85,5.25c-1.22,1.26-3.03,1.88-5.53,1.88h0Z"/></g><g><path class="f" d="M142.68,123.12c-4.7,0-9.62-.55-14.61-1.64-5.05-1.1-9.17-2.67-12.24-4.66l-.46-.3v-26.07l1.66,1.45c2.54,2.22,6.25,4.09,11.05,5.56,4.83,1.49,9.66,2.24,14.36,2.24,6.54,0,7.05-1.4,7.05-1.82,0-.15,0-.62-1.2-1.05-1.16-.41-2.73-.72-4.66-.9-2.02-.19-4.23-.4-6.64-.62-2.46-.22-4.95-.7-7.41-1.4-2.47-.71-4.78-1.68-6.86-2.87-2.18-1.25-3.95-3.16-5.28-5.67-1.32-2.49-1.98-5.48-1.98-8.89,0-5.09,1.55-9.07,4.6-11.82,3.02-2.73,7.12-4.12,12.17-4.12,5.33,0,9.63,1.55,12.77,4.6,2.12,2.06,3.54,4.79,4.24,8.14v-11.49h20.26v28.65l-17.87-.17c.46,.08,.93,.16,1.41,.25,2.99,.56,5.81,1.28,8.39,2.15,2.72,.92,5.01,2.52,6.81,4.76,1.83,2.28,2.75,5.17,2.75,8.59,0,5.57-2.72,9.89-8.07,12.83-5.16,2.84-11.97,4.27-20.24,4.27Zm-.75-39.26c-3.47,0-5.23,.75-5.23,2.24,0,.29,0,1.16,1.91,1.94,1.59,.65,3.62,1.09,6.06,1.3,1.69,.15,3.5,.37,5.39,.67v-.91c0-1.49-.7-2.68-2.13-3.65-1.54-1.04-3.56-1.57-6-1.57Z"/><path d="M132.23,61.53c5.09,0,9.12,1.44,12.08,4.32,2.96,2.88,4.44,7.11,4.44,12.7h1.49v-15.77h18.26v26.64l-17.43-.17v-.17c0-1.83-.86-3.32-2.57-4.48-1.72-1.16-3.9-1.74-6.56-1.74-4.15,0-6.23,1.08-6.23,3.24,0,1.22,.84,2.17,2.53,2.86,1.69,.69,3.8,1.15,6.35,1.37,2.54,.22,5.3,.61,8.26,1.16,2.96,.55,5.71,1.26,8.26,2.12,2.54,.86,4.66,2.34,6.35,4.44,1.69,2.1,2.53,4.76,2.53,7.97,0,5.2-2.52,9.19-7.55,11.95-5.04,2.77-11.62,4.15-19.75,4.15-4.65,0-9.45-.54-14.4-1.62-4.95-1.08-8.92-2.59-11.91-4.52v-23.32c2.66,2.32,6.46,4.25,11.41,5.77,4.95,1.52,9.84,2.28,14.65,2.28,5.37,0,8.05-.94,8.05-2.82,0-.88-.62-1.55-1.87-1.99-1.25-.44-2.88-.76-4.9-.95-2.02-.19-4.23-.4-6.64-.62-2.41-.22-4.81-.68-7.22-1.37-2.41-.69-4.62-1.62-6.64-2.78-2.02-1.16-3.65-2.92-4.9-5.27-1.24-2.35-1.87-5.16-1.87-8.42,0-4.81,1.42-8.51,4.27-11.08,2.85-2.57,6.68-3.86,11.5-3.86m0-2c-5.3,0-9.62,1.47-12.84,4.38-3.27,2.95-4.93,7.18-4.93,12.56,0,3.58,.71,6.73,2.1,9.36,1.42,2.68,3.32,4.72,5.67,6.07,2.15,1.24,4.54,2.24,7.09,2.97,2.52,.72,5.07,1.21,7.59,1.44,2.4,.22,4.61,.43,6.63,.62,1.85,.18,3.33,.46,4.42,.85,.14,.05,.24,.1,.33,.14-.52,.28-2.01,.79-5.84,.79-4.6,0-9.33-.74-14.06-2.19-4.66-1.43-8.25-3.23-10.68-5.36l-3.32-2.9v28.82l.91,.59c3.17,2.06,7.4,3.67,12.57,4.8,5.07,1.1,10.06,1.66,14.83,1.66,8.44,0,15.41-1.48,20.72-4.4,5.7-3.13,8.59-7.74,8.59-13.7,0-3.66-1-6.76-2.97-9.22-1.92-2.39-4.37-4.1-7.27-5.08-.38-.13-.76-.25-1.15-.37l7.87,.07,2.02,.02v-30.66h-22.26v6.92c-.7-1.22-1.55-2.32-2.54-3.29-3.33-3.24-7.87-4.88-13.47-4.88h0Zm16.83,29.31c-1.49-.21-2.93-.38-4.29-.5-2.33-.2-4.27-.62-5.76-1.23-.3-.12-1.29-.56-1.29-1.01,0-1.18,3.52-1.24,4.23-1.24,2.24,0,4.06,.47,5.44,1.4,1.35,.91,1.64,1.83,1.69,2.58h0Z"/></g><g><path class="f" d="M198.54,123.12c-4.7,0-9.62-.55-14.61-1.64-5.05-1.1-9.17-2.67-12.24-4.66l-.46-.3v-26.07l1.66,1.45c2.54,2.22,6.25,4.09,11.05,5.56,4.83,1.49,9.66,2.24,14.36,2.24,6.54,0,7.05-1.4,7.05-1.82,0-.15,0-.62-1.2-1.05-1.16-.41-2.73-.72-4.66-.9-2.02-.19-4.23-.4-6.64-.62-2.46-.22-4.95-.7-7.41-1.4-2.47-.71-4.78-1.68-6.86-2.87-2.18-1.25-3.95-3.16-5.28-5.67-1.32-2.48-1.98-5.48-1.98-8.89,0-5.09,1.55-9.07,4.6-11.82,3.02-2.73,7.12-4.12,12.17-4.12,5.33,0,9.63,1.55,12.77,4.6,2.12,2.06,3.54,4.79,4.24,8.14v-11.49h20.26v28.65l-17.87-.17c.46,.08,.93,.16,1.41,.25,2.99,.56,5.81,1.28,8.39,2.15,2.72,.92,5.01,2.52,6.81,4.76,1.83,2.28,2.75,5.17,2.75,8.59,0,5.57-2.72,9.88-8.07,12.83-5.16,2.84-11.97,4.27-20.24,4.27Zm-.75-39.26c-3.47,0-5.22,.75-5.22,2.24,0,.29,0,1.16,1.91,1.94,1.59,.65,3.62,1.09,6.06,1.3,1.7,.15,3.5,.37,5.39,.67v-.91c0-1.49-.7-2.68-2.13-3.65-1.54-1.04-3.56-1.57-6-1.57Z"/><path d="M188.08,61.53c5.09,0,9.12,1.44,12.08,4.32,2.96,2.88,4.44,7.11,4.44,12.7h1.49v-15.77h18.26v26.64l-17.43-.17v-.17c0-1.83-.86-3.32-2.57-4.48-1.72-1.16-3.9-1.74-6.56-1.74-4.15,0-6.22,1.08-6.22,3.24,0,1.22,.84,2.17,2.53,2.86,1.69,.69,3.8,1.15,6.35,1.37,2.54,.22,5.3,.61,8.26,1.16,2.96,.55,5.71,1.26,8.26,2.12,2.54,.86,4.66,2.34,6.35,4.44,1.69,2.1,2.53,4.76,2.53,7.97,0,5.2-2.52,9.19-7.55,11.95-5.04,2.77-11.62,4.15-19.75,4.15-4.65,0-9.45-.54-14.4-1.62-4.95-1.08-8.92-2.59-11.91-4.52v-23.32c2.66,2.32,6.46,4.25,11.41,5.77,4.95,1.52,9.84,2.28,14.65,2.28,5.37,0,8.05-.94,8.05-2.82,0-.88-.62-1.55-1.87-1.99-1.25-.44-2.88-.76-4.9-.95-2.02-.19-4.23-.4-6.64-.62-2.41-.22-4.81-.68-7.22-1.37-2.41-.69-4.62-1.62-6.64-2.78-2.02-1.16-3.65-2.92-4.9-5.27-1.25-2.35-1.87-5.16-1.87-8.42,0-4.81,1.42-8.51,4.27-11.08,2.85-2.57,6.68-3.86,11.5-3.86m0-2c-5.3,0-9.62,1.47-12.84,4.38-3.27,2.95-4.93,7.18-4.93,12.56,0,3.58,.71,6.73,2.1,9.36,1.42,2.68,3.32,4.72,5.67,6.07,2.15,1.24,4.54,2.24,7.09,2.97,2.52,.72,5.07,1.21,7.59,1.44,2.4,.22,4.61,.43,6.63,.62,1.85,.18,3.33,.46,4.42,.85,.14,.05,.24,.09,.33,.14-.52,.28-2.01,.79-5.84,.79-4.6,0-9.33-.74-14.06-2.19-4.66-1.43-8.25-3.23-10.68-5.36l-3.32-2.9v28.82l.91,.59c3.17,2.06,7.4,3.67,12.57,4.8,5.07,1.1,10.06,1.66,14.83,1.66,8.44,0,15.41-1.48,20.72-4.4,5.7-3.13,8.59-7.74,8.59-13.7,0-3.66-1-6.76-2.97-9.22-1.92-2.4-4.37-4.11-7.27-5.08-.38-.13-.76-.25-1.15-.37l7.88,.08,2.02,.02v-30.66h-22.26v6.92c-.7-1.22-1.55-2.32-2.54-3.29-3.33-3.24-7.87-4.88-13.47-4.88h0Zm16.83,29.31c-1.49-.21-2.93-.38-4.29-.5-2.33-.2-4.27-.62-5.76-1.23-.3-.12-1.29-.56-1.29-1.01,0-1.18,3.52-1.24,4.22-1.24,2.24,0,4.07,.47,5.44,1.4,1.35,.91,1.64,1.83,1.69,2.58h0Z"/></g><g><path class="f" d="M227.5,121.88v-23.08h3.99c.68,0,1.23-.21,1.67-.64,.44-.42,.65-.9,.65-1.52v-9.63c0-.61-.21-1.1-.65-1.52-.45-.43-.99-.63-1.67-.63h-3.99v-23.08h32.21v23.08h-3.99c-.62,0-1.14,.21-1.59,.64-.44,.42-.65,.9-.65,1.52v9.63c0,.62,.21,1.1,.64,1.52,.45,.43,.96,.64,1.59,.64h3.99v23.08h-32.21Z"/><path d="M258.71,62.78v21.08h-2.99c-.89,0-1.65,.3-2.28,.91-.64,.61-.95,1.36-.95,2.24v9.63c0,.89,.32,1.63,.95,2.24,.64,.61,1.4,.91,2.28,.91h2.99v21.08h-30.21v-21.08h2.99c.94,0,1.73-.3,2.37-.91,.64-.61,.95-1.35,.95-2.24v-9.63c0-.88-.32-1.63-.95-2.24-.64-.61-1.43-.91-2.37-.91h-2.99v-21.08h30.21m2-2h-34.21v25.08h4.99c.54,0,.8,.18,.98,.36,.24,.23,.34,.45,.34,.8v9.63c0,.34-.09,.56-.34,.8-.19,.18-.45,.36-.98,.36h-4.99v25.08h34.21v-25.08h-4.99c-.37,0-.63-.1-.9-.36-.24-.23-.34-.46-.34-.8v-9.63c0-.34,.09-.56,.34-.8,.26-.25,.53-.36,.9-.36h4.99v-25.08h0Z"/></g><g><path class="f" d="M288.18,123.12c-4.7,0-9.61-.55-14.61-1.64-5.05-1.1-9.17-2.67-12.24-4.66l-.46-.3v-26.07l1.66,1.45c2.54,2.22,6.25,4.09,11.05,5.56,4.83,1.49,9.66,2.24,14.36,2.24,6.54,0,7.05-1.4,7.05-1.82,0-.15,0-.62-1.2-1.05-1.16-.41-2.73-.72-4.66-.9-2.02-.19-4.23-.4-6.64-.62-2.46-.22-4.95-.7-7.41-1.4-2.47-.71-4.78-1.68-6.86-2.87-2.18-1.25-3.95-3.16-5.28-5.67-1.32-2.48-1.98-5.48-1.98-8.89,0-5.09,1.55-9.07,4.6-11.82,3.03-2.73,7.12-4.12,12.17-4.12,5.33,0,9.63,1.55,12.77,4.6,2.12,2.06,3.54,4.79,4.24,8.14v-11.49h20.26v28.65l-17.87-.17c.46,.08,.93,.16,1.41,.25,2.99,.56,5.82,1.28,8.39,2.15,2.72,.92,5.01,2.52,6.81,4.76,1.83,2.28,2.75,5.17,2.75,8.59,0,5.57-2.72,9.89-8.07,12.83-5.16,2.84-11.97,4.27-20.24,4.27Zm-.75-39.26c-3.47,0-5.22,.75-5.22,2.24,0,.29,0,1.16,1.91,1.94,1.59,.65,3.62,1.09,6.06,1.3,1.7,.15,3.5,.37,5.39,.67v-.91c0-1.48-.7-2.68-2.13-3.65-1.54-1.04-3.56-1.57-6-1.57Z"/><path d="M277.72,61.53c5.09,0,9.12,1.44,12.08,4.32,2.96,2.88,4.44,7.11,4.44,12.7h1.49v-15.77h18.26v26.64l-17.43-.17v-.17c0-1.83-.86-3.32-2.57-4.48-1.72-1.16-3.9-1.74-6.56-1.74-4.15,0-6.22,1.08-6.22,3.24,0,1.22,.84,2.17,2.53,2.86,1.69,.69,3.8,1.15,6.35,1.37,2.54,.22,5.3,.61,8.26,1.16,2.96,.55,5.71,1.26,8.26,2.12,2.54,.86,4.66,2.34,6.35,4.44,1.69,2.1,2.53,4.76,2.53,7.97,0,5.2-2.52,9.19-7.55,11.95-5.04,2.77-11.62,4.15-19.75,4.15-4.65,0-9.45-.54-14.4-1.62s-8.92-2.59-11.91-4.52v-23.32c2.66,2.32,6.46,4.25,11.41,5.77,4.95,1.52,9.84,2.28,14.65,2.28,5.37,0,8.05-.94,8.05-2.82,0-.88-.62-1.55-1.87-1.99-1.25-.44-2.88-.76-4.9-.95-2.02-.19-4.23-.4-6.64-.62-2.41-.22-4.81-.68-7.22-1.37-2.41-.69-4.62-1.62-6.64-2.78-2.02-1.16-3.65-2.92-4.9-5.27-1.25-2.35-1.87-5.16-1.87-8.42,0-4.81,1.42-8.51,4.27-11.08,2.85-2.57,6.68-3.86,11.5-3.86m0-2c-5.3,0-9.62,1.47-12.84,4.38-3.27,2.95-4.93,7.18-4.93,12.56,0,3.58,.71,6.73,2.1,9.36,1.42,2.68,3.32,4.72,5.67,6.07,2.15,1.24,4.53,2.24,7.09,2.97,2.52,.72,5.07,1.21,7.59,1.44,2.4,.22,4.61,.43,6.63,.62,1.85,.18,3.33,.46,4.42,.85,.14,.05,.25,.1,.33,.14-.53,.28-2.01,.79-5.84,.79-4.59,0-9.33-.74-14.06-2.19-4.66-1.43-8.25-3.23-10.68-5.36l-3.32-2.9v28.82l.91,.59c3.18,2.06,7.41,3.67,12.57,4.8,5.07,1.1,10.06,1.66,14.83,1.66,8.44,0,15.41-1.48,20.72-4.4,5.7-3.13,8.59-7.74,8.59-13.7,0-3.66-1-6.76-2.97-9.22-1.92-2.39-4.37-4.1-7.27-5.08-.38-.13-.76-.25-1.15-.37l7.87,.07,2.02,.02v-30.66h-22.26v6.92c-.7-1.22-1.55-2.32-2.54-3.29-3.34-3.24-7.87-4.88-13.47-4.88h0Zm16.83,29.31c-1.49-.21-2.93-.38-4.29-.5-2.33-.2-4.27-.62-5.76-1.23-.3-.12-1.29-.56-1.29-1.01,0-1.18,3.52-1.24,4.22-1.24,2.24,0,4.07,.47,5.44,1.4,1.35,.91,1.64,1.84,1.69,2.58h0Z"/></g></g><g><path class="f" d="M83.35,131.64c1.18-.73,2.51-1.1,4-1.1,1.77,0,3.17,.5,4.2,1.51,1.03,1.01,1.55,2.38,1.55,4.13,0,.52-.05,1.08-.16,1.65-.26,1.47-.78,2.76-1.56,3.87-.78,1.11-1.74,1.97-2.89,2.57s-2.38,.91-3.71,.91c-1.49,0-2.69-.37-3.61-1.1-.92-.73-1.5-1.68-1.74-2.83l-.66,3.73h-1.18l3.44-19.41h1.18l-1.57,8.92c.63-1.15,1.53-2.1,2.71-2.83Zm8.51,4.7c0-1.5-.44-2.68-1.31-3.52-.88-.84-2.06-1.26-3.54-1.26-1.1,0-2.14,.26-3.12,.77-.98,.52-1.81,1.25-2.49,2.2-.68,.95-1.14,2.05-1.36,3.29-.09,.56-.13,1.02-.13,1.39,0,1.5,.45,2.7,1.35,3.58,.9,.88,2.08,1.33,3.53,1.33,1.15,0,2.22-.25,3.19-.76,.97-.51,1.78-1.23,2.44-2.18s1.1-2.06,1.33-3.36c.09-.44,.13-.94,.13-1.5Z"/><path class="f" d="M97.37,130.72l3.07,12.78,7.21-12.78h1.26l-11.99,20.94h-1.29l3.86-6.72-3.41-14.22h1.29Z"/><path class="f" d="M118.8,130.72l3.07,12.78,7.21-12.78h1.26l-11.99,20.94h-1.29l3.86-6.72-3.41-14.22h1.29Z"/><path class="f" d="M132.51,133.97c.78-1.1,1.74-1.95,2.9-2.54,1.15-.59,2.4-.89,3.73-.89,1.49,0,2.69,.37,3.61,1.1,.92,.73,1.49,1.67,1.72,2.81l.66-3.73h1.18l-2.54,14.25h-1.15l.66-3.75c-.61,1.15-1.51,2.1-2.7,2.85-1.19,.74-2.54,1.12-4.04,1.12-1.73,0-3.12-.51-4.16-1.53-1.04-1.02-1.56-2.41-1.56-4.16,0-.52,.05-1.08,.16-1.65,.26-1.47,.78-2.75,1.56-3.86Zm11.48,2.47c0-1.49-.45-2.67-1.34-3.55-.89-.88-2.07-1.32-3.54-1.32-1.15,0-2.22,.25-3.19,.75s-1.78,1.22-2.44,2.16c-.66,.94-1.1,2.06-1.32,3.36-.09,.58-.13,1.07-.13,1.47,0,1.52,.43,2.71,1.3,3.55,.87,.85,2.05,1.27,3.55,1.27,1.1,0,2.15-.26,3.14-.77,.99-.52,1.82-1.25,2.49-2.2,.67-.95,1.12-2.06,1.35-3.32,.09-.52,.13-.99,.13-1.39Z"/><path class="f" d="M153.58,131.29c.99-.58,2.16-.87,3.53-.87l-.24,1.23h-.37c-1.4,0-2.63,.4-3.7,1.19-1.07,.8-1.76,2.09-2.07,3.9l-1.47,8.21h-1.18l2.54-14.25h1.18l-.55,3.07c.56-1.08,1.33-1.92,2.32-2.49Z"/><path class="f" d="M169.75,131.6c.87,.78,1.31,1.93,1.31,3.45,0,.47-.05,1-.16,1.57l-1.47,8.34h-1.15l1.47-8.26c.09-.56,.13-1.02,.13-1.39,0-1.26-.35-2.22-1.05-2.87-.7-.66-1.68-.98-2.94-.98-1.47,0-2.74,.46-3.8,1.36-1.07,.91-1.8,2.25-2.2,4.01l-1.44,8.13h-1.18l2.54-14.25h1.18l-.52,2.99c.59-1.07,1.4-1.88,2.43-2.44,1.02-.56,2.15-.84,3.37-.84,1.45,0,2.61,.39,3.49,1.17Z"/><path class="f" d="M185.42,131.23c.85,.46,1.49,1.08,1.92,1.86,.43,.78,.64,1.65,.64,2.61,0,.42-.04,.8-.11,1.15-.1,.63-.21,1.1-.31,1.42h-12.3c-.07,.56-.1,.96-.1,1.21,0,1.5,.45,2.66,1.36,3.46,.91,.8,2.05,1.21,3.44,1.21s2.61-.34,3.69-1.04c1.08-.69,1.84-1.63,2.29-2.82h1.23c-.56,1.45-1.49,2.63-2.79,3.53s-2.84,1.35-4.6,1.35-3.15-.51-4.21-1.52-1.59-2.4-1.59-4.15c0-.54,.05-1.1,.16-1.68,.26-1.49,.79-2.78,1.57-3.88,.79-1.1,1.75-1.95,2.9-2.53,1.15-.59,2.39-.88,3.74-.88,1.21,0,2.23,.23,3.08,.7Zm1.38,4.58c0-1.38-.44-2.44-1.33-3.17-.88-.73-2-1.1-3.34-1.1-1,0-1.96,.22-2.89,.66-.93,.44-1.73,1.09-2.41,1.97s-1.15,1.94-1.42,3.2h11.2c.12-.51,.18-1.02,.18-1.55Z"/><path class="f" d="M209.99,133.97c-.75,.72-1.64,1.21-2.68,1.47,.91,.16,1.65,.58,2.22,1.27,.57,.69,.85,1.53,.85,2.51,0,.28-.03,.55-.08,.81-.26,1.45-.99,2.64-2.18,3.55-1.19,.92-2.73,1.38-4.62,1.38h-5.82l3.28-18.42h5.75c1.61,0,2.81,.33,3.61,1,.8,.67,1.19,1.55,1.19,2.65,0,.3-.03,.6-.08,.92-.21,1.19-.69,2.14-1.44,2.86Zm-.79,5.19c0-1-.38-1.78-1.13-2.36s-1.78-.87-3.1-.87h-4.51l-1.42,8.03h4.59c1.49,0,2.71-.36,3.69-1.08,.97-.72,1.57-1.7,1.8-2.94,.05-.26,.08-.52,.08-.79Zm-.56-5.22c.87-.66,1.39-1.57,1.59-2.73,.05-.26,.08-.52,.08-.79,0-.89-.32-1.59-.96-2.1-.64-.51-1.6-.76-2.9-.76h-4.49l-1.31,7.37h4.62c1.38,0,2.51-.33,3.37-1Z"/><path class="f" d="M218.37,131.29c.99-.58,2.16-.87,3.53-.87l-.24,1.23h-.37c-1.4,0-2.63,.4-3.7,1.19-1.07,.8-1.76,2.09-2.07,3.9l-1.47,8.21h-1.18l2.54-14.25h1.18l-.55,3.07c.56-1.08,1.33-1.92,2.32-2.49Z"/><path class="f" d="M224.15,133.97c.78-1.1,1.74-1.95,2.9-2.54,1.15-.59,2.4-.89,3.73-.89,1.49,0,2.69,.37,3.61,1.1,.92,.73,1.49,1.67,1.72,2.81l.66-3.73h1.18l-2.54,14.25h-1.15l.66-3.75c-.61,1.15-1.51,2.1-2.7,2.85-1.19,.74-2.54,1.12-4.04,1.12-1.73,0-3.12-.51-4.16-1.53-1.04-1.02-1.56-2.41-1.56-4.16,0-.52,.05-1.08,.16-1.65,.26-1.47,.78-2.75,1.56-3.86Zm11.48,2.47c0-1.49-.45-2.67-1.34-3.55-.89-.88-2.07-1.32-3.54-1.32-1.15,0-2.22,.25-3.19,.75s-1.78,1.22-2.44,2.16-1.1,2.06-1.33,3.36c-.09,.58-.13,1.07-.13,1.47,0,1.52,.43,2.71,1.3,3.55,.87,.85,2.05,1.27,3.55,1.27,1.1,0,2.15-.26,3.14-.77,.99-.52,1.82-1.25,2.49-2.2s1.12-2.06,1.35-3.32c.09-.52,.13-.99,.13-1.39Z"/><path class="f" d="M252.2,131.6c.87,.78,1.31,1.93,1.31,3.45,0,.47-.05,1-.16,1.57l-1.47,8.34h-1.15l1.47-8.26c.09-.56,.13-1.02,.13-1.39,0-1.26-.35-2.22-1.05-2.87s-1.68-.98-2.94-.98c-1.47,0-2.74,.46-3.8,1.36-1.07,.91-1.8,2.25-2.2,4.01l-1.44,8.13h-1.18l2.54-14.25h1.18l-.52,2.99c.59-1.07,1.4-1.88,2.43-2.44,1.02-.56,2.15-.84,3.37-.84,1.45,0,2.61,.39,3.49,1.17Z"/><path class="f" d="M268.39,131.62c.93,.73,1.5,1.66,1.71,2.79l.66-3.7h1.18l-2.6,14.69c-.25,1.31-.74,2.46-1.48,3.45-.74,.99-1.65,1.75-2.73,2.28-1.08,.53-2.22,.8-3.42,.8-1.79,0-3.19-.43-4.21-1.29s-1.58-2.01-1.67-3.46h1.18c.14,1.14,.63,2.04,1.47,2.72,.84,.67,1.98,1.01,3.41,1.01,1,0,1.94-.22,2.82-.67,.88-.45,1.63-1.08,2.24-1.92,.61-.83,1.01-1.81,1.21-2.93l.73-4.17c-.61,1.14-1.51,2.08-2.7,2.82-1.19,.74-2.53,1.12-4.01,1.12-1.75,0-3.14-.51-4.18-1.53-1.04-1.02-1.56-2.41-1.56-4.16,0-.52,.05-1.08,.16-1.65,.26-1.47,.78-2.75,1.56-3.86,.78-1.1,1.75-1.95,2.9-2.54,1.15-.59,2.4-.89,3.72-.89,1.49,0,2.69,.36,3.62,1.09Zm1.23,4.81c0-1.49-.45-2.67-1.34-3.55-.89-.88-2.07-1.32-3.54-1.32-1.15,0-2.22,.25-3.19,.75s-1.78,1.22-2.44,2.16c-.66,.94-1.1,2.06-1.33,3.36-.09,.58-.13,1.07-.13,1.47,0,1.52,.43,2.71,1.3,3.55,.87,.85,2.05,1.27,3.55,1.27,1.1,0,2.15-.26,3.13-.77,.99-.52,1.82-1.25,2.49-2.2,.67-.95,1.12-2.06,1.35-3.32,.09-.52,.13-.99,.13-1.39Z"/><path class="f" d="M285.53,131.23c.85,.46,1.49,1.08,1.92,1.86,.43,.78,.64,1.65,.64,2.61,0,.42-.04,.8-.11,1.15-.1,.63-.21,1.1-.31,1.42h-12.3c-.07,.56-.1,.96-.1,1.21,0,1.5,.45,2.66,1.36,3.46,.91,.8,2.05,1.21,3.44,1.21s2.61-.34,3.69-1.04c1.08-.69,1.84-1.63,2.29-2.82h1.23c-.56,1.45-1.49,2.63-2.79,3.53s-2.84,1.35-4.6,1.35-3.15-.51-4.21-1.52-1.59-2.4-1.59-4.15c0-.54,.05-1.1,.16-1.68,.26-1.49,.79-2.78,1.57-3.88,.79-1.1,1.75-1.95,2.9-2.53,1.15-.59,2.39-.88,3.74-.88,1.21,0,2.23,.23,3.08,.7Zm1.38,4.58c0-1.38-.44-2.44-1.33-3.17-.88-.73-2-1.1-3.34-1.1-1,0-1.96,.22-2.89,.66-.93,.44-1.73,1.09-2.41,1.97s-1.15,1.94-1.42,3.2h11.2c.12-.51,.18-1.02,.18-1.55Z"/><path class="f" d="M295.61,131.29c.99-.58,2.17-.87,3.53-.87l-.24,1.23h-.37c-1.4,0-2.63,.4-3.7,1.19-1.07,.8-1.76,2.09-2.07,3.9l-1.47,8.21h-1.18l2.54-14.25h1.18l-.55,3.07c.56-1.08,1.33-1.92,2.32-2.49Z"/><path class="f" d="M300.28,144.12c-.87-.7-1.25-1.7-1.14-2.99h1.18c-.09,.93,.18,1.67,.8,2.22,.62,.55,1.53,.83,2.74,.83s2.23-.28,2.96-.83c.73-.55,1.1-1.26,1.1-2.14,0-.52-.15-.96-.45-1.31-.3-.35-.66-.63-1.1-.84s-1.05-.45-1.84-.73c-.88-.3-1.59-.59-2.14-.87s-1.01-.67-1.39-1.17-.56-1.13-.56-1.9,.22-1.42,.66-2.01c.44-.59,1.04-1.04,1.81-1.36,.77-.32,1.63-.49,2.57-.49,1.31,0,2.4,.34,3.28,1.01,.88,.67,1.31,1.56,1.31,2.66,0,.23,0,.4-.03,.52h-1.15c.02-.09,.03-.23,.03-.42,0-.84-.34-1.52-1.01-2.03-.67-.52-1.52-.77-2.53-.77-1.08,0-1.98,.26-2.69,.77-.71,.52-1.06,1.21-1.06,2.09,0,.58,.16,1.05,.47,1.43,.32,.38,.7,.67,1.17,.89s1.09,.47,1.88,.75c.87,.3,1.57,.58,2.09,.84,.52,.26,.96,.63,1.33,1.1s.55,1.08,.55,1.81c0,1.22-.49,2.2-1.48,2.91-.99,.72-2.27,1.08-3.84,1.08-1.47,0-2.64-.35-3.5-1.05Z"/></g></g></g></svg>