<?xml version="1.0" encoding="UTF-8"?>
<svg id="Layer_2" data-name="Layer 2" xmlns="http://www.w3.org/2000/svg" viewBox="0 0 126.42 126.42">
  <g id="Layer_1-2" data-name="Layer 1">
    <g>
      <path d="M113.78,104.61c-.69,.02-1.38-.05-2.04-.25l-11.88-3.48c-2.14-.63-4.45-.09-6.09,1.43-1.64,1.51-2.37,3.77-1.91,5.96l2.52,12.12c.14,.68,.16,1.37,.08,2.05-.13,1.16,.31,2.38,1.33,3.2,1.25,1.01,3.08,1.04,4.37,.09,1.76-1.29,1.96-3.78,.52-5.34,1.35,1.46,3.62,1.55,5.08,.2,1.46-1.35,1.55-3.62,.2-5.08,1.35,1.46,3.62,1.55,5.08,.2,1.46-1.35,1.55-3.62,.2-5.08,1.44,1.56,3.93,1.56,5.37-.09,1.05-1.21,1.16-3.04,.26-4.36-.74-1.08-1.92-1.62-3.09-1.58Z"/>
      <path d="M93,102.99c5.39-4.85,5.83-13.15,.98-18.54l-15.92-17.71,22.47-20.2c5.39-4.85,5.83-13.15,.98-18.54h0c-4.85-5.39-13.15-5.83-18.54-.98l-22.47,20.2-19.18-21.33c-4.85-5.39-13.15-5.83-18.54-.98h0c-5.39,4.85-5.83,13.15-.98,18.54l19.18,21.33-16.57,14.9c-5.39,4.85-5.83,13.15-.98,18.54h0c4.85,5.39,13.15,5.83,18.54,.98l16.57-14.9,15.92,17.71c4.85,5.39,13.15,5.83,18.54,.98h0Z"/>
      <path d="M3.6,21.41c.69,0,1.38,.09,2.03,.3l11.79,3.79c2.12,.68,4.45,.2,6.13-1.27s2.46-3.71,2.06-5.91l-2.21-12.18c-.12-.68-.12-1.37-.03-2.06,.16-1.16-.25-2.39-1.25-3.24-1.22-1.04-3.05-1.12-4.36-.2-1.79,1.25-2.06,3.73-.66,5.33-1.31-1.49-3.58-1.64-5.07-.33-1.49,1.31-1.64,3.58-.33,5.07-1.31-1.49-3.58-1.64-5.07-.33-1.49,1.31-1.64,3.58-.33,5.07-1.4-1.59-3.89-1.66-5.37-.05-1.08,1.18-1.24,3.01-.37,4.35,.71,1.1,1.88,1.66,3.04,1.66Z"/>
      <path d="M18.16,97.06l-12.12,2.52c-.68,.14-1.37,.16-2.05,.08-1.16-.13-2.38,.31-3.2,1.33-1.01,1.25-1.04,3.08-.09,4.37,1.29,1.76,3.78,1.96,5.34,.52-1.46,1.35-1.55,3.62-.2,5.08,1.35,1.46,3.62,1.55,5.08,.2-1.46,1.35-1.55,3.62-.2,5.08,1.35,1.46,3.62,1.55,5.08,.2-1.56,1.44-1.56,3.93,.09,5.37,1.21,1.05,3.04,1.16,4.36,.26,1.08-.74,1.62-1.92,1.58-3.09-.02-.69,.05-1.38,.25-2.04l3.48-11.88c.63-2.14,.09-4.45-1.43-6.09-1.51-1.64-3.77-2.37-5.96-1.91Z"/>
      <path d="M125.79,22.99c-1.25-1.79-3.73-2.06-5.33-.66,1.49-1.31,1.64-3.58,.33-5.07-1.31-1.49-3.58-1.64-5.07-.33,1.49-1.31,1.64-3.58,.33-5.07-1.31-1.49-3.58-1.64-5.07-.33,1.6-1.4,1.66-3.89,.05-5.37-1.18-1.08-3.01-1.24-4.35-.37-1.1,.71-1.66,1.88-1.66,3.04,0,.69-.09,1.38-.3,2.03l-3.79,11.79c-.68,2.12-.2,4.45,1.27,6.13,1.47,1.68,3.71,2.46,5.91,2.06l12.18-2.21c.68-.12,1.37-.12,2.06-.03,1.16,.16,2.39-.25,3.24-1.25,1.04-1.22,1.12-3.05,.2-4.36Z"/>
    </g>
  </g>
</svg>