<?xml version="1.0" encoding="UTF-8"?>
<svg id="Layer_2" data-name="Layer 2" xmlns="http://www.w3.org/2000/svg" viewBox="0 0 175.26 177.97">
  <defs>
    <style>
      .cls-1 {
        fill: #fff;
      }

      .cls-2 {
        fill: #f67f00;
      }

      .cls-3 {
        fill: none;
      }
    </style>
  </defs>
  <g id="Layer_1-2" data-name="Layer 1">
    <g>
      <path class="cls-2" d="M149.63,25.64c-34.19-34.19-89.82-34.19-124.01,0C10.93,40.33,2.57,58.99,.51,78.19H47.05c1.7-7.34,5.39-14.31,11.1-20.03,16.25-16.25,42.7-16.25,58.96,0,5.71,5.71,9.41,12.68,11.1,20.03h46.54c-2.07-19.21-10.42-37.86-25.12-52.55Z"/>
      <path class="cls-1" d="M89.25,138.58c-8.1,0-16.37-1.07-24.81-3.21-8.44-2.14-14.81-5.29-19.08-9.46v-45.98c4.39,3.82,10.73,7.14,19,9.98,8.27,2.84,15.99,4.25,23.16,4.25,9.37,0,14.05-1.91,14.05-5.73,0-1.85-1.39-3.27-4.16-4.25-2.78-.98-6.22-1.65-10.32-2-4.11-.35-8.56-1.24-13.36-2.69-4.8-1.44-9.25-3.35-13.36-5.73-4.11-2.37-7.55-6.27-10.32-11.71-2.78-5.44-4.16-12.15-4.16-20.13,0-20.01,8.62-30.02,25.85-30.02,7.98,0,14.14,2.58,18.48,7.72,4.34,5.15,6.51,13.79,6.51,25.94h2.78V14.53h32.1v55.52l-29.32-.52c.23-3.93-.95-7.26-3.56-9.98-2.6-2.72-6.16-4.08-10.67-4.08-6.83,0-10.24,2.26-10.24,6.77,0,3.24,1.94,5.7,5.81,7.37,3.87,1.68,8.56,2.98,14.05,3.9,5.49,.93,11.02,2.26,16.57,3.99s10.26,4.97,14.14,9.72c3.87,4.74,5.81,11.05,5.81,18.91,0,10.18-3.93,18.13-11.8,23.86-7.87,5.73-18.91,8.59-33.14,8.59Z"/>
      <path class="cls-3" d="M58.15,58.17c-5.71,5.71-9.41,12.68-11.1,20.03h81.16c-1.7-7.34-5.39-14.31-11.1-20.03-16.25-16.25-42.7-16.25-58.96,0Z"/>
      <path class="cls-2" d="M61.28,177.14c1.52,1.13,3.69,1.09,5.17-.1,2.02-1.62,2.14-4.57,.36-6.34,1.66,1.66,4.36,1.66,6.02,0s1.66-4.36,0-6.02c1.66,1.66,4.36,1.66,6.02,0s1.66-4.36,0-6.02c1.78,1.78,4.73,1.65,6.34-.36,1.19-1.48,1.23-3.65,.1-5.17-.93-1.25-2.35-1.82-3.73-1.73-.81,.06-1.63,0-2.43-.2l-14.22-3.56c-2.56-.64-5.27,.11-7.14,1.98h0c-1.87,1.87-2.62,4.58-1.98,7.14l3.56,14.22c.2,.79,.25,1.61,.2,2.43-.1,1.38,.48,2.8,1.72,3.73Z"/>
      <path class="cls-2" d="M113.98,177.14c-1.52,1.13-3.69,1.09-5.17-.1-2.02-1.62-2.14-4.57-.36-6.34-1.66,1.66-4.36,1.66-6.02,0s-1.66-4.36,0-6.02c-1.66,1.66-4.36,1.66-6.02,0s-1.66-4.36,0-6.02c-1.78,1.78-4.73,1.65-6.34-.36-1.19-1.48-1.23-3.65-.1-5.17,.93-1.25,2.35-1.82,3.73-1.73,.81,.06,1.63,0,2.43-.2l14.22-3.56c2.56-.64,5.27,.11,7.14,1.98h0c1.87,1.87,2.62,4.58,1.98,7.14l-3.56,14.22c-.2,.79-.25,1.61-.2,2.43,.1,1.38-.48,2.8-1.72,3.73Z"/>
      <path class="cls-2" d="M25.62,149.65c8.98,8.98,23.55,8.98,32.53,0,8.98-8.98,8.98-23.54,0-32.53-10.54-10.54-14.24-25.37-11.1-38.93H.51c-2.74,25.49,5.62,51.96,25.12,71.46Z"/>
      <path class="cls-2" d="M128.21,78.19c3.13,13.56-.56,28.39-11.1,38.93-8.98,8.98-8.98,23.54,0,32.53,4.49,4.49,10.38,6.74,16.26,6.74s11.77-2.25,16.26-6.74c19.5-19.5,27.86-45.97,25.12-71.46h-46.54Z"/>
    </g>
  </g>
</svg>