<?xml version="1.0" encoding="UTF-8"?>
<svg id="Layer_2" data-name="Layer 2" xmlns="http://www.w3.org/2000/svg" xmlns:xlink="http://www.w3.org/1999/xlink" viewBox="0 0 840 551.25">
  <defs>
    <style>
      .cls-1 {
        fill: #f4aa58;
      }

      .cls-2 {
        fill: #ffb888;
      }

      .cls-3 {
        fill: #ff8400;
      }

      .cls-4 {
        fill: #201e1a;
      }

      .cls-5 {
        fill: #edf2f4;
      }

      .cls-6 {
        fill: url(#radial-gradient);
      }

      .cls-7 {
        fill: url(#radial-gradient-2);
      }

      .cls-8 {
        fill: url(#radial-gradient-3);
      }

      .cls-9 {
        fill: #381c00;
      }

      .cls-10 {
        fill: #494643;
      }

      .cls-11 {
        fill: #110e0a;
      }

      .cls-12 {
        fill: #a02b02;
      }
    </style>
    <radialGradient id="radial-gradient" cx="552.3" cy="89.61" fx="580.88" fy="75.34" r="94.72" gradientTransform="translate(-52.51 131.16) rotate(32.33) scale(1 -1)" gradientUnits="userSpaceOnUse">
      <stop offset="0" stop-color="#f67f00"/>
      <stop offset=".13" stop-color="#f07c00"/>
      <stop offset=".29" stop-color="#e17300"/>
      <stop offset=".48" stop-color="#c76501"/>
      <stop offset=".67" stop-color="#a35103"/>
      <stop offset=".87" stop-color="#763804"/>
      <stop offset="1" stop-color="#562606"/>
    </radialGradient>
    <radialGradient id="radial-gradient-2" cx="525.34" cy="372.52" fx="557.05" fy="345.99" r="41.34" gradientTransform="translate(122.74 783.84) rotate(-17.46) scale(1 -1)" xlink:href="#radial-gradient"/>
    <radialGradient id="radial-gradient-3" cx="498.75" cy="-23.17" fx="498.75" fy="-9.43" r="39.92" gradientTransform="translate(0 421.83) scale(1 -.51)" xlink:href="#radial-gradient"/>
  </defs>
  <g id="Layer_2-2" data-name="Layer 2">
    <g id="Layer_1-2" data-name="Layer 1-2">
      <rect width="840" height="262.5"/>
      <rect class="cls-3" x="0" y="78.75" width="78.75" height="346.5" rx="39.37" ry="39.37"/>
      <polygon class="cls-12" points="39.37 78.75 78.75 0 0 0 39.37 78.75"/>
      <polygon class="cls-1" points="41.02 442.97 0 525 82.03 525 41.02 442.97"/>
      <path class="cls-3" d="M78.75,0h78.75V144.38c0,21.73-17.64,39.37-39.37,39.37h0c-21.73,0-39.37-17.64-39.37-39.37V0h-.01Z"/>
      <path class="cls-12" d="M118.12,183.75h0c21.73,0,39.37,17.64,39.37,39.37v39.38H78.75v-39.38c0-21.73,17.64-39.37,39.37-39.37Z"/>
      <path class="cls-3" d="M236.25,262.5h-78.75V118.12c0-21.73,17.64-39.37,39.37-39.37h0c21.73,0,39.37,17.64,39.37,39.37v144.38h.01Z"/>
      <path class="cls-12" d="M196.88,78.75h0c-21.74,0-39.38-17.64-39.38-39.37V0h78.75V39.38c0,21.73-17.64,39.37-39.37,39.37Z"/>
      <rect class="cls-12" x="236.26" y="131.26" width="78.75" height="346.5" rx="39.37" ry="39.37"/>
      <path class="cls-3" d="M275.63,131.25h0c-21.74,0-39.38-17.64-39.38-39.37V0h78.75V91.88c0,21.73-17.64,39.37-39.37,39.37Z"/>
      <rect class="cls-11" y="262.5" width="840" height="288.75"/>
      <path class="cls-3" d="M354.37,52.5h0c21.73,0,39.37,17.64,39.37,39.37v170.63h-78.75V91.87c0-21.73,17.64-39.37,39.37-39.37h.01Z"/>
      <path class="cls-12" d="M354.38,52.5h0c-21.74,0-39.38-17.64-39.38-39.37V0h78.75V13.13c0,21.73-17.64,39.37-39.37,39.37Z"/>
      <polygon class="cls-3" points="433.13 52.5 393.75 131.25 472.5 131.25 433.13 52.5"/>
      <path class="cls-3" d="M393.75,0h78.75V13.13c0,21.73-17.64,39.37-39.37,39.37h0c-21.73,0-39.37-17.64-39.37-39.37V0h-.01Z"/>
      <path class="cls-3" d="M551.25,262.5h-78.75V118.12c0-21.73,17.64-39.37,39.37-39.37h0c21.73,0,39.37,17.64,39.37,39.37v144.38h.01Z"/>
      <path class="cls-12" d="M511.88,78.75h0c-21.74,0-39.38-17.64-39.38-39.37V0h78.75V39.38c0,21.73-17.64,39.37-39.37,39.37Z"/>
      <path class="cls-3" d="M551.25,0h78.75V144.38c0,21.73-17.64,39.37-39.37,39.37h0c-21.73,0-39.37-17.64-39.37-39.37V0h-.01Z"/>
      <path class="cls-12" d="M590.62,183.75h0c21.73,0,39.37,17.64,39.37,39.37v39.38h-78.75v-39.38c0-21.73,17.64-39.37,39.37-39.37h.01Z"/>
      <polygon class="cls-12" points="669.37 210 708.75 131.25 630 131.25 669.37 210"/>
      <path class="cls-9" d="M708.75,262.5h-78.75v-13.13c0-21.73,17.64-39.37,39.37-39.37h0c21.73,0,39.37,17.64,39.37,39.37v13.13h.01Z"/>
      <path class="cls-12" d="M669.38,52.5h0c-21.74,0-39.38-17.64-39.38-39.37V0h78.75V13.13c0,21.73-17.64,39.37-39.37,39.37Z"/>
      <polygon class="cls-3" points="669.38 52.5 630 131.25 708.75 131.25 669.38 52.5"/>
      <path class="cls-12" d="M748.12,52.5h0c21.73,0,39.37,17.64,39.37,39.37v170.63h-78.75V91.87c0-21.73,17.64-39.37,39.37-39.37h.01Z"/>
      <path class="cls-3" d="M748.13,52.5h0c-21.74,0-39.38-17.64-39.38-39.37V0h78.75V13.13c0,21.73-17.64,39.37-39.37,39.37Z"/>
      <path class="cls-3" d="M826.88,78.75h0c-21.75,0-39.38,17.63-39.38,39.37v144.38h52.5V81c-4.11-1.45-8.52-2.25-13.12-2.25Z"/>
      <path class="cls-12" d="M840,0h-52.5V39.38c0,21.75,17.63,39.37,39.38,39.37h0c4.6,0,9.02-.8,13.12-2.25V0Z"/>
      <rect class="cls-4" x="367.5" y="318.75" width="341.25" height="180" rx="20" ry="20"/>
      <rect class="cls-10" x="367.5" y="288.75" width="341.25" height="180" rx="20" ry="20"/>
      <path class="cls-5" d="M490.52,364.86l55.68,55.68h74.25l129.93-129.93-92.81-92.81-167.05,167.05h0Zm64.97,9.29c-5.13,5.13-13.44,5.13-18.56,0s-5.13-13.44,0-18.56,13.44-5.13,18.56,0,5.13,13.44,0,18.56Z"/>
      <path class="cls-3" d="M657.57,197.81l37.12,37.12,13.13-13.13c3.48-3.48,5.44-8.2,5.44-13.12v-10.87c0-11.88,4.72-23.28,13.12-31.69l10.87-10.87c8.4-8.4,19.8-13.12,31.69-13.12h0c10.25,0,18.56-8.31,18.56-18.56h0c0-10.25-8.31-18.56-18.56-18.56h0c-11.88,0-23.28,4.72-31.69,13.12l-79.68,79.68h0Z"/>
      <g>
        <path class="cls-6" d="M504.21,284.27h0c12.24,7.75,15.89,23.98,8.14,36.22l-70.19,110.9-44.36-28.08,70.19-110.9c7.75-12.24,23.98-15.89,36.22-8.14Z"/>
        <circle class="cls-2" cx="420" cy="417.35" r="26.25"/>
      </g>
      <path class="cls-7" d="M525.26,271.84c-1.73-1.33-4.18-.84-5.28,.97,1.03-1.7,.49-3.91-1.2-4.94-1.7-1.03-3.91-.49-4.94,1.2,1.03-1.7,.49-3.91-1.2-4.94-1.7-1.03-3.91-.49-4.94,1.2,1.1-1.81,.41-4.21-1.57-5.13-1.45-.68-3.24-.28-4.26,.95-.84,1.01-1.03,2.29-.67,3.4,.21,.66,.33,1.34,.32,2.03l-.07,12.38c-.01,2.23,1.14,4.3,3.05,5.46,1.91,1.16,4.28,1.23,6.25,.2l10.96-5.76c.61-.32,1.27-.53,1.95-.65,1.15-.2,2.2-.95,2.71-2.16,.63-1.48,.16-3.24-1.11-4.22h0Z"/>
      <path class="cls-12" d="M472.5,262.5h-78.75v-91.88c0-21.73,17.64-39.37,39.37-39.37h0c21.73,0,39.37,17.64,39.37,39.37v91.88h.01Z"/>
      <g>
        <path class="cls-8" d="M498.75,420c-14.5,0-26.25,4.7-26.25,10.5v10.5c0,5.8,11.75,10.5,26.25,10.5s26.25-4.7,26.25-10.5v-10.5c0-5.8-11.75-10.5-26.25-10.5Z"/>
        <ellipse class="cls-2" cx="498.75" cy="430.5" rx="26.25" ry="10.5"/>
      </g>
    </g>
  </g>
</svg>