<?xml version="1.0" encoding="UTF-8"?>
<svg id="Layer_2" data-name="Layer 2" xmlns="http://www.w3.org/2000/svg" xmlns:xlink="http://www.w3.org/1999/xlink" viewBox="0 0 262.5 551.25">
  <defs>
    <style>
      .cls-1 {
        fill: #351000;
      }

      .cls-2 {
        fill: #ffb888;
      }

      .cls-3 {
        fill: url(#radial-gradient-4);
      }

      .cls-4 {
        fill: #ff8400;
      }

      .cls-5 {
        fill: #201e1a;
      }

      .cls-6 {
        fill: #edf2f4;
      }

      .cls-7 {
        fill: url(#radial-gradient);
      }

      .cls-8 {
        fill: url(#radial-gradient-2);
      }

      .cls-9 {
        fill: url(#radial-gradient-3);
      }

      .cls-10 {
        fill: #110e0a;
      }
    </style>
    <radialGradient id="radial-gradient" cx="116.87" cy="142.93" fx="139.44" fy="131.65" r="74.84" gradientTransform="translate(68.39 270.17)" gradientUnits="userSpaceOnUse">
      <stop offset="0" stop-color="#f67f00"/>
      <stop offset=".13" stop-color="#f07c00"/>
      <stop offset=".29" stop-color="#e17300"/>
      <stop offset=".48" stop-color="#c76501"/>
      <stop offset=".67" stop-color="#a35103"/>
      <stop offset=".87" stop-color="#763804"/>
      <stop offset="1" stop-color="#562606"/>
    </radialGradient>
    <radialGradient id="radial-gradient-2" cx="224.24" cy="479.7" fx="249.31" fy="458.73" r="32.68" gradientTransform="translate(-133.11 -40.39) rotate(-17.46)" xlink:href="#radial-gradient"/>
    <radialGradient id="radial-gradient-3" cx="70" cy="483" fx="70" fy="492.16" r="26.61" gradientTransform="translate(0 234.35) scale(1 .51)" xlink:href="#radial-gradient"/>
    <radialGradient id="radial-gradient-4" cx="72.53" cy="474.09" fx="72.53" fy="483.25" r="26.61" gradientTransform="translate(0 230.02) scale(1 .51)" xlink:href="#radial-gradient"/>
  </defs>
  <g id="Layer_1-2" data-name="Layer 1">
    <rect width="262.5" height="404.06"/>
    <rect class="cls-5" x="0" y="371.25" width="262.5" height="180"/>
    <rect class="cls-10" x="0" y="341.25" width="262.5" height="180"/>
    <g>
      <path class="cls-7" d="M185.26,350.88h0c11.45,0,20.74,9.29,20.74,20.74v103.7h-41.48v-103.7c0-11.45,9.29-20.74,20.74-20.74Z" transform="translate(249.62 -35.04) rotate(32.33)"/>
      <circle class="cls-2" cx="151.99" cy="465.67" r="20.74"/>
    </g>
    <path class="cls-8" d="M235.15,350.7c-1.37-1.05-3.3-.66-4.17,.77,.82-1.34,.39-3.09-.95-3.9-1.34-.82-3.09-.39-3.9,.95,.82-1.34,.39-3.09-.95-3.9-1.34-.82-3.09-.39-3.9,.95,.87-1.43,.33-3.33-1.24-4.06-1.15-.54-2.56-.22-3.37,.75-.66,.8-.81,1.81-.53,2.69,.17,.52,.26,1.06,.26,1.6l-.06,9.78c-.01,1.76,.9,3.4,2.41,4.32,1.51,.92,3.38,.97,4.94,.15l8.66-4.55c.48-.25,1-.42,1.54-.51,.91-.16,1.74-.75,2.14-1.71,.49-1.17,.12-2.56-.88-3.34Z"/>
    <g>
      <path class="cls-9" d="M70,472.5c-9.66,0-17.5,3.13-17.5,7v7c0,3.87,7.84,7,17.5,7s17.5-3.13,17.5-7v-7c0-3.87-7.84-7-17.5-7Z"/>
      <ellipse class="cls-2" cx="70" cy="479.5" rx="17.5" ry="7"/>
    </g>
    <g>
      <path class="cls-3" d="M72.53,463.59c-9.66,0-17.5,3.13-17.5,7v7c0,3.87,7.84,7,17.5,7s17.5-3.13,17.5-7v-7c0-3.87-7.84-7-17.5-7Z"/>
      <ellipse class="cls-2" cx="72.53" cy="470.59" rx="17.5" ry="7"/>
    </g>
    <path class="cls-1" d="M235.64,119.94c-2.47-23.02-12.49-45.37-30.1-62.97-40.97-40.96-107.62-40.97-148.59,0-17.6,17.6-27.62,39.95-30.1,62.97-3.28,30.54,6.73,62.26,30.1,85.62,10.24,10.24,26.52,10.72,37.35,1.47-1.34,2.07-1.8,4.62-1.18,7.06l4.26,17.04c.24,.95,.3,1.93,.24,2.91-.11,1.65,.57,3.35,2.07,4.46,1.82,1.36,4.42,1.3,6.19-.12,2.42-1.94,2.56-5.47,.43-7.6,1.99,1.99,5.22,1.99,7.21,0s1.99-5.22,0-7.21c1.99,1.99,5.22,1.99,7.21,0s1.99-5.22,0-7.21c2.13,2.13,5.67,1.98,7.6-.43,1.42-1.77,1.47-4.37,.12-6.19-1.11-1.49-2.81-2.18-4.46-2.07-.98,.07-1.96,0-2.91-.24l-17.04-4.26c-2.4-.6-4.91-.17-6.96,1.12,9.56-10.82,9.2-27.35-1.15-37.7-12.63-12.63-17.06-30.4-13.31-46.65,2.03-8.8,6.46-17.15,13.31-23.99,19.48-19.48,51.17-19.47,70.64,0,6.84,6.84,11.27,15.2,13.31,24,3.76,16.24-.67,34.01-13.31,46.65-10.35,10.35-10.72,26.87-1.16,37.69-2.05-1.28-4.55-1.71-6.95-1.11l-17.04,4.26c-.95,.24-1.93,.3-2.91,.24-1.65-.11-3.35,.57-4.46,2.07-1.36,1.82-1.3,4.42,.12,6.19,1.94,2.42,5.47,2.56,7.6,.43-1.99,1.99-1.99,5.22,0,7.21s5.22,1.99,7.21,0c-1.99,1.99-1.99,5.22,0,7.21s5.22,1.99,7.21,0c-2.13,2.13-1.98,5.67,.43,7.6,1.77,1.42,4.37,1.47,6.19,.12,1.49-1.11,2.18-2.81,2.07-4.46-.07-.98,0-1.96,.24-2.91l4.26-17.04c.61-2.44,.15-4.99-1.18-7.06,5.14,4.38,11.49,6.6,17.86,6.6,7.05,0,14.11-2.69,19.49-8.07,23.36-23.36,33.38-55.08,30.09-85.62Z"/>
    <path class="cls-6" d="M26.25,367.5l39.38,39.38h52.5s91.88-91.88,91.88-91.88l-65.63-65.63L26.25,367.5Zm45.94,6.56c-3.62,3.62-9.5,3.62-13.13,0s-3.62-9.5,0-13.13,9.5-3.62,13.13,0,3.62,9.5,0,13.13Z"/>
    <path class="cls-4" d="M144.38,249.38l26.25,26.25,9.28-9.28c2.46-2.46,3.84-5.8,3.84-9.28v-7.69c0-8.4,3.34-16.46,9.28-22.41l7.69-7.69c5.94-5.94,14-9.28,22.41-9.28h0c7.25,0,13.12-5.88,13.12-13.12h0c0-7.25-5.88-13.13-13.12-13.13h0c-8.4,0-16.46,3.34-22.41,9.28l-56.34,56.34Z"/>
  </g>
</svg>