<?xml version="1.0" encoding="UTF-8"?>
<svg id="Layer_2" data-name="Layer 2" xmlns="http://www.w3.org/2000/svg" viewBox="0 0 262.5 262.5">
  <defs>
    <style>
      .cls-1 {
        fill: #fff;
      }

      .cls-2 {
        fill: #f67f00;
      }

      .cls-3 {
        fill: none;
      }
    </style>
  </defs>
  <g id="Layer_1-2" data-name="Layer 1">
    <rect width="262.5" height="262.5"/>
    <g>
      <path class="cls-2" d="M202.82,56.51c-40.34-40.34-105.99-40.34-146.33,0-17.34,17.34-27.2,39.35-29.64,62.01h54.92c2-8.67,6.36-16.89,13.1-23.63,19.18-19.18,50.39-19.18,69.57,0,6.74,6.74,11.1,14.96,13.1,23.63h54.92c-2.44-22.66-12.3-44.68-29.64-62.01Z"/>
      <path class="cls-1" d="M131.56,189.77c-9.56,0-19.32-1.26-29.28-3.79-9.96-2.52-17.47-6.24-22.52-11.16v-54.25c5.19,4.5,12.66,8.43,22.42,11.77,9.76,3.35,18.87,5.02,27.33,5.02,11.06,0,16.58-2.25,16.58-6.76,0-2.18-1.64-3.85-4.91-5.02-3.28-1.16-7.34-1.95-12.18-2.35-4.85-.41-10.1-1.47-15.76-3.17-5.66-1.7-10.92-3.96-15.76-6.76-4.85-2.8-8.91-7.4-12.18-13.82-3.28-6.41-4.91-14.33-4.91-23.75,0-23.61,10.17-35.42,30.5-35.42,9.42,0,16.69,3.04,21.8,9.11,5.12,6.07,7.68,16.28,7.68,30.61h3.28V43.39h37.88V108.91l-34.6-.61c.27-4.64-1.13-8.56-4.2-11.77-3.07-3.21-7.27-4.81-12.59-4.81-8.05,0-12.08,2.66-12.08,7.98,0,3.82,2.28,6.72,6.86,8.7,4.57,1.98,10.1,3.52,16.58,4.61,6.48,1.09,13,2.66,19.55,4.71s12.11,5.87,16.69,11.46c4.57,5.6,6.86,13.04,6.86,22.32,0,12.01-4.64,21.39-13.92,28.15-9.28,6.76-22.32,10.13-39.1,10.13Z"/>
      <path class="cls-3" d="M94.87,94.89c-6.74,6.74-11.1,14.96-13.1,23.63h95.77c-2-8.67-6.36-16.89-13.1-23.63-19.18-19.18-50.39-19.18-69.57,0Z"/>
      <path class="cls-2" d="M98.56,235.28c1.8,1.34,4.35,1.28,6.1-.12,2.38-1.91,2.52-5.39,.43-7.49,1.96,1.96,5.14,1.96,7.1,0,1.96-1.96,1.96-5.14,0-7.1,1.96,1.96,5.14,1.96,7.1,0s1.96-5.14,0-7.1c2.1,2.1,5.58,1.95,7.49-.43,1.4-1.75,1.45-4.3,.12-6.1-1.09-1.47-2.77-2.15-4.4-2.04-.96,.07-1.93,0-2.86-.23l-16.78-4.2c-3.02-.76-6.22,.13-8.43,2.33h0c-2.2,2.2-3.09,5.4-2.33,8.43l4.2,16.78c.23,.94,.3,1.9,.23,2.86-.11,1.63,.57,3.3,2.04,4.4Z"/>
      <path class="cls-2" d="M160.74,235.28c-1.8,1.34-4.35,1.28-6.1-.12-2.38-1.91-2.52-5.39-.43-7.49-1.96,1.96-5.14,1.96-7.1,0-1.96-1.96-1.96-5.14,0-7.1-1.96,1.96-5.14,1.96-7.1,0s-1.96-5.14,0-7.1c-2.1,2.1-5.58,1.95-7.49-.43-1.4-1.75-1.45-4.3-.12-6.1,1.09-1.47,2.77-2.15,4.4-2.04,.96,.07,1.93,0,2.86-.23l16.78-4.2c3.02-.76,6.22,.13,8.43,2.33h0c2.2,2.2,3.09,5.4,2.33,8.43l-4.2,16.78c-.23,.94-.3,1.9-.23,2.86,.11,1.63-.57,3.3-2.04,4.4Z"/>
      <path class="cls-2" d="M56.49,202.84c10.6,10.6,27.78,10.6,38.38,0,10.6-10.6,10.6-27.78,0-38.38-12.44-12.44-16.8-29.94-13.1-45.94H26.85c-3.23,30.08,6.63,61.31,29.64,84.32Z"/>
      <path class="cls-2" d="M177.54,118.52c3.7,16-.66,33.5-13.1,45.94-10.6,10.6-10.6,27.78,0,38.38,5.3,5.3,12.24,7.95,19.19,7.95s13.89-2.65,19.19-7.95c23.01-23.01,32.87-54.24,29.64-84.32h-54.92Z"/>
    </g>
  </g>
</svg>