<?xml version="1.0" encoding="utf-8"?>
<!-- Generator: Adobe Illustrator 26.4.1, SVG Export Plug-In . SVG Version: 6.00 Build 0)  -->
<svg version="1.1" id="Layer_1" xmlns="http://www.w3.org/2000/svg" xmlns:xlink="http://www.w3.org/1999/xlink" x="0px" y="0px"
	 viewBox="0 0 551.2 262.5" style="enable-background:new 0 0 551.2 262.5;" xml:space="preserve">
<style type="text/css">
	.st0{fill:#1D1D1B;}
	.st1{fill:none;stroke:#E65F5C;stroke-width:52.5;stroke-miterlimit:10;}
	.st2{fill:none;stroke:#FFDA73;stroke-width:52.5;stroke-miterlimit:10;}
	.st3{fill:none;stroke:#86A5D9;stroke-width:52.5;stroke-miterlimit:10;}
	.st4{fill:#FFFFFF;}
	.st5{opacity:0.5;}
	.st6{opacity:0.3;}
</style>
<rect y="0" class="st0" width="551.2" height="262.5"/>
<path class="st1" d="M0,26.2h315c26.2,0,52.5-26.2,52.5-26.2L420-52.5"/>
<path class="st2" d="M0,131.2c0,0,420,0,472.5,0s52.5,52.5,52.5,52.5v78.8"/>
<line class="st3" x1="0" y1="78.8" x2="551.2" y2="78.8"/>
<g>
	<path class="st4" d="M29.7,226.9L29.7,226.9c1.7,0,3.1,1.4,3.1,3.1v0c0,1.7-1.4,3.1-3.1,3.1h0c-1.7,0-3.1-1.4-3.1-3.1v0
		C26.6,228.3,28,226.9,29.7,226.9z"/>
	<path class="st4" d="M29.7,220.6L29.7,220.6c1.7,0,3.1,1.4,3.1,3.1v0c0,1.7-1.4,3.1-3.1,3.1h0c-1.7,0-3.1-1.4-3.1-3.1v0
		C26.6,222,28,220.6,29.7,220.6z"/>
	<path class="st4" d="M29.7,214.4L29.7,214.4c1.7,0,3.1,1.4,3.1,3.1v0c0,1.7-1.4,3.1-3.1,3.1h0c-1.7,0-3.1-1.4-3.1-3.1v0
		C26.6,215.8,28,214.4,29.7,214.4z"/>
	<path class="st4" d="M54.7,239.4L54.7,239.4c1.7,0,3.1,1.4,3.1,3.1v0c0,1.7-1.4,3.1-3.1,3.1h0c-1.7,0-3.1-1.4-3.1-3.1v0
		C51.6,240.8,53,239.4,54.7,239.4z"/>
	<path class="st4" d="M48.4,239.4L48.4,239.4c1.7,0,3.1,1.4,3.1,3.1v0c0,1.7-1.4,3.1-3.1,3.1h0c-1.7,0-3.1-1.4-3.1-3.1v0
		C45.3,240.8,46.7,239.4,48.4,239.4z"/>
	<path class="st4" d="M42.2,239.4L42.2,239.4c1.7,0,3.1,1.4,3.1,3.1v0c0,1.7-1.4,3.1-3.1,3.1h0c-1.7,0-3.1-1.4-3.1-3.1v0
		C39.1,240.8,40.5,239.4,42.2,239.4z"/>
	<path class="st4" d="M35.9,233.1L35.9,233.1c1.7,0,3.1,1.4,3.1,3.1v0c0,1.7-1.4,3.1-3.1,3.1h0c-1.7,0-3.1-1.4-3.1-3.1v0
		C32.8,234.5,34.2,233.1,35.9,233.1z"/>
	<path class="st4" d="M60.9,233.1L60.9,233.1c1.7,0,3.1,1.4,3.1,3.1v0c0,1.7-1.4,3.1-3.1,3.1h0c-1.7,0-3.1-1.4-3.1-3.1v0
		C57.8,234.5,59.2,233.1,60.9,233.1z"/>
	<path class="st4" d="M67.2,226.9L67.2,226.9c1.7,0,3.1,1.4,3.1,3.1v0c0,1.7-1.4,3.1-3.1,3.1h0c-1.7,0-3.1-1.4-3.1-3.1v0
		C64.1,228.3,65.5,226.9,67.2,226.9z"/>
	<path class="st4" d="M67.2,220.6L67.2,220.6c1.7,0,3.1,1.4,3.1,3.1v0c0,1.7-1.4,3.1-3.1,3.1h0c-1.7,0-3.1-1.4-3.1-3.1v0
		C64.1,222,65.5,220.6,67.2,220.6z"/>
	<path class="st4" d="M67.2,214.4L67.2,214.4c1.7,0,3.1,1.4,3.1,3.1v0c0,1.7-1.4,3.1-3.1,3.1h0c-1.7,0-3.1-1.4-3.1-3.1v0
		C64.1,215.8,65.5,214.4,67.2,214.4z"/>
	<path class="st4" d="M60.9,208.1L60.9,208.1c1.7,0,3.1,1.4,3.1,3.1v0c0,1.7-1.4,3.1-3.1,3.1h0c-1.7,0-3.1-1.4-3.1-3.1v0
		C57.8,209.5,59.2,208.1,60.9,208.1z"/>
	<path class="st4" d="M35.9,208.1L35.9,208.1c1.7,0,3.1,1.4,3.1,3.1v0c0,1.7-1.4,3.1-3.1,3.1h0c-1.7,0-3.1-1.4-3.1-3.1v0
		C32.8,209.5,34.2,208.1,35.9,208.1z"/>
	<path class="st4" d="M48.4,220.6L48.4,220.6c1.7,0,3.1,1.4,3.1,3.1v0c0,1.7-1.4,3.1-3.1,3.1h0c-1.7,0-3.1-1.4-3.1-3.1v0
		C45.3,222,46.7,220.6,48.4,220.6z"/>
	<path class="st4" d="M54.7,214.4L54.7,214.4c1.7,0,3.1,1.4,3.1,3.1v0c0,1.7-1.4,3.1-3.1,3.1h0c-1.7,0-3.1-1.4-3.1-3.1v0
		C51.6,215.8,53,214.4,54.7,214.4z"/>
	<path class="st4" d="M54.7,208.1L54.7,208.1c1.7,0,3.1,1.4,3.1,3.1v0c0,1.7-1.4,3.1-3.1,3.1h0c-1.7,0-3.1-1.4-3.1-3.1v0
		C51.6,209.5,53,208.1,54.7,208.1z"/>
	<path class="st4" d="M54.7,201.9L54.7,201.9c1.7,0,3.1,1.4,3.1,3.1v0c0,1.7-1.4,3.1-3.1,3.1h0c-1.7,0-3.1-1.4-3.1-3.1v0
		C51.6,203.3,53,201.9,54.7,201.9z"/>
	<path class="st4" d="M48.4,201.9L48.4,201.9c1.7,0,3.1,1.4,3.1,3.1v0c0,1.7-1.4,3.1-3.1,3.1h0c-1.7,0-3.1-1.4-3.1-3.1v0
		C45.3,203.3,46.7,201.9,48.4,201.9z"/>
	<path class="st4" d="M42.2,201.9L42.2,201.9c1.7,0,3.1,1.4,3.1,3.1v0c0,1.7-1.4,3.1-3.1,3.1h0c-1.7,0-3.1-1.4-3.1-3.1v0
		C39.1,203.3,40.5,201.9,42.2,201.9z"/>
	<path class="st4" d="M54.7,195.6L54.7,195.6c1.7,0,3.1,1.4,3.1,3.1v0c0,1.7-1.4,3.1-3.1,3.1h0c-1.7,0-3.1-1.4-3.1-3.1v0
		C51.6,197,53,195.6,54.7,195.6z"/>
	<path class="st4" d="M54.7,189.4L54.7,189.4c1.7,0,3.1,1.4,3.1,3.1v0c0,1.7-1.4,3.1-3.1,3.1h0c-1.7,0-3.1-1.4-3.1-3.1v0
		C51.6,190.8,53,189.4,54.7,189.4z"/>
	<path class="st4" d="M60.9,189.4L60.9,189.4c1.7,0,3.1,1.4,3.1,3.1v0c0,1.7-1.4,3.1-3.1,3.1h0c-1.7,0-3.1-1.4-3.1-3.1v0
		C57.8,190.8,59.2,189.4,60.9,189.4z"/>
	<path class="st4" d="M67.2,189.4L67.2,189.4c1.7,0,3.1,1.4,3.1,3.1v0c0,1.7-1.4,3.1-3.1,3.1h0c-1.7,0-3.1-1.4-3.1-3.1v0
		C64.1,190.8,65.5,189.4,67.2,189.4z"/>
	<path class="st4" d="M73.4,189.4L73.4,189.4c1.7,0,3.1,1.4,3.1,3.1v0c0,1.7-1.4,3.1-3.1,3.1h0c-1.7,0-3.1-1.4-3.1-3.1v0
		C70.3,190.8,71.7,189.4,73.4,189.4z"/>
	<path class="st4" d="M79.7,189.4L79.7,189.4c1.7,0,3.1,1.4,3.1,3.1v0c0,1.7-1.4,3.1-3.1,3.1h0c-1.7,0-3.1-1.4-3.1-3.1v0
		C76.6,190.8,78,189.4,79.7,189.4z"/>
	<path class="st4" d="M85.9,189.4L85.9,189.4c1.7,0,3.1,1.4,3.1,3.1v0c0,1.7-1.4,3.1-3.1,3.1h0c-1.7,0-3.1-1.4-3.1-3.1v0
		C82.8,190.8,84.2,189.4,85.9,189.4z"/>
	<path class="st4" d="M92.2,189.4L92.2,189.4c1.7,0,3.1,1.4,3.1,3.1v0c0,1.7-1.4,3.1-3.1,3.1h0c-1.7,0-3.1-1.4-3.1-3.1v0
		C89.1,190.8,90.5,189.4,92.2,189.4z"/>
	<path class="st4" d="M54.7,183.1L54.7,183.1c1.7,0,3.1,1.4,3.1,3.1v0c0,1.7-1.4,3.1-3.1,3.1h0c-1.7,0-3.1-1.4-3.1-3.1v0
		C51.6,184.5,53,183.1,54.7,183.1z"/>
	<path class="st4" d="M48.4,176.9L48.4,176.9c1.7,0,3.1,1.4,3.1,3.1v0c0,1.7-1.4,3.1-3.1,3.1h0c-1.7,0-3.1-1.4-3.1-3.1v0
		C45.3,178.3,46.7,176.9,48.4,176.9z"/>
	<path class="st4" d="M35.9,170.6L35.9,170.6c1.7,0,3.1,1.4,3.1,3.1v0c0,1.7-1.4,3.1-3.1,3.1h0c-1.7,0-3.1-1.4-3.1-3.1v0
		C32.8,172,34.2,170.6,35.9,170.6z"/>
	<path class="st4" d="M92.2,183.1L92.2,183.1c1.7,0,3.1,1.4,3.1,3.1v0c0,1.7-1.4,3.1-3.1,3.1h0c-1.7,0-3.1-1.4-3.1-3.1v0
		C89.1,184.5,90.5,183.1,92.2,183.1z"/>
	<path class="st4" d="M98.4,183.1L98.4,183.1c1.7,0,3.1,1.4,3.1,3.1v0c0,1.7-1.4,3.1-3.1,3.1h0c-1.7,0-3.1-1.4-3.1-3.1v0
		C95.3,184.5,96.7,183.1,98.4,183.1z"/>
	<path class="st4" d="M67.2,195.6L67.2,195.6c1.7,0,3.1,1.4,3.1,3.1v0c0,1.7-1.4,3.1-3.1,3.1h0c-1.7,0-3.1-1.4-3.1-3.1v0
		C64.1,197,65.5,195.6,67.2,195.6z"/>
	<path class="st4" d="M73.4,201.9L73.4,201.9c1.7,0,3.1,1.4,3.1,3.1v0c0,1.7-1.4,3.1-3.1,3.1h0c-1.7,0-3.1-1.4-3.1-3.1v0
		C70.3,203.3,71.7,201.9,73.4,201.9z"/>
	<path class="st4" d="M79.7,208.1L79.7,208.1c1.7,0,3.1,1.4,3.1,3.1v0c0,1.7-1.4,3.1-3.1,3.1h0c-1.7,0-3.1-1.4-3.1-3.1v0
		C76.6,209.5,78,208.1,79.7,208.1z"/>
	<path class="st4" d="M92.2,214.4L92.2,214.4c1.7,0,3.1,1.4,3.1,3.1v0c0,1.7-1.4,3.1-3.1,3.1h0c-1.7,0-3.1-1.4-3.1-3.1v0
		C89.1,215.8,90.5,214.4,92.2,214.4z"/>
	<path class="st4" d="M110.9,220.6L110.9,220.6c1.7,0,3.1,1.4,3.1,3.1v0c0,1.7-1.4,3.1-3.1,3.1h0c-1.7,0-3.1-1.4-3.1-3.1v0
		C107.8,222,109.2,220.6,110.9,220.6z"/>
	<path class="st4" d="M104.7,220.6L104.7,220.6c1.7,0,3.1,1.4,3.1,3.1v0c0,1.7-1.4,3.1-3.1,3.1h0c-1.7,0-3.1-1.4-3.1-3.1v0
		C101.6,222,103,220.6,104.7,220.6z"/>
	<path class="st4" d="M98.4,220.6L98.4,220.6c1.7,0,3.1,1.4,3.1,3.1v0c0,1.7-1.4,3.1-3.1,3.1h0c-1.7,0-3.1-1.4-3.1-3.1v0
		C95.3,222,96.7,220.6,98.4,220.6z"/>
	<path class="st4" d="M104.7,214.4L104.7,214.4c1.7,0,3.1,1.4,3.1,3.1v0c0,1.7-1.4,3.1-3.1,3.1h0c-1.7,0-3.1-1.4-3.1-3.1v0
		C101.6,215.8,103,214.4,104.7,214.4z"/>
	<path class="st4" d="M98.4,208.1L98.4,208.1c1.7,0,3.1,1.4,3.1,3.1v0c0,1.7-1.4,3.1-3.1,3.1h0c-1.7,0-3.1-1.4-3.1-3.1v0
		C95.3,209.5,96.7,208.1,98.4,208.1z"/>
	<path class="st4" d="M92.2,201.9L92.2,201.9c1.7,0,3.1,1.4,3.1,3.1v0c0,1.7-1.4,3.1-3.1,3.1h0c-1.7,0-3.1-1.4-3.1-3.1v0
		C89.1,203.3,90.5,201.9,92.2,201.9z"/>
	<path class="st4" d="M92.2,195.6L92.2,195.6c1.7,0,3.1,1.4,3.1,3.1v0c0,1.7-1.4,3.1-3.1,3.1h0c-1.7,0-3.1-1.4-3.1-3.1v0
		C89.1,197,90.5,195.6,92.2,195.6z"/>
	<path class="st4" d="M117.2,239.4L117.2,239.4c1.7,0,3.1,1.4,3.1,3.1v0c0,1.7-1.4,3.1-3.1,3.1h0c-1.7,0-3.1-1.4-3.1-3.1v0
		C114.1,240.8,115.5,239.4,117.2,239.4z"/>
	<path class="st4" d="M110.9,239.4L110.9,239.4c1.7,0,3.1,1.4,3.1,3.1v0c0,1.7-1.4,3.1-3.1,3.1h0c-1.7,0-3.1-1.4-3.1-3.1v0
		C107.8,240.8,109.2,239.4,110.9,239.4z"/>
	<path class="st4" d="M104.7,239.4L104.7,239.4c1.7,0,3.1,1.4,3.1,3.1v0c0,1.7-1.4,3.1-3.1,3.1h0c-1.7,0-3.1-1.4-3.1-3.1v0
		C101.6,240.8,103,239.4,104.7,239.4z"/>
	<path class="st4" d="M98.4,233.1L98.4,233.1c1.7,0,3.1,1.4,3.1,3.1v0c0,1.7-1.4,3.1-3.1,3.1h0c-1.7,0-3.1-1.4-3.1-3.1v0
		C95.3,234.5,96.7,233.1,98.4,233.1z"/>
	<path class="st4" d="M123.4,233.1L123.4,233.1c1.7,0,3.1,1.4,3.1,3.1v0c0,1.7-1.4,3.1-3.1,3.1h0c-1.7,0-3.1-1.4-3.1-3.1v0
		C120.3,234.5,121.7,233.1,123.4,233.1z"/>
	<path class="st4" d="M129.7,226.9L129.7,226.9c1.7,0,3.1,1.4,3.1,3.1v0c0,1.7-1.4,3.1-3.1,3.1h0c-1.7,0-3.1-1.4-3.1-3.1v0
		C126.6,228.3,128,226.9,129.7,226.9z"/>
	<path class="st4" d="M129.7,220.6L129.7,220.6c1.7,0,3.1,1.4,3.1,3.1v0c0,1.7-1.4,3.1-3.1,3.1h0c-1.7,0-3.1-1.4-3.1-3.1v0
		C126.6,222,128,220.6,129.7,220.6z"/>
	<path class="st4" d="M129.7,214.4L129.7,214.4c1.7,0,3.1,1.4,3.1,3.1v0c0,1.7-1.4,3.1-3.1,3.1h0c-1.7,0-3.1-1.4-3.1-3.1v0
		C126.6,215.8,128,214.4,129.7,214.4z"/>
	<path class="st4" d="M123.4,208.1L123.4,208.1c1.7,0,3.1,1.4,3.1,3.1v0c0,1.7-1.4,3.1-3.1,3.1h0c-1.7,0-3.1-1.4-3.1-3.1v0
		C120.3,209.5,121.7,208.1,123.4,208.1z"/>
	<path class="st4" d="M104.7,201.9L104.7,201.9c1.7,0,3.1,1.4,3.1,3.1v0c0,1.7-1.4,3.1-3.1,3.1h0c-1.7,0-3.1-1.4-3.1-3.1v0
		C101.6,203.3,103,201.9,104.7,201.9z"/>
	<path class="st4" d="M110.9,201.9L110.9,201.9c1.7,0,3.1,1.4,3.1,3.1v0c0,1.7-1.4,3.1-3.1,3.1h0c-1.7,0-3.1-1.4-3.1-3.1v0
		C107.8,203.3,109.2,201.9,110.9,201.9z"/>
	<path class="st4" d="M117.2,201.9L117.2,201.9c1.7,0,3.1,1.4,3.1,3.1v0c0,1.7-1.4,3.1-3.1,3.1h0c-1.7,0-3.1-1.4-3.1-3.1v0
		C114.1,203.3,115.5,201.9,117.2,201.9z"/>
	<path class="st4" d="M92.2,220.6L92.2,220.6c1.7,0,3.1,1.4,3.1,3.1v0c0,1.7-1.4,3.1-3.1,3.1h0c-1.7,0-3.1-1.4-3.1-3.1v0
		C89.1,222,90.5,220.6,92.2,220.6z"/>
	<path class="st4" d="M42.2,170.6L42.2,170.6c1.7,0,3.1,1.4,3.1,3.1v0c0,1.7-1.4,3.1-3.1,3.1h0c-1.7,0-3.1-1.4-3.1-3.1v0
		C39.1,172,40.5,170.6,42.2,170.6z"/>
	<path class="st4" d="M42.2,176.9L42.2,176.9c1.7,0,3.1,1.4,3.1,3.1v0c0,1.7-1.4,3.1-3.1,3.1h0c-1.7,0-3.1-1.4-3.1-3.1v0
		C39.1,178.3,40.5,176.9,42.2,176.9z"/>
	<path class="st4" d="M85.9,214.4L85.9,214.4c1.7,0,3.1,1.4,3.1,3.1v0c0,1.7-1.4,3.1-3.1,3.1h0c-1.7,0-3.1-1.4-3.1-3.1v0
		C82.8,215.8,84.2,214.4,85.9,214.4z"/>
	<path class="st4" d="M92.2,226.9L92.2,226.9c1.7,0,3.1,1.4,3.1,3.1v0c0,1.7-1.4,3.1-3.1,3.1h0c-1.7,0-3.1-1.4-3.1-3.1v0
		C89.1,228.3,90.5,226.9,92.2,226.9z"/>
</g>
<g class="st5">
	<path class="st4" d="M164.7,226.9L164.7,226.9c1.7,0,3.1,1.4,3.1,3.1v0c0,1.7-1.4,3.1-3.1,3.1h0c-1.7,0-3.1-1.4-3.1-3.1v0
		C161.6,228.3,163,226.9,164.7,226.9z"/>
	<path class="st4" d="M164.7,220.6L164.7,220.6c1.7,0,3.1,1.4,3.1,3.1v0c0,1.7-1.4,3.1-3.1,3.1h0c-1.7,0-3.1-1.4-3.1-3.1v0
		C161.6,222,163,220.6,164.7,220.6z"/>
	<path class="st4" d="M164.7,214.4L164.7,214.4c1.7,0,3.1,1.4,3.1,3.1v0c0,1.7-1.4,3.1-3.1,3.1h0c-1.7,0-3.1-1.4-3.1-3.1v0
		C161.6,215.8,163,214.4,164.7,214.4z"/>
	<path class="st4" d="M189.7,239.4L189.7,239.4c1.7,0,3.1,1.4,3.1,3.1v0c0,1.7-1.4,3.1-3.1,3.1h0c-1.7,0-3.1-1.4-3.1-3.1v0
		C186.6,240.8,188,239.4,189.7,239.4z"/>
	<path class="st4" d="M183.5,239.4L183.5,239.4c1.7,0,3.1,1.4,3.1,3.1v0c0,1.7-1.4,3.1-3.1,3.1h0c-1.7,0-3.1-1.4-3.1-3.1v0
		C180.3,240.8,181.7,239.4,183.5,239.4z"/>
	<path class="st4" d="M177.2,239.4L177.2,239.4c1.7,0,3.1,1.4,3.1,3.1v0c0,1.7-1.4,3.1-3.1,3.1h0c-1.7,0-3.1-1.4-3.1-3.1v0
		C174.1,240.8,175.5,239.4,177.2,239.4z"/>
	<path class="st4" d="M171,233.1L171,233.1c1.7,0,3.1,1.4,3.1,3.1v0c0,1.7-1.4,3.1-3.1,3.1h0c-1.7,0-3.1-1.4-3.1-3.1v0
		C167.8,234.5,169.2,233.1,171,233.1z"/>
	<path class="st4" d="M196,233.1L196,233.1c1.7,0,3.1,1.4,3.1,3.1v0c0,1.7-1.4,3.1-3.1,3.1h0c-1.7,0-3.1-1.4-3.1-3.1v0
		C192.8,234.5,194.2,233.1,196,233.1z"/>
	<path class="st4" d="M202.2,226.9L202.2,226.9c1.7,0,3.1,1.4,3.1,3.1v0c0,1.7-1.4,3.1-3.1,3.1h0c-1.7,0-3.1-1.4-3.1-3.1v0
		C199.1,228.3,200.5,226.9,202.2,226.9z"/>
	<path class="st4" d="M202.2,220.6L202.2,220.6c1.7,0,3.1,1.4,3.1,3.1v0c0,1.7-1.4,3.1-3.1,3.1h0c-1.7,0-3.1-1.4-3.1-3.1v0
		C199.1,222,200.5,220.6,202.2,220.6z"/>
	<path class="st4" d="M202.2,214.4L202.2,214.4c1.7,0,3.1,1.4,3.1,3.1v0c0,1.7-1.4,3.1-3.1,3.1h0c-1.7,0-3.1-1.4-3.1-3.1v0
		C199.1,215.8,200.5,214.4,202.2,214.4z"/>
	<path class="st4" d="M196,208.1L196,208.1c1.7,0,3.1,1.4,3.1,3.1v0c0,1.7-1.4,3.1-3.1,3.1h0c-1.7,0-3.1-1.4-3.1-3.1v0
		C192.8,209.5,194.2,208.1,196,208.1z"/>
	<path class="st4" d="M171,208.1L171,208.1c1.7,0,3.1,1.4,3.1,3.1v0c0,1.7-1.4,3.1-3.1,3.1h0c-1.7,0-3.1-1.4-3.1-3.1v0
		C167.8,209.5,169.2,208.1,171,208.1z"/>
	<path class="st4" d="M183.5,220.6L183.5,220.6c1.7,0,3.1,1.4,3.1,3.1v0c0,1.7-1.4,3.1-3.1,3.1h0c-1.7,0-3.1-1.4-3.1-3.1v0
		C180.3,222,181.7,220.6,183.5,220.6z"/>
	<path class="st4" d="M189.7,214.4L189.7,214.4c1.7,0,3.1,1.4,3.1,3.1v0c0,1.7-1.4,3.1-3.1,3.1h0c-1.7,0-3.1-1.4-3.1-3.1v0
		C186.6,215.8,188,214.4,189.7,214.4z"/>
	<path class="st4" d="M189.7,208.1L189.7,208.1c1.7,0,3.1,1.4,3.1,3.1v0c0,1.7-1.4,3.1-3.1,3.1h0c-1.7,0-3.1-1.4-3.1-3.1v0
		C186.6,209.5,188,208.1,189.7,208.1z"/>
	<path class="st4" d="M189.7,201.9L189.7,201.9c1.7,0,3.1,1.4,3.1,3.1v0c0,1.7-1.4,3.1-3.1,3.1h0c-1.7,0-3.1-1.4-3.1-3.1v0
		C186.6,203.3,188,201.9,189.7,201.9z"/>
	<path class="st4" d="M183.5,201.9L183.5,201.9c1.7,0,3.1,1.4,3.1,3.1v0c0,1.7-1.4,3.1-3.1,3.1h0c-1.7,0-3.1-1.4-3.1-3.1v0
		C180.3,203.3,181.7,201.9,183.5,201.9z"/>
	<path class="st4" d="M177.2,201.9L177.2,201.9c1.7,0,3.1,1.4,3.1,3.1v0c0,1.7-1.4,3.1-3.1,3.1h0c-1.7,0-3.1-1.4-3.1-3.1v0
		C174.1,203.3,175.5,201.9,177.2,201.9z"/>
	<path class="st4" d="M189.7,195.6L189.7,195.6c1.7,0,3.1,1.4,3.1,3.1v0c0,1.7-1.4,3.1-3.1,3.1h0c-1.7,0-3.1-1.4-3.1-3.1v0
		C186.6,197,188,195.6,189.7,195.6z"/>
	<path class="st4" d="M189.7,189.4L189.7,189.4c1.7,0,3.1,1.4,3.1,3.1v0c0,1.7-1.4,3.1-3.1,3.1h0c-1.7,0-3.1-1.4-3.1-3.1v0
		C186.6,190.8,188,189.4,189.7,189.4z"/>
	<path class="st4" d="M196,189.4L196,189.4c1.7,0,3.1,1.4,3.1,3.1v0c0,1.7-1.4,3.1-3.1,3.1h0c-1.7,0-3.1-1.4-3.1-3.1v0
		C192.8,190.8,194.2,189.4,196,189.4z"/>
	<path class="st4" d="M202.2,189.4L202.2,189.4c1.7,0,3.1,1.4,3.1,3.1v0c0,1.7-1.4,3.1-3.1,3.1h0c-1.7,0-3.1-1.4-3.1-3.1v0
		C199.1,190.8,200.5,189.4,202.2,189.4z"/>
	<path class="st4" d="M208.5,189.4L208.5,189.4c1.7,0,3.1,1.4,3.1,3.1v0c0,1.7-1.4,3.1-3.1,3.1h0c-1.7,0-3.1-1.4-3.1-3.1v0
		C205.3,190.8,206.7,189.4,208.5,189.4z"/>
	<path class="st4" d="M214.7,189.4L214.7,189.4c1.7,0,3.1,1.4,3.1,3.1v0c0,1.7-1.4,3.1-3.1,3.1h0c-1.7,0-3.1-1.4-3.1-3.1v0
		C211.6,190.8,213,189.4,214.7,189.4z"/>
	<path class="st4" d="M221,189.4L221,189.4c1.7,0,3.1,1.4,3.1,3.1v0c0,1.7-1.4,3.1-3.1,3.1h0c-1.7,0-3.1-1.4-3.1-3.1v0
		C217.8,190.8,219.2,189.4,221,189.4z"/>
	<path class="st4" d="M227.2,189.4L227.2,189.4c1.7,0,3.1,1.4,3.1,3.1v0c0,1.7-1.4,3.1-3.1,3.1h0c-1.7,0-3.1-1.4-3.1-3.1v0
		C224.1,190.8,225.5,189.4,227.2,189.4z"/>
	<path class="st4" d="M189.7,183.1L189.7,183.1c1.7,0,3.1,1.4,3.1,3.1v0c0,1.7-1.4,3.1-3.1,3.1h0c-1.7,0-3.1-1.4-3.1-3.1v0
		C186.6,184.5,188,183.1,189.7,183.1z"/>
	<path class="st4" d="M183.5,176.9L183.5,176.9c1.7,0,3.1,1.4,3.1,3.1v0c0,1.7-1.4,3.1-3.1,3.1h0c-1.7,0-3.1-1.4-3.1-3.1v0
		C180.3,178.3,181.7,176.9,183.5,176.9z"/>
	<path class="st4" d="M171,170.6L171,170.6c1.7,0,3.1,1.4,3.1,3.1v0c0,1.7-1.4,3.1-3.1,3.1h0c-1.7,0-3.1-1.4-3.1-3.1v0
		C167.8,172,169.2,170.6,171,170.6z"/>
	<path class="st4" d="M227.2,183.1L227.2,183.1c1.7,0,3.1,1.4,3.1,3.1v0c0,1.7-1.4,3.1-3.1,3.1h0c-1.7,0-3.1-1.4-3.1-3.1v0
		C224.1,184.5,225.5,183.1,227.2,183.1z"/>
	<path class="st4" d="M233.5,183.1L233.5,183.1c1.7,0,3.1,1.4,3.1,3.1v0c0,1.7-1.4,3.1-3.1,3.1h0c-1.7,0-3.1-1.4-3.1-3.1v0
		C230.3,184.5,231.7,183.1,233.5,183.1z"/>
	<path class="st4" d="M202.2,195.6L202.2,195.6c1.7,0,3.1,1.4,3.1,3.1v0c0,1.7-1.4,3.1-3.1,3.1h0c-1.7,0-3.1-1.4-3.1-3.1v0
		C199.1,197,200.5,195.6,202.2,195.6z"/>
	<path class="st4" d="M208.5,201.9L208.5,201.9c1.7,0,3.1,1.4,3.1,3.1v0c0,1.7-1.4,3.1-3.1,3.1h0c-1.7,0-3.1-1.4-3.1-3.1v0
		C205.3,203.3,206.7,201.9,208.5,201.9z"/>
	<path class="st4" d="M214.7,208.1L214.7,208.1c1.7,0,3.1,1.4,3.1,3.1v0c0,1.7-1.4,3.1-3.1,3.1h0c-1.7,0-3.1-1.4-3.1-3.1v0
		C211.6,209.5,213,208.1,214.7,208.1z"/>
	<path class="st4" d="M227.2,214.4L227.2,214.4c1.7,0,3.1,1.4,3.1,3.1v0c0,1.7-1.4,3.1-3.1,3.1h0c-1.7,0-3.1-1.4-3.1-3.1v0
		C224.1,215.8,225.5,214.4,227.2,214.4z"/>
	<path class="st4" d="M246,220.6L246,220.6c1.7,0,3.1,1.4,3.1,3.1v0c0,1.7-1.4,3.1-3.1,3.1h0c-1.7,0-3.1-1.4-3.1-3.1v0
		C242.8,222,244.2,220.6,246,220.6z"/>
	<path class="st4" d="M239.7,220.6L239.7,220.6c1.7,0,3.1,1.4,3.1,3.1v0c0,1.7-1.4,3.1-3.1,3.1h0c-1.7,0-3.1-1.4-3.1-3.1v0
		C236.6,222,238,220.6,239.7,220.6z"/>
	<path class="st4" d="M233.5,220.6L233.5,220.6c1.7,0,3.1,1.4,3.1,3.1v0c0,1.7-1.4,3.1-3.1,3.1h0c-1.7,0-3.1-1.4-3.1-3.1v0
		C230.3,222,231.7,220.6,233.5,220.6z"/>
	<path class="st4" d="M239.7,214.4L239.7,214.4c1.7,0,3.1,1.4,3.1,3.1v0c0,1.7-1.4,3.1-3.1,3.1h0c-1.7,0-3.1-1.4-3.1-3.1v0
		C236.6,215.8,238,214.4,239.7,214.4z"/>
	<path class="st4" d="M233.5,208.1L233.5,208.1c1.7,0,3.1,1.4,3.1,3.1v0c0,1.7-1.4,3.1-3.1,3.1h0c-1.7,0-3.1-1.4-3.1-3.1v0
		C230.3,209.5,231.7,208.1,233.5,208.1z"/>
	<path class="st4" d="M227.2,201.9L227.2,201.9c1.7,0,3.1,1.4,3.1,3.1v0c0,1.7-1.4,3.1-3.1,3.1h0c-1.7,0-3.1-1.4-3.1-3.1v0
		C224.1,203.3,225.5,201.9,227.2,201.9z"/>
	<path class="st4" d="M227.2,195.6L227.2,195.6c1.7,0,3.1,1.4,3.1,3.1v0c0,1.7-1.4,3.1-3.1,3.1h0c-1.7,0-3.1-1.4-3.1-3.1v0
		C224.1,197,225.5,195.6,227.2,195.6z"/>
	<path class="st4" d="M252.2,239.4L252.2,239.4c1.7,0,3.1,1.4,3.1,3.1v0c0,1.7-1.4,3.1-3.1,3.1h0c-1.7,0-3.1-1.4-3.1-3.1v0
		C249.1,240.8,250.5,239.4,252.2,239.4z"/>
	<path class="st4" d="M246,239.4L246,239.4c1.7,0,3.1,1.4,3.1,3.1v0c0,1.7-1.4,3.1-3.1,3.1h0c-1.7,0-3.1-1.4-3.1-3.1v0
		C242.8,240.8,244.2,239.4,246,239.4z"/>
	<path class="st4" d="M239.7,239.4L239.7,239.4c1.7,0,3.1,1.4,3.1,3.1v0c0,1.7-1.4,3.1-3.1,3.1h0c-1.7,0-3.1-1.4-3.1-3.1v0
		C236.6,240.8,238,239.4,239.7,239.4z"/>
	<path class="st4" d="M233.5,233.1L233.5,233.1c1.7,0,3.1,1.4,3.1,3.1v0c0,1.7-1.4,3.1-3.1,3.1h0c-1.7,0-3.1-1.4-3.1-3.1v0
		C230.3,234.5,231.7,233.1,233.5,233.1z"/>
	<path class="st4" d="M258.5,233.1L258.5,233.1c1.7,0,3.1,1.4,3.1,3.1v0c0,1.7-1.4,3.1-3.1,3.1h0c-1.7,0-3.1-1.4-3.1-3.1v0
		C255.3,234.5,256.7,233.1,258.5,233.1z"/>
	<path class="st4" d="M264.7,226.9L264.7,226.9c1.7,0,3.1,1.4,3.1,3.1v0c0,1.7-1.4,3.1-3.1,3.1h0c-1.7,0-3.1-1.4-3.1-3.1v0
		C261.6,228.3,263,226.9,264.7,226.9z"/>
	<path class="st4" d="M264.7,220.6L264.7,220.6c1.7,0,3.1,1.4,3.1,3.1v0c0,1.7-1.4,3.1-3.1,3.1h0c-1.7,0-3.1-1.4-3.1-3.1v0
		C261.6,222,263,220.6,264.7,220.6z"/>
	<path class="st4" d="M264.7,214.4L264.7,214.4c1.7,0,3.1,1.4,3.1,3.1v0c0,1.7-1.4,3.1-3.1,3.1h0c-1.7,0-3.1-1.4-3.1-3.1v0
		C261.6,215.8,263,214.4,264.7,214.4z"/>
	<path class="st4" d="M258.5,208.1L258.5,208.1c1.7,0,3.1,1.4,3.1,3.1v0c0,1.7-1.4,3.1-3.1,3.1h0c-1.7,0-3.1-1.4-3.1-3.1v0
		C255.3,209.5,256.7,208.1,258.5,208.1z"/>
	<path class="st4" d="M239.7,201.9L239.7,201.9c1.7,0,3.1,1.4,3.1,3.1v0c0,1.7-1.4,3.1-3.1,3.1h0c-1.7,0-3.1-1.4-3.1-3.1v0
		C236.6,203.3,238,201.9,239.7,201.9z"/>
	<path class="st4" d="M246,201.9L246,201.9c1.7,0,3.1,1.4,3.1,3.1v0c0,1.7-1.4,3.1-3.1,3.1h0c-1.7,0-3.1-1.4-3.1-3.1v0
		C242.8,203.3,244.2,201.9,246,201.9z"/>
	<path class="st4" d="M252.2,201.9L252.2,201.9c1.7,0,3.1,1.4,3.1,3.1v0c0,1.7-1.4,3.1-3.1,3.1h0c-1.7,0-3.1-1.4-3.1-3.1v0
		C249.1,203.3,250.5,201.9,252.2,201.9z"/>
	<path class="st4" d="M227.2,220.6L227.2,220.6c1.7,0,3.1,1.4,3.1,3.1v0c0,1.7-1.4,3.1-3.1,3.1h0c-1.7,0-3.1-1.4-3.1-3.1v0
		C224.1,222,225.5,220.6,227.2,220.6z"/>
	<path class="st4" d="M177.2,170.6L177.2,170.6c1.7,0,3.1,1.4,3.1,3.1v0c0,1.7-1.4,3.1-3.1,3.1h0c-1.7,0-3.1-1.4-3.1-3.1v0
		C174.1,172,175.5,170.6,177.2,170.6z"/>
	<path class="st4" d="M177.2,176.9L177.2,176.9c1.7,0,3.1,1.4,3.1,3.1v0c0,1.7-1.4,3.1-3.1,3.1h0c-1.7,0-3.1-1.4-3.1-3.1v0
		C174.1,178.3,175.5,176.9,177.2,176.9z"/>
	<path class="st4" d="M221,214.4L221,214.4c1.7,0,3.1,1.4,3.1,3.1v0c0,1.7-1.4,3.1-3.1,3.1h0c-1.7,0-3.1-1.4-3.1-3.1v0
		C217.8,215.8,219.2,214.4,221,214.4z"/>
	<path class="st4" d="M227.2,226.9L227.2,226.9c1.7,0,3.1,1.4,3.1,3.1v0c0,1.7-1.4,3.1-3.1,3.1h0c-1.7,0-3.1-1.4-3.1-3.1v0
		C224.1,228.3,225.5,226.9,227.2,226.9z"/>
</g>
<g class="st6">
	<path class="st4" d="M299.7,226.9L299.7,226.9c1.7,0,3.1,1.4,3.1,3.1v0c0,1.7-1.4,3.1-3.1,3.1h0c-1.7,0-3.1-1.4-3.1-3.1v0
		C296.6,228.3,298,226.9,299.7,226.9z"/>
	<path class="st4" d="M299.7,220.6L299.7,220.6c1.7,0,3.1,1.4,3.1,3.1v0c0,1.7-1.4,3.1-3.1,3.1h0c-1.7,0-3.1-1.4-3.1-3.1v0
		C296.6,222,298,220.6,299.7,220.6z"/>
	<path class="st4" d="M299.7,214.4L299.7,214.4c1.7,0,3.1,1.4,3.1,3.1v0c0,1.7-1.4,3.1-3.1,3.1h0c-1.7,0-3.1-1.4-3.1-3.1v0
		C296.6,215.8,298,214.4,299.7,214.4z"/>
	<path class="st4" d="M324.7,239.4L324.7,239.4c1.7,0,3.1,1.4,3.1,3.1v0c0,1.7-1.4,3.1-3.1,3.1h0c-1.7,0-3.1-1.4-3.1-3.1v0
		C321.6,240.8,323,239.4,324.7,239.4z"/>
	<path class="st4" d="M318.5,239.4L318.5,239.4c1.7,0,3.1,1.4,3.1,3.1v0c0,1.7-1.4,3.1-3.1,3.1h0c-1.7,0-3.1-1.4-3.1-3.1v0
		C315.4,240.8,316.8,239.4,318.5,239.4z"/>
	<path class="st4" d="M312.2,239.4L312.2,239.4c1.7,0,3.1,1.4,3.1,3.1v0c0,1.7-1.4,3.1-3.1,3.1h0c-1.7,0-3.1-1.4-3.1-3.1v0
		C309.1,240.8,310.5,239.4,312.2,239.4z"/>
	<path class="st4" d="M306,233.1L306,233.1c1.7,0,3.1,1.4,3.1,3.1v0c0,1.7-1.4,3.1-3.1,3.1h0c-1.7,0-3.1-1.4-3.1-3.1v0
		C302.9,234.5,304.3,233.1,306,233.1z"/>
	<path class="st4" d="M331,233.1L331,233.1c1.7,0,3.1,1.4,3.1,3.1v0c0,1.7-1.4,3.1-3.1,3.1h0c-1.7,0-3.1-1.4-3.1-3.1v0
		C327.9,234.5,329.3,233.1,331,233.1z"/>
	<path class="st4" d="M337.2,226.9L337.2,226.9c1.7,0,3.1,1.4,3.1,3.1v0c0,1.7-1.4,3.1-3.1,3.1h0c-1.7,0-3.1-1.4-3.1-3.1v0
		C334.1,228.3,335.5,226.9,337.2,226.9z"/>
	<path class="st4" d="M337.2,220.6L337.2,220.6c1.7,0,3.1,1.4,3.1,3.1v0c0,1.7-1.4,3.1-3.1,3.1h0c-1.7,0-3.1-1.4-3.1-3.1v0
		C334.1,222,335.5,220.6,337.2,220.6z"/>
	<path class="st4" d="M337.2,214.4L337.2,214.4c1.7,0,3.1,1.4,3.1,3.1v0c0,1.7-1.4,3.1-3.1,3.1h0c-1.7,0-3.1-1.4-3.1-3.1v0
		C334.1,215.8,335.5,214.4,337.2,214.4z"/>
	<path class="st4" d="M331,208.1L331,208.1c1.7,0,3.1,1.4,3.1,3.1v0c0,1.7-1.4,3.1-3.1,3.1h0c-1.7,0-3.1-1.4-3.1-3.1v0
		C327.9,209.5,329.3,208.1,331,208.1z"/>
	<path class="st4" d="M306,208.1L306,208.1c1.7,0,3.1,1.4,3.1,3.1v0c0,1.7-1.4,3.1-3.1,3.1h0c-1.7,0-3.1-1.4-3.1-3.1v0
		C302.9,209.5,304.3,208.1,306,208.1z"/>
	<path class="st4" d="M318.5,220.6L318.5,220.6c1.7,0,3.1,1.4,3.1,3.1v0c0,1.7-1.4,3.1-3.1,3.1h0c-1.7,0-3.1-1.4-3.1-3.1v0
		C315.4,222,316.8,220.6,318.5,220.6z"/>
	<path class="st4" d="M324.7,214.4L324.7,214.4c1.7,0,3.1,1.4,3.1,3.1v0c0,1.7-1.4,3.1-3.1,3.1h0c-1.7,0-3.1-1.4-3.1-3.1v0
		C321.6,215.8,323,214.4,324.7,214.4z"/>
	<path class="st4" d="M324.7,208.1L324.7,208.1c1.7,0,3.1,1.4,3.1,3.1v0c0,1.7-1.4,3.1-3.1,3.1h0c-1.7,0-3.1-1.4-3.1-3.1v0
		C321.6,209.5,323,208.1,324.7,208.1z"/>
	<path class="st4" d="M324.7,201.9L324.7,201.9c1.7,0,3.1,1.4,3.1,3.1v0c0,1.7-1.4,3.1-3.1,3.1h0c-1.7,0-3.1-1.4-3.1-3.1v0
		C321.6,203.3,323,201.9,324.7,201.9z"/>
	<path class="st4" d="M318.5,201.9L318.5,201.9c1.7,0,3.1,1.4,3.1,3.1v0c0,1.7-1.4,3.1-3.1,3.1h0c-1.7,0-3.1-1.4-3.1-3.1v0
		C315.4,203.3,316.8,201.9,318.5,201.9z"/>
	<path class="st4" d="M312.2,201.9L312.2,201.9c1.7,0,3.1,1.4,3.1,3.1v0c0,1.7-1.4,3.1-3.1,3.1h0c-1.7,0-3.1-1.4-3.1-3.1v0
		C309.1,203.3,310.5,201.9,312.2,201.9z"/>
	<path class="st4" d="M324.7,195.6L324.7,195.6c1.7,0,3.1,1.4,3.1,3.1v0c0,1.7-1.4,3.1-3.1,3.1h0c-1.7,0-3.1-1.4-3.1-3.1v0
		C321.6,197,323,195.6,324.7,195.6z"/>
	<path class="st4" d="M324.7,189.4L324.7,189.4c1.7,0,3.1,1.4,3.1,3.1v0c0,1.7-1.4,3.1-3.1,3.1h0c-1.7,0-3.1-1.4-3.1-3.1v0
		C321.6,190.8,323,189.4,324.7,189.4z"/>
	<path class="st4" d="M331,189.4L331,189.4c1.7,0,3.1,1.4,3.1,3.1v0c0,1.7-1.4,3.1-3.1,3.1h0c-1.7,0-3.1-1.4-3.1-3.1v0
		C327.9,190.8,329.3,189.4,331,189.4z"/>
	<path class="st4" d="M337.2,189.4L337.2,189.4c1.7,0,3.1,1.4,3.1,3.1v0c0,1.7-1.4,3.1-3.1,3.1h0c-1.7,0-3.1-1.4-3.1-3.1v0
		C334.1,190.8,335.5,189.4,337.2,189.4z"/>
	<path class="st4" d="M343.5,189.4L343.5,189.4c1.7,0,3.1,1.4,3.1,3.1v0c0,1.7-1.4,3.1-3.1,3.1h0c-1.7,0-3.1-1.4-3.1-3.1v0
		C340.4,190.8,341.8,189.4,343.5,189.4z"/>
	<path class="st4" d="M349.7,189.4L349.7,189.4c1.7,0,3.1,1.4,3.1,3.1v0c0,1.7-1.4,3.1-3.1,3.1h0c-1.7,0-3.1-1.4-3.1-3.1v0
		C346.6,190.8,348,189.4,349.7,189.4z"/>
	<path class="st4" d="M356,189.4L356,189.4c1.7,0,3.1,1.4,3.1,3.1v0c0,1.7-1.4,3.1-3.1,3.1h0c-1.7,0-3.1-1.4-3.1-3.1v0
		C352.9,190.8,354.3,189.4,356,189.4z"/>
	<path class="st4" d="M362.2,189.4L362.2,189.4c1.7,0,3.1,1.4,3.1,3.1v0c0,1.7-1.4,3.1-3.1,3.1h0c-1.7,0-3.1-1.4-3.1-3.1v0
		C359.1,190.8,360.5,189.4,362.2,189.4z"/>
	<path class="st4" d="M324.7,183.1L324.7,183.1c1.7,0,3.1,1.4,3.1,3.1v0c0,1.7-1.4,3.1-3.1,3.1h0c-1.7,0-3.1-1.4-3.1-3.1v0
		C321.6,184.5,323,183.1,324.7,183.1z"/>
	<path class="st4" d="M318.5,176.9L318.5,176.9c1.7,0,3.1,1.4,3.1,3.1v0c0,1.7-1.4,3.1-3.1,3.1h0c-1.7,0-3.1-1.4-3.1-3.1v0
		C315.4,178.3,316.8,176.9,318.5,176.9z"/>
	<path class="st4" d="M306,170.6L306,170.6c1.7,0,3.1,1.4,3.1,3.1v0c0,1.7-1.4,3.1-3.1,3.1h0c-1.7,0-3.1-1.4-3.1-3.1v0
		C302.9,172,304.3,170.6,306,170.6z"/>
	<path class="st4" d="M362.2,183.1L362.2,183.1c1.7,0,3.1,1.4,3.1,3.1v0c0,1.7-1.4,3.1-3.1,3.1h0c-1.7,0-3.1-1.4-3.1-3.1v0
		C359.1,184.5,360.5,183.1,362.2,183.1z"/>
	<path class="st4" d="M368.5,183.1L368.5,183.1c1.7,0,3.1,1.4,3.1,3.1v0c0,1.7-1.4,3.1-3.1,3.1h0c-1.7,0-3.1-1.4-3.1-3.1v0
		C365.4,184.5,366.8,183.1,368.5,183.1z"/>
	<path class="st4" d="M337.2,195.6L337.2,195.6c1.7,0,3.1,1.4,3.1,3.1v0c0,1.7-1.4,3.1-3.1,3.1h0c-1.7,0-3.1-1.4-3.1-3.1v0
		C334.1,197,335.5,195.6,337.2,195.6z"/>
	<path class="st4" d="M343.5,201.9L343.5,201.9c1.7,0,3.1,1.4,3.1,3.1v0c0,1.7-1.4,3.1-3.1,3.1h0c-1.7,0-3.1-1.4-3.1-3.1v0
		C340.4,203.3,341.8,201.9,343.5,201.9z"/>
	<path class="st4" d="M349.7,208.1L349.7,208.1c1.7,0,3.1,1.4,3.1,3.1v0c0,1.7-1.4,3.1-3.1,3.1h0c-1.7,0-3.1-1.4-3.1-3.1v0
		C346.6,209.5,348,208.1,349.7,208.1z"/>
	<path class="st4" d="M362.2,214.4L362.2,214.4c1.7,0,3.1,1.4,3.1,3.1v0c0,1.7-1.4,3.1-3.1,3.1h0c-1.7,0-3.1-1.4-3.1-3.1v0
		C359.1,215.8,360.5,214.4,362.2,214.4z"/>
	<path class="st4" d="M381,220.6L381,220.6c1.7,0,3.1,1.4,3.1,3.1v0c0,1.7-1.4,3.1-3.1,3.1h0c-1.7,0-3.1-1.4-3.1-3.1v0
		C377.9,222,379.3,220.6,381,220.6z"/>
	<path class="st4" d="M374.7,220.6L374.7,220.6c1.7,0,3.1,1.4,3.1,3.1v0c0,1.7-1.4,3.1-3.1,3.1h0c-1.7,0-3.1-1.4-3.1-3.1v0
		C371.6,222,373,220.6,374.7,220.6z"/>
	<path class="st4" d="M368.5,220.6L368.5,220.6c1.7,0,3.1,1.4,3.1,3.1v0c0,1.7-1.4,3.1-3.1,3.1h0c-1.7,0-3.1-1.4-3.1-3.1v0
		C365.4,222,366.8,220.6,368.5,220.6z"/>
	<path class="st4" d="M374.7,214.4L374.7,214.4c1.7,0,3.1,1.4,3.1,3.1v0c0,1.7-1.4,3.1-3.1,3.1h0c-1.7,0-3.1-1.4-3.1-3.1v0
		C371.6,215.8,373,214.4,374.7,214.4z"/>
	<path class="st4" d="M368.5,208.1L368.5,208.1c1.7,0,3.1,1.4,3.1,3.1v0c0,1.7-1.4,3.1-3.1,3.1h0c-1.7,0-3.1-1.4-3.1-3.1v0
		C365.4,209.5,366.8,208.1,368.5,208.1z"/>
	<path class="st4" d="M362.2,201.9L362.2,201.9c1.7,0,3.1,1.4,3.1,3.1v0c0,1.7-1.4,3.1-3.1,3.1h0c-1.7,0-3.1-1.4-3.1-3.1v0
		C359.1,203.3,360.5,201.9,362.2,201.9z"/>
	<path class="st4" d="M362.2,195.6L362.2,195.6c1.7,0,3.1,1.4,3.1,3.1v0c0,1.7-1.4,3.1-3.1,3.1h0c-1.7,0-3.1-1.4-3.1-3.1v0
		C359.1,197,360.5,195.6,362.2,195.6z"/>
	<path class="st4" d="M387.2,239.4L387.2,239.4c1.7,0,3.1,1.4,3.1,3.1v0c0,1.7-1.4,3.1-3.1,3.1h0c-1.7,0-3.1-1.4-3.1-3.1v0
		C384.1,240.8,385.5,239.4,387.2,239.4z"/>
	<path class="st4" d="M381,239.4L381,239.4c1.7,0,3.1,1.4,3.1,3.1v0c0,1.7-1.4,3.1-3.1,3.1h0c-1.7,0-3.1-1.4-3.1-3.1v0
		C377.9,240.8,379.3,239.4,381,239.4z"/>
	<path class="st4" d="M374.7,239.4L374.7,239.4c1.7,0,3.1,1.4,3.1,3.1v0c0,1.7-1.4,3.1-3.1,3.1h0c-1.7,0-3.1-1.4-3.1-3.1v0
		C371.6,240.8,373,239.4,374.7,239.4z"/>
	<path class="st4" d="M368.5,233.1L368.5,233.1c1.7,0,3.1,1.4,3.1,3.1v0c0,1.7-1.4,3.1-3.1,3.1h0c-1.7,0-3.1-1.4-3.1-3.1v0
		C365.4,234.5,366.8,233.1,368.5,233.1z"/>
	<path class="st4" d="M393.5,233.1L393.5,233.1c1.7,0,3.1,1.4,3.1,3.1v0c0,1.7-1.4,3.1-3.1,3.1h0c-1.7,0-3.1-1.4-3.1-3.1v0
		C390.4,234.5,391.8,233.1,393.5,233.1z"/>
	<path class="st4" d="M399.7,226.9L399.7,226.9c1.7,0,3.1,1.4,3.1,3.1v0c0,1.7-1.4,3.1-3.1,3.1h0c-1.7,0-3.1-1.4-3.1-3.1v0
		C396.6,228.3,398,226.9,399.7,226.9z"/>
	<path class="st4" d="M399.7,220.6L399.7,220.6c1.7,0,3.1,1.4,3.1,3.1v0c0,1.7-1.4,3.1-3.1,3.1h0c-1.7,0-3.1-1.4-3.1-3.1v0
		C396.6,222,398,220.6,399.7,220.6z"/>
	<path class="st4" d="M399.7,214.4L399.7,214.4c1.7,0,3.1,1.4,3.1,3.1v0c0,1.7-1.4,3.1-3.1,3.1h0c-1.7,0-3.1-1.4-3.1-3.1v0
		C396.6,215.8,398,214.4,399.7,214.4z"/>
	<path class="st4" d="M393.5,208.1L393.5,208.1c1.7,0,3.1,1.4,3.1,3.1v0c0,1.7-1.4,3.1-3.1,3.1h0c-1.7,0-3.1-1.4-3.1-3.1v0
		C390.4,209.5,391.8,208.1,393.5,208.1z"/>
	<path class="st4" d="M374.7,201.9L374.7,201.9c1.7,0,3.1,1.4,3.1,3.1v0c0,1.7-1.4,3.1-3.1,3.1h0c-1.7,0-3.1-1.4-3.1-3.1v0
		C371.6,203.3,373,201.9,374.7,201.9z"/>
	<path class="st4" d="M381,201.9L381,201.9c1.7,0,3.1,1.4,3.1,3.1v0c0,1.7-1.4,3.1-3.1,3.1h0c-1.7,0-3.1-1.4-3.1-3.1v0
		C377.9,203.3,379.3,201.9,381,201.9z"/>
	<path class="st4" d="M387.2,201.9L387.2,201.9c1.7,0,3.1,1.4,3.1,3.1v0c0,1.7-1.4,3.1-3.1,3.1h0c-1.7,0-3.1-1.4-3.1-3.1v0
		C384.1,203.3,385.5,201.9,387.2,201.9z"/>
	<path class="st4" d="M362.2,220.6L362.2,220.6c1.7,0,3.1,1.4,3.1,3.1v0c0,1.7-1.4,3.1-3.1,3.1h0c-1.7,0-3.1-1.4-3.1-3.1v0
		C359.1,222,360.5,220.6,362.2,220.6z"/>
	<path class="st4" d="M312.2,170.6L312.2,170.6c1.7,0,3.1,1.4,3.1,3.1v0c0,1.7-1.4,3.1-3.1,3.1h0c-1.7,0-3.1-1.4-3.1-3.1v0
		C309.1,172,310.5,170.6,312.2,170.6z"/>
	<path class="st4" d="M312.2,176.9L312.2,176.9c1.7,0,3.1,1.4,3.1,3.1v0c0,1.7-1.4,3.1-3.1,3.1h0c-1.7,0-3.1-1.4-3.1-3.1v0
		C309.1,178.3,310.5,176.9,312.2,176.9z"/>
	<path class="st4" d="M356,214.4L356,214.4c1.7,0,3.1,1.4,3.1,3.1v0c0,1.7-1.4,3.1-3.1,3.1h0c-1.7,0-3.1-1.4-3.1-3.1v0
		C352.9,215.8,354.3,214.4,356,214.4z"/>
	<path class="st4" d="M362.2,226.9L362.2,226.9c1.7,0,3.1,1.4,3.1,3.1v0c0,1.7-1.4,3.1-3.1,3.1h0c-1.7,0-3.1-1.4-3.1-3.1v0
		C359.1,228.3,360.5,226.9,362.2,226.9z"/>
</g>
</svg>
