<?xml version="1.0" encoding="utf-8"?>
<!-- Generator: Adobe Illustrator 26.4.1, SVG Export Plug-In . SVG Version: 6.00 Build 0)  -->
<svg version="1.1" id="Layer_1" xmlns="http://www.w3.org/2000/svg" xmlns:xlink="http://www.w3.org/1999/xlink" x="0px" y="0px"
	 viewBox="0 0 840 551.2" style="enable-background:new 0 0 840 551.2;" xml:space="preserve">
<style type="text/css">
	.st0{fill:#1D1D1B;}
	.st1{fill:none;stroke:#FFDA73;stroke-width:52.5;stroke-miterlimit:10;}
	.st2{fill:none;stroke:#E65F5C;stroke-width:52.5;stroke-miterlimit:10;}
	.st3{fill:none;stroke:#86A5D9;stroke-width:52.5;stroke-miterlimit:10;}
	.st4{fill:#FFFFFF;}
	.st5{opacity:0.5;fill:#FFFFFF;enable-background:new    ;}
	.st6{opacity:0.3;fill:#FFFFFF;enable-background:new    ;}
	.st7{opacity:0.2;fill:#FFFFFF;enable-background:new    ;}
</style>
<rect y="0" class="st0" width="840" height="551.2"/>
<path class="st1" d="M0,26.2h525c26.2,0,52.5-26.2,52.5-26.2l26.2-26.2"/>
<line class="st2" x1="0" y1="78.7" x2="840" y2="78.7"/>
<path class="st3" d="M0,131.2h656.2c52.5,0,52.5,52.5,52.5,52.5v183.8c0,26.2-26.2,52.5-26.2,52.5L525,577.5"/>
<path class="st2" d="M-52.5,288.8l105,105C78.8,420,105,420,105,420h157.5c26.2,0,52.5,26.2,52.5,26.2l131.2,131.2"/>
<path class="st1" d="M573.2,603.8l157.5-157.5C757,420,783.2,420,783.2,420H840"/>
<path class="st4" d="M54.1,245L54.1,245c1.7,0,3.1,1.4,3.1,3.1v0c0,1.7-1.4,3.1-3.1,3.1h0c-1.7,0-3.1-1.4-3.1-3.1v0
	C51,246.4,52.4,245,54.1,245z"/>
<path class="st4" d="M54.1,238.7L54.1,238.7c1.7,0,3.1,1.4,3.1,3.1v0c0,1.7-1.4,3.1-3.1,3.1h0c-1.7,0-3.1-1.4-3.1-3.1v0
	C51,240.1,52.4,238.7,54.1,238.7z"/>
<path class="st4" d="M54.1,232.5L54.1,232.5c1.7,0,3.1,1.4,3.1,3.1v0c0,1.7-1.4,3.1-3.1,3.1h0c-1.7,0-3.1-1.4-3.1-3.1v0
	C51,233.9,52.4,232.5,54.1,232.5z"/>
<path class="st4" d="M79.1,257.5L79.1,257.5c1.7,0,3.1,1.4,3.1,3.1v0c0,1.7-1.4,3.1-3.1,3.1h0c-1.7,0-3.1-1.4-3.1-3.1v0
	C76,258.9,77.4,257.5,79.1,257.5z"/>
<path class="st4" d="M72.9,257.5L72.9,257.5c1.7,0,3.1,1.4,3.1,3.1v0c0,1.7-1.4,3.1-3.1,3.1h0c-1.7,0-3.1-1.4-3.1-3.1v0
	C69.8,258.9,71.1,257.5,72.9,257.5z"/>
<path class="st4" d="M66.6,257.5L66.6,257.5c1.7,0,3.1,1.4,3.1,3.1v0c0,1.7-1.4,3.1-3.1,3.1h0c-1.7,0-3.1-1.4-3.1-3.1v0
	C63.5,258.9,64.9,257.5,66.6,257.5z"/>
<path class="st4" d="M60.4,251.2L60.4,251.2c1.7,0,3.1,1.4,3.1,3.1v0c0,1.7-1.4,3.1-3.1,3.1h0c-1.7,0-3.1-1.4-3.1-3.1v0
	C57.2,252.6,58.6,251.2,60.4,251.2z"/>
<path class="st4" d="M85.4,251.2L85.4,251.2c1.7,0,3.1,1.4,3.1,3.1v0c0,1.7-1.4,3.1-3.1,3.1h0c-1.7,0-3.1-1.4-3.1-3.1v0
	C82.2,252.6,83.6,251.2,85.4,251.2z"/>
<path class="st4" d="M91.6,245L91.6,245c1.7,0,3.1,1.4,3.1,3.1v0c0,1.7-1.4,3.1-3.1,3.1h0c-1.7,0-3.1-1.4-3.1-3.1v0
	C88.5,246.4,89.9,245,91.6,245z"/>
<path class="st4" d="M91.6,238.7L91.6,238.7c1.7,0,3.1,1.4,3.1,3.1v0c0,1.7-1.4,3.1-3.1,3.1h0c-1.7,0-3.1-1.4-3.1-3.1v0
	C88.5,240.1,89.9,238.7,91.6,238.7z"/>
<path class="st4" d="M91.6,232.5L91.6,232.5c1.7,0,3.1,1.4,3.1,3.1v0c0,1.7-1.4,3.1-3.1,3.1h0c-1.7,0-3.1-1.4-3.1-3.1v0
	C88.5,233.9,89.9,232.5,91.6,232.5z"/>
<path class="st4" d="M85.4,226.2L85.4,226.2c1.7,0,3.1,1.4,3.1,3.1v0c0,1.7-1.4,3.1-3.1,3.1h0c-1.7,0-3.1-1.4-3.1-3.1v0
	C82.2,227.6,83.6,226.2,85.4,226.2z"/>
<path class="st4" d="M60.4,226.2L60.4,226.2c1.7,0,3.1,1.4,3.1,3.1v0c0,1.7-1.4,3.1-3.1,3.1h0c-1.7,0-3.1-1.4-3.1-3.1v0
	C57.2,227.6,58.6,226.2,60.4,226.2z"/>
<path class="st4" d="M72.9,238.7L72.9,238.7c1.7,0,3.1,1.4,3.1,3.1v0c0,1.7-1.4,3.1-3.1,3.1h0c-1.7,0-3.1-1.4-3.1-3.1v0
	C69.8,240.1,71.1,238.7,72.9,238.7z"/>
<path class="st4" d="M79.1,232.5L79.1,232.5c1.7,0,3.1,1.4,3.1,3.1v0c0,1.7-1.4,3.1-3.1,3.1h0c-1.7,0-3.1-1.4-3.1-3.1v0
	C76,233.9,77.4,232.5,79.1,232.5z"/>
<path class="st4" d="M79.1,226.2L79.1,226.2c1.7,0,3.1,1.4,3.1,3.1v0c0,1.7-1.4,3.1-3.1,3.1h0c-1.7,0-3.1-1.4-3.1-3.1v0
	C76,227.6,77.4,226.2,79.1,226.2z"/>
<path class="st4" d="M79.1,220L79.1,220c1.7,0,3.1,1.4,3.1,3.1v0c0,1.7-1.4,3.1-3.1,3.1h0c-1.7,0-3.1-1.4-3.1-3.1v0
	C76,221.4,77.4,220,79.1,220z"/>
<path class="st4" d="M72.9,220L72.9,220c1.7,0,3.1,1.4,3.1,3.1v0c0,1.7-1.4,3.1-3.1,3.1h0c-1.7,0-3.1-1.4-3.1-3.1v0
	C69.8,221.4,71.1,220,72.9,220z"/>
<path class="st4" d="M66.6,220L66.6,220c1.7,0,3.1,1.4,3.1,3.1v0c0,1.7-1.4,3.1-3.1,3.1h0c-1.7,0-3.1-1.4-3.1-3.1v0
	C63.5,221.4,64.9,220,66.6,220z"/>
<path class="st4" d="M79.1,213.7L79.1,213.7c1.7,0,3.1,1.4,3.1,3.1v0c0,1.7-1.4,3.1-3.1,3.1h0c-1.7,0-3.1-1.4-3.1-3.1v0
	C76,215.1,77.4,213.7,79.1,213.7z"/>
<path class="st4" d="M79.1,207.5L79.1,207.5c1.7,0,3.1,1.4,3.1,3.1v0c0,1.7-1.4,3.1-3.1,3.1h0c-1.7,0-3.1-1.4-3.1-3.1v0
	C76,208.9,77.4,207.5,79.1,207.5z"/>
<path class="st4" d="M85.4,207.5L85.4,207.5c1.7,0,3.1,1.4,3.1,3.1v0c0,1.7-1.4,3.1-3.1,3.1h0c-1.7,0-3.1-1.4-3.1-3.1v0
	C82.2,208.9,83.6,207.5,85.4,207.5z"/>
<path class="st4" d="M91.6,207.5L91.6,207.5c1.7,0,3.1,1.4,3.1,3.1v0c0,1.7-1.4,3.1-3.1,3.1h0c-1.7,0-3.1-1.4-3.1-3.1v0
	C88.5,208.9,89.9,207.5,91.6,207.5z"/>
<path class="st4" d="M97.9,207.5L97.9,207.5c1.7,0,3.1,1.4,3.1,3.1v0c0,1.7-1.4,3.1-3.1,3.1h0c-1.7,0-3.1-1.4-3.1-3.1v0
	C94.8,208.9,96.1,207.5,97.9,207.5z"/>
<path class="st4" d="M104.1,207.5L104.1,207.5c1.7,0,3.1,1.4,3.1,3.1v0c0,1.7-1.4,3.1-3.1,3.1h0c-1.7,0-3.1-1.4-3.1-3.1v0
	C101,208.9,102.4,207.5,104.1,207.5z"/>
<path class="st4" d="M110.4,207.5L110.4,207.5c1.7,0,3.1,1.4,3.1,3.1v0c0,1.7-1.4,3.1-3.1,3.1h0c-1.7,0-3.1-1.4-3.1-3.1v0
	C107.2,208.9,108.6,207.5,110.4,207.5z"/>
<path class="st4" d="M116.6,207.5L116.6,207.5c1.7,0,3.1,1.4,3.1,3.1v0c0,1.7-1.4,3.1-3.1,3.1h0c-1.7,0-3.1-1.4-3.1-3.1v0
	C113.5,208.9,114.9,207.5,116.6,207.5z"/>
<path class="st4" d="M79.1,201.2L79.1,201.2c1.7,0,3.1,1.4,3.1,3.1v0c0,1.7-1.4,3.1-3.1,3.1h0c-1.7,0-3.1-1.4-3.1-3.1v0
	C76,202.6,77.4,201.2,79.1,201.2z"/>
<path class="st4" d="M72.9,195L72.9,195c1.7,0,3.1,1.4,3.1,3.1v0c0,1.7-1.4,3.1-3.1,3.1h0c-1.7,0-3.1-1.4-3.1-3.1v0
	C69.8,196.4,71.1,195,72.9,195z"/>
<path class="st4" d="M60.4,188.7L60.4,188.7c1.7,0,3.1,1.4,3.1,3.1v0c0,1.7-1.4,3.1-3.1,3.1h0c-1.7,0-3.1-1.4-3.1-3.1v0
	C57.2,190.1,58.6,188.7,60.4,188.7z"/>
<path class="st4" d="M116.6,201.2L116.6,201.2c1.7,0,3.1,1.4,3.1,3.1v0c0,1.7-1.4,3.1-3.1,3.1h0c-1.7,0-3.1-1.4-3.1-3.1v0
	C113.5,202.6,114.9,201.2,116.6,201.2z"/>
<path class="st4" d="M122.9,201.2L122.9,201.2c1.7,0,3.1,1.4,3.1,3.1v0c0,1.7-1.4,3.1-3.1,3.1h0c-1.7,0-3.1-1.4-3.1-3.1v0
	C119.8,202.6,121.1,201.2,122.9,201.2z"/>
<path class="st4" d="M91.6,213.7L91.6,213.7c1.7,0,3.1,1.4,3.1,3.1v0c0,1.7-1.4,3.1-3.1,3.1h0c-1.7,0-3.1-1.4-3.1-3.1v0
	C88.5,215.1,89.9,213.7,91.6,213.7z"/>
<path class="st4" d="M97.9,220L97.9,220c1.7,0,3.1,1.4,3.1,3.1v0c0,1.7-1.4,3.1-3.1,3.1h0c-1.7,0-3.1-1.4-3.1-3.1v0
	C94.8,221.4,96.1,220,97.9,220z"/>
<path class="st4" d="M104.1,226.2L104.1,226.2c1.7,0,3.1,1.4,3.1,3.1v0c0,1.7-1.4,3.1-3.1,3.1h0c-1.7,0-3.1-1.4-3.1-3.1v0
	C101,227.6,102.4,226.2,104.1,226.2z"/>
<path class="st4" d="M116.6,232.5L116.6,232.5c1.7,0,3.1,1.4,3.1,3.1v0c0,1.7-1.4,3.1-3.1,3.1h0c-1.7,0-3.1-1.4-3.1-3.1v0
	C113.5,233.9,114.9,232.5,116.6,232.5z"/>
<path class="st4" d="M135.4,238.7L135.4,238.7c1.7,0,3.1,1.4,3.1,3.1v0c0,1.7-1.4,3.1-3.1,3.1h0c-1.7,0-3.1-1.4-3.1-3.1v0
	C132.2,240.1,133.6,238.7,135.4,238.7z"/>
<path class="st4" d="M129.1,238.7L129.1,238.7c1.7,0,3.1,1.4,3.1,3.1v0c0,1.7-1.4,3.1-3.1,3.1h0c-1.7,0-3.1-1.4-3.1-3.1v0
	C126,240.1,127.4,238.7,129.1,238.7z"/>
<path class="st4" d="M122.9,238.7L122.9,238.7c1.7,0,3.1,1.4,3.1,3.1v0c0,1.7-1.4,3.1-3.1,3.1h0c-1.7,0-3.1-1.4-3.1-3.1v0
	C119.8,240.1,121.1,238.7,122.9,238.7z"/>
<path class="st4" d="M129.1,232.5L129.1,232.5c1.7,0,3.1,1.4,3.1,3.1v0c0,1.7-1.4,3.1-3.1,3.1h0c-1.7,0-3.1-1.4-3.1-3.1v0
	C126,233.9,127.4,232.5,129.1,232.5z"/>
<path class="st4" d="M122.9,226.2L122.9,226.2c1.7,0,3.1,1.4,3.1,3.1v0c0,1.7-1.4,3.1-3.1,3.1h0c-1.7,0-3.1-1.4-3.1-3.1v0
	C119.8,227.6,121.1,226.2,122.9,226.2z"/>
<path class="st4" d="M116.6,220L116.6,220c1.7,0,3.1,1.4,3.1,3.1v0c0,1.7-1.4,3.1-3.1,3.1h0c-1.7,0-3.1-1.4-3.1-3.1v0
	C113.5,221.4,114.9,220,116.6,220z"/>
<path class="st4" d="M116.6,213.7L116.6,213.7c1.7,0,3.1,1.4,3.1,3.1v0c0,1.7-1.4,3.1-3.1,3.1h0c-1.7,0-3.1-1.4-3.1-3.1v0
	C113.5,215.1,114.9,213.7,116.6,213.7z"/>
<path class="st4" d="M141.6,257.5L141.6,257.5c1.7,0,3.1,1.4,3.1,3.1v0c0,1.7-1.4,3.1-3.1,3.1h0c-1.7,0-3.1-1.4-3.1-3.1v0
	C138.5,258.9,139.9,257.5,141.6,257.5z"/>
<path class="st4" d="M135.4,257.5L135.4,257.5c1.7,0,3.1,1.4,3.1,3.1v0c0,1.7-1.4,3.1-3.1,3.1h0c-1.7,0-3.1-1.4-3.1-3.1v0
	C132.2,258.9,133.6,257.5,135.4,257.5z"/>
<path class="st4" d="M129.1,257.5L129.1,257.5c1.7,0,3.1,1.4,3.1,3.1v0c0,1.7-1.4,3.1-3.1,3.1h0c-1.7,0-3.1-1.4-3.1-3.1v0
	C126,258.9,127.4,257.5,129.1,257.5z"/>
<path class="st4" d="M122.9,251.2L122.9,251.2c1.7,0,3.1,1.4,3.1,3.1v0c0,1.7-1.4,3.1-3.1,3.1h0c-1.7,0-3.1-1.4-3.1-3.1v0
	C119.8,252.6,121.1,251.2,122.9,251.2z"/>
<path class="st4" d="M147.9,251.2L147.9,251.2c1.7,0,3.1,1.4,3.1,3.1v0c0,1.7-1.4,3.1-3.1,3.1h0c-1.7,0-3.1-1.4-3.1-3.1v0
	C144.8,252.6,146.1,251.2,147.9,251.2z"/>
<path class="st4" d="M154.1,245L154.1,245c1.7,0,3.1,1.4,3.1,3.1v0c0,1.7-1.4,3.1-3.1,3.1h0c-1.7,0-3.1-1.4-3.1-3.1v0
	C151,246.4,152.4,245,154.1,245z"/>
<path class="st4" d="M154.1,238.7L154.1,238.7c1.7,0,3.1,1.4,3.1,3.1v0c0,1.7-1.4,3.1-3.1,3.1h0c-1.7,0-3.1-1.4-3.1-3.1v0
	C151,240.1,152.4,238.7,154.1,238.7z"/>
<path class="st4" d="M154.1,232.5L154.1,232.5c1.7,0,3.1,1.4,3.1,3.1v0c0,1.7-1.4,3.1-3.1,3.1h0c-1.7,0-3.1-1.4-3.1-3.1v0
	C151,233.9,152.4,232.5,154.1,232.5z"/>
<path class="st4" d="M147.9,226.2L147.9,226.2c1.7,0,3.1,1.4,3.1,3.1v0c0,1.7-1.4,3.1-3.1,3.1h0c-1.7,0-3.1-1.4-3.1-3.1v0
	C144.8,227.6,146.1,226.2,147.9,226.2z"/>
<path class="st4" d="M129.1,220L129.1,220c1.7,0,3.1,1.4,3.1,3.1v0c0,1.7-1.4,3.1-3.1,3.1h0c-1.7,0-3.1-1.4-3.1-3.1v0
	C126,221.4,127.4,220,129.1,220z"/>
<path class="st4" d="M135.4,220L135.4,220c1.7,0,3.1,1.4,3.1,3.1v0c0,1.7-1.4,3.1-3.1,3.1h0c-1.7,0-3.1-1.4-3.1-3.1v0
	C132.2,221.4,133.6,220,135.4,220z"/>
<path class="st4" d="M141.6,220L141.6,220c1.7,0,3.1,1.4,3.1,3.1v0c0,1.7-1.4,3.1-3.1,3.1h0c-1.7,0-3.1-1.4-3.1-3.1v0
	C138.5,221.4,139.9,220,141.6,220z"/>
<path class="st4" d="M116.6,238.7L116.6,238.7c1.7,0,3.1,1.4,3.1,3.1v0c0,1.7-1.4,3.1-3.1,3.1h0c-1.7,0-3.1-1.4-3.1-3.1v0
	C113.5,240.1,114.9,238.7,116.6,238.7z"/>
<path class="st4" d="M66.6,188.7L66.6,188.7c1.7,0,3.1,1.4,3.1,3.1v0c0,1.7-1.4,3.1-3.1,3.1h0c-1.7,0-3.1-1.4-3.1-3.1v0
	C63.5,190.1,64.9,188.7,66.6,188.7z"/>
<path class="st4" d="M66.6,195L66.6,195c1.7,0,3.1,1.4,3.1,3.1v0c0,1.7-1.4,3.1-3.1,3.1h0c-1.7,0-3.1-1.4-3.1-3.1v0
	C63.5,196.4,64.9,195,66.6,195z"/>
<path class="st4" d="M110.4,232.5L110.4,232.5c1.7,0,3.1,1.4,3.1,3.1v0c0,1.7-1.4,3.1-3.1,3.1h0c-1.7,0-3.1-1.4-3.1-3.1v0
	C107.2,233.9,108.6,232.5,110.4,232.5z"/>
<path class="st4" d="M116.6,245L116.6,245c1.7,0,3.1,1.4,3.1,3.1v0c0,1.7-1.4,3.1-3.1,3.1h0c-1.7,0-3.1-1.4-3.1-3.1v0
	C113.5,246.4,114.9,245,116.6,245z"/>
<path class="st5" d="M211.9,245L211.9,245c1.7,0,3.1,1.4,3.1,3.1v0c0,1.7-1.4,3.1-3.1,3.1h0c-1.7,0-3.1-1.4-3.1-3.1v0
	C208.8,246.4,210.1,245,211.9,245z"/>
<path class="st5" d="M211.9,238.7L211.9,238.7c1.7,0,3.1,1.4,3.1,3.1v0c0,1.7-1.4,3.1-3.1,3.1h0c-1.7,0-3.1-1.4-3.1-3.1v0
	C208.8,240.1,210.1,238.7,211.9,238.7z"/>
<path class="st5" d="M211.9,232.5L211.9,232.5c1.7,0,3.1,1.4,3.1,3.1v0c0,1.7-1.4,3.1-3.1,3.1h0c-1.7,0-3.1-1.4-3.1-3.1v0
	C208.8,233.9,210.1,232.5,211.9,232.5z"/>
<path class="st5" d="M236.9,257.5L236.9,257.5c1.7,0,3.1,1.4,3.1,3.1v0c0,1.7-1.4,3.1-3.1,3.1h0c-1.7,0-3.1-1.4-3.1-3.1v0
	C233.8,258.9,235.1,257.5,236.9,257.5z"/>
<path class="st5" d="M230.6,257.5L230.6,257.5c1.7,0,3.1,1.4,3.1,3.1v0c0,1.7-1.4,3.1-3.1,3.1h0c-1.7,0-3.1-1.4-3.1-3.1v0
	C227.5,258.9,228.9,257.5,230.6,257.5z"/>
<path class="st5" d="M224.4,257.5L224.4,257.5c1.7,0,3.1,1.4,3.1,3.1v0c0,1.7-1.4,3.1-3.1,3.1h0c-1.7,0-3.1-1.4-3.1-3.1v0
	C221.2,258.9,222.6,257.5,224.4,257.5z"/>
<path class="st5" d="M218.1,251.2L218.1,251.2c1.7,0,3.1,1.4,3.1,3.1v0c0,1.7-1.4,3.1-3.1,3.1h0c-1.7,0-3.1-1.4-3.1-3.1v0
	C215,252.6,216.4,251.2,218.1,251.2z"/>
<path class="st5" d="M243.1,251.2L243.1,251.2c1.7,0,3.1,1.4,3.1,3.1v0c0,1.7-1.4,3.1-3.1,3.1h0c-1.7,0-3.1-1.4-3.1-3.1v0
	C240,252.6,241.4,251.2,243.1,251.2z"/>
<path class="st5" d="M249.4,245L249.4,245c1.7,0,3.1,1.4,3.1,3.1v0c0,1.7-1.4,3.1-3.1,3.1h0c-1.7,0-3.1-1.4-3.1-3.1v0
	C246.2,246.4,247.6,245,249.4,245z"/>
<path class="st5" d="M249.4,238.7L249.4,238.7c1.7,0,3.1,1.4,3.1,3.1v0c0,1.7-1.4,3.1-3.1,3.1h0c-1.7,0-3.1-1.4-3.1-3.1v0
	C246.2,240.1,247.6,238.7,249.4,238.7z"/>
<path class="st5" d="M249.4,232.5L249.4,232.5c1.7,0,3.1,1.4,3.1,3.1v0c0,1.7-1.4,3.1-3.1,3.1h0c-1.7,0-3.1-1.4-3.1-3.1v0
	C246.2,233.9,247.6,232.5,249.4,232.5z"/>
<path class="st5" d="M243.1,226.2L243.1,226.2c1.7,0,3.1,1.4,3.1,3.1v0c0,1.7-1.4,3.1-3.1,3.1h0c-1.7,0-3.1-1.4-3.1-3.1v0
	C240,227.6,241.4,226.2,243.1,226.2z"/>
<path class="st5" d="M218.1,226.2L218.1,226.2c1.7,0,3.1,1.4,3.1,3.1v0c0,1.7-1.4,3.1-3.1,3.1h0c-1.7,0-3.1-1.4-3.1-3.1v0
	C215,227.6,216.4,226.2,218.1,226.2z"/>
<path class="st5" d="M230.6,238.7L230.6,238.7c1.7,0,3.1,1.4,3.1,3.1v0c0,1.7-1.4,3.1-3.1,3.1h0c-1.7,0-3.1-1.4-3.1-3.1v0
	C227.5,240.1,228.9,238.7,230.6,238.7z"/>
<path class="st5" d="M236.9,232.5L236.9,232.5c1.7,0,3.1,1.4,3.1,3.1v0c0,1.7-1.4,3.1-3.1,3.1h0c-1.7,0-3.1-1.4-3.1-3.1v0
	C233.8,233.9,235.1,232.5,236.9,232.5z"/>
<path class="st5" d="M236.9,226.2L236.9,226.2c1.7,0,3.1,1.4,3.1,3.1v0c0,1.7-1.4,3.1-3.1,3.1h0c-1.7,0-3.1-1.4-3.1-3.1v0
	C233.8,227.6,235.1,226.2,236.9,226.2z"/>
<path class="st5" d="M236.9,220L236.9,220c1.7,0,3.1,1.4,3.1,3.1v0c0,1.7-1.4,3.1-3.1,3.1h0c-1.7,0-3.1-1.4-3.1-3.1v0
	C233.8,221.4,235.1,220,236.9,220z"/>
<path class="st5" d="M230.6,220L230.6,220c1.7,0,3.1,1.4,3.1,3.1v0c0,1.7-1.4,3.1-3.1,3.1h0c-1.7,0-3.1-1.4-3.1-3.1v0
	C227.5,221.4,228.9,220,230.6,220z"/>
<path class="st5" d="M224.4,220L224.4,220c1.7,0,3.1,1.4,3.1,3.1v0c0,1.7-1.4,3.1-3.1,3.1h0c-1.7,0-3.1-1.4-3.1-3.1v0
	C221.2,221.4,222.6,220,224.4,220z"/>
<path class="st5" d="M236.9,213.7L236.9,213.7c1.7,0,3.1,1.4,3.1,3.1v0c0,1.7-1.4,3.1-3.1,3.1h0c-1.7,0-3.1-1.4-3.1-3.1v0
	C233.8,215.1,235.1,213.7,236.9,213.7z"/>
<path class="st5" d="M236.9,207.5L236.9,207.5c1.7,0,3.1,1.4,3.1,3.1v0c0,1.7-1.4,3.1-3.1,3.1h0c-1.7,0-3.1-1.4-3.1-3.1v0
	C233.8,208.9,235.1,207.5,236.9,207.5z"/>
<path class="st5" d="M243.1,207.5L243.1,207.5c1.7,0,3.1,1.4,3.1,3.1v0c0,1.7-1.4,3.1-3.1,3.1h0c-1.7,0-3.1-1.4-3.1-3.1v0
	C240,208.9,241.4,207.5,243.1,207.5z"/>
<path class="st5" d="M249.4,207.5L249.4,207.5c1.7,0,3.1,1.4,3.1,3.1v0c0,1.7-1.4,3.1-3.1,3.1h0c-1.7,0-3.1-1.4-3.1-3.1v0
	C246.2,208.9,247.6,207.5,249.4,207.5z"/>
<path class="st5" d="M255.6,207.5L255.6,207.5c1.7,0,3.1,1.4,3.1,3.1v0c0,1.7-1.4,3.1-3.1,3.1h0c-1.7,0-3.1-1.4-3.1-3.1v0
	C252.5,208.9,253.9,207.5,255.6,207.5z"/>
<path class="st5" d="M261.9,207.5L261.9,207.5c1.7,0,3.1,1.4,3.1,3.1v0c0,1.7-1.4,3.1-3.1,3.1h0c-1.7,0-3.1-1.4-3.1-3.1v0
	C258.8,208.9,260.1,207.5,261.9,207.5z"/>
<path class="st5" d="M268.1,207.5L268.1,207.5c1.7,0,3.1,1.4,3.1,3.1v0c0,1.7-1.4,3.1-3.1,3.1h0c-1.7,0-3.1-1.4-3.1-3.1v0
	C265,208.9,266.4,207.5,268.1,207.5z"/>
<path class="st5" d="M274.4,207.5L274.4,207.5c1.7,0,3.1,1.4,3.1,3.1v0c0,1.7-1.4,3.1-3.1,3.1h0c-1.7,0-3.1-1.4-3.1-3.1v0
	C271.2,208.9,272.6,207.5,274.4,207.5z"/>
<path class="st5" d="M236.9,201.2L236.9,201.2c1.7,0,3.1,1.4,3.1,3.1v0c0,1.7-1.4,3.1-3.1,3.1h0c-1.7,0-3.1-1.4-3.1-3.1v0
	C233.8,202.6,235.1,201.2,236.9,201.2z"/>
<path class="st5" d="M230.6,195L230.6,195c1.7,0,3.1,1.4,3.1,3.1v0c0,1.7-1.4,3.1-3.1,3.1h0c-1.7,0-3.1-1.4-3.1-3.1v0
	C227.5,196.4,228.9,195,230.6,195z"/>
<path class="st5" d="M218.1,188.7L218.1,188.7c1.7,0,3.1,1.4,3.1,3.1v0c0,1.7-1.4,3.1-3.1,3.1h0c-1.7,0-3.1-1.4-3.1-3.1v0
	C215,190.1,216.4,188.7,218.1,188.7z"/>
<path class="st5" d="M274.4,201.2L274.4,201.2c1.7,0,3.1,1.4,3.1,3.1v0c0,1.7-1.4,3.1-3.1,3.1h0c-1.7,0-3.1-1.4-3.1-3.1v0
	C271.2,202.6,272.6,201.2,274.4,201.2z"/>
<path class="st5" d="M280.6,201.2L280.6,201.2c1.7,0,3.1,1.4,3.1,3.1v0c0,1.7-1.4,3.1-3.1,3.1h0c-1.7,0-3.1-1.4-3.1-3.1v0
	C277.5,202.6,278.9,201.2,280.6,201.2z"/>
<path class="st5" d="M249.4,213.7L249.4,213.7c1.7,0,3.1,1.4,3.1,3.1v0c0,1.7-1.4,3.1-3.1,3.1h0c-1.7,0-3.1-1.4-3.1-3.1v0
	C246.2,215.1,247.6,213.7,249.4,213.7z"/>
<path class="st5" d="M255.6,220L255.6,220c1.7,0,3.1,1.4,3.1,3.1v0c0,1.7-1.4,3.1-3.1,3.1h0c-1.7,0-3.1-1.4-3.1-3.1v0
	C252.5,221.4,253.9,220,255.6,220z"/>
<path class="st5" d="M261.9,226.2L261.9,226.2c1.7,0,3.1,1.4,3.1,3.1v0c0,1.7-1.4,3.1-3.1,3.1h0c-1.7,0-3.1-1.4-3.1-3.1v0
	C258.8,227.6,260.1,226.2,261.9,226.2z"/>
<path class="st5" d="M274.4,232.5L274.4,232.5c1.7,0,3.1,1.4,3.1,3.1v0c0,1.7-1.4,3.1-3.1,3.1h0c-1.7,0-3.1-1.4-3.1-3.1v0
	C271.2,233.9,272.6,232.5,274.4,232.5z"/>
<path class="st5" d="M293.1,238.7L293.1,238.7c1.7,0,3.1,1.4,3.1,3.1v0c0,1.7-1.4,3.1-3.1,3.1h0c-1.7,0-3.1-1.4-3.1-3.1v0
	C290,240.1,291.4,238.7,293.1,238.7z"/>
<path class="st5" d="M286.9,238.7L286.9,238.7c1.7,0,3.1,1.4,3.1,3.1v0c0,1.7-1.4,3.1-3.1,3.1h0c-1.7,0-3.1-1.4-3.1-3.1v0
	C283.8,240.1,285.1,238.7,286.9,238.7z"/>
<path class="st5" d="M280.6,238.7L280.6,238.7c1.7,0,3.1,1.4,3.1,3.1v0c0,1.7-1.4,3.1-3.1,3.1h0c-1.7,0-3.1-1.4-3.1-3.1v0
	C277.5,240.1,278.9,238.7,280.6,238.7z"/>
<path class="st5" d="M286.9,232.5L286.9,232.5c1.7,0,3.1,1.4,3.1,3.1v0c0,1.7-1.4,3.1-3.1,3.1h0c-1.7,0-3.1-1.4-3.1-3.1v0
	C283.8,233.9,285.1,232.5,286.9,232.5z"/>
<path class="st5" d="M280.6,226.2L280.6,226.2c1.7,0,3.1,1.4,3.1,3.1v0c0,1.7-1.4,3.1-3.1,3.1h0c-1.7,0-3.1-1.4-3.1-3.1v0
	C277.5,227.6,278.9,226.2,280.6,226.2z"/>
<path class="st5" d="M274.4,220L274.4,220c1.7,0,3.1,1.4,3.1,3.1v0c0,1.7-1.4,3.1-3.1,3.1h0c-1.7,0-3.1-1.4-3.1-3.1v0
	C271.2,221.4,272.6,220,274.4,220z"/>
<path class="st5" d="M274.4,213.7L274.4,213.7c1.7,0,3.1,1.4,3.1,3.1v0c0,1.7-1.4,3.1-3.1,3.1h0c-1.7,0-3.1-1.4-3.1-3.1v0
	C271.2,215.1,272.6,213.7,274.4,213.7z"/>
<path class="st5" d="M299.4,257.5L299.4,257.5c1.7,0,3.1,1.4,3.1,3.1v0c0,1.7-1.4,3.1-3.1,3.1h0c-1.7,0-3.1-1.4-3.1-3.1v0
	C296.2,258.9,297.6,257.5,299.4,257.5z"/>
<path class="st5" d="M293.1,257.5L293.1,257.5c1.7,0,3.1,1.4,3.1,3.1v0c0,1.7-1.4,3.1-3.1,3.1h0c-1.7,0-3.1-1.4-3.1-3.1v0
	C290,258.9,291.4,257.5,293.1,257.5z"/>
<path class="st5" d="M286.9,257.5L286.9,257.5c1.7,0,3.1,1.4,3.1,3.1v0c0,1.7-1.4,3.1-3.1,3.1h0c-1.7,0-3.1-1.4-3.1-3.1v0
	C283.8,258.9,285.1,257.5,286.9,257.5z"/>
<path class="st5" d="M280.6,251.2L280.6,251.2c1.7,0,3.1,1.4,3.1,3.1v0c0,1.7-1.4,3.1-3.1,3.1h0c-1.7,0-3.1-1.4-3.1-3.1v0
	C277.5,252.6,278.9,251.2,280.6,251.2z"/>
<path class="st5" d="M305.6,251.2L305.6,251.2c1.7,0,3.1,1.4,3.1,3.1v0c0,1.7-1.4,3.1-3.1,3.1h0c-1.7,0-3.1-1.4-3.1-3.1v0
	C302.5,252.6,303.9,251.2,305.6,251.2z"/>
<path class="st5" d="M311.9,245L311.9,245c1.7,0,3.1,1.4,3.1,3.1v0c0,1.7-1.4,3.1-3.1,3.1h0c-1.7,0-3.1-1.4-3.1-3.1v0
	C308.8,246.4,310.1,245,311.9,245z"/>
<path class="st5" d="M311.9,238.7L311.9,238.7c1.7,0,3.1,1.4,3.1,3.1v0c0,1.7-1.4,3.1-3.1,3.1h0c-1.7,0-3.1-1.4-3.1-3.1v0
	C308.8,240.1,310.1,238.7,311.9,238.7z"/>
<path class="st5" d="M311.9,232.5L311.9,232.5c1.7,0,3.1,1.4,3.1,3.1v0c0,1.7-1.4,3.1-3.1,3.1h0c-1.7,0-3.1-1.4-3.1-3.1v0
	C308.8,233.9,310.1,232.5,311.9,232.5z"/>
<path class="st5" d="M305.6,226.2L305.6,226.2c1.7,0,3.1,1.4,3.1,3.1v0c0,1.7-1.4,3.1-3.1,3.1h0c-1.7,0-3.1-1.4-3.1-3.1v0
	C302.5,227.6,303.9,226.2,305.6,226.2z"/>
<path class="st5" d="M286.9,220L286.9,220c1.7,0,3.1,1.4,3.1,3.1v0c0,1.7-1.4,3.1-3.1,3.1h0c-1.7,0-3.1-1.4-3.1-3.1v0
	C283.8,221.4,285.1,220,286.9,220z"/>
<path class="st5" d="M293.1,220L293.1,220c1.7,0,3.1,1.4,3.1,3.1v0c0,1.7-1.4,3.1-3.1,3.1h0c-1.7,0-3.1-1.4-3.1-3.1v0
	C290,221.4,291.4,220,293.1,220z"/>
<path class="st5" d="M299.4,220L299.4,220c1.7,0,3.1,1.4,3.1,3.1v0c0,1.7-1.4,3.1-3.1,3.1h0c-1.7,0-3.1-1.4-3.1-3.1v0
	C296.2,221.4,297.6,220,299.4,220z"/>
<path class="st5" d="M274.4,238.7L274.4,238.7c1.7,0,3.1,1.4,3.1,3.1v0c0,1.7-1.4,3.1-3.1,3.1h0c-1.7,0-3.1-1.4-3.1-3.1v0
	C271.2,240.1,272.6,238.7,274.4,238.7z"/>
<path class="st5" d="M224.4,188.7L224.4,188.7c1.7,0,3.1,1.4,3.1,3.1v0c0,1.7-1.4,3.1-3.1,3.1h0c-1.7,0-3.1-1.4-3.1-3.1v0
	C221.2,190.1,222.6,188.7,224.4,188.7z"/>
<path class="st5" d="M224.4,195L224.4,195c1.7,0,3.1,1.4,3.1,3.1v0c0,1.7-1.4,3.1-3.1,3.1h0c-1.7,0-3.1-1.4-3.1-3.1v0
	C221.2,196.4,222.6,195,224.4,195z"/>
<path class="st5" d="M268.1,232.5L268.1,232.5c1.7,0,3.1,1.4,3.1,3.1v0c0,1.7-1.4,3.1-3.1,3.1h0c-1.7,0-3.1-1.4-3.1-3.1v0
	C265,233.9,266.4,232.5,268.1,232.5z"/>
<path class="st5" d="M274.4,245L274.4,245c1.7,0,3.1,1.4,3.1,3.1v0c0,1.7-1.4,3.1-3.1,3.1h0c-1.7,0-3.1-1.4-3.1-3.1v0
	C271.2,246.4,272.6,245,274.4,245z"/>
<path class="st6" d="M369.4,245L369.4,245c1.7,0,3.1,1.4,3.1,3.1v0c0,1.7-1.4,3.1-3.1,3.1h0c-1.7,0-3.1-1.4-3.1-3.1v0
	C366.2,246.4,367.6,245,369.4,245z"/>
<path class="st6" d="M369.4,238.7L369.4,238.7c1.7,0,3.1,1.4,3.1,3.1v0c0,1.7-1.4,3.1-3.1,3.1h0c-1.7,0-3.1-1.4-3.1-3.1v0
	C366.2,240.1,367.6,238.7,369.4,238.7z"/>
<path class="st6" d="M369.4,232.5L369.4,232.5c1.7,0,3.1,1.4,3.1,3.1v0c0,1.7-1.4,3.1-3.1,3.1h0c-1.7,0-3.1-1.4-3.1-3.1v0
	C366.2,233.9,367.6,232.5,369.4,232.5z"/>
<path class="st6" d="M394.4,257.5L394.4,257.5c1.7,0,3.1,1.4,3.1,3.1v0c0,1.7-1.4,3.1-3.1,3.1h0c-1.7,0-3.1-1.4-3.1-3.1v0
	C391.2,258.9,392.6,257.5,394.4,257.5z"/>
<path class="st6" d="M388.1,257.5L388.1,257.5c1.7,0,3.1,1.4,3.1,3.1v0c0,1.7-1.4,3.1-3.1,3.1h0c-1.7,0-3.1-1.4-3.1-3.1v0
	C385,258.9,386.4,257.5,388.1,257.5z"/>
<path class="st6" d="M381.9,257.5L381.9,257.5c1.7,0,3.1,1.4,3.1,3.1v0c0,1.7-1.4,3.1-3.1,3.1h0c-1.7,0-3.1-1.4-3.1-3.1v0
	C378.8,258.9,380.1,257.5,381.9,257.5z"/>
<path class="st6" d="M375.6,251.2L375.6,251.2c1.7,0,3.1,1.4,3.1,3.1v0c0,1.7-1.4,3.1-3.1,3.1h0c-1.7,0-3.1-1.4-3.1-3.1v0
	C372.5,252.6,373.9,251.2,375.6,251.2z"/>
<path class="st6" d="M400.6,251.2L400.6,251.2c1.7,0,3.1,1.4,3.1,3.1v0c0,1.7-1.4,3.1-3.1,3.1h0c-1.7,0-3.1-1.4-3.1-3.1v0
	C397.5,252.6,398.9,251.2,400.6,251.2z"/>
<path class="st6" d="M406.9,245L406.9,245c1.7,0,3.1,1.4,3.1,3.1v0c0,1.7-1.4,3.1-3.1,3.1h0c-1.7,0-3.1-1.4-3.1-3.1v0
	C403.8,246.4,405.1,245,406.9,245z"/>
<path class="st6" d="M406.9,238.7L406.9,238.7c1.7,0,3.1,1.4,3.1,3.1v0c0,1.7-1.4,3.1-3.1,3.1h0c-1.7,0-3.1-1.4-3.1-3.1v0
	C403.8,240.1,405.1,238.7,406.9,238.7z"/>
<path class="st6" d="M406.9,232.5L406.9,232.5c1.7,0,3.1,1.4,3.1,3.1v0c0,1.7-1.4,3.1-3.1,3.1h0c-1.7,0-3.1-1.4-3.1-3.1v0
	C403.8,233.9,405.1,232.5,406.9,232.5z"/>
<path class="st6" d="M400.6,226.2L400.6,226.2c1.7,0,3.1,1.4,3.1,3.1v0c0,1.7-1.4,3.1-3.1,3.1h0c-1.7,0-3.1-1.4-3.1-3.1v0
	C397.5,227.6,398.9,226.2,400.6,226.2z"/>
<path class="st6" d="M375.6,226.2L375.6,226.2c1.7,0,3.1,1.4,3.1,3.1v0c0,1.7-1.4,3.1-3.1,3.1h0c-1.7,0-3.1-1.4-3.1-3.1v0
	C372.5,227.6,373.9,226.2,375.6,226.2z"/>
<path class="st6" d="M388.1,238.7L388.1,238.7c1.7,0,3.1,1.4,3.1,3.1v0c0,1.7-1.4,3.1-3.1,3.1h0c-1.7,0-3.1-1.4-3.1-3.1v0
	C385,240.1,386.4,238.7,388.1,238.7z"/>
<path class="st6" d="M394.4,232.5L394.4,232.5c1.7,0,3.1,1.4,3.1,3.1v0c0,1.7-1.4,3.1-3.1,3.1h0c-1.7,0-3.1-1.4-3.1-3.1v0
	C391.2,233.9,392.6,232.5,394.4,232.5z"/>
<path class="st6" d="M394.4,226.2L394.4,226.2c1.7,0,3.1,1.4,3.1,3.1v0c0,1.7-1.4,3.1-3.1,3.1h0c-1.7,0-3.1-1.4-3.1-3.1v0
	C391.2,227.6,392.6,226.2,394.4,226.2z"/>
<path class="st6" d="M394.4,220L394.4,220c1.7,0,3.1,1.4,3.1,3.1v0c0,1.7-1.4,3.1-3.1,3.1h0c-1.7,0-3.1-1.4-3.1-3.1v0
	C391.2,221.4,392.6,220,394.4,220z"/>
<path class="st6" d="M388.1,220L388.1,220c1.7,0,3.1,1.4,3.1,3.1v0c0,1.7-1.4,3.1-3.1,3.1h0c-1.7,0-3.1-1.4-3.1-3.1v0
	C385,221.4,386.4,220,388.1,220z"/>
<path class="st6" d="M381.9,220L381.9,220c1.7,0,3.1,1.4,3.1,3.1v0c0,1.7-1.4,3.1-3.1,3.1h0c-1.7,0-3.1-1.4-3.1-3.1v0
	C378.8,221.4,380.1,220,381.9,220z"/>
<path class="st6" d="M394.4,213.7L394.4,213.7c1.7,0,3.1,1.4,3.1,3.1v0c0,1.7-1.4,3.1-3.1,3.1h0c-1.7,0-3.1-1.4-3.1-3.1v0
	C391.2,215.1,392.6,213.7,394.4,213.7z"/>
<path class="st6" d="M394.4,207.5L394.4,207.5c1.7,0,3.1,1.4,3.1,3.1v0c0,1.7-1.4,3.1-3.1,3.1h0c-1.7,0-3.1-1.4-3.1-3.1v0
	C391.2,208.9,392.6,207.5,394.4,207.5z"/>
<path class="st6" d="M400.6,207.5L400.6,207.5c1.7,0,3.1,1.4,3.1,3.1v0c0,1.7-1.4,3.1-3.1,3.1h0c-1.7,0-3.1-1.4-3.1-3.1v0
	C397.5,208.9,398.9,207.5,400.6,207.5z"/>
<path class="st6" d="M406.9,207.5L406.9,207.5c1.7,0,3.1,1.4,3.1,3.1v0c0,1.7-1.4,3.1-3.1,3.1h0c-1.7,0-3.1-1.4-3.1-3.1v0
	C403.8,208.9,405.1,207.5,406.9,207.5z"/>
<path class="st6" d="M413.1,207.5L413.1,207.5c1.7,0,3.1,1.4,3.1,3.1v0c0,1.7-1.4,3.1-3.1,3.1h0c-1.7,0-3.1-1.4-3.1-3.1v0
	C410,208.9,411.4,207.5,413.1,207.5z"/>
<path class="st6" d="M419.4,207.5L419.4,207.5c1.7,0,3.1,1.4,3.1,3.1v0c0,1.7-1.4,3.1-3.1,3.1h0c-1.7,0-3.1-1.4-3.1-3.1v0
	C416.2,208.9,417.6,207.5,419.4,207.5z"/>
<path class="st6" d="M425.6,207.5L425.6,207.5c1.7,0,3.1,1.4,3.1,3.1v0c0,1.7-1.4,3.1-3.1,3.1h0c-1.7,0-3.1-1.4-3.1-3.1v0
	C422.5,208.9,423.9,207.5,425.6,207.5z"/>
<path class="st6" d="M431.9,207.5L431.9,207.5c1.7,0,3.1,1.4,3.1,3.1v0c0,1.7-1.4,3.1-3.1,3.1h0c-1.7,0-3.1-1.4-3.1-3.1v0
	C428.8,208.9,430.1,207.5,431.9,207.5z"/>
<path class="st6" d="M394.4,201.2L394.4,201.2c1.7,0,3.1,1.4,3.1,3.1v0c0,1.7-1.4,3.1-3.1,3.1h0c-1.7,0-3.1-1.4-3.1-3.1v0
	C391.2,202.6,392.6,201.2,394.4,201.2z"/>
<path class="st6" d="M388.1,195L388.1,195c1.7,0,3.1,1.4,3.1,3.1v0c0,1.7-1.4,3.1-3.1,3.1h0c-1.7,0-3.1-1.4-3.1-3.1v0
	C385,196.4,386.4,195,388.1,195z"/>
<path class="st6" d="M375.6,188.7L375.6,188.7c1.7,0,3.1,1.4,3.1,3.1v0c0,1.7-1.4,3.1-3.1,3.1h0c-1.7,0-3.1-1.4-3.1-3.1v0
	C372.5,190.1,373.9,188.7,375.6,188.7z"/>
<path class="st6" d="M431.9,201.2L431.9,201.2c1.7,0,3.1,1.4,3.1,3.1v0c0,1.7-1.4,3.1-3.1,3.1h0c-1.7,0-3.1-1.4-3.1-3.1v0
	C428.8,202.6,430.1,201.2,431.9,201.2z"/>
<path class="st6" d="M438.1,201.2L438.1,201.2c1.7,0,3.1,1.4,3.1,3.1v0c0,1.7-1.4,3.1-3.1,3.1h0c-1.7,0-3.1-1.4-3.1-3.1v0
	C435,202.6,436.4,201.2,438.1,201.2z"/>
<path class="st6" d="M406.9,213.7L406.9,213.7c1.7,0,3.1,1.4,3.1,3.1v0c0,1.7-1.4,3.1-3.1,3.1h0c-1.7,0-3.1-1.4-3.1-3.1v0
	C403.8,215.1,405.1,213.7,406.9,213.7z"/>
<path class="st6" d="M413.1,220L413.1,220c1.7,0,3.1,1.4,3.1,3.1v0c0,1.7-1.4,3.1-3.1,3.1h0c-1.7,0-3.1-1.4-3.1-3.1v0
	C410,221.4,411.4,220,413.1,220z"/>
<path class="st6" d="M419.4,226.2L419.4,226.2c1.7,0,3.1,1.4,3.1,3.1v0c0,1.7-1.4,3.1-3.1,3.1h0c-1.7,0-3.1-1.4-3.1-3.1v0
	C416.2,227.6,417.6,226.2,419.4,226.2z"/>
<path class="st6" d="M431.9,232.5L431.9,232.5c1.7,0,3.1,1.4,3.1,3.1v0c0,1.7-1.4,3.1-3.1,3.1h0c-1.7,0-3.1-1.4-3.1-3.1v0
	C428.8,233.9,430.1,232.5,431.9,232.5z"/>
<path class="st6" d="M450.6,238.7L450.6,238.7c1.7,0,3.1,1.4,3.1,3.1v0c0,1.7-1.4,3.1-3.1,3.1h0c-1.7,0-3.1-1.4-3.1-3.1v0
	C447.5,240.1,448.9,238.7,450.6,238.7z"/>
<path class="st6" d="M444.4,238.7L444.4,238.7c1.7,0,3.1,1.4,3.1,3.1v0c0,1.7-1.4,3.1-3.1,3.1h0c-1.7,0-3.1-1.4-3.1-3.1v0
	C441.2,240.1,442.6,238.7,444.4,238.7z"/>
<path class="st6" d="M438.1,238.7L438.1,238.7c1.7,0,3.1,1.4,3.1,3.1v0c0,1.7-1.4,3.1-3.1,3.1h0c-1.7,0-3.1-1.4-3.1-3.1v0
	C435,240.1,436.4,238.7,438.1,238.7z"/>
<path class="st6" d="M444.4,232.5L444.4,232.5c1.7,0,3.1,1.4,3.1,3.1v0c0,1.7-1.4,3.1-3.1,3.1h0c-1.7,0-3.1-1.4-3.1-3.1v0
	C441.2,233.9,442.6,232.5,444.4,232.5z"/>
<path class="st6" d="M438.1,226.2L438.1,226.2c1.7,0,3.1,1.4,3.1,3.1v0c0,1.7-1.4,3.1-3.1,3.1h0c-1.7,0-3.1-1.4-3.1-3.1v0
	C435,227.6,436.4,226.2,438.1,226.2z"/>
<path class="st6" d="M431.9,220L431.9,220c1.7,0,3.1,1.4,3.1,3.1v0c0,1.7-1.4,3.1-3.1,3.1h0c-1.7,0-3.1-1.4-3.1-3.1v0
	C428.8,221.4,430.1,220,431.9,220z"/>
<path class="st6" d="M431.9,213.7L431.9,213.7c1.7,0,3.1,1.4,3.1,3.1v0c0,1.7-1.4,3.1-3.1,3.1h0c-1.7,0-3.1-1.4-3.1-3.1v0
	C428.8,215.1,430.1,213.7,431.9,213.7z"/>
<path class="st6" d="M456.9,257.5L456.9,257.5c1.7,0,3.1,1.4,3.1,3.1v0c0,1.7-1.4,3.1-3.1,3.1h0c-1.7,0-3.1-1.4-3.1-3.1v0
	C453.8,258.9,455.1,257.5,456.9,257.5z"/>
<path class="st6" d="M450.6,257.5L450.6,257.5c1.7,0,3.1,1.4,3.1,3.1v0c0,1.7-1.4,3.1-3.1,3.1h0c-1.7,0-3.1-1.4-3.1-3.1v0
	C447.5,258.9,448.9,257.5,450.6,257.5z"/>
<path class="st6" d="M444.4,257.5L444.4,257.5c1.7,0,3.1,1.4,3.1,3.1v0c0,1.7-1.4,3.1-3.1,3.1h0c-1.7,0-3.1-1.4-3.1-3.1v0
	C441.2,258.9,442.6,257.5,444.4,257.5z"/>
<path class="st6" d="M438.1,251.2L438.1,251.2c1.7,0,3.1,1.4,3.1,3.1v0c0,1.7-1.4,3.1-3.1,3.1h0c-1.7,0-3.1-1.4-3.1-3.1v0
	C435,252.6,436.4,251.2,438.1,251.2z"/>
<path class="st6" d="M463.1,251.2L463.1,251.2c1.7,0,3.1,1.4,3.1,3.1v0c0,1.7-1.4,3.1-3.1,3.1h0c-1.7,0-3.1-1.4-3.1-3.1v0
	C460,252.6,461.4,251.2,463.1,251.2z"/>
<path class="st6" d="M469.4,245L469.4,245c1.7,0,3.1,1.4,3.1,3.1v0c0,1.7-1.4,3.1-3.1,3.1h0c-1.7,0-3.1-1.4-3.1-3.1v0
	C466.2,246.4,467.6,245,469.4,245z"/>
<path class="st6" d="M469.4,238.7L469.4,238.7c1.7,0,3.1,1.4,3.1,3.1v0c0,1.7-1.4,3.1-3.1,3.1h0c-1.7,0-3.1-1.4-3.1-3.1v0
	C466.2,240.1,467.6,238.7,469.4,238.7z"/>
<path class="st6" d="M469.4,232.5L469.4,232.5c1.7,0,3.1,1.4,3.1,3.1v0c0,1.7-1.4,3.1-3.1,3.1h0c-1.7,0-3.1-1.4-3.1-3.1v0
	C466.2,233.9,467.6,232.5,469.4,232.5z"/>
<path class="st6" d="M463.1,226.2L463.1,226.2c1.7,0,3.1,1.4,3.1,3.1v0c0,1.7-1.4,3.1-3.1,3.1h0c-1.7,0-3.1-1.4-3.1-3.1v0
	C460,227.6,461.4,226.2,463.1,226.2z"/>
<path class="st6" d="M444.4,220L444.4,220c1.7,0,3.1,1.4,3.1,3.1v0c0,1.7-1.4,3.1-3.1,3.1h0c-1.7,0-3.1-1.4-3.1-3.1v0
	C441.2,221.4,442.6,220,444.4,220z"/>
<path class="st6" d="M450.6,220L450.6,220c1.7,0,3.1,1.4,3.1,3.1v0c0,1.7-1.4,3.1-3.1,3.1h0c-1.7,0-3.1-1.4-3.1-3.1v0
	C447.5,221.4,448.9,220,450.6,220z"/>
<path class="st6" d="M456.9,220L456.9,220c1.7,0,3.1,1.4,3.1,3.1v0c0,1.7-1.4,3.1-3.1,3.1h0c-1.7,0-3.1-1.4-3.1-3.1v0
	C453.8,221.4,455.1,220,456.9,220z"/>
<path class="st6" d="M431.9,238.7L431.9,238.7c1.7,0,3.1,1.4,3.1,3.1v0c0,1.7-1.4,3.1-3.1,3.1h0c-1.7,0-3.1-1.4-3.1-3.1v0
	C428.8,240.1,430.1,238.7,431.9,238.7z"/>
<path class="st6" d="M381.9,188.7L381.9,188.7c1.7,0,3.1,1.4,3.1,3.1v0c0,1.7-1.4,3.1-3.1,3.1h0c-1.7,0-3.1-1.4-3.1-3.1v0
	C378.8,190.1,380.1,188.7,381.9,188.7z"/>
<path class="st6" d="M381.9,195L381.9,195c1.7,0,3.1,1.4,3.1,3.1v0c0,1.7-1.4,3.1-3.1,3.1h0c-1.7,0-3.1-1.4-3.1-3.1v0
	C378.8,196.4,380.1,195,381.9,195z"/>
<path class="st6" d="M425.6,232.5L425.6,232.5c1.7,0,3.1,1.4,3.1,3.1v0c0,1.7-1.4,3.1-3.1,3.1h0c-1.7,0-3.1-1.4-3.1-3.1v0
	C422.5,233.9,423.9,232.5,425.6,232.5z"/>
<path class="st6" d="M431.9,245L431.9,245c1.7,0,3.1,1.4,3.1,3.1v0c0,1.7-1.4,3.1-3.1,3.1h0c-1.7,0-3.1-1.4-3.1-3.1v0
	C428.8,246.4,430.1,245,431.9,245z"/>
<path class="st7" d="M526.9,245L526.9,245c1.7,0,3.1,1.4,3.1,3.1v0c0,1.7-1.4,3.1-3.1,3.1h0c-1.7,0-3.1-1.4-3.1-3.1v0
	C523.8,246.4,525.1,245,526.9,245z"/>
<path class="st7" d="M526.9,238.7L526.9,238.7c1.7,0,3.1,1.4,3.1,3.1v0c0,1.7-1.4,3.1-3.1,3.1h0c-1.7,0-3.1-1.4-3.1-3.1v0
	C523.8,240.1,525.1,238.7,526.9,238.7z"/>
<path class="st7" d="M526.9,232.5L526.9,232.5c1.7,0,3.1,1.4,3.1,3.1v0c0,1.7-1.4,3.1-3.1,3.1h0c-1.7,0-3.1-1.4-3.1-3.1v0
	C523.8,233.9,525.1,232.5,526.9,232.5z"/>
<path class="st7" d="M551.9,257.5L551.9,257.5c1.7,0,3.1,1.4,3.1,3.1v0c0,1.7-1.4,3.1-3.1,3.1h0c-1.7,0-3.1-1.4-3.1-3.1v0
	C548.8,258.9,550.1,257.5,551.9,257.5z"/>
<path class="st7" d="M545.6,257.5L545.6,257.5c1.7,0,3.1,1.4,3.1,3.1v0c0,1.7-1.4,3.1-3.1,3.1h0c-1.7,0-3.1-1.4-3.1-3.1v0
	C542.5,258.9,543.9,257.5,545.6,257.5z"/>
<path class="st7" d="M539.4,257.5L539.4,257.5c1.7,0,3.1,1.4,3.1,3.1v0c0,1.7-1.4,3.1-3.1,3.1h0c-1.7,0-3.1-1.4-3.1-3.1v0
	C536.2,258.9,537.6,257.5,539.4,257.5z"/>
<path class="st7" d="M533.1,251.2L533.1,251.2c1.7,0,3.1,1.4,3.1,3.1v0c0,1.7-1.4,3.1-3.1,3.1h0c-1.7,0-3.1-1.4-3.1-3.1v0
	C530,252.6,531.4,251.2,533.1,251.2z"/>
<path class="st7" d="M558.1,251.2L558.1,251.2c1.7,0,3.1,1.4,3.1,3.1v0c0,1.7-1.4,3.1-3.1,3.1h0c-1.7,0-3.1-1.4-3.1-3.1v0
	C555,252.6,556.4,251.2,558.1,251.2z"/>
<path class="st7" d="M564.4,245L564.4,245c1.7,0,3.1,1.4,3.1,3.1v0c0,1.7-1.4,3.1-3.1,3.1h0c-1.7,0-3.1-1.4-3.1-3.1v0
	C561.2,246.4,562.6,245,564.4,245z"/>
<path class="st7" d="M564.4,238.7L564.4,238.7c1.7,0,3.1,1.4,3.1,3.1v0c0,1.7-1.4,3.1-3.1,3.1h0c-1.7,0-3.1-1.4-3.1-3.1v0
	C561.2,240.1,562.6,238.7,564.4,238.7z"/>
<path class="st7" d="M564.4,232.5L564.4,232.5c1.7,0,3.1,1.4,3.1,3.1v0c0,1.7-1.4,3.1-3.1,3.1h0c-1.7,0-3.1-1.4-3.1-3.1v0
	C561.2,233.9,562.6,232.5,564.4,232.5z"/>
<path class="st7" d="M558.1,226.2L558.1,226.2c1.7,0,3.1,1.4,3.1,3.1v0c0,1.7-1.4,3.1-3.1,3.1h0c-1.7,0-3.1-1.4-3.1-3.1v0
	C555,227.6,556.4,226.2,558.1,226.2z"/>
<path class="st7" d="M533.1,226.2L533.1,226.2c1.7,0,3.1,1.4,3.1,3.1v0c0,1.7-1.4,3.1-3.1,3.1h0c-1.7,0-3.1-1.4-3.1-3.1v0
	C530,227.6,531.4,226.2,533.1,226.2z"/>
<path class="st7" d="M545.6,238.7L545.6,238.7c1.7,0,3.1,1.4,3.1,3.1v0c0,1.7-1.4,3.1-3.1,3.1h0c-1.7,0-3.1-1.4-3.1-3.1v0
	C542.5,240.1,543.9,238.7,545.6,238.7z"/>
<path class="st7" d="M551.9,232.5L551.9,232.5c1.7,0,3.1,1.4,3.1,3.1v0c0,1.7-1.4,3.1-3.1,3.1h0c-1.7,0-3.1-1.4-3.1-3.1v0
	C548.8,233.9,550.1,232.5,551.9,232.5z"/>
<path class="st7" d="M551.9,226.2L551.9,226.2c1.7,0,3.1,1.4,3.1,3.1v0c0,1.7-1.4,3.1-3.1,3.1h0c-1.7,0-3.1-1.4-3.1-3.1v0
	C548.8,227.6,550.1,226.2,551.9,226.2z"/>
<path class="st7" d="M551.9,220L551.9,220c1.7,0,3.1,1.4,3.1,3.1v0c0,1.7-1.4,3.1-3.1,3.1h0c-1.7,0-3.1-1.4-3.1-3.1v0
	C548.8,221.4,550.1,220,551.9,220z"/>
<path class="st7" d="M545.6,220L545.6,220c1.7,0,3.1,1.4,3.1,3.1v0c0,1.7-1.4,3.1-3.1,3.1h0c-1.7,0-3.1-1.4-3.1-3.1v0
	C542.5,221.4,543.9,220,545.6,220z"/>
<path class="st7" d="M539.4,220L539.4,220c1.7,0,3.1,1.4,3.1,3.1v0c0,1.7-1.4,3.1-3.1,3.1h0c-1.7,0-3.1-1.4-3.1-3.1v0
	C536.2,221.4,537.6,220,539.4,220z"/>
<path class="st7" d="M551.9,213.7L551.9,213.7c1.7,0,3.1,1.4,3.1,3.1v0c0,1.7-1.4,3.1-3.1,3.1h0c-1.7,0-3.1-1.4-3.1-3.1v0
	C548.8,215.1,550.1,213.7,551.9,213.7z"/>
<path class="st7" d="M551.9,207.5L551.9,207.5c1.7,0,3.1,1.4,3.1,3.1v0c0,1.7-1.4,3.1-3.1,3.1h0c-1.7,0-3.1-1.4-3.1-3.1v0
	C548.8,208.9,550.1,207.5,551.9,207.5z"/>
<path class="st7" d="M558.1,207.5L558.1,207.5c1.7,0,3.1,1.4,3.1,3.1v0c0,1.7-1.4,3.1-3.1,3.1h0c-1.7,0-3.1-1.4-3.1-3.1v0
	C555,208.9,556.4,207.5,558.1,207.5z"/>
<path class="st7" d="M564.4,207.5L564.4,207.5c1.7,0,3.1,1.4,3.1,3.1v0c0,1.7-1.4,3.1-3.1,3.1h0c-1.7,0-3.1-1.4-3.1-3.1v0
	C561.2,208.9,562.6,207.5,564.4,207.5z"/>
<path class="st7" d="M570.6,207.5L570.6,207.5c1.7,0,3.1,1.4,3.1,3.1v0c0,1.7-1.4,3.1-3.1,3.1h0c-1.7,0-3.1-1.4-3.1-3.1v0
	C567.5,208.9,568.9,207.5,570.6,207.5z"/>
<path class="st7" d="M576.9,207.5L576.9,207.5c1.7,0,3.1,1.4,3.1,3.1v0c0,1.7-1.4,3.1-3.1,3.1h0c-1.7,0-3.1-1.4-3.1-3.1v0
	C573.8,208.9,575.1,207.5,576.9,207.5z"/>
<path class="st7" d="M583.1,207.5L583.1,207.5c1.7,0,3.1,1.4,3.1,3.1v0c0,1.7-1.4,3.1-3.1,3.1h0c-1.7,0-3.1-1.4-3.1-3.1v0
	C580,208.9,581.4,207.5,583.1,207.5z"/>
<path class="st7" d="M589.4,207.5L589.4,207.5c1.7,0,3.1,1.4,3.1,3.1v0c0,1.7-1.4,3.1-3.1,3.1h0c-1.7,0-3.1-1.4-3.1-3.1v0
	C586.2,208.9,587.6,207.5,589.4,207.5z"/>
<path class="st7" d="M551.9,201.2L551.9,201.2c1.7,0,3.1,1.4,3.1,3.1v0c0,1.7-1.4,3.1-3.1,3.1h0c-1.7,0-3.1-1.4-3.1-3.1v0
	C548.8,202.6,550.1,201.2,551.9,201.2z"/>
<path class="st7" d="M545.6,195L545.6,195c1.7,0,3.1,1.4,3.1,3.1v0c0,1.7-1.4,3.1-3.1,3.1h0c-1.7,0-3.1-1.4-3.1-3.1v0
	C542.5,196.4,543.9,195,545.6,195z"/>
<path class="st7" d="M533.1,188.7L533.1,188.7c1.7,0,3.1,1.4,3.1,3.1v0c0,1.7-1.4,3.1-3.1,3.1h0c-1.7,0-3.1-1.4-3.1-3.1v0
	C530,190.1,531.4,188.7,533.1,188.7z"/>
<path class="st7" d="M589.4,201.2L589.4,201.2c1.7,0,3.1,1.4,3.1,3.1v0c0,1.7-1.4,3.1-3.1,3.1h0c-1.7,0-3.1-1.4-3.1-3.1v0
	C586.2,202.6,587.6,201.2,589.4,201.2z"/>
<path class="st7" d="M595.6,201.2L595.6,201.2c1.7,0,3.1,1.4,3.1,3.1v0c0,1.7-1.4,3.1-3.1,3.1h0c-1.7,0-3.1-1.4-3.1-3.1v0
	C592.5,202.6,593.9,201.2,595.6,201.2z"/>
<path class="st7" d="M564.4,213.7L564.4,213.7c1.7,0,3.1,1.4,3.1,3.1v0c0,1.7-1.4,3.1-3.1,3.1h0c-1.7,0-3.1-1.4-3.1-3.1v0
	C561.2,215.1,562.6,213.7,564.4,213.7z"/>
<path class="st7" d="M570.6,220L570.6,220c1.7,0,3.1,1.4,3.1,3.1v0c0,1.7-1.4,3.1-3.1,3.1h0c-1.7,0-3.1-1.4-3.1-3.1v0
	C567.5,221.4,568.9,220,570.6,220z"/>
<path class="st7" d="M576.9,226.2L576.9,226.2c1.7,0,3.1,1.4,3.1,3.1v0c0,1.7-1.4,3.1-3.1,3.1h0c-1.7,0-3.1-1.4-3.1-3.1v0
	C573.8,227.6,575.1,226.2,576.9,226.2z"/>
<path class="st7" d="M589.4,232.5L589.4,232.5c1.7,0,3.1,1.4,3.1,3.1v0c0,1.7-1.4,3.1-3.1,3.1h0c-1.7,0-3.1-1.4-3.1-3.1v0
	C586.2,233.9,587.6,232.5,589.4,232.5z"/>
<path class="st7" d="M608.1,238.7L608.1,238.7c1.7,0,3.1,1.4,3.1,3.1v0c0,1.7-1.4,3.1-3.1,3.1h0c-1.7,0-3.1-1.4-3.1-3.1v0
	C605,240.1,606.4,238.7,608.1,238.7z"/>
<path class="st7" d="M601.9,238.7L601.9,238.7c1.7,0,3.1,1.4,3.1,3.1v0c0,1.7-1.4,3.1-3.1,3.1h0c-1.7,0-3.1-1.4-3.1-3.1v0
	C598.8,240.1,600.1,238.7,601.9,238.7z"/>
<path class="st7" d="M595.6,238.7L595.6,238.7c1.7,0,3.1,1.4,3.1,3.1v0c0,1.7-1.4,3.1-3.1,3.1h0c-1.7,0-3.1-1.4-3.1-3.1v0
	C592.5,240.1,593.9,238.7,595.6,238.7z"/>
<path class="st7" d="M601.9,232.5L601.9,232.5c1.7,0,3.1,1.4,3.1,3.1v0c0,1.7-1.4,3.1-3.1,3.1h0c-1.7,0-3.1-1.4-3.1-3.1v0
	C598.8,233.9,600.1,232.5,601.9,232.5z"/>
<path class="st7" d="M595.6,226.2L595.6,226.2c1.7,0,3.1,1.4,3.1,3.1v0c0,1.7-1.4,3.1-3.1,3.1h0c-1.7,0-3.1-1.4-3.1-3.1v0
	C592.5,227.6,593.9,226.2,595.6,226.2z"/>
<path class="st7" d="M589.4,220L589.4,220c1.7,0,3.1,1.4,3.1,3.1v0c0,1.7-1.4,3.1-3.1,3.1h0c-1.7,0-3.1-1.4-3.1-3.1v0
	C586.2,221.4,587.6,220,589.4,220z"/>
<path class="st7" d="M589.4,213.7L589.4,213.7c1.7,0,3.1,1.4,3.1,3.1v0c0,1.7-1.4,3.1-3.1,3.1h0c-1.7,0-3.1-1.4-3.1-3.1v0
	C586.2,215.1,587.6,213.7,589.4,213.7z"/>
<path class="st7" d="M614.4,257.5L614.4,257.5c1.7,0,3.1,1.4,3.1,3.1v0c0,1.7-1.4,3.1-3.1,3.1h0c-1.7,0-3.1-1.4-3.1-3.1v0
	C611.2,258.9,612.6,257.5,614.4,257.5z"/>
<path class="st7" d="M608.1,257.5L608.1,257.5c1.7,0,3.1,1.4,3.1,3.1v0c0,1.7-1.4,3.1-3.1,3.1h0c-1.7,0-3.1-1.4-3.1-3.1v0
	C605,258.9,606.4,257.5,608.1,257.5z"/>
<path class="st7" d="M601.9,257.5L601.9,257.5c1.7,0,3.1,1.4,3.1,3.1v0c0,1.7-1.4,3.1-3.1,3.1h0c-1.7,0-3.1-1.4-3.1-3.1v0
	C598.8,258.9,600.1,257.5,601.9,257.5z"/>
<path class="st7" d="M595.6,251.2L595.6,251.2c1.7,0,3.1,1.4,3.1,3.1v0c0,1.7-1.4,3.1-3.1,3.1h0c-1.7,0-3.1-1.4-3.1-3.1v0
	C592.5,252.6,593.9,251.2,595.6,251.2z"/>
<path class="st7" d="M620.6,251.2L620.6,251.2c1.7,0,3.1,1.4,3.1,3.1v0c0,1.7-1.4,3.1-3.1,3.1h0c-1.7,0-3.1-1.4-3.1-3.1v0
	C617.5,252.6,618.9,251.2,620.6,251.2z"/>
<path class="st7" d="M626.9,245L626.9,245c1.7,0,3.1,1.4,3.1,3.1v0c0,1.7-1.4,3.1-3.1,3.1h0c-1.7,0-3.1-1.4-3.1-3.1v0
	C623.8,246.4,625.1,245,626.9,245z"/>
<path class="st7" d="M626.9,238.7L626.9,238.7c1.7,0,3.1,1.4,3.1,3.1v0c0,1.7-1.4,3.1-3.1,3.1h0c-1.7,0-3.1-1.4-3.1-3.1v0
	C623.8,240.1,625.1,238.7,626.9,238.7z"/>
<path class="st7" d="M626.9,232.5L626.9,232.5c1.7,0,3.1,1.4,3.1,3.1v0c0,1.7-1.4,3.1-3.1,3.1h0c-1.7,0-3.1-1.4-3.1-3.1v0
	C623.8,233.9,625.1,232.5,626.9,232.5z"/>
<path class="st7" d="M620.6,226.2L620.6,226.2c1.7,0,3.1,1.4,3.1,3.1v0c0,1.7-1.4,3.1-3.1,3.1h0c-1.7,0-3.1-1.4-3.1-3.1v0
	C617.5,227.6,618.9,226.2,620.6,226.2z"/>
<path class="st7" d="M601.9,220L601.9,220c1.7,0,3.1,1.4,3.1,3.1v0c0,1.7-1.4,3.1-3.1,3.1h0c-1.7,0-3.1-1.4-3.1-3.1v0
	C598.8,221.4,600.1,220,601.9,220z"/>
<path class="st7" d="M608.1,220L608.1,220c1.7,0,3.1,1.4,3.1,3.1v0c0,1.7-1.4,3.1-3.1,3.1h0c-1.7,0-3.1-1.4-3.1-3.1v0
	C605,221.4,606.4,220,608.1,220z"/>
<path class="st7" d="M614.4,220L614.4,220c1.7,0,3.1,1.4,3.1,3.1v0c0,1.7-1.4,3.1-3.1,3.1h0c-1.7,0-3.1-1.4-3.1-3.1v0
	C611.2,221.4,612.6,220,614.4,220z"/>
<path class="st7" d="M589.4,238.7L589.4,238.7c1.7,0,3.1,1.4,3.1,3.1v0c0,1.7-1.4,3.1-3.1,3.1h0c-1.7,0-3.1-1.4-3.1-3.1v0
	C586.2,240.1,587.6,238.7,589.4,238.7z"/>
<path class="st7" d="M539.4,188.7L539.4,188.7c1.7,0,3.1,1.4,3.1,3.1v0c0,1.7-1.4,3.1-3.1,3.1h0c-1.7,0-3.1-1.4-3.1-3.1v0
	C536.2,190.1,537.6,188.7,539.4,188.7z"/>
<path class="st7" d="M539.4,195L539.4,195c1.7,0,3.1,1.4,3.1,3.1v0c0,1.7-1.4,3.1-3.1,3.1h0c-1.7,0-3.1-1.4-3.1-3.1v0
	C536.2,196.4,537.6,195,539.4,195z"/>
<path class="st7" d="M583.1,232.5L583.1,232.5c1.7,0,3.1,1.4,3.1,3.1v0c0,1.7-1.4,3.1-3.1,3.1h0c-1.7,0-3.1-1.4-3.1-3.1v0
	C580,233.9,581.4,232.5,583.1,232.5z"/>
<path class="st7" d="M589.4,245L589.4,245c1.7,0,3.1,1.4,3.1,3.1v0c0,1.7-1.4,3.1-3.1,3.1h0c-1.7,0-3.1-1.4-3.1-3.1v0
	C586.2,246.4,587.6,245,589.4,245z"/>
</svg>
