<?xml version="1.0" encoding="UTF-8"?>
<svg xmlns="http://www.w3.org/2000/svg" viewBox="0 0 840 1181.25">
  <defs>
    <style>
      .cls-1, .cls-2 {
        fill: #fff;
      }

      .cls-3 {
        stroke: #e6615d;
      }

      .cls-3, .cls-4, .cls-5 {
        fill: none;
        stroke-miterlimit: 10;
        stroke-width: 52.5px;
      }

      .cls-4 {
        stroke: #87a5d6;
      }

      .cls-2 {
        isolation: isolate;
      }

      .cls-5 {
        stroke: #ffda74;
      }

      .cls-6 {
        fill: #1d1d1b;
      }
    </style>
  </defs>
  <g id="Layer_20" data-name="Layer 20">
    <rect class="cls-6" x="0" y="-.05" width="840" height="1181.3"/>
  </g>
  <g id="Layer_19" data-name="Layer 19">
    <g>
      <path class="cls-1" d="M54.1,244.95h0c1.7,0,3.1,1.4,3.1,3.1h0c0,1.7-1.4,3.1-3.1,3.1h0c-1.7,0-3.1-1.4-3.1-3.1h0c0-1.7,1.4-3.1,3.1-3.1Z"/>
      <path class="cls-1" d="M54.1,238.65h0c1.7,0,3.1,1.4,3.1,3.1h0c0,1.7-1.4,3.1-3.1,3.1h0c-1.7,0-3.1-1.4-3.1-3.1h0c0-1.7,1.4-3.1,3.1-3.1Z"/>
      <path class="cls-1" d="M54.1,232.45h0c1.7,0,3.1,1.4,3.1,3.1h0c0,1.7-1.4,3.1-3.1,3.1h0c-1.7,0-3.1-1.4-3.1-3.1h0c0-1.7,1.4-3.1,3.1-3.1Z"/>
      <path class="cls-1" d="M79.1,257.45h0c1.7,0,3.1,1.4,3.1,3.1h0c0,1.7-1.4,3.1-3.1,3.1h0c-1.7,0-3.1-1.4-3.1-3.1h0c0-1.7,1.4-3.1,3.1-3.1Z"/>
      <path class="cls-1" d="M72.9,257.45h0c1.7,0,3.1,1.4,3.1,3.1h0c0,1.7-1.4,3.1-3.1,3.1h0c-1.7,0-3.1-1.4-3.1-3.1h0c0-1.7,1.3-3.1,3.1-3.1Z"/>
      <path class="cls-1" d="M66.6,257.45h0c1.7,0,3.1,1.4,3.1,3.1h0c0,1.7-1.4,3.1-3.1,3.1h0c-1.7,0-3.1-1.4-3.1-3.1h0c0-1.7,1.4-3.1,3.1-3.1Z"/>
      <path class="cls-1" d="M60.4,251.15h0c1.7,0,3.1,1.4,3.1,3.1h0c0,1.7-1.4,3.1-3.1,3.1h0c-1.7,0-3.1-1.4-3.1-3.1h0c-.1-1.7,1.3-3.1,3.1-3.1Z"/>
      <path class="cls-1" d="M85.4,251.15h0c1.7,0,3.1,1.4,3.1,3.1h0c0,1.7-1.4,3.1-3.1,3.1h0c-1.7,0-3.1-1.4-3.1-3.1h0c-.1-1.7,1.3-3.1,3.1-3.1Z"/>
      <path class="cls-1" d="M91.6,244.95h0c1.7,0,3.1,1.4,3.1,3.1h0c0,1.7-1.4,3.1-3.1,3.1h0c-1.7,0-3.1-1.4-3.1-3.1h0c0-1.7,1.4-3.1,3.1-3.1Z"/>
      <path class="cls-1" d="M91.6,238.65h0c1.7,0,3.1,1.4,3.1,3.1h0c0,1.7-1.4,3.1-3.1,3.1h0c-1.7,0-3.1-1.4-3.1-3.1h0c0-1.7,1.4-3.1,3.1-3.1Z"/>
      <path class="cls-1" d="M91.6,232.45h0c1.7,0,3.1,1.4,3.1,3.1h0c0,1.7-1.4,3.1-3.1,3.1h0c-1.7,0-3.1-1.4-3.1-3.1h0c0-1.7,1.4-3.1,3.1-3.1Z"/>
      <path class="cls-1" d="M85.4,226.15h0c1.7,0,3.1,1.4,3.1,3.1h0c0,1.7-1.4,3.1-3.1,3.1h0c-1.7,0-3.1-1.4-3.1-3.1h0c-.1-1.7,1.3-3.1,3.1-3.1Z"/>
      <path class="cls-1" d="M60.4,226.15h0c1.7,0,3.1,1.4,3.1,3.1h0c0,1.7-1.4,3.1-3.1,3.1h0c-1.7,0-3.1-1.4-3.1-3.1h0c-.1-1.7,1.3-3.1,3.1-3.1Z"/>
      <path class="cls-1" d="M72.9,238.65h0c1.7,0,3.1,1.4,3.1,3.1h0c0,1.7-1.4,3.1-3.1,3.1h0c-1.7,0-3.1-1.4-3.1-3.1h0c0-1.7,1.3-3.1,3.1-3.1Z"/>
      <path class="cls-1" d="M79.1,232.45h0c1.7,0,3.1,1.4,3.1,3.1h0c0,1.7-1.4,3.1-3.1,3.1h0c-1.7,0-3.1-1.4-3.1-3.1h0c0-1.7,1.4-3.1,3.1-3.1Z"/>
      <path class="cls-1" d="M79.1,226.15h0c1.7,0,3.1,1.4,3.1,3.1h0c0,1.7-1.4,3.1-3.1,3.1h0c-1.7,0-3.1-1.4-3.1-3.1h0c0-1.7,1.4-3.1,3.1-3.1Z"/>
      <path class="cls-1" d="M79.1,219.95h0c1.7,0,3.1,1.4,3.1,3.1h0c0,1.7-1.4,3.1-3.1,3.1h0c-1.7,0-3.1-1.4-3.1-3.1h0c0-1.7,1.4-3.1,3.1-3.1Z"/>
      <path class="cls-1" d="M72.9,219.95h0c1.7,0,3.1,1.4,3.1,3.1h0c0,1.7-1.4,3.1-3.1,3.1h0c-1.7,0-3.1-1.4-3.1-3.1h0c0-1.7,1.3-3.1,3.1-3.1Z"/>
      <path class="cls-1" d="M66.6,219.95h0c1.7,0,3.1,1.4,3.1,3.1h0c0,1.7-1.4,3.1-3.1,3.1h0c-1.7,0-3.1-1.4-3.1-3.1h0c0-1.7,1.4-3.1,3.1-3.1Z"/>
      <path class="cls-1" d="M79.1,213.65h0c1.7,0,3.1,1.4,3.1,3.1h0c0,1.7-1.4,3.1-3.1,3.1h0c-1.7,0-3.1-1.4-3.1-3.1h0c0-1.7,1.4-3.1,3.1-3.1Z"/>
      <path class="cls-1" d="M79.1,207.45h0c1.7,0,3.1,1.4,3.1,3.1h0c0,1.7-1.4,3.1-3.1,3.1h0c-1.7,0-3.1-1.4-3.1-3.1h0c0-1.7,1.4-3.1,3.1-3.1Z"/>
      <path class="cls-1" d="M85.4,207.45h0c1.7,0,3.1,1.4,3.1,3.1h0c0,1.7-1.4,3.1-3.1,3.1h0c-1.7,0-3.1-1.4-3.1-3.1h0c-.1-1.7,1.3-3.1,3.1-3.1Z"/>
      <path class="cls-1" d="M91.6,207.45h0c1.7,0,3.1,1.4,3.1,3.1h0c0,1.7-1.4,3.1-3.1,3.1h0c-1.7,0-3.1-1.4-3.1-3.1h0c0-1.7,1.4-3.1,3.1-3.1Z"/>
      <path class="cls-1" d="M97.9,207.45h0c1.7,0,3.1,1.4,3.1,3.1h0c0,1.7-1.4,3.1-3.1,3.1h0c-1.7,0-3.1-1.4-3.1-3.1h0c0-1.7,1.3-3.1,3.1-3.1Z"/>
      <path class="cls-1" d="M104.1,207.45h0c1.7,0,3.1,1.4,3.1,3.1h0c0,1.7-1.4,3.1-3.1,3.1h0c-1.7,0-3.1-1.4-3.1-3.1h0c0-1.7,1.4-3.1,3.1-3.1Z"/>
      <path class="cls-1" d="M110.4,207.45h0c1.7,0,3.1,1.4,3.1,3.1h0c0,1.7-1.4,3.1-3.1,3.1h0c-1.7,0-3.1-1.4-3.1-3.1h0c-.1-1.7,1.3-3.1,3.1-3.1Z"/>
      <path class="cls-1" d="M116.6,207.45h0c1.7,0,3.1,1.4,3.1,3.1h0c0,1.7-1.4,3.1-3.1,3.1h0c-1.7,0-3.1-1.4-3.1-3.1h0c0-1.7,1.4-3.1,3.1-3.1Z"/>
      <path class="cls-1" d="M79.1,201.15h0c1.7,0,3.1,1.4,3.1,3.1h0c0,1.7-1.4,3.1-3.1,3.1h0c-1.7,0-3.1-1.4-3.1-3.1h0c0-1.7,1.4-3.1,3.1-3.1Z"/>
      <path class="cls-1" d="M72.9,194.95h0c1.7,0,3.1,1.4,3.1,3.1h0c0,1.7-1.4,3.1-3.1,3.1h0c-1.7,0-3.1-1.4-3.1-3.1h0c0-1.7,1.3-3.1,3.1-3.1Z"/>
      <path class="cls-1" d="M60.4,188.65h0c1.7,0,3.1,1.4,3.1,3.1h0c0,1.7-1.4,3.1-3.1,3.1h0c-1.7,0-3.1-1.4-3.1-3.1h0c-.1-1.7,1.3-3.1,3.1-3.1Z"/>
      <path class="cls-1" d="M116.6,201.15h0c1.7,0,3.1,1.4,3.1,3.1h0c0,1.7-1.4,3.1-3.1,3.1h0c-1.7,0-3.1-1.4-3.1-3.1h0c0-1.7,1.4-3.1,3.1-3.1Z"/>
      <path class="cls-1" d="M122.9,201.15h0c1.7,0,3.1,1.4,3.1,3.1h0c0,1.7-1.4,3.1-3.1,3.1h0c-1.7,0-3.1-1.4-3.1-3.1h0c0-1.7,1.3-3.1,3.1-3.1Z"/>
      <path class="cls-1" d="M91.6,213.65h0c1.7,0,3.1,1.4,3.1,3.1h0c0,1.7-1.4,3.1-3.1,3.1h0c-1.7,0-3.1-1.4-3.1-3.1h0c0-1.7,1.4-3.1,3.1-3.1Z"/>
      <path class="cls-1" d="M97.9,219.95h0c1.7,0,3.1,1.4,3.1,3.1h0c0,1.7-1.4,3.1-3.1,3.1h0c-1.7,0-3.1-1.4-3.1-3.1h0c0-1.7,1.3-3.1,3.1-3.1Z"/>
      <path class="cls-1" d="M104.1,226.15h0c1.7,0,3.1,1.4,3.1,3.1h0c0,1.7-1.4,3.1-3.1,3.1h0c-1.7,0-3.1-1.4-3.1-3.1h0c0-1.7,1.4-3.1,3.1-3.1Z"/>
      <path class="cls-1" d="M116.6,232.45h0c1.7,0,3.1,1.4,3.1,3.1h0c0,1.7-1.4,3.1-3.1,3.1h0c-1.7,0-3.1-1.4-3.1-3.1h0c0-1.7,1.4-3.1,3.1-3.1Z"/>
      <path class="cls-1" d="M135.4,238.65h0c1.7,0,3.1,1.4,3.1,3.1h0c0,1.7-1.4,3.1-3.1,3.1h0c-1.7,0-3.1-1.4-3.1-3.1h0c-.1-1.7,1.3-3.1,3.1-3.1Z"/>
      <path class="cls-1" d="M129.1,238.65h0c1.7,0,3.1,1.4,3.1,3.1h0c0,1.7-1.4,3.1-3.1,3.1h0c-1.7,0-3.1-1.4-3.1-3.1h0c0-1.7,1.4-3.1,3.1-3.1Z"/>
      <path class="cls-1" d="M122.9,238.65h0c1.7,0,3.1,1.4,3.1,3.1h0c0,1.7-1.4,3.1-3.1,3.1h0c-1.7,0-3.1-1.4-3.1-3.1h0c0-1.7,1.3-3.1,3.1-3.1Z"/>
      <path class="cls-1" d="M129.1,232.45h0c1.7,0,3.1,1.4,3.1,3.1h0c0,1.7-1.4,3.1-3.1,3.1h0c-1.7,0-3.1-1.4-3.1-3.1h0c0-1.7,1.4-3.1,3.1-3.1Z"/>
      <path class="cls-1" d="M122.9,226.15h0c1.7,0,3.1,1.4,3.1,3.1h0c0,1.7-1.4,3.1-3.1,3.1h0c-1.7,0-3.1-1.4-3.1-3.1h0c0-1.7,1.3-3.1,3.1-3.1Z"/>
      <path class="cls-1" d="M116.6,219.95h0c1.7,0,3.1,1.4,3.1,3.1h0c0,1.7-1.4,3.1-3.1,3.1h0c-1.7,0-3.1-1.4-3.1-3.1h0c0-1.7,1.4-3.1,3.1-3.1Z"/>
      <path class="cls-1" d="M116.6,213.65h0c1.7,0,3.1,1.4,3.1,3.1h0c0,1.7-1.4,3.1-3.1,3.1h0c-1.7,0-3.1-1.4-3.1-3.1h0c0-1.7,1.4-3.1,3.1-3.1Z"/>
      <path class="cls-1" d="M141.6,257.45h0c1.7,0,3.1,1.4,3.1,3.1h0c0,1.7-1.4,3.1-3.1,3.1h0c-1.7,0-3.1-1.4-3.1-3.1h0c0-1.7,1.4-3.1,3.1-3.1Z"/>
      <path class="cls-1" d="M135.4,257.45h0c1.7,0,3.1,1.4,3.1,3.1h0c0,1.7-1.4,3.1-3.1,3.1h0c-1.7,0-3.1-1.4-3.1-3.1h0c-.1-1.7,1.3-3.1,3.1-3.1Z"/>
      <path class="cls-1" d="M129.1,257.45h0c1.7,0,3.1,1.4,3.1,3.1h0c0,1.7-1.4,3.1-3.1,3.1h0c-1.7,0-3.1-1.4-3.1-3.1h0c0-1.7,1.4-3.1,3.1-3.1Z"/>
      <path class="cls-1" d="M122.9,251.15h0c1.7,0,3.1,1.4,3.1,3.1h0c0,1.7-1.4,3.1-3.1,3.1h0c-1.7,0-3.1-1.4-3.1-3.1h0c0-1.7,1.3-3.1,3.1-3.1Z"/>
      <path class="cls-1" d="M147.9,251.15h0c1.7,0,3.1,1.4,3.1,3.1h0c0,1.7-1.4,3.1-3.1,3.1h0c-1.7,0-3.1-1.4-3.1-3.1h0c0-1.7,1.3-3.1,3.1-3.1Z"/>
      <path class="cls-1" d="M154.1,244.95h0c1.7,0,3.1,1.4,3.1,3.1h0c0,1.7-1.4,3.1-3.1,3.1h0c-1.7,0-3.1-1.4-3.1-3.1h0c0-1.7,1.4-3.1,3.1-3.1Z"/>
      <path class="cls-1" d="M154.1,238.65h0c1.7,0,3.1,1.4,3.1,3.1h0c0,1.7-1.4,3.1-3.1,3.1h0c-1.7,0-3.1-1.4-3.1-3.1h0c0-1.7,1.4-3.1,3.1-3.1Z"/>
      <path class="cls-1" d="M154.1,232.45h0c1.7,0,3.1,1.4,3.1,3.1h0c0,1.7-1.4,3.1-3.1,3.1h0c-1.7,0-3.1-1.4-3.1-3.1h0c0-1.7,1.4-3.1,3.1-3.1Z"/>
      <path class="cls-1" d="M147.9,226.15h0c1.7,0,3.1,1.4,3.1,3.1h0c0,1.7-1.4,3.1-3.1,3.1h0c-1.7,0-3.1-1.4-3.1-3.1h0c0-1.7,1.3-3.1,3.1-3.1Z"/>
      <path class="cls-1" d="M129.1,219.95h0c1.7,0,3.1,1.4,3.1,3.1h0c0,1.7-1.4,3.1-3.1,3.1h0c-1.7,0-3.1-1.4-3.1-3.1h0c0-1.7,1.4-3.1,3.1-3.1Z"/>
      <path class="cls-1" d="M135.4,219.95h0c1.7,0,3.1,1.4,3.1,3.1h0c0,1.7-1.4,3.1-3.1,3.1h0c-1.7,0-3.1-1.4-3.1-3.1h0c-.1-1.7,1.3-3.1,3.1-3.1Z"/>
      <path class="cls-1" d="M141.6,219.95h0c1.7,0,3.1,1.4,3.1,3.1h0c0,1.7-1.4,3.1-3.1,3.1h0c-1.7,0-3.1-1.4-3.1-3.1h0c0-1.7,1.4-3.1,3.1-3.1Z"/>
      <path class="cls-1" d="M116.6,238.65h0c1.7,0,3.1,1.4,3.1,3.1h0c0,1.7-1.4,3.1-3.1,3.1h0c-1.7,0-3.1-1.4-3.1-3.1h0c0-1.7,1.4-3.1,3.1-3.1Z"/>
      <path class="cls-1" d="M66.6,188.65h0c1.7,0,3.1,1.4,3.1,3.1h0c0,1.7-1.4,3.1-3.1,3.1h0c-1.7,0-3.1-1.4-3.1-3.1h0c0-1.7,1.4-3.1,3.1-3.1Z"/>
      <path class="cls-1" d="M66.6,194.95h0c1.7,0,3.1,1.4,3.1,3.1h0c0,1.7-1.4,3.1-3.1,3.1h0c-1.7,0-3.1-1.4-3.1-3.1h0c0-1.7,1.4-3.1,3.1-3.1Z"/>
      <path class="cls-1" d="M110.4,232.45h0c1.7,0,3.1,1.4,3.1,3.1h0c0,1.7-1.4,3.1-3.1,3.1h0c-1.7,0-3.1-1.4-3.1-3.1h0c-.1-1.7,1.3-3.1,3.1-3.1Z"/>
      <path class="cls-1" d="M116.6,244.95h0c1.7,0,3.1,1.4,3.1,3.1h0c0,1.7-1.4,3.1-3.1,3.1h0c-1.7,0-3.1-1.4-3.1-3.1h0c0-1.7,1.4-3.1,3.1-3.1Z"/>
    </g>
  </g>
  <g id="Layer_18" data-name="Layer 18">
    <g>
      <path class="cls-2" d="M55.6,371.3h0c1.7,0,3.1,1.4,3.1,3.1h0c0,1.7-1.4,3.1-3.1,3.1h0c-1.7,0-3.1-1.4-3.1-3.1h0c0-1.7,1.3-3.1,3.1-3.1Z"/>
      <path class="cls-2" d="M55.6,365h0c1.7,0,3.1,1.4,3.1,3.1h0c0,1.7-1.4,3.1-3.1,3.1h0c-1.7,0-3.1-1.4-3.1-3.1h0c0-1.7,1.3-3.1,3.1-3.1Z"/>
      <path class="cls-2" d="M55.6,358.8h0c1.7,0,3.1,1.4,3.1,3.1h0c0,1.7-1.4,3.1-3.1,3.1h0c-1.7,0-3.1-1.4-3.1-3.1h0c0-1.7,1.3-3.1,3.1-3.1Z"/>
      <path class="cls-2" d="M80.6,383.8h0c1.7,0,3.1,1.4,3.1,3.1h0c0,1.7-1.4,3.1-3.1,3.1h0c-1.7,0-3.1-1.4-3.1-3.1h0c0-1.7,1.3-3.1,3.1-3.1Z"/>
      <path class="cls-2" d="M74.3,383.8h0c1.7,0,3.1,1.4,3.1,3.1h0c0,1.7-1.4,3.1-3.1,3.1h0c-1.7,0-3.1-1.4-3.1-3.1h0c0-1.7,1.4-3.1,3.1-3.1Z"/>
      <path class="cls-2" d="M68.1,383.8h0c1.7,0,3.1,1.4,3.1,3.1h0c0,1.7-1.4,3.1-3.1,3.1h0c-1.7,0-3.1-1.4-3.1-3.1h0c-.1-1.7,1.3-3.1,3.1-3.1Z"/>
      <path class="cls-2" d="M61.8,377.5h0c1.7,0,3.1,1.4,3.1,3.1h0c0,1.7-1.4,3.1-3.1,3.1h0c-1.7,0-3.1-1.4-3.1-3.1h0c0-1.7,1.4-3.1,3.1-3.1Z"/>
      <path class="cls-2" d="M86.8,377.5h0c1.7,0,3.1,1.4,3.1,3.1h0c0,1.7-1.4,3.1-3.1,3.1h0c-1.7,0-3.1-1.4-3.1-3.1h0c0-1.7,1.4-3.1,3.1-3.1Z"/>
      <path class="cls-2" d="M93.1,371.3h0c1.7,0,3.1,1.4,3.1,3.1h0c0,1.7-1.4,3.1-3.1,3.1h0c-1.7,0-3.1-1.4-3.1-3.1h0c-.1-1.7,1.3-3.1,3.1-3.1Z"/>
      <path class="cls-2" d="M93.1,365h0c1.7,0,3.1,1.4,3.1,3.1h0c0,1.7-1.4,3.1-3.1,3.1h0c-1.7,0-3.1-1.4-3.1-3.1h0c-.1-1.7,1.3-3.1,3.1-3.1Z"/>
      <path class="cls-2" d="M93.1,358.8h0c1.7,0,3.1,1.4,3.1,3.1h0c0,1.7-1.4,3.1-3.1,3.1h0c-1.7,0-3.1-1.4-3.1-3.1h0c-.1-1.7,1.3-3.1,3.1-3.1Z"/>
      <path class="cls-2" d="M86.8,352.5h0c1.7,0,3.1,1.4,3.1,3.1h0c0,1.7-1.4,3.1-3.1,3.1h0c-1.7,0-3.1-1.4-3.1-3.1h0c0-1.7,1.4-3.1,3.1-3.1Z"/>
      <path class="cls-2" d="M61.8,352.5h0c1.7,0,3.1,1.4,3.1,3.1h0c0,1.7-1.4,3.1-3.1,3.1h0c-1.7,0-3.1-1.4-3.1-3.1h0c0-1.7,1.4-3.1,3.1-3.1Z"/>
      <path class="cls-2" d="M74.3,365h0c1.7,0,3.1,1.4,3.1,3.1h0c0,1.7-1.4,3.1-3.1,3.1h0c-1.7,0-3.1-1.4-3.1-3.1h0c0-1.7,1.4-3.1,3.1-3.1Z"/>
      <path class="cls-2" d="M80.6,358.8h0c1.7,0,3.1,1.4,3.1,3.1h0c0,1.7-1.4,3.1-3.1,3.1h0c-1.7,0-3.1-1.4-3.1-3.1h0c0-1.7,1.3-3.1,3.1-3.1Z"/>
      <path class="cls-2" d="M80.6,352.5h0c1.7,0,3.1,1.4,3.1,3.1h0c0,1.7-1.4,3.1-3.1,3.1h0c-1.7,0-3.1-1.4-3.1-3.1h0c0-1.7,1.3-3.1,3.1-3.1Z"/>
      <path class="cls-2" d="M80.6,346.3h0c1.7,0,3.1,1.4,3.1,3.1h0c0,1.7-1.4,3.1-3.1,3.1h0c-1.7,0-3.1-1.4-3.1-3.1h0c0-1.7,1.3-3.1,3.1-3.1Z"/>
      <path class="cls-2" d="M74.3,346.3h0c1.7,0,3.1,1.4,3.1,3.1h0c0,1.7-1.4,3.1-3.1,3.1h0c-1.7,0-3.1-1.4-3.1-3.1h0c0-1.7,1.4-3.1,3.1-3.1Z"/>
      <path class="cls-2" d="M68.1,346.3h0c1.7,0,3.1,1.4,3.1,3.1h0c0,1.7-1.4,3.1-3.1,3.1h0c-1.7,0-3.1-1.4-3.1-3.1h0c-.1-1.7,1.3-3.1,3.1-3.1Z"/>
      <path class="cls-2" d="M80.6,340h0c1.7,0,3.1,1.4,3.1,3.1h0c0,1.7-1.4,3.1-3.1,3.1h0c-1.7,0-3.1-1.4-3.1-3.1h0c0-1.7,1.3-3.1,3.1-3.1Z"/>
      <path class="cls-2" d="M80.6,333.8h0c1.7,0,3.1,1.4,3.1,3.1h0c0,1.7-1.4,3.1-3.1,3.1h0c-1.7,0-3.1-1.4-3.1-3.1h0c0-1.7,1.3-3.1,3.1-3.1Z"/>
      <path class="cls-2" d="M86.8,333.8h0c1.7,0,3.1,1.4,3.1,3.1h0c0,1.7-1.4,3.1-3.1,3.1h0c-1.7,0-3.1-1.4-3.1-3.1h0c0-1.7,1.4-3.1,3.1-3.1Z"/>
      <path class="cls-2" d="M93.1,333.8h0c1.7,0,3.1,1.4,3.1,3.1h0c0,1.7-1.4,3.1-3.1,3.1h0c-1.7,0-3.1-1.4-3.1-3.1h0c-.1-1.7,1.3-3.1,3.1-3.1Z"/>
      <path class="cls-2" d="M99.3,333.8h0c1.7,0,3.1,1.4,3.1,3.1h0c0,1.7-1.4,3.1-3.1,3.1h0c-1.7,0-3.1-1.4-3.1-3.1h0c0-1.7,1.4-3.1,3.1-3.1Z"/>
      <path class="cls-2" d="M105.6,333.8h0c1.7,0,3.1,1.4,3.1,3.1h0c0,1.7-1.4,3.1-3.1,3.1h0c-1.7,0-3.1-1.4-3.1-3.1h0c0-1.7,1.3-3.1,3.1-3.1Z"/>
      <path class="cls-2" d="M111.8,333.8h0c1.7,0,3.1,1.4,3.1,3.1h0c0,1.7-1.4,3.1-3.1,3.1h0c-1.7,0-3.1-1.4-3.1-3.1h0c0-1.7,1.4-3.1,3.1-3.1Z"/>
      <path class="cls-2" d="M118.1,333.8h0c1.7,0,3.1,1.4,3.1,3.1h0c0,1.7-1.4,3.1-3.1,3.1h0c-1.7,0-3.1-1.4-3.1-3.1h0c-.1-1.7,1.3-3.1,3.1-3.1Z"/>
      <path class="cls-2" d="M80.6,327.5h0c1.7,0,3.1,1.4,3.1,3.1h0c0,1.7-1.4,3.1-3.1,3.1h0c-1.7,0-3.1-1.4-3.1-3.1h0c0-1.7,1.3-3.1,3.1-3.1Z"/>
      <path class="cls-2" d="M74.3,321.3h0c1.7,0,3.1,1.4,3.1,3.1h0c0,1.7-1.4,3.1-3.1,3.1h0c-1.7,0-3.1-1.4-3.1-3.1h0c0-1.7,1.4-3.1,3.1-3.1Z"/>
      <path class="cls-2" d="M61.8,315h0c1.7,0,3.1,1.4,3.1,3.1h0c0,1.7-1.4,3.1-3.1,3.1h0c-1.7,0-3.1-1.4-3.1-3.1h0c0-1.7,1.4-3.1,3.1-3.1Z"/>
      <path class="cls-2" d="M118.1,327.5h0c1.7,0,3.1,1.4,3.1,3.1h0c0,1.7-1.4,3.1-3.1,3.1h0c-1.7,0-3.1-1.4-3.1-3.1h0c-.1-1.7,1.3-3.1,3.1-3.1Z"/>
      <path class="cls-2" d="M124.3,327.5h0c1.7,0,3.1,1.4,3.1,3.1h0c0,1.7-1.4,3.1-3.1,3.1h0c-1.7,0-3.1-1.4-3.1-3.1h0c0-1.7,1.4-3.1,3.1-3.1Z"/>
      <path class="cls-2" d="M93.1,340h0c1.7,0,3.1,1.4,3.1,3.1h0c0,1.7-1.4,3.1-3.1,3.1h0c-1.7,0-3.1-1.4-3.1-3.1h0c-.1-1.7,1.3-3.1,3.1-3.1Z"/>
      <path class="cls-2" d="M99.3,346.3h0c1.7,0,3.1,1.4,3.1,3.1h0c0,1.7-1.4,3.1-3.1,3.1h0c-1.7,0-3.1-1.4-3.1-3.1h0c0-1.7,1.4-3.1,3.1-3.1Z"/>
      <path class="cls-2" d="M105.6,352.5h0c1.7,0,3.1,1.4,3.1,3.1h0c0,1.7-1.4,3.1-3.1,3.1h0c-1.7,0-3.1-1.4-3.1-3.1h0c0-1.7,1.3-3.1,3.1-3.1Z"/>
      <path class="cls-2" d="M118.1,358.8h0c1.7,0,3.1,1.4,3.1,3.1h0c0,1.7-1.4,3.1-3.1,3.1h0c-1.7,0-3.1-1.4-3.1-3.1h0c-.1-1.7,1.3-3.1,3.1-3.1Z"/>
      <path class="cls-2" d="M136.8,365h0c1.7,0,3.1,1.4,3.1,3.1h0c0,1.7-1.4,3.1-3.1,3.1h0c-1.7,0-3.1-1.4-3.1-3.1h0c0-1.7,1.4-3.1,3.1-3.1Z"/>
      <path class="cls-2" d="M130.6,365h0c1.7,0,3.1,1.4,3.1,3.1h0c0,1.7-1.4,3.1-3.1,3.1h0c-1.7,0-3.1-1.4-3.1-3.1h0c0-1.7,1.3-3.1,3.1-3.1Z"/>
      <path class="cls-2" d="M124.3,365h0c1.7,0,3.1,1.4,3.1,3.1h0c0,1.7-1.4,3.1-3.1,3.1h0c-1.7,0-3.1-1.4-3.1-3.1h0c0-1.7,1.4-3.1,3.1-3.1Z"/>
      <path class="cls-2" d="M130.6,358.8h0c1.7,0,3.1,1.4,3.1,3.1h0c0,1.7-1.4,3.1-3.1,3.1h0c-1.7,0-3.1-1.4-3.1-3.1h0c0-1.7,1.3-3.1,3.1-3.1Z"/>
      <path class="cls-2" d="M124.3,352.5h0c1.7,0,3.1,1.4,3.1,3.1h0c0,1.7-1.4,3.1-3.1,3.1h0c-1.7,0-3.1-1.4-3.1-3.1h0c0-1.7,1.4-3.1,3.1-3.1Z"/>
      <path class="cls-2" d="M118.1,346.3h0c1.7,0,3.1,1.4,3.1,3.1h0c0,1.7-1.4,3.1-3.1,3.1h0c-1.7,0-3.1-1.4-3.1-3.1h0c-.1-1.7,1.3-3.1,3.1-3.1Z"/>
      <path class="cls-2" d="M118.1,340h0c1.7,0,3.1,1.4,3.1,3.1h0c0,1.7-1.4,3.1-3.1,3.1h0c-1.7,0-3.1-1.4-3.1-3.1h0c-.1-1.7,1.3-3.1,3.1-3.1Z"/>
      <path class="cls-2" d="M143.1,383.8h0c1.7,0,3.1,1.4,3.1,3.1h0c0,1.7-1.4,3.1-3.1,3.1h0c-1.7,0-3.1-1.4-3.1-3.1h0c-.1-1.7,1.3-3.1,3.1-3.1Z"/>
      <path class="cls-2" d="M136.8,383.8h0c1.7,0,3.1,1.4,3.1,3.1h0c0,1.7-1.4,3.1-3.1,3.1h0c-1.7,0-3.1-1.4-3.1-3.1h0c0-1.7,1.4-3.1,3.1-3.1Z"/>
      <path class="cls-2" d="M130.6,383.8h0c1.7,0,3.1,1.4,3.1,3.1h0c0,1.7-1.4,3.1-3.1,3.1h0c-1.7,0-3.1-1.4-3.1-3.1h0c0-1.7,1.3-3.1,3.1-3.1Z"/>
      <path class="cls-2" d="M124.3,377.5h0c1.7,0,3.1,1.4,3.1,3.1h0c0,1.7-1.4,3.1-3.1,3.1h0c-1.7,0-3.1-1.4-3.1-3.1h0c0-1.7,1.4-3.1,3.1-3.1Z"/>
      <path class="cls-2" d="M149.3,377.5h0c1.7,0,3.1,1.4,3.1,3.1h0c0,1.7-1.4,3.1-3.1,3.1h0c-1.7,0-3.1-1.4-3.1-3.1h0c0-1.7,1.4-3.1,3.1-3.1Z"/>
      <path class="cls-2" d="M155.6,371.3h0c1.7,0,3.1,1.4,3.1,3.1h0c0,1.7-1.4,3.1-3.1,3.1h0c-1.7,0-3.1-1.4-3.1-3.1h0c0-1.7,1.3-3.1,3.1-3.1Z"/>
      <path class="cls-2" d="M155.6,365h0c1.7,0,3.1,1.4,3.1,3.1h0c0,1.7-1.4,3.1-3.1,3.1h0c-1.7,0-3.1-1.4-3.1-3.1h0c0-1.7,1.3-3.1,3.1-3.1Z"/>
      <path class="cls-2" d="M155.6,358.8h0c1.7,0,3.1,1.4,3.1,3.1h0c0,1.7-1.4,3.1-3.1,3.1h0c-1.7,0-3.1-1.4-3.1-3.1h0c0-1.7,1.3-3.1,3.1-3.1Z"/>
      <path class="cls-2" d="M149.3,352.5h0c1.7,0,3.1,1.4,3.1,3.1h0c0,1.7-1.4,3.1-3.1,3.1h0c-1.7,0-3.1-1.4-3.1-3.1h0c0-1.7,1.4-3.1,3.1-3.1Z"/>
      <path class="cls-2" d="M130.6,346.3h0c1.7,0,3.1,1.4,3.1,3.1h0c0,1.7-1.4,3.1-3.1,3.1h0c-1.7,0-3.1-1.4-3.1-3.1h0c0-1.7,1.3-3.1,3.1-3.1Z"/>
      <path class="cls-2" d="M136.8,346.3h0c1.7,0,3.1,1.4,3.1,3.1h0c0,1.7-1.4,3.1-3.1,3.1h0c-1.7,0-3.1-1.4-3.1-3.1h0c0-1.7,1.4-3.1,3.1-3.1Z"/>
      <path class="cls-2" d="M143.1,346.3h0c1.7,0,3.1,1.4,3.1,3.1h0c0,1.7-1.4,3.1-3.1,3.1h0c-1.7,0-3.1-1.4-3.1-3.1h0c-.1-1.7,1.3-3.1,3.1-3.1Z"/>
      <path class="cls-2" d="M118.1,365h0c1.7,0,3.1,1.4,3.1,3.1h0c0,1.7-1.4,3.1-3.1,3.1h0c-1.7,0-3.1-1.4-3.1-3.1h0c-.1-1.7,1.3-3.1,3.1-3.1Z"/>
      <path class="cls-2" d="M68.1,315h0c1.7,0,3.1,1.4,3.1,3.1h0c0,1.7-1.4,3.1-3.1,3.1h0c-1.7,0-3.1-1.4-3.1-3.1h0c-.1-1.7,1.3-3.1,3.1-3.1Z"/>
      <path class="cls-2" d="M68.1,321.3h0c1.7,0,3.1,1.4,3.1,3.1h0c0,1.7-1.4,3.1-3.1,3.1h0c-1.7,0-3.1-1.4-3.1-3.1h0c-.1-1.7,1.3-3.1,3.1-3.1Z"/>
      <path class="cls-2" d="M111.8,358.8h0c1.7,0,3.1,1.4,3.1,3.1h0c0,1.7-1.4,3.1-3.1,3.1h0c-1.7,0-3.1-1.4-3.1-3.1h0c0-1.7,1.4-3.1,3.1-3.1Z"/>
      <path class="cls-2" d="M118.1,371.3h0c1.7,0,3.1,1.4,3.1,3.1h0c0,1.7-1.4,3.1-3.1,3.1h0c-1.7,0-3.1-1.4-3.1-3.1h0c-.1-1.7,1.3-3.1,3.1-3.1Z"/>
    </g>
  </g>
  <g id="Layer_17" data-name="Layer 17">
    <g>
      <path class="cls-2" d="M55.61,585.05h0c1.7,0,3.1,1.4,3.1,3.1h0c0,1.7-1.4,3.1-3.1,3.1h0c-1.7,0-3.1-1.4-3.1-3.1h0c-.1-1.7,1.3-3.1,3.1-3.1Z"/>
      <path class="cls-2" d="M55.61,578.75h0c1.7,0,3.1,1.4,3.1,3.1h0c0,1.7-1.4,3.1-3.1,3.1h0c-1.7,0-3.1-1.4-3.1-3.1h0c-.1-1.7,1.3-3.1,3.1-3.1Z"/>
      <path class="cls-2" d="M55.61,572.55h0c1.7,0,3.1,1.4,3.1,3.1h0c0,1.7-1.4,3.1-3.1,3.1h0c-1.7,0-3.1-1.4-3.1-3.1h0c-.1-1.7,1.3-3.1,3.1-3.1Z"/>
      <path class="cls-2" d="M80.61,597.55h0c1.7,0,3.1,1.4,3.1,3.1h0c0,1.7-1.4,3.1-3.1,3.1h0c-1.7,0-3.1-1.4-3.1-3.1h0c-.1-1.7,1.3-3.1,3.1-3.1Z"/>
      <path class="cls-2" d="M74.31,597.55h0c1.7,0,3.1,1.4,3.1,3.1h0c0,1.7-1.4,3.1-3.1,3.1h0c-1.7,0-3.1-1.4-3.1-3.1h0c0-1.7,1.4-3.1,3.1-3.1Z"/>
      <path class="cls-2" d="M68.11,597.55h0c1.7,0,3.1,1.4,3.1,3.1h0c0,1.7-1.4,3.1-3.1,3.1h0c-1.7,0-3.1-1.4-3.1-3.1h0c0-1.7,1.3-3.1,3.1-3.1Z"/>
      <path class="cls-2" d="M61.81,591.25h0c1.7,0,3.1,1.4,3.1,3.1h0c0,1.7-1.4,3.1-3.1,3.1h0c-1.7,0-3.1-1.4-3.1-3.1h0c0-1.7,1.4-3.1,3.1-3.1Z"/>
      <path class="cls-2" d="M86.81,591.25h0c1.7,0,3.1,1.4,3.1,3.1h0c0,1.7-1.4,3.1-3.1,3.1h0c-1.7,0-3.1-1.4-3.1-3.1h0c0-1.7,1.4-3.1,3.1-3.1Z"/>
      <path class="cls-2" d="M93.11,585.05h0c1.7,0,3.1,1.4,3.1,3.1h0c0,1.7-1.4,3.1-3.1,3.1h0c-1.7,0-3.1-1.4-3.1-3.1h0c0-1.7,1.3-3.1,3.1-3.1Z"/>
      <path class="cls-2" d="M93.11,578.75h0c1.7,0,3.1,1.4,3.1,3.1h0c0,1.7-1.4,3.1-3.1,3.1h0c-1.7,0-3.1-1.4-3.1-3.1h0c0-1.7,1.3-3.1,3.1-3.1Z"/>
      <path class="cls-2" d="M93.11,572.55h0c1.7,0,3.1,1.4,3.1,3.1h0c0,1.7-1.4,3.1-3.1,3.1h0c-1.7,0-3.1-1.4-3.1-3.1h0c0-1.7,1.3-3.1,3.1-3.1Z"/>
      <path class="cls-2" d="M86.81,566.25h0c1.7,0,3.1,1.4,3.1,3.1h0c0,1.7-1.4,3.1-3.1,3.1h0c-1.7,0-3.1-1.4-3.1-3.1h0c0-1.7,1.4-3.1,3.1-3.1Z"/>
      <path class="cls-2" d="M61.81,566.25h0c1.7,0,3.1,1.4,3.1,3.1h0c0,1.7-1.4,3.1-3.1,3.1h0c-1.7,0-3.1-1.4-3.1-3.1h0c0-1.7,1.4-3.1,3.1-3.1Z"/>
      <path class="cls-2" d="M74.31,578.75h0c1.7,0,3.1,1.4,3.1,3.1h0c0,1.7-1.4,3.1-3.1,3.1h0c-1.7,0-3.1-1.4-3.1-3.1h0c0-1.7,1.4-3.1,3.1-3.1Z"/>
      <path class="cls-2" d="M80.61,572.55h0c1.7,0,3.1,1.4,3.1,3.1h0c0,1.7-1.4,3.1-3.1,3.1h0c-1.7,0-3.1-1.4-3.1-3.1h0c-.1-1.7,1.3-3.1,3.1-3.1Z"/>
      <path class="cls-2" d="M80.61,566.25h0c1.7,0,3.1,1.4,3.1,3.1h0c0,1.7-1.4,3.1-3.1,3.1h0c-1.7,0-3.1-1.4-3.1-3.1h0c-.1-1.7,1.3-3.1,3.1-3.1Z"/>
      <path class="cls-2" d="M80.61,560.05h0c1.7,0,3.1,1.4,3.1,3.1h0c0,1.7-1.4,3.1-3.1,3.1h0c-1.7,0-3.1-1.4-3.1-3.1h0c-.1-1.7,1.3-3.1,3.1-3.1Z"/>
      <path class="cls-2" d="M74.31,560.05h0c1.7,0,3.1,1.4,3.1,3.1h0c0,1.7-1.4,3.1-3.1,3.1h0c-1.7,0-3.1-1.4-3.1-3.1h0c0-1.7,1.4-3.1,3.1-3.1Z"/>
      <path class="cls-2" d="M68.11,560.05h0c1.7,0,3.1,1.4,3.1,3.1h0c0,1.7-1.4,3.1-3.1,3.1h0c-1.7,0-3.1-1.4-3.1-3.1h0c0-1.7,1.3-3.1,3.1-3.1Z"/>
      <path class="cls-2" d="M80.61,553.75h0c1.7,0,3.1,1.4,3.1,3.1h0c0,1.7-1.4,3.1-3.1,3.1h0c-1.7,0-3.1-1.4-3.1-3.1h0c-.1-1.7,1.3-3.1,3.1-3.1Z"/>
      <path class="cls-2" d="M80.61,547.55h0c1.7,0,3.1,1.4,3.1,3.1h0c0,1.7-1.4,3.1-3.1,3.1h0c-1.7,0-3.1-1.4-3.1-3.1h0c-.1-1.7,1.3-3.1,3.1-3.1Z"/>
      <path class="cls-2" d="M86.81,547.55h0c1.7,0,3.1,1.4,3.1,3.1h0c0,1.7-1.4,3.1-3.1,3.1h0c-1.7,0-3.1-1.4-3.1-3.1h0c0-1.7,1.4-3.1,3.1-3.1Z"/>
      <path class="cls-2" d="M93.11,547.55h0c1.7,0,3.1,1.4,3.1,3.1h0c0,1.7-1.4,3.1-3.1,3.1h0c-1.7,0-3.1-1.4-3.1-3.1h0c0-1.7,1.3-3.1,3.1-3.1Z"/>
      <path class="cls-2" d="M99.31,547.55h0c1.7,0,3.1,1.4,3.1,3.1h0c0,1.7-1.4,3.1-3.1,3.1h0c-1.7,0-3.1-1.4-3.1-3.1h0c0-1.7,1.4-3.1,3.1-3.1Z"/>
      <path class="cls-2" d="M105.61,547.55h0c1.7,0,3.1,1.4,3.1,3.1h0c0,1.7-1.4,3.1-3.1,3.1h0c-1.7,0-3.1-1.4-3.1-3.1h0c-.1-1.7,1.3-3.1,3.1-3.1Z"/>
      <path class="cls-2" d="M111.81,547.55h0c1.7,0,3.1,1.4,3.1,3.1h0c0,1.7-1.4,3.1-3.1,3.1h0c-1.7,0-3.1-1.4-3.1-3.1h0c0-1.7,1.4-3.1,3.1-3.1Z"/>
      <path class="cls-2" d="M118.11,547.55h0c1.7,0,3.1,1.4,3.1,3.1h0c0,1.7-1.4,3.1-3.1,3.1h0c-1.7,0-3.1-1.4-3.1-3.1h0c0-1.7,1.3-3.1,3.1-3.1Z"/>
      <path class="cls-2" d="M80.61,541.25h0c1.7,0,3.1,1.4,3.1,3.1h0c0,1.7-1.4,3.1-3.1,3.1h0c-1.7,0-3.1-1.4-3.1-3.1h0c-.1-1.7,1.3-3.1,3.1-3.1Z"/>
      <path class="cls-2" d="M74.31,535.05h0c1.7,0,3.1,1.4,3.1,3.1h0c0,1.7-1.4,3.1-3.1,3.1h0c-1.7,0-3.1-1.4-3.1-3.1h0c0-1.7,1.4-3.1,3.1-3.1Z"/>
      <path class="cls-2" d="M61.81,528.75h0c1.7,0,3.1,1.4,3.1,3.1h0c0,1.7-1.4,3.1-3.1,3.1h0c-1.7,0-3.1-1.4-3.1-3.1h0c0-1.7,1.4-3.1,3.1-3.1Z"/>
      <path class="cls-2" d="M118.11,541.25h0c1.7,0,3.1,1.4,3.1,3.1h0c0,1.7-1.4,3.1-3.1,3.1h0c-1.7,0-3.1-1.4-3.1-3.1h0c0-1.7,1.3-3.1,3.1-3.1Z"/>
      <path class="cls-2" d="M124.31,541.25h0c1.7,0,3.1,1.4,3.1,3.1h0c0,1.7-1.4,3.1-3.1,3.1h0c-1.7,0-3.1-1.4-3.1-3.1h0c0-1.7,1.4-3.1,3.1-3.1Z"/>
      <path class="cls-2" d="M93.11,553.75h0c1.7,0,3.1,1.4,3.1,3.1h0c0,1.7-1.4,3.1-3.1,3.1h0c-1.7,0-3.1-1.4-3.1-3.1h0c0-1.7,1.3-3.1,3.1-3.1Z"/>
      <path class="cls-2" d="M99.31,560.05h0c1.7,0,3.1,1.4,3.1,3.1h0c0,1.7-1.4,3.1-3.1,3.1h0c-1.7,0-3.1-1.4-3.1-3.1h0c0-1.7,1.4-3.1,3.1-3.1Z"/>
      <path class="cls-2" d="M105.61,566.25h0c1.7,0,3.1,1.4,3.1,3.1h0c0,1.7-1.4,3.1-3.1,3.1h0c-1.7,0-3.1-1.4-3.1-3.1h0c-.1-1.7,1.3-3.1,3.1-3.1Z"/>
      <path class="cls-2" d="M118.11,572.55h0c1.7,0,3.1,1.4,3.1,3.1h0c0,1.7-1.4,3.1-3.1,3.1h0c-1.7,0-3.1-1.4-3.1-3.1h0c0-1.7,1.3-3.1,3.1-3.1Z"/>
      <path class="cls-2" d="M136.81,578.75h0c1.7,0,3.1,1.4,3.1,3.1h0c0,1.7-1.4,3.1-3.1,3.1h0c-1.7,0-3.1-1.4-3.1-3.1h0c0-1.7,1.4-3.1,3.1-3.1Z"/>
      <path class="cls-2" d="M130.61,578.75h0c1.7,0,3.1,1.4,3.1,3.1h0c0,1.7-1.4,3.1-3.1,3.1h0c-1.7,0-3.1-1.4-3.1-3.1h0c-.1-1.7,1.3-3.1,3.1-3.1Z"/>
      <path class="cls-2" d="M124.31,578.75h0c1.7,0,3.1,1.4,3.1,3.1h0c0,1.7-1.4,3.1-3.1,3.1h0c-1.7,0-3.1-1.4-3.1-3.1h0c0-1.7,1.4-3.1,3.1-3.1Z"/>
      <path class="cls-2" d="M130.61,572.55h0c1.7,0,3.1,1.4,3.1,3.1h0c0,1.7-1.4,3.1-3.1,3.1h0c-1.7,0-3.1-1.4-3.1-3.1h0c-.1-1.7,1.3-3.1,3.1-3.1Z"/>
      <path class="cls-2" d="M124.31,566.25h0c1.7,0,3.1,1.4,3.1,3.1h0c0,1.7-1.4,3.1-3.1,3.1h0c-1.7,0-3.1-1.4-3.1-3.1h0c0-1.7,1.4-3.1,3.1-3.1Z"/>
      <path class="cls-2" d="M118.11,560.05h0c1.7,0,3.1,1.4,3.1,3.1h0c0,1.7-1.4,3.1-3.1,3.1h0c-1.7,0-3.1-1.4-3.1-3.1h0c0-1.7,1.3-3.1,3.1-3.1Z"/>
      <path class="cls-2" d="M118.11,553.75h0c1.7,0,3.1,1.4,3.1,3.1h0c0,1.7-1.4,3.1-3.1,3.1h0c-1.7,0-3.1-1.4-3.1-3.1h0c0-1.7,1.3-3.1,3.1-3.1Z"/>
      <path class="cls-2" d="M143.11,597.55h0c1.7,0,3.1,1.4,3.1,3.1h0c0,1.7-1.4,3.1-3.1,3.1h0c-1.7,0-3.1-1.4-3.1-3.1h0c0-1.7,1.3-3.1,3.1-3.1Z"/>
      <path class="cls-2" d="M136.81,597.55h0c1.7,0,3.1,1.4,3.1,3.1h0c0,1.7-1.4,3.1-3.1,3.1h0c-1.7,0-3.1-1.4-3.1-3.1h0c0-1.7,1.4-3.1,3.1-3.1Z"/>
      <path class="cls-2" d="M130.61,597.55h0c1.7,0,3.1,1.4,3.1,3.1h0c0,1.7-1.4,3.1-3.1,3.1h0c-1.7,0-3.1-1.4-3.1-3.1h0c-.1-1.7,1.3-3.1,3.1-3.1Z"/>
      <path class="cls-2" d="M124.31,591.25h0c1.7,0,3.1,1.4,3.1,3.1h0c0,1.7-1.4,3.1-3.1,3.1h0c-1.7,0-3.1-1.4-3.1-3.1h0c0-1.7,1.4-3.1,3.1-3.1Z"/>
      <path class="cls-2" d="M149.31,591.25h0c1.7,0,3.1,1.4,3.1,3.1h0c0,1.7-1.4,3.1-3.1,3.1h0c-1.7,0-3.1-1.4-3.1-3.1h0c0-1.7,1.4-3.1,3.1-3.1Z"/>
      <path class="cls-2" d="M155.61,585.05h0c1.7,0,3.1,1.4,3.1,3.1h0c0,1.7-1.4,3.1-3.1,3.1h0c-1.7,0-3.1-1.4-3.1-3.1h0c-.1-1.7,1.3-3.1,3.1-3.1Z"/>
      <path class="cls-2" d="M155.61,578.75h0c1.7,0,3.1,1.4,3.1,3.1h0c0,1.7-1.4,3.1-3.1,3.1h0c-1.7,0-3.1-1.4-3.1-3.1h0c-.1-1.7,1.3-3.1,3.1-3.1Z"/>
      <path class="cls-2" d="M155.61,572.55h0c1.7,0,3.1,1.4,3.1,3.1h0c0,1.7-1.4,3.1-3.1,3.1h0c-1.7,0-3.1-1.4-3.1-3.1h0c-.1-1.7,1.3-3.1,3.1-3.1Z"/>
      <path class="cls-2" d="M149.31,566.25h0c1.7,0,3.1,1.4,3.1,3.1h0c0,1.7-1.4,3.1-3.1,3.1h0c-1.7,0-3.1-1.4-3.1-3.1h0c0-1.7,1.4-3.1,3.1-3.1Z"/>
      <path class="cls-2" d="M130.61,560.05h0c1.7,0,3.1,1.4,3.1,3.1h0c0,1.7-1.4,3.1-3.1,3.1h0c-1.7,0-3.1-1.4-3.1-3.1h0c-.1-1.7,1.3-3.1,3.1-3.1Z"/>
      <path class="cls-2" d="M136.81,560.05h0c1.7,0,3.1,1.4,3.1,3.1h0c0,1.7-1.4,3.1-3.1,3.1h0c-1.7,0-3.1-1.4-3.1-3.1h0c0-1.7,1.4-3.1,3.1-3.1Z"/>
      <path class="cls-2" d="M143.11,560.05h0c1.7,0,3.1,1.4,3.1,3.1h0c0,1.7-1.4,3.1-3.1,3.1h0c-1.7,0-3.1-1.4-3.1-3.1h0c0-1.7,1.3-3.1,3.1-3.1Z"/>
      <path class="cls-2" d="M118.11,578.75h0c1.7,0,3.1,1.4,3.1,3.1h0c0,1.7-1.4,3.1-3.1,3.1h0c-1.7,0-3.1-1.4-3.1-3.1h0c0-1.7,1.3-3.1,3.1-3.1Z"/>
      <path class="cls-2" d="M68.11,528.75h0c1.7,0,3.1,1.4,3.1,3.1h0c0,1.7-1.4,3.1-3.1,3.1h0c-1.7,0-3.1-1.4-3.1-3.1h0c0-1.7,1.3-3.1,3.1-3.1Z"/>
      <path class="cls-2" d="M68.11,535.05h0c1.7,0,3.1,1.4,3.1,3.1h0c0,1.7-1.4,3.1-3.1,3.1h0c-1.7,0-3.1-1.4-3.1-3.1h0c0-1.7,1.3-3.1,3.1-3.1Z"/>
      <path class="cls-2" d="M111.81,572.55h0c1.7,0,3.1,1.4,3.1,3.1h0c0,1.7-1.4,3.1-3.1,3.1h0c-1.7,0-3.1-1.4-3.1-3.1h0c0-1.7,1.4-3.1,3.1-3.1Z"/>
      <path class="cls-2" d="M118.11,585.05h0c1.7,0,3.1,1.4,3.1,3.1h0c0,1.7-1.4,3.1-3.1,3.1h0c-1.7,0-3.1-1.4-3.1-3.1h0c0-1.7,1.3-3.1,3.1-3.1Z"/>
    </g>
  </g>
  <g id="Layer_16" data-name="Layer 16">
    <g>
      <path class="cls-2" d="M55.6,716.3h0c1.7,0,3.1,1.4,3.1,3.1h0c0,1.7-1.4,3.1-3.1,3.1h0c-1.7,0-3.1-1.4-3.1-3.1h0c0-1.7,1.3-3.1,3.1-3.1Z"/>
      <path class="cls-2" d="M55.6,710h0c1.7,0,3.1,1.4,3.1,3.1h0c0,1.7-1.4,3.1-3.1,3.1h0c-1.7,0-3.1-1.4-3.1-3.1h0c0-1.7,1.3-3.1,3.1-3.1Z"/>
      <path class="cls-2" d="M55.6,703.8h0c1.7,0,3.1,1.4,3.1,3.1h0c0,1.7-1.4,3.1-3.1,3.1h0c-1.7,0-3.1-1.4-3.1-3.1h0c0-1.7,1.3-3.1,3.1-3.1Z"/>
      <path class="cls-2" d="M80.6,728.8h0c1.7,0,3.1,1.4,3.1,3.1h0c0,1.7-1.4,3.1-3.1,3.1h0c-1.7,0-3.1-1.4-3.1-3.1h0c0-1.7,1.3-3.1,3.1-3.1Z"/>
      <path class="cls-2" d="M74.3,728.8h0c1.7,0,3.1,1.4,3.1,3.1h0c0,1.7-1.4,3.1-3.1,3.1h0c-1.7,0-3.1-1.4-3.1-3.1h0c0-1.7,1.4-3.1,3.1-3.1Z"/>
      <path class="cls-2" d="M68.1,728.8h0c1.7,0,3.1,1.4,3.1,3.1h0c0,1.7-1.4,3.1-3.1,3.1h0c-1.7,0-3.1-1.4-3.1-3.1h0c-.1-1.7,1.3-3.1,3.1-3.1Z"/>
      <path class="cls-2" d="M61.8,722.5h0c1.7,0,3.1,1.4,3.1,3.1h0c0,1.7-1.4,3.1-3.1,3.1h0c-1.7,0-3.1-1.4-3.1-3.1h0c0-1.7,1.4-3.1,3.1-3.1Z"/>
      <path class="cls-2" d="M86.8,722.5h0c1.7,0,3.1,1.4,3.1,3.1h0c0,1.7-1.4,3.1-3.1,3.1h0c-1.7,0-3.1-1.4-3.1-3.1h0c0-1.7,1.4-3.1,3.1-3.1Z"/>
      <path class="cls-2" d="M93.1,716.3h0c1.7,0,3.1,1.4,3.1,3.1h0c0,1.7-1.4,3.1-3.1,3.1h0c-1.7,0-3.1-1.4-3.1-3.1h0c-.1-1.7,1.3-3.1,3.1-3.1Z"/>
      <path class="cls-2" d="M93.1,710h0c1.7,0,3.1,1.4,3.1,3.1h0c0,1.7-1.4,3.1-3.1,3.1h0c-1.7,0-3.1-1.4-3.1-3.1h0c-.1-1.7,1.3-3.1,3.1-3.1Z"/>
      <path class="cls-2" d="M93.1,703.8h0c1.7,0,3.1,1.4,3.1,3.1h0c0,1.7-1.4,3.1-3.1,3.1h0c-1.7,0-3.1-1.4-3.1-3.1h0c-.1-1.7,1.3-3.1,3.1-3.1Z"/>
      <path class="cls-2" d="M86.8,697.5h0c1.7,0,3.1,1.4,3.1,3.1h0c0,1.7-1.4,3.1-3.1,3.1h0c-1.7,0-3.1-1.4-3.1-3.1h0c0-1.7,1.4-3.1,3.1-3.1Z"/>
      <path class="cls-2" d="M61.8,697.5h0c1.7,0,3.1,1.4,3.1,3.1h0c0,1.7-1.4,3.1-3.1,3.1h0c-1.7,0-3.1-1.4-3.1-3.1h0c0-1.7,1.4-3.1,3.1-3.1Z"/>
      <path class="cls-2" d="M74.3,710h0c1.7,0,3.1,1.4,3.1,3.1h0c0,1.7-1.4,3.1-3.1,3.1h0c-1.7,0-3.1-1.4-3.1-3.1h0c0-1.7,1.4-3.1,3.1-3.1Z"/>
      <path class="cls-2" d="M80.6,703.8h0c1.7,0,3.1,1.4,3.1,3.1h0c0,1.7-1.4,3.1-3.1,3.1h0c-1.7,0-3.1-1.4-3.1-3.1h0c0-1.7,1.3-3.1,3.1-3.1Z"/>
      <path class="cls-2" d="M80.6,697.5h0c1.7,0,3.1,1.4,3.1,3.1h0c0,1.7-1.4,3.1-3.1,3.1h0c-1.7,0-3.1-1.4-3.1-3.1h0c0-1.7,1.3-3.1,3.1-3.1Z"/>
      <path class="cls-2" d="M80.6,691.3h0c1.7,0,3.1,1.4,3.1,3.1h0c0,1.7-1.4,3.1-3.1,3.1h0c-1.7,0-3.1-1.4-3.1-3.1h0c0-1.7,1.3-3.1,3.1-3.1Z"/>
      <path class="cls-2" d="M74.3,691.3h0c1.7,0,3.1,1.4,3.1,3.1h0c0,1.7-1.4,3.1-3.1,3.1h0c-1.7,0-3.1-1.4-3.1-3.1h0c0-1.7,1.4-3.1,3.1-3.1Z"/>
      <path class="cls-2" d="M68.1,691.3h0c1.7,0,3.1,1.4,3.1,3.1h0c0,1.7-1.4,3.1-3.1,3.1h0c-1.7,0-3.1-1.4-3.1-3.1h0c-.1-1.7,1.3-3.1,3.1-3.1Z"/>
      <path class="cls-2" d="M80.6,685h0c1.7,0,3.1,1.4,3.1,3.1h0c0,1.7-1.4,3.1-3.1,3.1h0c-1.7,0-3.1-1.4-3.1-3.1h0c0-1.7,1.3-3.1,3.1-3.1Z"/>
      <path class="cls-2" d="M80.6,678.8h0c1.7,0,3.1,1.4,3.1,3.1h0c0,1.7-1.4,3.1-3.1,3.1h0c-1.7,0-3.1-1.4-3.1-3.1h0c0-1.7,1.3-3.1,3.1-3.1Z"/>
      <path class="cls-2" d="M86.8,678.8h0c1.7,0,3.1,1.4,3.1,3.1h0c0,1.7-1.4,3.1-3.1,3.1h0c-1.7,0-3.1-1.4-3.1-3.1h0c0-1.7,1.4-3.1,3.1-3.1Z"/>
      <path class="cls-2" d="M93.1,678.8h0c1.7,0,3.1,1.4,3.1,3.1h0c0,1.7-1.4,3.1-3.1,3.1h0c-1.7,0-3.1-1.4-3.1-3.1h0c-.1-1.7,1.3-3.1,3.1-3.1Z"/>
      <path class="cls-2" d="M99.3,678.8h0c1.7,0,3.1,1.4,3.1,3.1h0c0,1.7-1.4,3.1-3.1,3.1h0c-1.7,0-3.1-1.4-3.1-3.1h0c0-1.7,1.4-3.1,3.1-3.1Z"/>
      <path class="cls-2" d="M105.6,678.8h0c1.7,0,3.1,1.4,3.1,3.1h0c0,1.7-1.4,3.1-3.1,3.1h0c-1.7,0-3.1-1.4-3.1-3.1h0c0-1.7,1.3-3.1,3.1-3.1Z"/>
      <path class="cls-2" d="M111.8,678.8h0c1.7,0,3.1,1.4,3.1,3.1h0c0,1.7-1.4,3.1-3.1,3.1h0c-1.7,0-3.1-1.4-3.1-3.1h0c0-1.7,1.4-3.1,3.1-3.1Z"/>
      <path class="cls-2" d="M118.1,678.8h0c1.7,0,3.1,1.4,3.1,3.1h0c0,1.7-1.4,3.1-3.1,3.1h0c-1.7,0-3.1-1.4-3.1-3.1h0c-.1-1.7,1.3-3.1,3.1-3.1Z"/>
      <path class="cls-2" d="M80.6,672.5h0c1.7,0,3.1,1.4,3.1,3.1h0c0,1.7-1.4,3.1-3.1,3.1h0c-1.7,0-3.1-1.4-3.1-3.1h0c0-1.7,1.3-3.1,3.1-3.1Z"/>
      <path class="cls-2" d="M74.3,666.3h0c1.7,0,3.1,1.4,3.1,3.1h0c0,1.7-1.4,3.1-3.1,3.1h0c-1.7,0-3.1-1.4-3.1-3.1h0c0-1.7,1.4-3.1,3.1-3.1Z"/>
      <path class="cls-2" d="M61.8,660h0c1.7,0,3.1,1.4,3.1,3.1h0c0,1.7-1.4,3.1-3.1,3.1h0c-1.7,0-3.1-1.4-3.1-3.1h0c0-1.7,1.4-3.1,3.1-3.1Z"/>
      <path class="cls-2" d="M118.1,672.5h0c1.7,0,3.1,1.4,3.1,3.1h0c0,1.7-1.4,3.1-3.1,3.1h0c-1.7,0-3.1-1.4-3.1-3.1h0c-.1-1.7,1.3-3.1,3.1-3.1Z"/>
      <path class="cls-2" d="M124.3,672.5h0c1.7,0,3.1,1.4,3.1,3.1h0c0,1.7-1.4,3.1-3.1,3.1h0c-1.7,0-3.1-1.4-3.1-3.1h0c0-1.7,1.4-3.1,3.1-3.1Z"/>
      <path class="cls-2" d="M93.1,685h0c1.7,0,3.1,1.4,3.1,3.1h0c0,1.7-1.4,3.1-3.1,3.1h0c-1.7,0-3.1-1.4-3.1-3.1h0c-.1-1.7,1.3-3.1,3.1-3.1Z"/>
      <path class="cls-2" d="M99.3,691.3h0c1.7,0,3.1,1.4,3.1,3.1h0c0,1.7-1.4,3.1-3.1,3.1h0c-1.7,0-3.1-1.4-3.1-3.1h0c0-1.7,1.4-3.1,3.1-3.1Z"/>
      <path class="cls-2" d="M105.6,697.5h0c1.7,0,3.1,1.4,3.1,3.1h0c0,1.7-1.4,3.1-3.1,3.1h0c-1.7,0-3.1-1.4-3.1-3.1h0c0-1.7,1.3-3.1,3.1-3.1Z"/>
      <path class="cls-2" d="M118.1,703.8h0c1.7,0,3.1,1.4,3.1,3.1h0c0,1.7-1.4,3.1-3.1,3.1h0c-1.7,0-3.1-1.4-3.1-3.1h0c-.1-1.7,1.3-3.1,3.1-3.1Z"/>
      <path class="cls-2" d="M136.8,710h0c1.7,0,3.1,1.4,3.1,3.1h0c0,1.7-1.4,3.1-3.1,3.1h0c-1.7,0-3.1-1.4-3.1-3.1h0c0-1.7,1.4-3.1,3.1-3.1Z"/>
      <path class="cls-2" d="M130.6,710h0c1.7,0,3.1,1.4,3.1,3.1h0c0,1.7-1.4,3.1-3.1,3.1h0c-1.7,0-3.1-1.4-3.1-3.1h0c0-1.7,1.3-3.1,3.1-3.1Z"/>
      <path class="cls-2" d="M124.3,710h0c1.7,0,3.1,1.4,3.1,3.1h0c0,1.7-1.4,3.1-3.1,3.1h0c-1.7,0-3.1-1.4-3.1-3.1h0c0-1.7,1.4-3.1,3.1-3.1Z"/>
      <path class="cls-2" d="M130.6,703.8h0c1.7,0,3.1,1.4,3.1,3.1h0c0,1.7-1.4,3.1-3.1,3.1h0c-1.7,0-3.1-1.4-3.1-3.1h0c0-1.7,1.3-3.1,3.1-3.1Z"/>
      <path class="cls-2" d="M124.3,697.5h0c1.7,0,3.1,1.4,3.1,3.1h0c0,1.7-1.4,3.1-3.1,3.1h0c-1.7,0-3.1-1.4-3.1-3.1h0c0-1.7,1.4-3.1,3.1-3.1Z"/>
      <path class="cls-2" d="M118.1,691.3h0c1.7,0,3.1,1.4,3.1,3.1h0c0,1.7-1.4,3.1-3.1,3.1h0c-1.7,0-3.1-1.4-3.1-3.1h0c-.1-1.7,1.3-3.1,3.1-3.1Z"/>
      <path class="cls-2" d="M118.1,685h0c1.7,0,3.1,1.4,3.1,3.1h0c0,1.7-1.4,3.1-3.1,3.1h0c-1.7,0-3.1-1.4-3.1-3.1h0c-.1-1.7,1.3-3.1,3.1-3.1Z"/>
      <path class="cls-2" d="M143.1,728.8h0c1.7,0,3.1,1.4,3.1,3.1h0c0,1.7-1.4,3.1-3.1,3.1h0c-1.7,0-3.1-1.4-3.1-3.1h0c-.1-1.7,1.3-3.1,3.1-3.1Z"/>
      <path class="cls-2" d="M136.8,728.8h0c1.7,0,3.1,1.4,3.1,3.1h0c0,1.7-1.4,3.1-3.1,3.1h0c-1.7,0-3.1-1.4-3.1-3.1h0c0-1.7,1.4-3.1,3.1-3.1Z"/>
      <path class="cls-2" d="M130.6,728.8h0c1.7,0,3.1,1.4,3.1,3.1h0c0,1.7-1.4,3.1-3.1,3.1h0c-1.7,0-3.1-1.4-3.1-3.1h0c0-1.7,1.3-3.1,3.1-3.1Z"/>
      <path class="cls-2" d="M124.3,722.5h0c1.7,0,3.1,1.4,3.1,3.1h0c0,1.7-1.4,3.1-3.1,3.1h0c-1.7,0-3.1-1.4-3.1-3.1h0c0-1.7,1.4-3.1,3.1-3.1Z"/>
      <path class="cls-2" d="M149.3,722.5h0c1.7,0,3.1,1.4,3.1,3.1h0c0,1.7-1.4,3.1-3.1,3.1h0c-1.7,0-3.1-1.4-3.1-3.1h0c0-1.7,1.4-3.1,3.1-3.1Z"/>
      <path class="cls-2" d="M155.6,716.3h0c1.7,0,3.1,1.4,3.1,3.1h0c0,1.7-1.4,3.1-3.1,3.1h0c-1.7,0-3.1-1.4-3.1-3.1h0c0-1.7,1.3-3.1,3.1-3.1Z"/>
      <path class="cls-2" d="M155.6,710h0c1.7,0,3.1,1.4,3.1,3.1h0c0,1.7-1.4,3.1-3.1,3.1h0c-1.7,0-3.1-1.4-3.1-3.1h0c0-1.7,1.3-3.1,3.1-3.1Z"/>
      <path class="cls-2" d="M155.6,703.8h0c1.7,0,3.1,1.4,3.1,3.1h0c0,1.7-1.4,3.1-3.1,3.1h0c-1.7,0-3.1-1.4-3.1-3.1h0c0-1.7,1.3-3.1,3.1-3.1Z"/>
      <path class="cls-2" d="M149.3,697.5h0c1.7,0,3.1,1.4,3.1,3.1h0c0,1.7-1.4,3.1-3.1,3.1h0c-1.7,0-3.1-1.4-3.1-3.1h0c0-1.7,1.4-3.1,3.1-3.1Z"/>
      <path class="cls-2" d="M130.6,691.3h0c1.7,0,3.1,1.4,3.1,3.1h0c0,1.7-1.4,3.1-3.1,3.1h0c-1.7,0-3.1-1.4-3.1-3.1h0c0-1.7,1.3-3.1,3.1-3.1Z"/>
      <path class="cls-2" d="M136.8,691.3h0c1.7,0,3.1,1.4,3.1,3.1h0c0,1.7-1.4,3.1-3.1,3.1h0c-1.7,0-3.1-1.4-3.1-3.1h0c0-1.7,1.4-3.1,3.1-3.1Z"/>
      <path class="cls-2" d="M143.1,691.3h0c1.7,0,3.1,1.4,3.1,3.1h0c0,1.7-1.4,3.1-3.1,3.1h0c-1.7,0-3.1-1.4-3.1-3.1h0c-.1-1.7,1.3-3.1,3.1-3.1Z"/>
      <path class="cls-2" d="M118.1,710h0c1.7,0,3.1,1.4,3.1,3.1h0c0,1.7-1.4,3.1-3.1,3.1h0c-1.7,0-3.1-1.4-3.1-3.1h0c-.1-1.7,1.3-3.1,3.1-3.1Z"/>
      <path class="cls-2" d="M68.1,660h0c1.7,0,3.1,1.4,3.1,3.1h0c0,1.7-1.4,3.1-3.1,3.1h0c-1.7,0-3.1-1.4-3.1-3.1h0c-.1-1.7,1.3-3.1,3.1-3.1Z"/>
      <path class="cls-2" d="M68.1,666.3h0c1.7,0,3.1,1.4,3.1,3.1h0c0,1.7-1.4,3.1-3.1,3.1h0c-1.7,0-3.1-1.4-3.1-3.1h0c-.1-1.7,1.3-3.1,3.1-3.1Z"/>
      <path class="cls-2" d="M111.8,703.8h0c1.7,0,3.1,1.4,3.1,3.1h0c0,1.7-1.4,3.1-3.1,3.1h0c-1.7,0-3.1-1.4-3.1-3.1h0c0-1.7,1.4-3.1,3.1-3.1Z"/>
      <path class="cls-2" d="M118.1,716.3h0c1.7,0,3.1,1.4,3.1,3.1h0c0,1.7-1.4,3.1-3.1,3.1h0c-1.7,0-3.1-1.4-3.1-3.1h0c-.1-1.7,1.3-3.1,3.1-3.1Z"/>
    </g>
  </g>
  <g id="Layer_6" data-name="Layer 6">
    <path class="cls-5" d="M0,26.25H551.25c14.5,0,27.62-5.88,37.12-15.38l84.7-84.7"/>
  </g>
  <g id="Layer_5" data-name="Layer 5">
    <line class="cls-3" x1="0" y1="78.75" x2="840" y2="78.75"/>
  </g>
  <g id="Layer_4" data-name="Layer 4">
    <path class="cls-4" d="M0,131.25H630c28.99,0,55.24,11.75,74.25,30.75,19,19,30.75,45.25,30.75,74.25v367.5c0,26.87-10.25,53.74-30.75,74.25L101.43,1280.81"/>
  </g>
  <g id="Layer_3" data-name="Layer 3">
    <path class="cls-3" d="M96.14,1211.67l424.36-424.36c20.5-20.5,30.75-47.37,30.75-74.25v-214.31c0-52.5-52.5-52.5-52.5-52.5H-26.25"/>
  </g>
  <g id="Layer_2" data-name="Layer 2">
    <path class="cls-5" d="M498.75,1207.5L237.75,946.5l-23.63-23.25c-20.5-20.5-47.37-30.75-74.25-30.75H-78.75"/>
  </g>
</svg>