<?xml version="1.0" encoding="UTF-8"?>
<svg id="Layer_1" data-name="Layer 1" xmlns="http://www.w3.org/2000/svg" xmlns:xlink="http://www.w3.org/1999/xlink" viewBox="0 0 551.25 262.5">
  <defs>
    <style>
      .cls-1 {
        fill: none;
        stroke: #333533;
        stroke-miterlimit: 10;
      }

      .cls-2 {
        fill: url(#linear-gradient);
      }
    </style>
    <linearGradient id="linear-gradient" x1="0" y1="131.25" x2="551.25" y2="131.25" gradientTransform="translate(406.87 -144.37) rotate(90)" gradientUnits="userSpaceOnUse">
      <stop offset="0" stop-color="#ffd100"/>
      <stop offset="1" stop-color="#ffee32"/>
    </linearGradient>
  </defs>
  <rect class="cls-2" x="144.37" y="-144.37" width="262.5" height="551.25" transform="translate(144.37 406.88) rotate(-90)"/>
  <g>
    <path class="cls-1" d="M-53.96,262.31c98.49,121.68,480.18,317.44,683.88,161.05"/>
    <path class="cls-1" d="M-53.14,259.45c104.86,121.17,482.06,305.55,682.97,156.13"/>
    <path class="cls-1" d="M-52.31,256.6c111.22,120.67,483.94,293.66,682.06,151.2"/>
    <path class="cls-1" d="M-51.49,253.74c117.58,120.16,485.83,281.77,681.15,146.28"/>
    <path class="cls-1" d="M-50.66,250.89c123.95,119.65,487.71,269.89,680.24,141.35"/>
    <path class="cls-1" d="M-49.84,248.04c130.31,119.14,489.59,258,679.34,136.43"/>
    <path class="cls-1" d="M-49.01,245.18c136.67,118.63,491.47,246.11,678.43,131.51"/>
    <path class="cls-1" d="M-48.19,242.33c143.04,118.12,493.35,234.22,677.52,126.58"/>
    <path class="cls-1" d="M-47.37,239.47c149.4,117.62,495.23,222.33,676.61,121.66"/>
    <path class="cls-1" d="M-46.54,236.62c155.76,117.11,497.11,210.44,675.7,116.73"/>
    <path class="cls-1" d="M-45.72,233.76c162.13,116.6,498.99,198.55,674.79,111.81"/>
    <path class="cls-1" d="M-44.89,230.91c168.49,116.09,500.87,186.66,673.89,106.88"/>
    <path class="cls-1" d="M-44.07,228.06c174.85,115.58,502.75,174.77,672.98,101.96"/>
    <path class="cls-1" d="M-43.24,225.2c181.22,115.07,504.63,162.88,672.07,97.03"/>
    <path class="cls-1" d="M-42.42,222.35c187.58,114.56,506.51,150.99,671.16,92.11"/>
    <path class="cls-1" d="M-41.59,219.49c193.94,114.06,508.39,139.11,670.25,87.18"/>
    <path class="cls-1" d="M-40.77,216.64c200.3,113.55,510.27,127.22,669.34,82.26"/>
    <path class="cls-1" d="M-39.94,213.79c206.67,113.04,512.16,115.33,668.44,77.33"/>
    <path class="cls-1" d="M-39.12,210.93c213.03,112.53,514.04,103.44,667.53,72.41"/>
    <path class="cls-1" d="M-38.29,208.08c219.39,112.02,515.92,91.55,666.62,67.49"/>
    <path class="cls-1" d="M-37.47,205.22c225.76,111.51,517.8,79.66,665.71,62.56"/>
    <path class="cls-1" d="M-36.65,202.37c232.12,111.01,519.68,67.77,664.8,57.64"/>
    <path class="cls-1" d="M-35.82,199.51c238.48,110.5,521.56,55.88,663.89,52.71"/>
    <path class="cls-1" d="M-35,196.66c244.85,109.99,523.44,43.99,662.99,47.79"/>
    <path class="cls-1" d="M-34.17,193.81c251.21,109.48,525.32,32.1,662.08,42.86"/>
    <path class="cls-1" d="M-33.35,190.95c257.57,108.97,527.2,20.21,661.17,37.94"/>
    <path class="cls-1" d="M-32.52,188.1c263.94,108.46,529.08,8.33,660.26,33.01"/>
    <path class="cls-1" d="M-31.7,185.24c270.3,107.95,530.96-3.56,659.35,28.09"/>
    <path class="cls-1" d="M-30.87,182.39c276.66,107.45,532.84-15.45,658.44,23.16"/>
    <path class="cls-1" d="M-30.05,179.53c283.03,106.94,534.72-27.34,657.54,18.24"/>
    <path class="cls-1" d="M-29.22,176.68c289.39,106.43,536.61-39.23,656.63,13.31"/>
    <path class="cls-1" d="M-28.4,173.83c295.75,105.92,538.49-51.12,655.72,8.39"/>
    <path class="cls-1" d="M-27.58,170.97c302.11,105.41,540.37-63.01,654.81,3.47"/>
    <path class="cls-1" d="M-26.75,168.12c308.48,104.9,542.25-74.9,653.9-1.46"/>
    <path class="cls-1" d="M-25.93,165.26c314.84,104.4,544.13-86.79,652.99-6.38"/>
    <path class="cls-1" d="M-25.1,162.41c321.2,103.89,546.01-98.68,652.09-11.31"/>
    <path class="cls-1" d="M-24.28,159.56c327.57,103.38,547.89-110.57,651.18-16.23"/>
    <path class="cls-1" d="M-23.45,156.7c333.93,102.87,549.77-122.46,650.27-21.16"/>
    <path class="cls-1" d="M-22.63,153.85c340.29,102.36,551.65-134.34,649.36-26.08"/>
    <path class="cls-1" d="M-21.8,150.99C324.85,252.85,531.73,4.76,626.65,119.99"/>
    <path class="cls-1" d="M-20.98,148.14C332.04,249.48,534.43-9.98,626.56,112.21"/>
  </g>
</svg>