<?xml version="1.0" encoding="UTF-8"?>
<svg id="Layer_1" data-name="Layer 1" xmlns="http://www.w3.org/2000/svg" xmlns:xlink="http://www.w3.org/1999/xlink" viewBox="0 0 551.25 262.5">
  <defs>
    <style>
      .cls-1 {
        fill: none;
        stroke: #333533;
        stroke-miterlimit: 10;
      }

      .cls-2 {
        fill: url(#linear-gradient);
      }
    </style>
    <linearGradient id="linear-gradient" x1="0" y1="131.25" x2="551.25" y2="131.25" gradientTransform="translate(406.87 -144.37) rotate(90)" gradientUnits="userSpaceOnUse">
      <stop offset="0" stop-color="#ffd100"/>
      <stop offset="1" stop-color="#ffee32"/>
    </linearGradient>
  </defs>
  <rect class="cls-2" x="144.37" y="-144.37" width="262.5" height="551.25" transform="translate(144.37 406.88) rotate(-90)"/>
  <g>
    <path class="cls-1" d="M551.25,40.58C437.95-44.39,41.42-129.36-100.2,68.91"/>
    <path class="cls-1" d="M551.25,43.33C432.43-39.55,42.8-115.56-98.13,75.8"/>
    <path class="cls-1" d="M551.25,46.08C426.9-34.72,44.18-101.76-96.05,82.69"/>
    <path class="cls-1" d="M551.25,48.83C421.37-29.88,45.57-87.95-93.98,89.59"/>
    <path class="cls-1" d="M551.25,51.58C415.85-25.05,46.95-74.15-91.91,96.48"/>
    <path class="cls-1" d="M551.25,54.33C410.32-20.21,48.33-60.35-89.84,103.38"/>
    <path class="cls-1" d="M551.25,57.08C404.79-15.38,49.71-46.55-87.76,110.27"/>
    <path class="cls-1" d="M551.25,59.83C399.27-10.54,51.09-32.74-85.69,117.17"/>
    <path class="cls-1" d="M551.25,62.58C393.74-5.7,52.47-18.94-83.62,124.06"/>
    <path class="cls-1" d="M551.25,65.33C388.22-.87,53.86-5.14-81.55,130.95"/>
    <path class="cls-1" d="M551.25,68.08C382.69,3.97,55.24,8.66-79.47,137.85"/>
    <path class="cls-1" d="M551.25,70.82C377.16,8.8,56.62,22.47-77.4,144.74"/>
    <path class="cls-1" d="M551.25,73.57C371.64,13.64,58,36.27-75.33,151.64"/>
    <path class="cls-1" d="M551.25,76.32C366.11,18.48,59.38,50.07-73.26,158.53"/>
    <path class="cls-1" d="M551.25,79.07C360.58,23.31,60.76,63.87-71.18,165.43"/>
    <path class="cls-1" d="M551.25,81.82C355.06,28.15,62.15,77.68-69.11,172.32"/>
    <path class="cls-1" d="M551.25,84.57C349.53,32.98,63.53,91.48-67.04,179.21"/>
    <path class="cls-1" d="M551.25,87.32C344,37.82,64.91,105.28-64.97,186.11"/>
    <path class="cls-1" d="M551.25,90.07C338.48,42.65,66.29,119.08-62.89,193"/>
    <path class="cls-1" d="M551.25,92.82C332.95,47.49,67.67,132.89-60.82,199.9"/>
    <path class="cls-1" d="M551.25,95.57C327.42,52.33,69.05,146.69-58.75,206.79"/>
    <path class="cls-1" d="M551.25,98.32C321.9,57.16,70.43,160.49-56.68,213.69"/>
    <path class="cls-1" d="M551.25,101.07C316.37,62,71.82,174.3-54.6,220.58"/>
    <path class="cls-1" d="M551.25,103.82C310.84,66.83,73.2,188.1-52.53,227.47"/>
    <path class="cls-1" d="M551.25,106.57C305.32,71.67,74.58,201.9-50.46,234.37"/>
    <path class="cls-1" d="M551.25,109.32C299.79,76.5,75.96,215.7-48.39,241.26"/>
    <path class="cls-1" d="M551.25,112.07C294.26,81.34,77.34,229.51-46.31,248.16"/>
    <path class="cls-1" d="M551.25,114.81C288.74,86.18,78.72,243.31-44.24,255.05"/>
    <path class="cls-1" d="M551.25,117.56C283.21,91.01,80.11,257.11-42.17,261.95"/>
    <path class="cls-1" d="M551.25,120.31C277.68,95.85,81.49,270.91-40.1,268.84"/>
    <path class="cls-1" d="M551.25,123.06C272.16,100.68,82.87,284.72-38.02,275.74"/>
    <path class="cls-1" d="M551.25,125.81C266.63,105.52,84.25,298.52-35.95,282.63"/>
    <path class="cls-1" d="M551.25,128.56C261.1,110.36,85.63,312.32-33.88,289.52"/>
    <path class="cls-1" d="M551.25,131.31C255.58,115.19,87.01,326.12-31.81,296.42"/>
    <path class="cls-1" d="M551.25,134.06C250.05,120.03,88.4,339.93-29.73,303.31"/>
    <path class="cls-1" d="M551.25,136.81C244.52,124.86,89.78,353.73-27.66,310.21"/>
    <path class="cls-1" d="M551.25,139.56C239,129.7,91.16,367.53-25.59,317.1"/>
    <path class="cls-1" d="M551.25,142.31C233.47,134.53,92.54,381.33-23.52,324"/>
    <path class="cls-1" d="M551.25,145.06C227.94,139.37,93.92,395.14-21.44,330.89"/>
    <path class="cls-1" d="M551.25,147.81C222.42,144.21,95.3,408.94-19.37,337.78"/>
    <path class="cls-1" d="M551.25,150.56C216.89,149.04,96.69,422.74-17.3,344.68"/>
    <path class="cls-1" d="M551.25,153.31C211.36,153.88,98.07,436.54-15.23,351.57"/>
  </g>
</svg>