<?xml version="1.0" encoding="UTF-8"?>
<svg id="Layer_1" data-name="Layer 1" xmlns="http://www.w3.org/2000/svg" viewBox="0 0 840 1181.25">
  <defs>
    <style>
      .cls-1 {
        fill: none;
        stroke: #ffee32;
        stroke-miterlimit: 10;
        stroke-width: 2px;
      }
    </style>
  </defs>
  <rect width="840" height="1181.3"/>
  <g>
    <path class="cls-1" d="M854.67,245.06c-327.42-163.71-491.14-65.48-720.33,32.74-229.2,98.23-523.88,130.97-720.33,65.48"/>
    <path class="cls-1" d="M868.79,259.21c-324.21-165.64-494.35-64.84-718.41,38.52-224.06,103.36-523.24,140.6-715.84,76.4"/>
    <path class="cls-1" d="M882.92,273.36c-321-167.56-497.56-64.2-716.48,44.3-218.92,108.5-522.59,150.23-711.34,87.31"/>
    <path class="cls-1" d="M897.04,287.51c-317.79-169.49-500.77-63.56-714.55,50.08-213.79,113.64-521.95,159.86-706.85,98.23"/>
    <path class="cls-1" d="M911.16,301.66c-314.58-171.42-503.98-62.92-712.63,55.85C-10.12,476.29-322.78,527.01-503.82,466.66"/>
    <path class="cls-1" d="M925.29,315.81c-311.37-173.34-507.19-62.27-710.7,61.63C11.07,501.35-306.08,556.56-483.28,497.5"/>
    <path class="cls-1" d="M939.41,329.96c-308.16-175.27-510.4-61.63-708.78,67.41-198.38,129.04-520.03,188.75-693.37,130.97"/>
    <path class="cls-1" d="M953.54,344.11c-304.95-177.19-513.61-60.99-706.85,73.19-193.24,134.18-519.38,198.38-688.87,141.88"/>
    <path class="cls-1" d="M967.66,358.26c-301.74-179.12-516.82-60.35-704.92,78.97-188.11,139.32-518.74,208.01-684.38,152.8"/>
    <path class="cls-1" d="M981.78,372.41c-298.53-181.05-520.03-59.71-703,84.75s-518.1,217.64-679.89,163.71"/>
    <path class="cls-1" d="M995.91,386.56c-295.32-182.97-523.24-59.06-701.07,90.52-177.84,149.59-517.46,227.27-675.39,174.63"/>
    <path class="cls-1" d="M1010.03,400.71c-292.11-184.9-526.45-58.42-699.15,96.3-172.7,154.72-516.82,236.9-670.9,185.54"/>
    <path class="cls-1" d="M1024.16,414.86c-288.9-186.82-529.66-57.78-697.22,102.08-167.56,159.86-516.17,246.53-666.4,196.45"/>
    <path class="cls-1" d="M1038.28,429.01c-285.69-188.75-532.87-57.14-695.29,107.86S-172.55,793.03-318.92,744.24"/>
    <path class="cls-1" d="M1052.41,443.16c-282.48-190.68-536.08-56.5-693.37,113.64-157.29,170.13-514.89,265.79-657.42,218.28"/>
    <path class="cls-1" d="M1066.53,457.31c-279.27-192.6-539.29-55.85-691.44,119.41-152.16,175.27-514.25,275.42-652.92,229.2"/>
    <path class="cls-1" d="M1080.65,471.46c-276.06-194.53-542.5-55.21-689.52,125.19-147.02,180.4-513.61,285.05-648.43,240.11"/>
    <path class="cls-1" d="M1094.78,485.61c-272.85-196.45-545.71-54.57-687.59,130.97-141.88,185.54-512.96,294.68-643.93,251.03"/>
    <path class="cls-1" d="M1108.9,499.76c-269.64-198.38-548.92-53.93-685.66,136.75C286.49,827.19-89.08,940.82-216.2,898.45"/>
    <path class="cls-1" d="M1123.03,513.91c-266.43-200.31-552.13-53.29-683.74,142.53S-72.39,970.38-195.66,929.29"/>
    <path class="cls-1" d="M1137.15,528.06c-263.22-202.23-555.34-52.64-681.81,148.3-126.48,200.95-511.04,323.57-630.45,283.77"/>
    <path class="cls-1" d="M1151.27,542.21c-260.01-204.16-558.55-52-679.89,154.08-121.34,206.08-510.4,333.2-625.96,294.68"/>
    <path class="cls-1" d="M1165.4,556.36c-256.8-206.08-561.76-51.36-677.96,159.86-116.2,211.22-509.75,342.83-621.46,305.6"/>
    <path class="cls-1" d="M1179.52,570.52c-253.59-208.01-564.97-50.72-676.03,165.64C392.42,952.51-5.62,1088.62-113.48,1052.66"/>
    <path class="cls-1" d="M1193.65,584.67c-250.38-209.94-568.18-50.08-674.11,171.42C413.61,977.57,11.07,1118.17-92.94,1083.51"/>
    <path class="cls-1" d="M1207.77,598.82c-247.17-211.86-571.39-49.43-672.18,177.19-100.8,226.63-507.83,371.72-607.98,338.34"/>
    <path class="cls-1" d="M1221.9,612.97c-243.96-213.79-574.6-48.79-670.26,182.97-95.66,231.76-507.19,381.35-603.49,349.25"/>
    <path class="cls-1" d="M1236.02,627.12c-240.75-215.71-577.81-48.15-668.33,188.75-90.52,236.9-506.54,390.98-598.99,360.17"/>
    <path class="cls-1" d="M1250.14,641.27c-237.54-217.64-581.02-47.51-666.4,194.53-85.39,242.04-505.9,400.61-594.5,371.08"/>
    <path class="cls-1" d="M1264.27,655.42c-234.33-219.57-584.23-46.87-664.48,200.31-80.25,247.17-505.26,410.24-590.01,381.99"/>
    <path class="cls-1" d="M1278.39,669.57c-231.12-221.49-587.44-46.22-662.55,206.08-75.11,252.31-504.62,419.87-585.51,392.91"/>
    <path class="cls-1" d="M1292.52,683.72c-227.91-223.42-590.65-45.58-660.63,211.86-69.98,257.45-503.98,429.5-581.02,403.82"/>
    <path class="cls-1" d="M1306.64,697.87c-224.7-225.34-593.86-44.94-658.7,217.64-64.84,262.58-503.33,439.13-576.52,414.74"/>
    <path class="cls-1" d="M1320.76,712.02c-221.49-227.27-597.07-44.3-656.77,223.42-59.71,267.72-502.69,448.76-572.03,425.65"/>
    <path class="cls-1" d="M1334.89,726.17c-218.28-229.2-600.28-43.66-654.85,229.2-54.57,272.85-502.05,458.39-567.53,436.57"/>
    <path class="cls-1" d="M1349.01,740.32c-215.07-231.12-603.49-43.01-652.92,234.97-49.43,277.99-501.41,468.02-563.04,447.48"/>
    <path class="cls-1" d="M1363.14,754.47c-211.86-233.05-606.7-42.37-651,240.75-44.3,283.13-500.77,477.65-558.55,458.39"/>
    <path class="cls-1" d="M1377.26,768.62c-208.65-234.97-609.91-41.73-649.07,246.53-39.16,288.26-500.12,487.28-554.05,469.31"/>
    <path class="cls-1" d="M1391.39,782.77c-205.44-236.9-613.12-41.09-647.14,252.31-34.03,293.4-499.48,496.91-549.56,480.22"/>
    <path class="cls-1" d="M1405.51,796.92c-202.23-238.83-616.33-40.45-645.22,258.09-28.89,298.53-498.84,506.54-545.06,491.14"/>
    <path class="cls-1" d="M1419.63,811.07c-199.02-240.75-619.54-39.8-643.29,263.87-23.75,303.67-498.2,516.17-540.57,502.05"/>
    <path class="cls-1" d="M1433.76,825.22c-195.81-242.68-622.75-39.16-641.37,269.64-18.62,308.81-497.56,525.8-536.08,512.96"/>
    <path class="cls-1" d="M1447.88,839.37c-192.6-244.6-625.96-38.52-639.44,275.42-13.48,313.94-496.91,535.43-531.58,523.88"/>
    <path class="cls-1" d="M1462.01,853.52c-189.39-246.53-629.17-37.88-637.51,281.2-8.35,319.08-496.27,545.06-527.09,534.79"/>
    <path class="cls-1" d="M1476.13,867.67c-186.18-248.46-632.38-37.24-635.59,286.98-3.21,324.21-495.63,554.69-522.59,545.71"/>
    <path class="cls-1" d="M1490.25,881.82c-182.97-250.38-635.59-36.59-633.66,292.76,1.93,329.35-494.99,564.32-518.1,556.62"/>
    <path class="cls-1" d="M1504.38,895.97c-179.76-252.31-638.8-35.95-631.74,298.53,7.06,334.49-494.35,573.96-513.61,567.53"/>
    <path class="cls-1" d="M1518.5,910.12c-176.55-254.24-642.01-35.31-629.81,304.31,12.2,339.62-493.7,583.59-509.11,578.45"/>
    <path class="cls-1" d="M1532.63,924.27c-173.34-256.16-645.22-34.67-627.88,310.09,17.33,344.76-493.06,593.22-504.62,589.36"/>
    <path class="cls-1" d="M1546.75,938.42c-170.13-258.09-648.43-34.03-625.96,315.87,22.47,349.89-492.42,602.85-500.12,600.28"/>
    <path class="cls-1" d="M1560.88,952.57c-166.92-260.01-651.64-33.38-624.03,321.65,27.61,355.03-491.78,612.48-495.63,611.19"/>
    <path class="cls-1" d="M1575,966.72c-163.71-261.94-654.85-32.74-622.11,327.42,32.74,360.17-491.14,622.11-491.14,622.11"/>
  </g>
</svg>