<?xml version="1.0" encoding="utf-8"?>
<!-- Generator: Adobe Illustrator 26.4.1, SVG Export Plug-In . SVG Version: 6.00 Build 0)  -->
<svg version="1.1" id="Layer_1" xmlns="http://www.w3.org/2000/svg" xmlns:xlink="http://www.w3.org/1999/xlink" x="0px" y="0px"
	 viewBox="0 0 840 1181.2" style="enable-background:new 0 0 840 1181.2;" xml:space="preserve">
<style type="text/css">
	.st0{fill:#FF276A;}
	.st1{fill:#FF5290;}
	.st2{fill:#FF88B9;}
	.st3{fill:#140724;}
</style>
<g>
	<g>
		<path class="st0" d="M773.1,129.9l28.6-28.6c17.3-17.3,17.3-45.4,0-62.7l0,0c-17.3-17.3-45.4-17.3-62.7,0l0,0
			c-17.3,17.3-17.3,45.4,0,62.7l28.6,28.6C769,131.4,771.5,131.4,773.1,129.9L773.1,129.9z"/>
		<path class="st1" d="M773.1,108.9l18.1-18.1c11.6-11.6,11.6-30.2,0-41.8l0,0c-11.6-11.6-30.2-11.6-41.8,0l0,0
			c-11.6,11.6-11.6,30.2,0,41.8l18.1,18.1C769,110.5,771.5,110.5,773.1,108.9L773.1,108.9z"/>
		<path class="st2" d="M773.1,88.1l7.7-7.7c5.7-5.7,5.7-15.1,0-20.9l0,0c-5.7-5.7-15.1-5.7-20.9,0l0,0c-5.7,5.7-5.7,15.1,0,20.9
			l7.7,7.7C769,89.6,771.5,89.6,773.1,88.1z"/>
	</g>
	<g id="Group_33">
		<path id="Path_56" class="st3" d="M790.2,89.3l0.9-4.5c0-0.2,0-0.4-0.2-0.5l-2.1-2.1c-0.1-0.1-0.1-0.3,0-0.3
			c0.1-0.1,0.2-0.1,0.3-0.1l1.4,0.4c0.3,0.1,0.7-0.1,0.8-0.3l0,0c0-0.1,0-0.1,0-0.2v-7.4c0-0.2-0.1-0.3-0.2-0.4l-9.8-9.7
			c-0.3-0.3-0.3-0.6,0-0.8l0.1-0.1l4.4-2.6c0.1-0.1,0.2-0.2,0.3-0.3l4.5-9.9c0.2-0.3,0-0.7-0.3-0.8c-0.2-0.1-0.3-0.1-0.5,0l-9.9,4.5
			c-0.1,0.1-0.2,0.2-0.3,0.3l-2.6,4.4c-0.2,0.3-0.5,0.3-0.8,0.2L776,59l-9.7-9.7c-0.1-0.1-0.3-0.2-0.4-0.2h-7.3
			c-0.3,0-0.6,0.3-0.6,0.6l0,0c0,0.1,0,0.2,0,0.2l0.4,1.4c0.1,0.2,0,0.3-0.2,0.3c-0.1,0-0.2,0-0.3-0.1l-2.1-2.1
			c-0.2-0.2-0.3-0.2-0.5-0.2l-4.5,0.9c-0.3,0.1-0.5,0.3-0.5,0.6v5.6c0,0.2,0.1,0.3,0.2,0.4l1.4,1.4c0.1,0.1,0.1,0.3,0,0.3
			c-0.1,0.1-0.1,0.1-0.2,0.1H751c-0.3,0-0.6,0.3-0.6,0.6v5.3c0,0.3,0.2,0.4,0.3,0.5l10.1,4.6c0.3,0.2,0.4,0.5,0.3,0.8l0,0
			c-0.1,0.1-0.2,0.3-0.3,0.3l-11.2,5.5c-0.2,0.1-0.3,0.3-0.3,0.5v3c0,0.3,0.3,0.6,0.6,0.6c0.1,0,0.2,0,0.2,0l1.4-0.4
			c0.2-0.1,0.3,0,0.3,0.2c0,0.1,0,0.2-0.1,0.3l-2.2,2.2c-0.1,0.1-0.2,0.3-0.2,0.4v7.5c0,0.3,0.3,0.6,0.6,0.6l0,0h7.5
			c0.2,0,0.3-0.1,0.4-0.2l2.2-2.2c0.1-0.1,0.3-0.1,0.3,0c0.1,0.1,0.1,0.2,0.1,0.3l-0.4,1.4c-0.1,0.3,0.1,0.7,0.3,0.8l0,0
			c0.1,0,0.1,0,0.2,0h3c0.3,0,0.4-0.1,0.5-0.3l5.6-11.2c0.2-0.3,0.5-0.4,0.8-0.3c0.1,0.1,0.3,0.2,0.3,0.3l4.6,10.1
			c0.1,0.2,0.3,0.3,0.5,0.3h5.3c0.3,0,0.6-0.3,0.6-0.6l0,0v-0.8c0-0.2,0.1-0.3,0.3-0.3c0.1,0,0.2,0,0.2,0.1l1.4,1.4
			c0.1,0.1,0.3,0.2,0.4,0.2h5.6C790,89.8,790.2,89.6,790.2,89.3"/>
	</g>
</g>
</svg>
