<?xml version="1.0" encoding="utf-8"?>
<!-- Generator: Adobe Illustrator 26.4.1, SVG Export Plug-In . SVG Version: 6.00 Build 0)  -->
<svg version="1.1" id="Layer_1" xmlns="http://www.w3.org/2000/svg" xmlns:xlink="http://www.w3.org/1999/xlink" x="0px" y="0px"
	 viewBox="0 0 262.5 262.5" style="enable-background:new 0 0 262.5 262.5;" xml:space="preserve">
<style type="text/css">
	.st0{fill:#FF1D4E;}
	.st1{fill:#1C004C;}
</style>
<rect y="0" class="st0" width="262.5" height="262.5"/>
<g>
	<g>
		<path class="st1" d="M125.4,218.5c3.2,3.2,8.5,3.2,11.7,0l48.7-48.7c30.1-30.1,30.1-79,0-109.2l0,0c-30.1-30.1-79-30.1-109.2,0
			l0,0c-30.1,30.1-30.1,79,0,109.2L125.4,218.5z"/>
	</g>
	<g id="Group_33">
		<path id="Path_56" class="st0" d="M166,149l1.5-7.7c0.1-0.3,0-0.7-0.3-0.9l-3.7-3.7c-0.2-0.2-0.2-0.5,0-0.6
			c0.1-0.1,0.3-0.2,0.5-0.1l2.3,0.8c0.5,0.2,1.1-0.1,1.3-0.6l0,0c0-0.1,0.1-0.2,0.1-0.3V123c0-0.3-0.1-0.5-0.3-0.7l-17-17
			c-0.4-0.4-0.4-1,0-1.4c0.1-0.1,0.1-0.1,0.2-0.2l7.7-4.6c0.2-0.1,0.3-0.3,0.4-0.5l7.8-17.2c0.2-0.5,0-1.1-0.5-1.4
			c-0.3-0.1-0.6-0.1-0.9,0l-17.2,7.8c-0.2,0.1-0.3,0.2-0.5,0.4l-4.6,7.7c-0.3,0.5-0.9,0.6-1.4,0.3c-0.1,0-0.1-0.1-0.2-0.2l-17-17
			c-0.2-0.2-0.4-0.3-0.7-0.3h-12.7c-0.6,0-1,0.4-1,1l0,0c0,0.1,0,0.2,0.1,0.3l0.8,2.3c0.1,0.2,0,0.5-0.3,0.6c-0.2,0.1-0.3,0-0.5-0.1
			l-3.7-3.7c-0.2-0.2-0.6-0.4-0.9-0.3l-7.7,1.5c-0.5,0.1-0.8,0.5-0.8,1v9.7c0,0.3,0.1,0.5,0.3,0.7l2.6,2.6c0.2,0.2,0.2,0.5,0,0.6
			c-0.1,0.1-0.2,0.1-0.3,0.1h-1.5c-0.6,0-1,0.5-1,1v9.2c0,0.4,0.2,0.8,0.6,0.9l17.5,7.9c0.5,0.2,0.7,0.8,0.5,1.3l0,0
			c-0.1,0.2-0.3,0.4-0.5,0.5l-19.3,9.7c-0.3,0.2-0.6,0.5-0.6,0.9v5.2c0,0.6,0.5,1,1,1c0.1,0,0.2,0,0.3-0.1l2.3-0.8
			c0.2-0.1,0.5,0,0.6,0.3c0.1,0.2,0,0.3-0.1,0.5l-3.8,3.8c-0.2,0.2-0.3,0.5-0.3,0.7v13.1c0,0.6,0.4,1,1,1c0,0,0,0,0,0H109
			c0.3,0,0.5-0.1,0.7-0.3l3.8-3.8c0.2-0.2,0.5-0.2,0.6,0c0.1,0.1,0.2,0.3,0.1,0.5l-0.8,2.3c-0.2,0.5,0.1,1.1,0.6,1.3l0,0
			c0.1,0,0.2,0.1,0.3,0.1h5.2c0.4,0,0.7-0.2,0.9-0.6l9.7-19.3c0.3-0.5,0.9-0.7,1.4-0.5c0.2,0.1,0.4,0.3,0.5,0.5l7.9,17.5
			c0.2,0.4,0.5,0.6,0.9,0.6h9.2c0.6,0,1-0.5,1-1l0,0v-1.5c0-0.2,0.2-0.4,0.5-0.4c0.1,0,0.2,0,0.3,0.1l2.6,2.6
			c0.2,0.2,0.4,0.3,0.7,0.3h9.7C165.4,149.8,165.9,149.5,166,149"/>
	</g>
</g>
</svg>
