<?xml version="1.0" encoding="UTF-8"?>
<svg id="Layer_2" data-name="Layer 2" xmlns="http://www.w3.org/2000/svg" xmlns:xlink="http://www.w3.org/1999/xlink" viewBox="0 0 551.25 262.5">
  <defs>
    <style>
      .cls-1 {
        fill: #9494ff;
      }

      .cls-2 {
        fill: #ff88b9;
      }

      .cls-3 {
        fill: #ff276a;
      }

      .cls-4 {
        fill: #ff5290;
      }

      .cls-5 {
        fill: #140724;
      }
    </style>
  </defs>
  <g id="Layer_1-2" data-name="Layer 1">
    <rect class="cls-1" width="551.25" height="157.5"/>
    <image width="5000" height="1250" transform="translate(0 110.44) scale(.11 .12)" xlink:href="../../../../../../Downloads/Outdoors-1662715947487.png"/>
    <g>
      <path class="cls-3" d="M436.31,226.75l48.66-48.66c26.87-26.87,26.87-70.44,0-97.31h0c-26.87-26.87-70.44-26.87-97.31,0h0c-26.87,26.87-26.87,70.44,0,97.31l48.66,48.66Z"/>
      <path class="cls-4" d="M436.31,194.31l32.44-32.44c17.91-17.91,17.91-46.96,0-64.87h0c-17.91-17.91-46.96-17.91-64.87,0h0c-17.91,17.91-17.91,46.96,0,64.87l32.44,32.44Z"/>
      <path class="cls-2" d="M436.31,161.88l16.22-16.22c8.96-8.96,8.96-23.48,0-32.44h0c-8.96-8.96-23.48-8.96-32.44,0h0c-8.96,8.96-8.96,23.48,0,32.44l16.22,16.22Z"/>
    </g>
    <g id="Group_33" data-name="Group 33">
      <path id="Path_56" data-name="Path 56" class="cls-5" d="M467.27,159.51l1.38-6.9c.06-.3-.03-.61-.25-.82l-3.31-3.31c-.16-.16-.16-.42,0-.57,.11-.11,.27-.14,.41-.1l2.04,.68c.48,.16,.99-.1,1.15-.58,0,0,0,0,0,0,.03-.09,.05-.19,.05-.29v-11.33c0-.24-.1-.47-.27-.65l-15.13-15.13c-.35-.36-.35-.93,0-1.29,.05-.05,.11-.1,.18-.14l6.86-4.12c.16-.1,.28-.24,.36-.41l6.98-15.37c.21-.46,0-1-.45-1.21-.24-.11-.52-.11-.76,0l-15.37,6.99c-.17,.08-.31,.2-.41,.36l-4.12,6.86c-.26,.43-.82,.57-1.25,.31-.06-.04-.12-.08-.18-.14l-15.13-15.13c-.17-.17-.4-.27-.65-.27h-11.33c-.5,0-.91,.4-.92,.9,0,0,0,0,0,0,0,.1,.02,.2,.05,.29l.68,2.04c.07,.21-.04,.44-.25,.51-.15,.05-.31,.01-.42-.1l-3.31-3.31c-.21-.22-.52-.31-.82-.26l-6.9,1.38c-.43,.08-.73,.46-.73,.89v8.61c0,.24,.1,.47,.27,.65l2.29,2.28c.16,.16,.15,.42,0,.57-.08,.07-.18,.12-.28,.12h-1.36c-.5,0-.91,.41-.91,.91v8.23c0,.36,.21,.68,.53,.83l15.56,7.08c.46,.21,.66,.75,.45,1.2,0,0,0,0,0,0-.09,.19-.24,.35-.42,.44l-17.25,8.63c-.31,.16-.51,.47-.51,.82v4.66c0,.5,.41,.91,.91,.91,.1,0,.2-.02,.29-.05l2.04-.68c.21-.07,.44,.04,.51,.26,.05,.14,.01,.3-.1,.41l-3.39,3.39c-.17,.17-.27,.4-.27,.65v11.69c0,.5,.4,.91,.9,.92,0,0,0,0,0,0h11.69c.24,0,.47-.1,.65-.27l3.39-3.4c.16-.16,.41-.16,.57,0,.11,.11,.15,.27,.1,.42l-.68,2.04c-.16,.48,.1,.99,.58,1.15,0,0,0,0,0,0,.09,.03,.19,.05,.29,.05h4.66c.35,0,.66-.2,.82-.51l8.62-17.25c.23-.45,.77-.63,1.22-.41,.19,.09,.33,.25,.42,.44l7.08,15.56c.15,.33,.47,.53,.83,.53h8.23c.5,0,.91-.41,.91-.91h0v-1.36c0-.22,.18-.4,.41-.4,.11,0,.21,.04,.28,.12l2.28,2.29c.17,.17,.4,.27,.64,.27h8.61c.43,0,.81-.31,.89-.73"/>
    </g>
  </g>
</svg>