<?xml version="1.0" encoding="UTF-8"?>
<svg id="Layer_1" data-name="Layer 1" xmlns="http://www.w3.org/2000/svg" viewBox="0 0 840 1181.25">
  <defs>
    <style>
      .cls-1 {
        fill: #3222ff;
      }

      .cls-2 {
        fill: #2723e2;
      }
    </style>
  </defs>
  <rect class="cls-1" y="-.05" width="840" height="1181.3"/>
  <g>
    <rect class="cls-2" x="40.08" y="396.29" width="45.58" height="150.14" transform="translate(-227.26 94.59) rotate(-30)"/>
    <rect class="cls-2" x="100.41" y="253.53" width="150.14" height="45.58"/>
    <rect class="cls-2" x="213.01" y="448.57" width="150.14" height="45.58" transform="translate(-264.17 485.16) rotate(-60)"/>
    <path class="cls-2" d="M423.12,1184.18l-107.36-185.72,113.95-197.37-113.95-197.37,113.95-197.38-114.36-198.09L423.72-5.7l-40.66-20.6-107.63,212.48H75.53S-32.1-26.3-32.1-26.3L-72.77-5.7,35.61,208.26l-114.36,198.09,127.11,220.17h227.91s100.8,174.58,100.8,174.58l-113.96,197.39,120.55,208.52,39.46-22.82ZM74.68,580.93L-26.12,406.35,74.68,231.76h201.59s100.8,174.59,100.8,174.59l-100.8,174.59H74.68Z"/>
  </g>
  <path d="M420.15,78.68v52.48h52.48v-52.48h-52.48Zm40.53,20.75h-6.73v-.41c0-1.28-.27-2.43-.8-3.47-.53-1.03-1.33-1.85-2.4-2.46-1.07-.6-2.41-.91-4.04-.91-2.42,0-4.32,.74-5.69,2.22-1.38,1.48-2.07,3.5-2.07,6.06v8.9c0,2.52,.69,4.55,2.07,6.08,1.38,1.54,3.31,2.3,5.8,2.3s4.3-.65,5.43-1.97c1.14-1.31,1.71-2.97,1.71-4.97v-.52h-8.59v-5.8h15.32v18.53h-6.31v-3.47h-.93c-.24,.59-.63,1.21-1.16,1.86-.54,.66-1.34,1.21-2.41,1.66-1.07,.45-2.54,.67-4.4,.67-2.48,0-4.74-.56-6.76-1.68-2.02-1.12-3.62-2.76-4.81-4.92-1.19-2.16-1.79-4.79-1.79-7.89v-8.7c0-4.66,1.31-8.24,3.93-10.74,2.62-2.5,6.18-3.75,10.67-3.75s7.89,1.18,10.32,3.54c2.43,2.37,3.65,5.56,3.65,9.6v.21Z"/>
  <path d="M367.67,78.68v52.48h52.48v-52.48h-52.48Zm40.53,21.37h-6.73v-.52c0-2.14-.59-3.9-1.79-5.28-1.19-1.38-3.01-2.07-5.46-2.07s-4.32,.74-5.69,2.22c-1.38,1.48-2.07,3.5-2.07,6.06v8.9c0,2.52,.69,4.53,2.07,6.03,1.38,1.5,3.28,2.25,5.69,2.25s4.27-.7,5.46-2.1c1.19-1.4,1.79-3.15,1.79-5.25v-.93h6.73v.72c0,4.24-1.21,7.58-3.65,10.01-2.43,2.43-5.88,3.65-10.32,3.65s-8.04-1.25-10.67-3.75c-2.62-2.5-3.93-6.08-3.93-10.74v-8.7c0-4.66,1.31-8.24,3.93-10.74,2.62-2.5,6.18-3.75,10.67-3.75s7.89,1.22,10.32,3.65c2.43,2.43,3.65,5.77,3.65,10.02v.31Z"/>
  <path d="M315.19,26.2v52.48h52.48V26.2h-52.48Zm40.77,13.86h-10.98v31.22h-7.11v-31.22h-10.98v-6.46h29.06v6.46Z"/>
  <path d="M787.52,131.16v52.48h52.48v-52.48h-52.48Zm40.77,13.86h-10.98v31.22h-7.11v-31.22h-10.98v-6.46h29.06v6.46Z"/>
  <g>
    <polygon points="288.47 90.61 283.91 108.89 293.99 108.89 289.43 90.61 288.47 90.61"/>
    <path d="M262.71,78.68v52.48h52.48v-52.48h-52.48Zm34.98,45l-2.04-8.26h-13.4l-2.04,8.26h-7.29l9.86-37.52h12.33l9.86,37.52h-7.29Z"/>
  </g>
  <path d="M210.23,288.56v52.48h52.48v-52.48h-52.48Zm40.53,21.37h-6.73v-.52c0-2.14-.59-3.9-1.79-5.28-1.19-1.38-3.01-2.07-5.46-2.07s-4.32,.74-5.69,2.22c-1.38,1.48-2.07,3.5-2.07,6.06v8.9c0,2.52,.69,4.53,2.07,6.03,1.38,1.5,3.28,2.25,5.69,2.25s4.27-.7,5.46-2.1c1.19-1.4,1.79-3.15,1.79-5.25v-.93h6.73v.72c0,4.24-1.21,7.58-3.65,10.01-2.43,2.43-5.88,3.65-10.32,3.65s-8.04-1.25-10.67-3.75c-2.62-2.5-3.93-6.08-3.93-10.74v-8.7c0-4.66,1.31-8.24,3.93-10.74,2.62-2.5,6.18-3.75,10.67-3.75s7.89,1.22,10.32,3.65c2.43,2.43,3.65,5.77,3.65,10.02v.31Z"/>
  <g>
    <polygon points="760.8 248.05 756.24 266.33 766.32 266.33 761.76 248.05 760.8 248.05"/>
    <path d="M735.04,236.12v52.48h52.48v-52.48h-52.48Zm34.98,45l-2.04-8.26h-13.4l-2.04,8.26h-7.29l9.86-37.52h12.33l9.86,37.52h-7.29Z"/>
  </g>
  <path d="M472.63,236.12v52.48h52.48v-52.48h-52.48Zm40.53,21.37h-6.73v-.52c0-2.14-.59-3.9-1.79-5.28-1.19-1.38-3.01-2.07-5.46-2.07s-4.32,.74-5.69,2.22c-1.38,1.48-2.07,3.5-2.07,6.06v8.9c0,2.52,.69,4.53,2.07,6.03,1.38,1.5,3.28,2.25,5.69,2.25s4.27-.7,5.46-2.1c1.19-1.4,1.79-3.15,1.79-5.25v-.93h6.73v.72c0,4.24-1.21,7.58-3.65,10.01-2.43,2.43-5.88,3.65-10.32,3.65s-8.04-1.25-10.67-3.75c-2.62-2.5-3.93-6.08-3.93-10.74v-8.7c0-4.66,1.31-8.24,3.93-10.74,2.62-2.5,6.18-3.75,10.67-3.75s7.89,1.22,10.32,3.65c2.43,2.43,3.65,5.77,3.65,10.02v.31Z"/>
  <path d="M420.15,236.12v52.48h52.48v-52.48h-52.48Zm40.77,13.86h-10.98v31.22h-7.11v-31.22h-10.98v-6.46h29.06v6.46Z"/>
  <g>
    <polygon points="288.47 248.05 283.91 266.33 293.99 266.33 289.43 248.05 288.47 248.05"/>
    <path d="M262.71,236.12v52.48h52.48v-52.48h-52.48Zm34.98,45l-2.04-8.26h-13.4l-2.04,8.26h-7.29l9.86-37.52h12.33l9.86,37.52h-7.29Z"/>
  </g>
  <path d="M682.56,183.64v52.48h52.48v-52.48h-52.48Zm40.53,20.75h-6.73v-.41c0-1.28-.27-2.43-.8-3.47-.53-1.03-1.33-1.85-2.4-2.46-1.07-.6-2.41-.91-4.04-.91-2.42,0-4.32,.74-5.69,2.22-1.38,1.48-2.07,3.5-2.07,6.06v8.9c0,2.52,.69,4.55,2.07,6.08,1.38,1.54,3.31,2.3,5.8,2.3s4.3-.65,5.43-1.97c1.14-1.31,1.71-2.97,1.71-4.97v-.52h-8.59v-5.8h15.32v18.53h-6.31v-3.47h-.93c-.24,.59-.63,1.21-1.16,1.86-.54,.66-1.34,1.21-2.41,1.66-1.07,.45-2.54,.67-4.4,.67-2.48,0-4.74-.56-6.76-1.68-2.02-1.12-3.62-2.76-4.81-4.92-1.19-2.16-1.79-4.79-1.79-7.89v-8.7c0-4.66,1.31-8.24,3.93-10.74,2.62-2.5,6.18-3.75,10.67-3.75s7.89,1.18,10.32,3.54c2.43,2.37,3.65,5.56,3.65,9.6v.21Z"/>
  <path d="M630.08,183.64v52.48h52.48v-52.48h-52.48Zm40.53,21.37h-6.73v-.52c0-2.14-.59-3.9-1.79-5.28-1.19-1.38-3.01-2.07-5.46-2.07s-4.32,.74-5.69,2.22c-1.38,1.48-2.07,3.5-2.07,6.06v8.9c0,2.52,.69,4.53,2.07,6.03,1.38,1.5,3.28,2.25,5.69,2.25s4.27-.7,5.46-2.1c1.19-1.4,1.79-3.15,1.79-5.25v-.93h6.73v.72c0,4.24-1.21,7.58-3.65,10.01-2.43,2.43-5.88,3.65-10.32,3.65s-8.04-1.25-10.67-3.75c-2.62-2.5-3.93-6.08-3.93-10.74v-8.7c0-4.66,1.31-8.24,3.93-10.74,2.62-2.5,6.18-3.75,10.67-3.75s7.89,1.22,10.32,3.65c2.43,2.43,3.65,5.77,3.65,10.02v.31Z"/>
  <path d="M105.27,183.64v52.48h52.48v-52.48h-52.48Zm40.53,21.37h-6.73v-.52c0-2.14-.59-3.9-1.79-5.28-1.19-1.38-3.01-2.07-5.46-2.07s-4.32,.74-5.69,2.22c-1.38,1.48-2.07,3.5-2.07,6.06v8.9c0,2.52,.69,4.53,2.07,6.03,1.38,1.5,3.28,2.25,5.69,2.25s4.27-.7,5.46-2.1c1.19-1.4,1.79-3.15,1.79-5.25v-.93h6.73v.72c0,4.24-1.21,7.58-3.65,10.01-2.43,2.43-5.88,3.65-10.32,3.65s-8.04-1.25-10.67-3.75c-2.62-2.5-3.93-6.08-3.93-10.74v-8.7c0-4.66,1.31-8.24,3.93-10.74,2.62-2.5,6.18-3.75,10.67-3.75s7.89,1.22,10.32,3.65c2.43,2.43,3.65,5.77,3.65,10.02v.31Z"/>
  <path d="M105.27,131.16v52.48h52.48v-52.48h-52.48Zm40.77,13.86h-10.98v31.22h-7.11v-31.22h-10.98v-6.46h29.06v6.46Z"/>
  <g>
    <polygon points="183.51 195.57 178.95 213.85 189.03 213.85 184.47 195.57 183.51 195.57"/>
    <path d="M157.75,183.64v52.48h52.48v-52.48h-52.48Zm34.98,45l-2.04-8.26h-13.4l-2.04,8.26h-7.29l9.86-37.52h12.33l9.86,37.52h-7.29Z"/>
  </g>
  <path d="M525.11,78.68v52.48h52.48v-52.48h-52.48Zm40.53,20.75h-6.73v-.41c0-1.28-.27-2.43-.8-3.47-.53-1.03-1.33-1.85-2.4-2.46-1.07-.6-2.41-.91-4.04-.91-2.42,0-4.32,.74-5.69,2.22-1.38,1.48-2.07,3.5-2.07,6.06v8.9c0,2.52,.69,4.55,2.07,6.08,1.38,1.54,3.31,2.3,5.8,2.3s4.3-.65,5.43-1.97c1.14-1.31,1.71-2.97,1.71-4.97v-.52h-8.59v-5.8h15.32v18.53h-6.31v-3.47h-.93c-.24,.59-.63,1.21-1.16,1.86-.54,.66-1.34,1.21-2.41,1.66-1.07,.45-2.54,.67-4.4,.67-2.48,0-4.74-.56-6.76-1.68-2.02-1.12-3.62-2.76-4.81-4.92-1.19-2.16-1.79-4.79-1.79-7.89v-8.7c0-4.66,1.31-8.24,3.93-10.74,2.62-2.5,6.18-3.75,10.67-3.75s7.89,1.18,10.32,3.54c2.43,2.37,3.65,5.56,3.65,9.6v.21Z"/>
  <g>
    <polygon points="26.06 90.61 21.5 108.89 31.58 108.89 27.03 90.61 26.06 90.61"/>
    <path d="M.3,78.68v52.48H52.78v-52.48H.3Zm34.98,45l-2.04-8.26h-13.4l-2.04,8.26h-7.29l9.86-37.52h12.33l9.86,37.52h-7.29Z"/>
  </g>
  <path d="M735.04,78.68v52.48h52.48v-52.48h-52.48Zm40.53,21.37h-6.73v-.52c0-2.14-.59-3.9-1.79-5.28-1.19-1.38-3.01-2.07-5.46-2.07s-4.32,.74-5.69,2.22c-1.38,1.48-2.07,3.5-2.07,6.06v8.9c0,2.52,.69,4.53,2.07,6.03,1.38,1.5,3.28,2.25,5.69,2.25s4.27-.7,5.46-2.1c1.19-1.4,1.79-3.15,1.79-5.25v-.93h6.73v.72c0,4.24-1.21,7.58-3.65,10.01-2.43,2.43-5.88,3.65-10.32,3.65s-8.04-1.25-10.67-3.75c-2.62-2.5-3.93-6.08-3.93-10.74v-8.7c0-4.66,1.31-8.24,3.93-10.74,2.62-2.5,6.18-3.75,10.67-3.75s7.89,1.22,10.32,3.65c2.43,2.43,3.65,5.77,3.65,10.02v.31Z"/>
  <path d="M472.63,131.16v52.48h52.48v-52.48h-52.48Zm40.53,21.37h-6.73v-.52c0-2.14-.59-3.9-1.79-5.28-1.19-1.38-3.01-2.07-5.46-2.07s-4.32,.74-5.69,2.22c-1.38,1.48-2.07,3.5-2.07,6.06v8.9c0,2.52,.69,4.53,2.07,6.03,1.38,1.5,3.28,2.25,5.69,2.25s4.27-.7,5.46-2.1c1.19-1.4,1.79-3.15,1.79-5.25v-.93h6.73v.72c0,4.24-1.21,7.58-3.65,10.01-2.43,2.43-5.88,3.65-10.32,3.65s-8.04-1.25-10.67-3.75c-2.62-2.5-3.93-6.08-3.93-10.74v-8.7c0-4.66,1.31-8.24,3.93-10.74,2.62-2.5,6.18-3.75,10.67-3.75s7.89,1.22,10.32,3.65c2.43,2.43,3.65,5.77,3.65,10.02v.31Z"/>
  <path d="M656.19,288.56v52.48h52.48v-52.48h-52.48Zm40.77,13.86h-10.98v31.22h-7.11v-31.22h-10.98v-6.46h29.06v6.46Z"/>
  <g>
    <polygon points="629.47 405.46 624.91 423.73 634.99 423.73 630.44 405.46 629.47 405.46"/>
    <path d="M603.71,393.53v52.48h52.48v-52.48h-52.48Zm34.98,45l-2.04-8.26h-13.4l-2.04,8.26h-7.29l9.86-37.52h12.33l9.86,37.52h-7.29Z"/>
  </g>
  <path d="M105.02,393.53v52.48h52.48v-52.48h-52.48Zm40.53,20.75h-6.73v-.41c0-1.28-.27-2.43-.8-3.47-.53-1.03-1.33-1.85-2.4-2.46-1.07-.6-2.41-.91-4.04-.91-2.42,0-4.32,.74-5.69,2.22-1.38,1.48-2.07,3.5-2.07,6.06v8.9c0,2.52,.69,4.55,2.07,6.08,1.38,1.54,3.31,2.3,5.8,2.3s4.3-.65,5.43-1.97c1.14-1.31,1.71-2.97,1.71-4.97v-.52h-8.59v-5.8h15.32v18.53h-6.31v-3.47h-.93c-.24,.59-.63,1.21-1.16,1.86-.54,.66-1.34,1.21-2.41,1.66-1.07,.45-2.54,.67-4.4,.67-2.48,0-4.74-.56-6.76-1.68-2.02-1.12-3.62-2.76-4.81-4.92-1.19-2.16-1.79-4.79-1.79-7.89v-8.7c0-4.66,1.31-8.24,3.93-10.74,2.62-2.5,6.18-3.75,10.67-3.75s7.89,1.18,10.32,3.54c2.43,2.37,3.65,5.56,3.65,9.6v.21Z"/>
  <path d="M393.91,341.05v52.48h52.48v-52.48h-52.48Zm40.53,21.37h-6.73v-.52c0-2.14-.59-3.9-1.79-5.28-1.19-1.38-3.01-2.07-5.46-2.07s-4.32,.74-5.69,2.22c-1.38,1.48-2.07,3.5-2.07,6.06v8.9c0,2.52,.69,4.53,2.07,6.03,1.38,1.5,3.28,2.25,5.69,2.25s4.27-.7,5.46-2.1c1.19-1.4,1.79-3.15,1.79-5.25v-.93h6.73v.72c0,4.24-1.21,7.58-3.65,10.01-2.43,2.43-5.88,3.65-10.32,3.65s-8.04-1.25-10.67-3.75c-2.62-2.5-3.93-6.08-3.93-10.74v-8.7c0-4.66,1.31-8.24,3.93-10.74,2.62-2.5,6.18-3.75,10.67-3.75s7.89,1.22,10.32,3.65c2.43,2.43,3.65,5.77,3.65,10.02v.31Z"/>
  <path d="M341.43,288.56v52.48h52.48v-52.48h-52.48Zm40.77,13.86h-10.98v31.22h-7.11v-31.22h-10.98v-6.46h29.06v6.46Z"/>
  <path d="M52.78,288.56v52.48h52.48v-52.48H52.78Zm40.53,21.37h-6.73v-.52c0-2.14-.59-3.9-1.79-5.28-1.19-1.38-3.01-2.07-5.46-2.07s-4.32,.74-5.69,2.22c-1.38,1.48-2.07,3.5-2.07,6.06v8.9c0,2.52,.69,4.53,2.07,6.03,1.38,1.5,3.28,2.25,5.69,2.25s4.27-.7,5.46-2.1c1.19-1.4,1.79-3.15,1.79-5.25v-.93h6.73v.72c0,4.24-1.21,7.58-3.65,10.01-2.43,2.43-5.88,3.65-10.32,3.65s-8.04-1.25-10.67-3.75c-2.62-2.5-3.93-6.08-3.93-10.74v-8.7c0-4.66,1.31-8.24,3.93-10.74,2.62-2.5,6.18-3.75,10.67-3.75s7.89,1.22,10.32,3.65c2.43,2.43,3.65,5.77,3.65,10.02v.31Z"/>
  <g>
    <polygon points="131.03 300.49 126.47 318.77 136.54 318.77 131.99 300.49 131.03 300.49"/>
    <path d="M105.27,288.56v52.48h52.48v-52.48h-52.48Zm34.98,45l-2.04-8.26h-13.4l-2.04,8.26h-7.29l9.86-37.52h12.33l9.86,37.52h-7.29Z"/>
  </g>
  <path d="M157.75,341.05v52.48h52.48v-52.48h-52.48Zm40.77,13.86h-10.98v31.22h-7.11v-31.22h-10.98v-6.46h29.06v6.46Z"/>
  <g>
    <polygon points="235.99 405.46 231.43 423.73 241.51 423.73 236.95 405.46 235.99 405.46"/>
    <path d="M210.23,393.53v52.48h52.48v-52.48h-52.48Zm34.98,45l-2.04-8.26h-13.4l-2.04,8.26h-7.29l9.86-37.52h12.33l9.86,37.52h-7.29Z"/>
  </g>
  <path d="M420.15,498.49v52.48h52.48v-52.48h-52.48Zm40.53,20.75h-6.73v-.41c0-1.28-.27-2.43-.8-3.47-.53-1.03-1.33-1.85-2.4-2.46-1.07-.6-2.41-.91-4.04-.91-2.42,0-4.32,.74-5.69,2.22-1.38,1.48-2.07,3.5-2.07,6.06v8.9c0,2.52,.69,4.55,2.07,6.08,1.38,1.54,3.31,2.3,5.8,2.3s4.3-.65,5.43-1.97c1.14-1.31,1.71-2.97,1.71-4.97v-.52h-8.59v-5.8h15.32v18.53h-6.31v-3.47h-.93c-.24,.59-.63,1.21-1.16,1.86-.54,.66-1.34,1.21-2.41,1.66-1.07,.45-2.54,.67-4.4,.67-2.48,0-4.74-.56-6.76-1.68-2.02-1.12-3.62-2.76-4.81-4.92-1.19-2.16-1.79-4.79-1.79-7.89v-8.7c0-4.66,1.31-8.24,3.93-10.74,2.62-2.5,6.18-3.75,10.67-3.75s7.89,1.18,10.32,3.54c2.43,2.37,3.65,5.56,3.65,9.6v.21Z"/>
  <path d="M367.67,498.49v52.48h52.48v-52.48h-52.48Zm40.53,21.37h-6.73v-.52c0-2.14-.59-3.9-1.79-5.28-1.19-1.38-3.01-2.07-5.46-2.07s-4.32,.74-5.69,2.22c-1.38,1.48-2.07,3.5-2.07,6.06v8.9c0,2.52,.69,4.53,2.07,6.03,1.38,1.5,3.28,2.25,5.69,2.25s4.27-.7,5.46-2.1c1.19-1.4,1.79-3.15,1.79-5.25v-.93h6.73v.72c0,4.24-1.21,7.58-3.65,10.01-2.43,2.43-5.88,3.65-10.32,3.65s-8.04-1.25-10.67-3.75c-2.62-2.5-3.93-6.08-3.93-10.74v-8.7c0-4.66,1.31-8.24,3.93-10.74,2.62-2.5,6.18-3.75,10.67-3.75s7.89,1.22,10.32,3.65c2.43,2.43,3.65,5.77,3.65,10.02v.31Z"/>
  <path d="M315.19,446.01v52.48h52.48v-52.48h-52.48Zm40.77,13.86h-10.98v31.22h-7.11v-31.22h-10.98v-6.46h29.06v6.46Z"/>
  <path d="M787.52,550.97v52.48h52.48v-52.48h-52.48Zm40.77,13.86h-10.98v31.22h-7.11v-31.22h-10.98v-6.46h29.06v6.46Z"/>
  <g>
    <polygon points="288.47 510.42 283.91 528.7 293.99 528.7 289.43 510.42 288.47 510.42"/>
    <path d="M262.71,498.49v52.48h52.48v-52.48h-52.48Zm34.98,45l-2.04-8.26h-13.4l-2.04,8.26h-7.29l9.86-37.52h12.33l9.86,37.52h-7.29Z"/>
  </g>
  <path d="M210.23,708.37v52.48h52.48v-52.48h-52.48Zm40.53,21.37h-6.73v-.52c0-2.14-.59-3.9-1.79-5.28-1.19-1.38-3.01-2.07-5.46-2.07s-4.32,.74-5.69,2.22c-1.38,1.48-2.07,3.5-2.07,6.06v8.9c0,2.52,.69,4.53,2.07,6.03,1.38,1.5,3.28,2.25,5.69,2.25s4.27-.7,5.46-2.1c1.19-1.4,1.79-3.15,1.79-5.25v-.93h6.73v.72c0,4.24-1.21,7.58-3.65,10.01-2.43,2.43-5.88,3.65-10.32,3.65s-8.04-1.25-10.67-3.75c-2.62-2.5-3.93-6.08-3.93-10.74v-8.7c0-4.66,1.31-8.24,3.93-10.74,2.62-2.5,6.18-3.75,10.67-3.75s7.89,1.22,10.32,3.65c2.43,2.43,3.65,5.77,3.65,10.02v.31Z"/>
  <g>
    <polygon points="760.8 667.86 756.24 686.14 766.32 686.14 761.76 667.86 760.8 667.86"/>
    <path d="M735.04,655.93v52.48h52.48v-52.48h-52.48Zm34.98,45l-2.04-8.26h-13.4l-2.04,8.26h-7.29l9.86-37.52h12.33l9.86,37.52h-7.29Z"/>
  </g>
  <path d="M472.63,655.93v52.48h52.48v-52.48h-52.48Zm40.53,21.37h-6.73v-.52c0-2.14-.59-3.9-1.79-5.28-1.19-1.38-3.01-2.07-5.46-2.07s-4.32,.74-5.69,2.22c-1.38,1.48-2.07,3.5-2.07,6.06v8.9c0,2.52,.69,4.53,2.07,6.03,1.38,1.5,3.28,2.25,5.69,2.25s4.27-.7,5.46-2.1c1.19-1.4,1.79-3.15,1.79-5.25v-.93h6.73v.72c0,4.24-1.21,7.58-3.65,10.01-2.43,2.43-5.88,3.65-10.32,3.65s-8.04-1.25-10.67-3.75c-2.62-2.5-3.93-6.08-3.93-10.74v-8.7c0-4.66,1.31-8.24,3.93-10.74,2.62-2.5,6.18-3.75,10.67-3.75s7.89,1.22,10.32,3.65c2.43,2.43,3.65,5.77,3.65,10.02v.31Z"/>
  <path d="M420.15,655.93v52.48h52.48v-52.48h-52.48Zm40.77,13.86h-10.98v31.22h-7.11v-31.22h-10.98v-6.46h29.06v6.46Z"/>
  <g>
    <polygon points="288.47 667.86 283.91 686.14 293.99 686.14 289.43 667.86 288.47 667.86"/>
    <path d="M262.71,655.93v52.48h52.48v-52.48h-52.48Zm34.98,45l-2.04-8.26h-13.4l-2.04,8.26h-7.29l9.86-37.52h12.33l9.86,37.52h-7.29Z"/>
  </g>
  <path d="M682.56,603.45v52.48h52.48v-52.48h-52.48Zm40.53,20.75h-6.73v-.41c0-1.28-.27-2.43-.8-3.47-.53-1.03-1.33-1.85-2.4-2.46-1.07-.6-2.41-.91-4.04-.91-2.42,0-4.32,.74-5.69,2.22-1.38,1.48-2.07,3.5-2.07,6.06v8.9c0,2.52,.69,4.55,2.07,6.08,1.38,1.54,3.31,2.3,5.8,2.3s4.3-.65,5.43-1.97c1.14-1.31,1.71-2.97,1.71-4.97v-.52h-8.59v-5.8h15.32v18.53h-6.31v-3.47h-.93c-.24,.59-.63,1.21-1.16,1.86-.54,.66-1.34,1.21-2.41,1.66-1.07,.45-2.54,.67-4.4,.67-2.48,0-4.74-.56-6.76-1.68-2.02-1.12-3.62-2.76-4.81-4.92-1.19-2.16-1.79-4.79-1.79-7.89v-8.7c0-4.66,1.31-8.24,3.93-10.74,2.62-2.5,6.18-3.75,10.67-3.75s7.89,1.18,10.32,3.54c2.43,2.37,3.65,5.56,3.65,9.6v.21Z"/>
  <path d="M630.08,603.45v52.48h52.48v-52.48h-52.48Zm40.53,21.37h-6.73v-.52c0-2.14-.59-3.9-1.79-5.28-1.19-1.38-3.01-2.07-5.46-2.07s-4.32,.74-5.69,2.22c-1.38,1.48-2.07,3.5-2.07,6.06v8.9c0,2.52,.69,4.53,2.07,6.03,1.38,1.5,3.28,2.25,5.69,2.25s4.27-.7,5.46-2.1c1.19-1.4,1.79-3.15,1.79-5.25v-.93h6.73v.72c0,4.24-1.21,7.58-3.65,10.01-2.43,2.43-5.88,3.65-10.32,3.65s-8.04-1.25-10.67-3.75c-2.62-2.5-3.93-6.08-3.93-10.74v-8.7c0-4.66,1.31-8.24,3.93-10.74,2.62-2.5,6.18-3.75,10.67-3.75s7.89,1.22,10.32,3.65c2.43,2.43,3.65,5.77,3.65,10.02v.31Z"/>
  <path d="M105.27,603.45v52.48h52.48v-52.48h-52.48Zm40.53,21.37h-6.73v-.52c0-2.14-.59-3.9-1.79-5.28-1.19-1.38-3.01-2.07-5.46-2.07s-4.32,.74-5.69,2.22c-1.38,1.48-2.07,3.5-2.07,6.06v8.9c0,2.52,.69,4.53,2.07,6.03,1.38,1.5,3.28,2.25,5.69,2.25s4.27-.7,5.46-2.1c1.19-1.4,1.79-3.15,1.79-5.25v-.93h6.73v.72c0,4.24-1.21,7.58-3.65,10.01-2.43,2.43-5.88,3.65-10.32,3.65s-8.04-1.25-10.67-3.75c-2.62-2.5-3.93-6.08-3.93-10.74v-8.7c0-4.66,1.31-8.24,3.93-10.74,2.62-2.5,6.18-3.75,10.67-3.75s7.89,1.22,10.32,3.65c2.43,2.43,3.65,5.77,3.65,10.02v.31Z"/>
  <path d="M105.27,550.97v52.48h52.48v-52.48h-52.48Zm40.77,13.86h-10.98v31.22h-7.11v-31.22h-10.98v-6.46h29.06v6.46Z"/>
  <g>
    <polygon points="183.51 615.38 178.95 633.66 189.03 633.66 184.47 615.38 183.51 615.38"/>
    <path d="M157.75,603.45v52.48h52.48v-52.48h-52.48Zm34.98,45l-2.04-8.26h-13.4l-2.04,8.26h-7.29l9.86-37.52h12.33l9.86,37.52h-7.29Z"/>
  </g>
  <path d="M525.11,498.49v52.48h52.48v-52.48h-52.48Zm40.53,20.75h-6.73v-.41c0-1.28-.27-2.43-.8-3.47-.53-1.03-1.33-1.85-2.4-2.46-1.07-.6-2.41-.91-4.04-.91-2.42,0-4.32,.74-5.69,2.22-1.38,1.48-2.07,3.5-2.07,6.06v8.9c0,2.52,.69,4.55,2.07,6.08,1.38,1.54,3.31,2.3,5.8,2.3s4.3-.65,5.43-1.97c1.14-1.31,1.71-2.97,1.71-4.97v-.52h-8.59v-5.8h15.32v18.53h-6.31v-3.47h-.93c-.24,.59-.63,1.21-1.16,1.86-.54,.66-1.34,1.21-2.41,1.66-1.07,.45-2.54,.67-4.4,.67-2.48,0-4.74-.56-6.76-1.68-2.02-1.12-3.62-2.76-4.81-4.92-1.19-2.16-1.79-4.79-1.79-7.89v-8.7c0-4.66,1.31-8.24,3.93-10.74,2.62-2.5,6.18-3.75,10.67-3.75s7.89,1.18,10.32,3.54c2.43,2.37,3.65,5.56,3.65,9.6v.21Z"/>
  <g>
    <polygon points="26.06 510.42 21.5 528.7 31.58 528.7 27.03 510.42 26.06 510.42"/>
    <path d="M.3,498.49v52.48H52.78v-52.48H.3Zm34.98,45l-2.04-8.26h-13.4l-2.04,8.26h-7.29l9.86-37.52h12.33l9.86,37.52h-7.29Z"/>
  </g>
  <path d="M735.04,498.49v52.48h52.48v-52.48h-52.48Zm40.53,21.37h-6.73v-.52c0-2.14-.59-3.9-1.79-5.28-1.19-1.38-3.01-2.07-5.46-2.07s-4.32,.74-5.69,2.22c-1.38,1.48-2.07,3.5-2.07,6.06v8.9c0,2.52,.69,4.53,2.07,6.03,1.38,1.5,3.28,2.25,5.69,2.25s4.27-.7,5.46-2.1c1.19-1.4,1.79-3.15,1.79-5.25v-.93h6.73v.72c0,4.24-1.21,7.58-3.65,10.01-2.43,2.43-5.88,3.65-10.32,3.65s-8.04-1.25-10.67-3.75c-2.62-2.5-3.93-6.08-3.93-10.74v-8.7c0-4.66,1.31-8.24,3.93-10.74,2.62-2.5,6.18-3.75,10.67-3.75s7.89,1.22,10.32,3.65c2.43,2.43,3.65,5.77,3.65,10.02v.31Z"/>
  <path d="M472.63,550.97v52.48h52.48v-52.48h-52.48Zm40.53,21.37h-6.73v-.52c0-2.14-.59-3.9-1.79-5.28-1.19-1.38-3.01-2.07-5.46-2.07s-4.32,.74-5.69,2.22c-1.38,1.48-2.07,3.5-2.07,6.06v8.9c0,2.52,.69,4.53,2.07,6.03,1.38,1.5,3.28,2.25,5.69,2.25s4.27-.7,5.46-2.1c1.19-1.4,1.79-3.15,1.79-5.25v-.93h6.73v.72c0,4.24-1.21,7.58-3.65,10.01-2.43,2.43-5.88,3.65-10.32,3.65s-8.04-1.25-10.67-3.75c-2.62-2.5-3.93-6.08-3.93-10.74v-8.7c0-4.66,1.31-8.24,3.93-10.74,2.62-2.5,6.18-3.75,10.67-3.75s7.89,1.22,10.32,3.65c2.43,2.43,3.65,5.77,3.65,10.02v.31Z"/>
  <path d="M656.19,708.37v52.48h52.48v-52.48h-52.48Zm40.77,13.86h-10.98v31.22h-7.11v-31.22h-10.98v-6.46h29.06v6.46Z"/>
  <g>
    <polygon points="629.47 825.26 624.91 843.54 634.99 843.54 630.44 825.26 629.47 825.26"/>
    <path d="M603.71,813.33v52.48h52.48v-52.48h-52.48Zm34.98,45l-2.04-8.26h-13.4l-2.04,8.26h-7.29l9.86-37.52h12.33l9.86,37.52h-7.29Z"/>
  </g>
  <path d="M105.02,813.33v52.48h52.48v-52.48h-52.48Zm40.53,20.75h-6.73v-.41c0-1.28-.27-2.43-.8-3.47-.53-1.03-1.33-1.85-2.4-2.46-1.07-.6-2.41-.91-4.04-.91-2.42,0-4.32,.74-5.69,2.22-1.38,1.48-2.07,3.5-2.07,6.06v8.9c0,2.52,.69,4.55,2.07,6.08,1.38,1.54,3.31,2.3,5.8,2.3s4.3-.65,5.43-1.97c1.14-1.31,1.71-2.97,1.71-4.97v-.52h-8.59v-5.8h15.32v18.53h-6.31v-3.47h-.93c-.24,.59-.63,1.21-1.16,1.86-.54,.66-1.34,1.21-2.41,1.66-1.07,.45-2.54,.67-4.4,.67-2.48,0-4.74-.56-6.76-1.68-2.02-1.12-3.62-2.76-4.81-4.92-1.19-2.16-1.79-4.79-1.79-7.89v-8.7c0-4.66,1.31-8.24,3.93-10.74,2.62-2.5,6.18-3.75,10.67-3.75s7.89,1.18,10.32,3.54c2.43,2.37,3.65,5.56,3.65,9.6v.21Z"/>
  <path d="M393.91,760.85v52.48h52.48v-52.48h-52.48Zm40.53,21.37h-6.73v-.52c0-2.14-.59-3.9-1.79-5.28-1.19-1.38-3.01-2.07-5.46-2.07s-4.32,.74-5.69,2.22c-1.38,1.48-2.07,3.5-2.07,6.06v8.9c0,2.52,.69,4.53,2.07,6.03,1.38,1.5,3.28,2.25,5.69,2.25s4.27-.7,5.46-2.1c1.19-1.4,1.79-3.15,1.79-5.25v-.93h6.73v.72c0,4.24-1.21,7.58-3.65,10.01-2.43,2.43-5.88,3.65-10.32,3.65s-8.04-1.25-10.67-3.75c-2.62-2.5-3.93-6.08-3.93-10.74v-8.7c0-4.66,1.31-8.24,3.93-10.74,2.62-2.5,6.18-3.75,10.67-3.75s7.89,1.22,10.32,3.65c2.43,2.43,3.65,5.77,3.65,10.02v.31Z"/>
  <path d="M341.43,708.37v52.48h52.48v-52.48h-52.48Zm40.77,13.86h-10.98v31.22h-7.11v-31.22h-10.98v-6.46h29.06v6.46Z"/>
  <path d="M52.78,708.37v52.48h52.48v-52.48H52.78Zm40.53,21.37h-6.73v-.52c0-2.14-.59-3.9-1.79-5.28-1.19-1.38-3.01-2.07-5.46-2.07s-4.32,.74-5.69,2.22c-1.38,1.48-2.07,3.5-2.07,6.06v8.9c0,2.52,.69,4.53,2.07,6.03,1.38,1.5,3.28,2.25,5.69,2.25s4.27-.7,5.46-2.1c1.19-1.4,1.79-3.15,1.79-5.25v-.93h6.73v.72c0,4.24-1.21,7.58-3.65,10.01-2.43,2.43-5.88,3.65-10.32,3.65s-8.04-1.25-10.67-3.75c-2.62-2.5-3.93-6.08-3.93-10.74v-8.7c0-4.66,1.31-8.24,3.93-10.74,2.62-2.5,6.18-3.75,10.67-3.75s7.89,1.22,10.32,3.65c2.43,2.43,3.65,5.77,3.65,10.02v.31Z"/>
  <g>
    <polygon points="131.03 720.3 126.47 738.58 136.54 738.58 131.99 720.3 131.03 720.3"/>
    <path d="M105.27,708.37v52.48h52.48v-52.48h-52.48Zm34.98,45l-2.04-8.26h-13.4l-2.04,8.26h-7.29l9.86-37.52h12.33l9.86,37.52h-7.29Z"/>
  </g>
  <path d="M157.75,760.85v52.48h52.48v-52.48h-52.48Zm40.77,13.86h-10.98v31.22h-7.11v-31.22h-10.98v-6.46h29.06v6.46Z"/>
  <g>
    <polygon points="235.99 825.26 231.43 843.54 241.51 843.54 236.95 825.26 235.99 825.26"/>
    <path d="M210.23,813.33v52.48h52.48v-52.48h-52.48Zm34.98,45l-2.04-8.26h-13.4l-2.04,8.26h-7.29l9.86-37.52h12.33l9.86,37.52h-7.29Z"/>
  </g>
  <path d="M420.15,918.49v52.48h52.48v-52.48h-52.48Zm40.53,20.75h-6.73v-.41c0-1.28-.27-2.43-.8-3.47-.53-1.03-1.33-1.85-2.4-2.46-1.07-.6-2.41-.91-4.04-.91-2.42,0-4.32,.74-5.69,2.22-1.38,1.48-2.07,3.5-2.07,6.06v8.9c0,2.52,.69,4.55,2.07,6.08,1.38,1.54,3.31,2.3,5.8,2.3s4.3-.65,5.43-1.97c1.14-1.31,1.71-2.97,1.71-4.97v-.52h-8.59v-5.8h15.32v18.53h-6.31v-3.47h-.93c-.24,.59-.63,1.21-1.16,1.86-.54,.66-1.34,1.21-2.41,1.66-1.07,.45-2.54,.67-4.4,.67-2.48,0-4.74-.56-6.76-1.68-2.02-1.12-3.62-2.76-4.81-4.92-1.19-2.16-1.79-4.79-1.79-7.89v-8.7c0-4.66,1.31-8.24,3.93-10.74,2.62-2.5,6.18-3.75,10.67-3.75s7.89,1.18,10.32,3.54c2.43,2.37,3.65,5.56,3.65,9.6v.21Z"/>
  <path d="M367.67,918.49v52.48h52.48v-52.48h-52.48Zm40.53,21.37h-6.73v-.52c0-2.14-.59-3.9-1.79-5.28-1.19-1.38-3.01-2.07-5.46-2.07s-4.32,.74-5.69,2.22c-1.38,1.48-2.07,3.5-2.07,6.06v8.9c0,2.52,.69,4.53,2.07,6.03,1.38,1.5,3.28,2.25,5.69,2.25s4.27-.7,5.46-2.1c1.19-1.4,1.79-3.15,1.79-5.25v-.93h6.73v.72c0,4.24-1.21,7.58-3.65,10.01-2.43,2.43-5.88,3.65-10.32,3.65s-8.04-1.25-10.67-3.75c-2.62-2.5-3.93-6.08-3.93-10.74v-8.7c0-4.66,1.31-8.24,3.93-10.74,2.62-2.5,6.18-3.75,10.67-3.75s7.89,1.22,10.32,3.65c2.43,2.43,3.65,5.77,3.65,10.02v.31Z"/>
  <path d="M315.19,866.01v52.48h52.48v-52.48h-52.48Zm40.77,13.86h-10.98v31.22h-7.11v-31.22h-10.98v-6.46h29.06v6.46Z"/>
  <path d="M787.52,970.97v52.48h52.48v-52.48h-52.48Zm40.77,13.86h-10.98v31.22h-7.11v-31.22h-10.98v-6.46h29.06v6.46Z"/>
  <g>
    <polygon points="288.47 930.42 283.91 948.7 293.99 948.7 289.43 930.42 288.47 930.42"/>
    <path d="M262.71,918.49v52.48h52.48v-52.48h-52.48Zm34.98,45l-2.04-8.26h-13.4l-2.04,8.26h-7.29l9.86-37.52h12.33l9.86,37.52h-7.29Z"/>
  </g>
  <path d="M210.23,1128.37v52.48h52.48v-52.48h-52.48Zm40.53,21.37h-6.73v-.52c0-2.14-.59-3.9-1.79-5.28-1.19-1.38-3.01-2.07-5.46-2.07s-4.32,.74-5.69,2.22c-1.38,1.48-2.07,3.5-2.07,6.06v8.9c0,2.52,.69,4.53,2.07,6.03,1.38,1.5,3.28,2.25,5.69,2.25s4.27-.7,5.46-2.1c1.19-1.4,1.79-3.15,1.79-5.25v-.93h6.73v.72c0,4.24-1.21,7.58-3.65,10.01-2.43,2.43-5.88,3.65-10.32,3.65s-8.04-1.25-10.67-3.75c-2.62-2.5-3.93-6.08-3.93-10.74v-8.7c0-4.66,1.31-8.24,3.93-10.74,2.62-2.5,6.18-3.75,10.67-3.75s7.89,1.22,10.32,3.65c2.43,2.43,3.65,5.77,3.65,10.02v.31Z"/>
  <g>
    <polygon points="760.8 1087.86 756.24 1106.14 766.32 1106.14 761.76 1087.86 760.8 1087.86"/>
    <path d="M735.04,1075.93v52.48h52.48v-52.48h-52.48Zm34.98,45l-2.04-8.26h-13.4l-2.04,8.26h-7.29l9.86-37.52h12.33l9.86,37.52h-7.29Z"/>
  </g>
  <path d="M472.63,1075.93v52.48h52.48v-52.48h-52.48Zm40.53,21.37h-6.73v-.52c0-2.14-.59-3.9-1.79-5.28-1.19-1.38-3.01-2.07-5.46-2.07s-4.32,.74-5.69,2.22c-1.38,1.48-2.07,3.5-2.07,6.06v8.9c0,2.52,.69,4.53,2.07,6.03,1.38,1.5,3.28,2.25,5.69,2.25s4.27-.7,5.46-2.1c1.19-1.4,1.79-3.15,1.79-5.25v-.93h6.73v.72c0,4.24-1.21,7.58-3.65,10.01-2.43,2.43-5.88,3.65-10.32,3.65s-8.04-1.25-10.67-3.75c-2.62-2.5-3.93-6.08-3.93-10.74v-8.7c0-4.66,1.31-8.24,3.93-10.74,2.62-2.5,6.18-3.75,10.67-3.75s7.89,1.22,10.32,3.65c2.43,2.43,3.65,5.77,3.65,10.02v.31Z"/>
  <path d="M420.15,1075.93v52.48h52.48v-52.48h-52.48Zm40.77,13.86h-10.98v31.22h-7.11v-31.22h-10.98v-6.46h29.06v6.46Z"/>
  <g>
    <polygon points="288.47 1087.86 283.91 1106.14 293.99 1106.14 289.43 1087.86 288.47 1087.86"/>
    <path d="M262.71,1075.93v52.48h52.48v-52.48h-52.48Zm34.98,45l-2.04-8.26h-13.4l-2.04,8.26h-7.29l9.86-37.52h12.33l9.86,37.52h-7.29Z"/>
  </g>
  <path d="M682.56,1023.45v52.48h52.48v-52.48h-52.48Zm40.53,20.75h-6.73v-.41c0-1.28-.27-2.43-.8-3.47-.53-1.03-1.33-1.85-2.4-2.46-1.07-.6-2.41-.91-4.04-.91-2.42,0-4.32,.74-5.69,2.22-1.38,1.48-2.07,3.5-2.07,6.06v8.9c0,2.52,.69,4.55,2.07,6.08,1.38,1.54,3.31,2.3,5.8,2.3s4.3-.65,5.43-1.97c1.14-1.31,1.71-2.97,1.71-4.97v-.52h-8.59v-5.8h15.32v18.53h-6.31v-3.47h-.93c-.24,.59-.63,1.21-1.16,1.86-.54,.66-1.34,1.21-2.41,1.66-1.07,.45-2.54,.67-4.4,.67-2.48,0-4.74-.56-6.76-1.68-2.02-1.12-3.62-2.76-4.81-4.92-1.19-2.16-1.79-4.79-1.79-7.89v-8.7c0-4.66,1.31-8.24,3.93-10.74,2.62-2.5,6.18-3.75,10.67-3.75s7.89,1.18,10.32,3.54c2.43,2.37,3.65,5.56,3.65,9.6v.21Z"/>
  <path d="M630.08,1023.45v52.48h52.48v-52.48h-52.48Zm40.53,21.37h-6.73v-.52c0-2.14-.59-3.9-1.79-5.28-1.19-1.38-3.01-2.07-5.46-2.07s-4.32,.74-5.69,2.22c-1.38,1.48-2.07,3.5-2.07,6.06v8.9c0,2.52,.69,4.53,2.07,6.03,1.38,1.5,3.28,2.25,5.69,2.25s4.27-.7,5.46-2.1c1.19-1.4,1.79-3.15,1.79-5.25v-.93h6.73v.72c0,4.24-1.21,7.58-3.65,10.01-2.43,2.43-5.88,3.65-10.32,3.65s-8.04-1.25-10.67-3.75c-2.62-2.5-3.93-6.08-3.93-10.74v-8.7c0-4.66,1.31-8.24,3.93-10.74,2.62-2.5,6.18-3.75,10.67-3.75s7.89,1.22,10.32,3.65c2.43,2.43,3.65,5.77,3.65,10.02v.31Z"/>
  <path d="M105.27,1023.45v52.48h52.48v-52.48h-52.48Zm40.53,21.37h-6.73v-.52c0-2.14-.59-3.9-1.79-5.28-1.19-1.38-3.01-2.07-5.46-2.07s-4.32,.74-5.69,2.22c-1.38,1.48-2.07,3.5-2.07,6.06v8.9c0,2.52,.69,4.53,2.07,6.03,1.38,1.5,3.28,2.25,5.69,2.25s4.27-.7,5.46-2.1c1.19-1.4,1.79-3.15,1.79-5.25v-.93h6.73v.72c0,4.24-1.21,7.58-3.65,10.01-2.43,2.43-5.88,3.65-10.32,3.65s-8.04-1.25-10.67-3.75c-2.62-2.5-3.93-6.08-3.93-10.74v-8.7c0-4.66,1.31-8.24,3.93-10.74,2.62-2.5,6.18-3.75,10.67-3.75s7.89,1.22,10.32,3.65c2.43,2.43,3.65,5.77,3.65,10.02v.31Z"/>
  <path d="M105.27,970.97v52.48h52.48v-52.48h-52.48Zm40.77,13.86h-10.98v31.22h-7.11v-31.22h-10.98v-6.46h29.06v6.46Z"/>
  <g>
    <polygon points="183.51 1035.38 178.95 1053.66 189.03 1053.66 184.47 1035.38 183.51 1035.38"/>
    <path d="M157.75,1023.45v52.48h52.48v-52.48h-52.48Zm34.98,45l-2.04-8.26h-13.4l-2.04,8.26h-7.29l9.86-37.52h12.33l9.86,37.52h-7.29Z"/>
  </g>
  <path d="M525.11,918.49v52.48h52.48v-52.48h-52.48Zm40.53,20.75h-6.73v-.41c0-1.28-.27-2.43-.8-3.47-.53-1.03-1.33-1.85-2.4-2.46-1.07-.6-2.41-.91-4.04-.91-2.42,0-4.32,.74-5.69,2.22-1.38,1.48-2.07,3.5-2.07,6.06v8.9c0,2.52,.69,4.55,2.07,6.08,1.38,1.54,3.31,2.3,5.8,2.3s4.3-.65,5.43-1.97c1.14-1.31,1.71-2.97,1.71-4.97v-.52h-8.59v-5.8h15.32v18.53h-6.31v-3.47h-.93c-.24,.59-.63,1.21-1.16,1.86-.54,.66-1.34,1.21-2.41,1.66-1.07,.45-2.54,.67-4.4,.67-2.48,0-4.74-.56-6.76-1.68-2.02-1.12-3.62-2.76-4.81-4.92-1.19-2.16-1.79-4.79-1.79-7.89v-8.7c0-4.66,1.31-8.24,3.93-10.74,2.62-2.5,6.18-3.75,10.67-3.75s7.89,1.18,10.32,3.54c2.43,2.37,3.65,5.56,3.65,9.6v.21Z"/>
  <g>
    <polygon points="26.06 930.42 21.5 948.7 31.58 948.7 27.03 930.42 26.06 930.42"/>
    <path d="M.3,918.49v52.48H52.78v-52.48H.3Zm34.98,45l-2.04-8.26h-13.4l-2.04,8.26h-7.29l9.86-37.52h12.33l9.86,37.52h-7.29Z"/>
  </g>
  <path d="M735.04,918.49v52.48h52.48v-52.48h-52.48Zm40.53,21.37h-6.73v-.52c0-2.14-.59-3.9-1.79-5.28-1.19-1.38-3.01-2.07-5.46-2.07s-4.32,.74-5.69,2.22c-1.38,1.48-2.07,3.5-2.07,6.06v8.9c0,2.52,.69,4.53,2.07,6.03,1.38,1.5,3.28,2.25,5.69,2.25s4.27-.7,5.46-2.1c1.19-1.4,1.79-3.15,1.79-5.25v-.93h6.73v.72c0,4.24-1.21,7.58-3.65,10.01-2.43,2.43-5.88,3.65-10.32,3.65s-8.04-1.25-10.67-3.75c-2.62-2.5-3.93-6.08-3.93-10.74v-8.7c0-4.66,1.31-8.24,3.93-10.74,2.62-2.5,6.18-3.75,10.67-3.75s7.89,1.22,10.32,3.65c2.43,2.43,3.65,5.77,3.65,10.02v.31Z"/>
  <path d="M472.63,970.97v52.48h52.48v-52.48h-52.48Zm40.53,21.37h-6.73v-.52c0-2.14-.59-3.9-1.79-5.28-1.19-1.38-3.01-2.07-5.46-2.07s-4.32,.74-5.69,2.22c-1.38,1.48-2.07,3.5-2.07,6.06v8.9c0,2.52,.69,4.53,2.07,6.03,1.38,1.5,3.28,2.25,5.69,2.25s4.27-.7,5.46-2.1c1.19-1.4,1.79-3.15,1.79-5.25v-.93h6.73v.72c0,4.24-1.21,7.58-3.65,10.01-2.43,2.43-5.88,3.65-10.32,3.65s-8.04-1.25-10.67-3.75c-2.62-2.5-3.93-6.08-3.93-10.74v-8.7c0-4.66,1.31-8.24,3.93-10.74,2.62-2.5,6.18-3.75,10.67-3.75s7.89,1.22,10.32,3.65c2.43,2.43,3.65,5.77,3.65,10.02v.31Z"/>
  <path d="M656.19,1128.37v52.48h52.48v-52.48h-52.48Zm40.77,13.86h-10.98v31.22h-7.11v-31.22h-10.98v-6.46h29.06v6.46Z"/>
  <path d="M341.43,1128.37v52.48h52.48v-52.48h-52.48Zm40.77,13.86h-10.98v31.22h-7.11v-31.22h-10.98v-6.46h29.06v6.46Z"/>
  <path d="M52.78,1128.37v52.48h52.48v-52.48H52.78Zm40.53,21.37h-6.73v-.52c0-2.14-.59-3.9-1.79-5.28-1.19-1.38-3.01-2.07-5.46-2.07s-4.32,.74-5.69,2.22c-1.38,1.48-2.07,3.5-2.07,6.06v8.9c0,2.52,.69,4.53,2.07,6.03,1.38,1.5,3.28,2.25,5.69,2.25s4.27-.7,5.46-2.1c1.19-1.4,1.79-3.15,1.79-5.25v-.93h6.73v.72c0,4.24-1.21,7.58-3.65,10.01-2.43,2.43-5.88,3.65-10.32,3.65s-8.04-1.25-10.67-3.75c-2.62-2.5-3.93-6.08-3.93-10.74v-8.7c0-4.66,1.31-8.24,3.93-10.74,2.62-2.5,6.18-3.75,10.67-3.75s7.89,1.22,10.32,3.65c2.43,2.43,3.65,5.77,3.65,10.02v.31Z"/>
  <g>
    <polygon points="131.03 1140.3 126.47 1158.58 136.54 1158.58 131.99 1140.3 131.03 1140.3"/>
    <path d="M105.27,1128.37v52.48h52.48v-52.48h-52.48Zm34.98,45l-2.04-8.26h-13.4l-2.04,8.26h-7.29l9.86-37.52h12.33l9.86,37.52h-7.29Z"/>
  </g>
</svg>