<?xml version="1.0" encoding="UTF-8"?>
<svg id="Layer_1" data-name="Layer 1" xmlns="http://www.w3.org/2000/svg" viewBox="0 0 551.25 262.5">
  <defs>
    <style>
      .cls-1 {
        fill: #3222ff;
      }

      .cls-2 {
        fill: #2723e2;
      }
    </style>
  </defs>
  <rect class="cls-1" x="0" y="0" width="551.25" height="262.5"/>
  <g>
    <rect class="cls-2" x="122.25" y="148.78" width="16.58" height="54.6" transform="translate(-73.33 256.6) rotate(-75)"/>
    <rect class="cls-2" x="82.04" y="88.69" width="54.6" height="16.58" transform="translate(-36.55 105.72) rotate(-45)"/>
    <rect class="cls-2" x="180.16" y="90.87" width="16.58" height="54.6" transform="translate(-24.16 52.8) rotate(-15)"/>
    <path class="cls-2" d="M406.47,266.74l-75.36-20.15-21.45-80.05-80.05-21.45-21.45-80.06-80.34-21.53-27.15-82.89-15.75,5.16,26.96,82.31-51.4,51.4L-21.85,72.54l-5.16,15.75,82.89,27.15,21.53,80.34,89.3,23.93,58.6-58.6,70.81,18.97,21.45,80.06,84.61,22.62,4.28-16.01Zm-244.72-65.52l-70.81-18.97-18.97-70.81,51.84-51.84,70.81,18.97,18.97,70.81-51.84,51.84Z"/>
  </g>
  <path d="M210,157.5v26.25h26.25v-26.25h-26.25Zm20.27,10.38h-3.36v-.21c0-.64-.14-1.22-.4-1.73-.27-.52-.67-.93-1.2-1.23-.54-.3-1.21-.45-2.02-.45-1.21,0-2.16,.37-2.85,1.11-.69,.74-1.04,1.75-1.04,3.03v4.45c0,1.26,.35,2.27,1.04,3.04,.69,.77,1.66,1.15,2.9,1.15s2.15-.33,2.72-.98c.57-.66,.86-1.48,.86-2.48v-.26h-4.3v-2.9h7.66v9.27h-3.16v-1.73h-.47c-.12,.29-.32,.6-.58,.93-.27,.33-.67,.6-1.21,.83-.54,.22-1.27,.34-2.2,.34-1.24,0-2.37-.28-3.38-.84-1.01-.56-1.81-1.38-2.41-2.46-.59-1.08-.89-2.4-.89-3.95v-4.35c0-2.33,.66-4.12,1.97-5.37,1.31-1.25,3.09-1.88,5.33-1.88s3.95,.59,5.16,1.77c1.22,1.18,1.82,2.78,1.82,4.8v.1Z"/>
  <path d="M183.75,157.5v26.25h26.25v-26.25h-26.25Zm20.27,10.69h-3.36v-.26c0-1.07-.3-1.95-.89-2.64-.6-.69-1.51-1.04-2.73-1.04s-2.16,.37-2.85,1.11c-.69,.74-1.04,1.75-1.04,3.03v4.45c0,1.26,.35,2.26,1.04,3.02,.69,.75,1.64,1.13,2.85,1.13s2.13-.35,2.73-1.05c.6-.7,.89-1.57,.89-2.63v-.47h3.36v.36c0,2.12-.61,3.79-1.82,5.01-1.22,1.22-2.94,1.83-5.16,1.83s-4.02-.63-5.33-1.88c-1.31-1.25-1.97-3.04-1.97-5.37v-4.35c0-2.33,.66-4.12,1.97-5.37,1.31-1.25,3.09-1.88,5.33-1.88s3.95,.61,5.16,1.82c1.22,1.22,1.82,2.89,1.82,5.01v.15Z"/>
  <path d="M157.5,131.25v26.25h26.25v-26.25h-26.25Zm20.39,6.93h-5.49v15.62h-3.55v-15.62h-5.49v-3.23h14.54v3.23Z"/>
  <path d="M393.75,183.75v26.25h26.25v-26.25h-26.25Zm20.39,6.93h-5.49v15.62h-3.55v-15.62h-5.49v-3.23h14.54v3.23Z"/>
  <g>
    <polygon points="144.14 163.47 141.85 172.61 146.9 172.61 144.62 163.47 144.14 163.47"/>
    <path d="M131.25,157.5v26.25h26.25v-26.25h-26.25Zm17.5,22.51l-1.02-4.13h-6.7l-1.02,4.13h-3.65l4.93-18.77h6.17l4.93,18.77h-3.65Z"/>
  </g>
  <path d="M420,236.25v26.25h26.25v-26.25h-26.25Zm20.27,10.69h-3.36v-.26c0-1.07-.3-1.95-.89-2.64-.6-.69-1.51-1.04-2.73-1.04s-2.16,.37-2.85,1.11c-.69,.74-1.04,1.75-1.04,3.03v4.45c0,1.26,.35,2.26,1.04,3.02,.69,.75,1.64,1.13,2.85,1.13s2.13-.35,2.73-1.05c.6-.7,.89-1.57,.89-2.63v-.47h3.36v.36c0,2.12-.61,3.79-1.82,5.01-1.22,1.22-2.94,1.83-5.16,1.83s-4.02-.63-5.33-1.88c-1.31-1.25-1.97-3.04-1.97-5.37v-4.35c0-2.33,.66-4.12,1.97-5.37,1.31-1.25,3.09-1.88,5.33-1.88s3.95,.61,5.16,1.82c1.22,1.22,1.82,2.89,1.82,5.01v.15Z"/>
  <g>
    <polygon points="380.39 242.22 378.1 251.36 383.15 251.36 380.87 242.22 380.39 242.22"/>
    <path d="M367.5,236.25v26.25h26.25v-26.25h-26.25Zm17.5,22.51l-1.02-4.13h-6.7l-1.02,4.13h-3.65l4.93-18.77h6.17l4.93,18.77h-3.65Z"/>
  </g>
  <path d="M236.25,236.25v26.25h26.25v-26.25h-26.25Zm20.27,10.69h-3.36v-.26c0-1.07-.3-1.95-.89-2.64-.6-.69-1.51-1.04-2.73-1.04s-2.16,.37-2.85,1.11c-.69,.74-1.04,1.75-1.04,3.03v4.45c0,1.26,.35,2.26,1.04,3.02,.69,.75,1.64,1.13,2.85,1.13s2.13-.35,2.73-1.05c.6-.7,.89-1.57,.89-2.63v-.47h3.36v.36c0,2.12-.61,3.79-1.82,5.01-1.22,1.22-2.94,1.83-5.16,1.83s-4.02-.63-5.33-1.88c-1.31-1.25-1.97-3.04-1.97-5.37v-4.35c0-2.33,.66-4.12,1.97-5.37,1.31-1.25,3.09-1.88,5.33-1.88s3.95,.61,5.16,1.82c1.22,1.22,1.82,2.89,1.82,5.01v.15Z"/>
  <path d="M210,236.25v26.25h26.25v-26.25h-26.25Zm20.39,6.93h-5.49v15.62h-3.55v-15.62h-5.49v-3.23h14.54v3.23Z"/>
  <g>
    <polygon points="144.14 242.22 141.85 251.36 146.9 251.36 144.62 242.22 144.14 242.22"/>
    <path d="M131.25,236.25v26.25h26.25v-26.25h-26.25Zm17.5,22.51l-1.02-4.13h-6.7l-1.02,4.13h-3.65l4.93-18.77h6.17l4.93,18.77h-3.65Z"/>
  </g>
  <path d="M341.25,210v26.25h26.25v-26.25h-26.25Zm20.27,10.38h-3.36v-.21c0-.64-.14-1.22-.4-1.73-.27-.52-.67-.93-1.2-1.23-.54-.3-1.21-.45-2.02-.45-1.21,0-2.16,.37-2.85,1.11-.69,.74-1.04,1.75-1.04,3.03v4.45c0,1.26,.35,2.27,1.04,3.04,.69,.77,1.66,1.15,2.9,1.15s2.15-.33,2.72-.98c.57-.66,.86-1.48,.86-2.48v-.26h-4.3v-2.9h7.66v9.27h-3.16v-1.73h-.47c-.12,.29-.32,.6-.58,.93-.27,.33-.67,.6-1.21,.83-.54,.22-1.27,.34-2.2,.34-1.24,0-2.37-.28-3.38-.84-1.01-.56-1.81-1.38-2.41-2.46-.59-1.08-.89-2.4-.89-3.95v-4.35c0-2.33,.66-4.12,1.97-5.37,1.31-1.25,3.09-1.88,5.33-1.88s3.95,.59,5.16,1.77c1.22,1.18,1.82,2.78,1.82,4.8v.1Z"/>
  <path d="M315,210v26.25h26.25v-26.25h-26.25Zm20.27,10.69h-3.36v-.26c0-1.07-.3-1.95-.89-2.64-.6-.69-1.51-1.04-2.73-1.04s-2.16,.37-2.85,1.11c-.69,.74-1.04,1.75-1.04,3.03v4.45c0,1.26,.35,2.26,1.04,3.02,.69,.75,1.64,1.13,2.85,1.13s2.13-.35,2.73-1.05c.6-.7,.89-1.57,.89-2.63v-.47h3.36v.36c0,2.12-.61,3.79-1.82,5.01-1.22,1.22-2.94,1.83-5.16,1.83s-4.02-.63-5.33-1.88c-1.31-1.25-1.97-3.04-1.97-5.37v-4.35c0-2.33,.66-4.12,1.97-5.37,1.31-1.25,3.09-1.88,5.33-1.88s3.95,.61,5.16,1.82c1.22,1.22,1.82,2.89,1.82,5.01v.15Z"/>
  <path d="M52.5,210v26.25h26.25v-26.25h-26.25Zm20.27,10.69h-3.36v-.26c0-1.07-.3-1.95-.89-2.64-.6-.69-1.51-1.04-2.73-1.04s-2.16,.37-2.85,1.11c-.69,.74-1.04,1.75-1.04,3.03v4.45c0,1.26,.35,2.26,1.04,3.02,.69,.75,1.64,1.13,2.85,1.13s2.13-.35,2.73-1.05c.6-.7,.89-1.57,.89-2.63v-.47h3.36v.36c0,2.12-.61,3.79-1.82,5.01-1.22,1.22-2.94,1.83-5.16,1.83s-4.02-.63-5.33-1.88c-1.31-1.25-1.97-3.04-1.97-5.37v-4.35c0-2.33,.66-4.12,1.97-5.37,1.31-1.25,3.09-1.88,5.33-1.88s3.95,.61,5.16,1.82c1.22,1.22,1.82,2.89,1.82,5.01v.15Z"/>
  <path d="M52.5,183.75v26.25h26.25v-26.25h-26.25Zm20.39,6.93h-5.49v15.62h-3.55v-15.62h-5.49v-3.23h14.54v3.23Z"/>
  <g>
    <polygon points="91.64 215.97 89.35 225.11 94.4 225.11 92.12 215.97 91.64 215.97"/>
    <path d="M78.75,210v26.25h26.25v-26.25h-26.25Zm17.5,22.51l-1.02-4.13h-6.7l-1.02,4.13h-3.65l4.93-18.77h6.17l4.93,18.77h-3.65Z"/>
  </g>
  <path d="M262.5,157.5v26.25h26.25v-26.25h-26.25Zm20.27,10.38h-3.36v-.21c0-.64-.14-1.22-.4-1.73-.27-.52-.67-.93-1.2-1.23-.54-.3-1.21-.45-2.02-.45-1.21,0-2.16,.37-2.85,1.11-.69,.74-1.04,1.75-1.04,3.03v4.45c0,1.26,.35,2.27,1.04,3.04,.69,.77,1.66,1.15,2.9,1.15s2.15-.33,2.72-.98c.57-.66,.86-1.48,.86-2.48v-.26h-4.3v-2.9h7.66v9.27h-3.16v-1.73h-.47c-.12,.29-.32,.6-.58,.93-.27,.33-.67,.6-1.21,.83-.54,.22-1.27,.34-2.2,.34-1.24,0-2.37-.28-3.38-.84-1.01-.56-1.81-1.38-2.41-2.46-.59-1.08-.89-2.4-.89-3.95v-4.35c0-2.33,.66-4.12,1.97-5.37,1.31-1.25,3.09-1.88,5.33-1.88s3.95,.59,5.16,1.77c1.22,1.18,1.82,2.78,1.82,4.8v.1Z"/>
  <g>
    <polygon points="12.89 163.47 10.6 172.61 15.65 172.61 13.37 163.47 12.89 163.47"/>
    <path d="M0,157.5v26.25H26.25v-26.25H0Zm17.5,22.51l-1.02-4.13h-6.7l-1.02,4.13h-3.65l4.93-18.77h6.17l4.93,18.77h-3.65Z"/>
  </g>
  <path d="M367.5,157.5v26.25h26.25v-26.25h-26.25Zm20.27,10.69h-3.36v-.26c0-1.07-.3-1.95-.89-2.64-.6-.69-1.51-1.04-2.73-1.04s-2.16,.37-2.85,1.11c-.69,.74-1.04,1.75-1.04,3.03v4.45c0,1.26,.35,2.26,1.04,3.02,.69,.75,1.64,1.13,2.85,1.13s2.13-.35,2.73-1.05c.6-.7,.89-1.57,.89-2.63v-.47h3.36v.36c0,2.12-.61,3.79-1.82,5.01-1.22,1.22-2.94,1.83-5.16,1.83s-4.02-.63-5.33-1.88c-1.31-1.25-1.97-3.04-1.97-5.37v-4.35c0-2.33,.66-4.12,1.97-5.37,1.31-1.25,3.09-1.88,5.33-1.88s3.95,.61,5.16,1.82c1.22,1.22,1.82,2.89,1.82,5.01v.15Z"/>
  <path d="M236.25,183.75v26.25h26.25v-26.25h-26.25Zm20.27,10.69h-3.36v-.26c0-1.07-.3-1.95-.89-2.64-.6-.69-1.51-1.04-2.73-1.04s-2.16,.37-2.85,1.11c-.69,.74-1.04,1.75-1.04,3.03v4.45c0,1.26,.35,2.26,1.04,3.02,.69,.75,1.64,1.13,2.85,1.13s2.13-.35,2.73-1.05c.6-.7,.89-1.57,.89-2.63v-.47h3.36v.36c0,2.12-.61,3.79-1.82,5.01-1.22,1.22-2.94,1.83-5.16,1.83s-4.02-.63-5.33-1.88c-1.31-1.25-1.97-3.04-1.97-5.37v-4.35c0-2.33,.66-4.12,1.97-5.37,1.31-1.25,3.09-1.88,5.33-1.88s3.95,.61,5.16,1.82c1.22,1.22,1.82,2.89,1.82,5.01v.15Z"/>
  <path d="M498.75,157.5v26.25h26.25v-26.25h-26.25Zm20.39,6.93h-5.49v15.62h-3.55v-15.62h-5.49v-3.23h14.54v3.23Z"/>
  <g>
    <polygon points="485.39 215.97 483.1 225.11 488.15 225.11 485.87 215.97 485.39 215.97"/>
    <path d="M472.5,210v26.25h26.25v-26.25h-26.25Zm17.5,22.51l-1.02-4.13h-6.7l-1.02,4.13h-3.65l4.93-18.77h6.17l4.93,18.77h-3.65Z"/>
  </g>
  <path d="M446.25,183.75v26.25h26.25v-26.25h-26.25Zm20.27,10.38h-3.36v-.21c0-.64-.14-1.22-.4-1.73-.27-.52-.67-.93-1.2-1.23-.54-.3-1.21-.45-2.02-.45-1.21,0-2.16,.37-2.85,1.11-.69,.74-1.04,1.75-1.04,3.03v4.45c0,1.26,.35,2.27,1.04,3.04,.69,.77,1.66,1.15,2.9,1.15s2.15-.33,2.72-.98c.57-.66,.86-1.48,.86-2.48v-.26h-4.3v-2.9h7.66v9.27h-3.16v-1.73h-.47c-.12,.29-.32,.6-.58,.93-.27,.33-.67,.6-1.21,.83-.54,.22-1.27,.34-2.2,.34-1.24,0-2.37-.28-3.38-.84-1.01-.56-1.81-1.38-2.41-2.46-.59-1.08-.89-2.4-.89-3.95v-4.35c0-2.33,.66-4.12,1.97-5.37,1.31-1.25,3.09-1.88,5.33-1.88s3.95,.59,5.16,1.77c1.22,1.18,1.82,2.78,1.82,4.8v.1Z"/>
</svg>