<?xml version="1.0" encoding="utf-8"?>
<!-- Generator: Adobe Illustrator 26.4.1, SVG Export Plug-In . SVG Version: 6.00 Build 0)  -->
<svg version="1.1" id="Layer_1" xmlns="http://www.w3.org/2000/svg" xmlns:xlink="http://www.w3.org/1999/xlink" x="0px" y="0px"
	 viewBox="0 0 840 1181.2" style="enable-background:new 0 0 840 1181.2;" xml:space="preserve">
<style type="text/css">
	.st0{fill:#F27300;}
</style>
<rect y="-0.1" class="st0" width="840" height="1181.3"/>
<g>
	<path d="M262.5,785.8v52.5h26.2c4.9,0,9.6-2,13.1-5.4l7.7-7.7c8.4-8.4,19.8-13.1,31.7-13.1h15.4c11.9,0,23.3,4.7,31.7,13.1l0,0
		c7.2,7.2,19,7.2,26.2,0l0,0c7.2-7.2,7.2-19,0-26.2l0,0c-8.4-8.4-19.8-13.1-31.7-13.1L262.5,785.8L262.5,785.8z"/>
	<path d="M0,785.8v131.2h262.5V785.8H0z M39.4,838.3c-7.2,0-13.1-5.9-13.1-13.1s5.9-13.1,13.1-13.1s13.1,5.9,13.1,13.1
		S46.6,838.3,39.4,838.3z"/>
</g>
<polygon points="0,1048.3 131.2,982.7 0,917.1 "/>
<g>
	<path d="M577.5,1179.6v-52.5h-26.2c-4.9,0-9.6,2-13.1,5.4l-7.7,7.7c-8.4,8.4-19.8,13.1-31.7,13.1h-15.4c-11.9,0-23.3-4.7-31.7-13.1
		l0,0c-7.2-7.2-19-7.2-26.2,0l0,0c-7.2,7.2-7.2,19,0,26.2l0,0c8.4,8.4,19.8,13.1,31.7,13.1L577.5,1179.6L577.5,1179.6z"/>
	<path d="M840,1179.6v-131.2H577.5v131.2H840z M800.6,1127.1c7.2,0,13.1,5.9,13.1,13.1s-5.9,13.1-13.1,13.1s-13.1-5.9-13.1-13.1
		S793.4,1127.1,800.6,1127.1z"/>
</g>
<path d="M196.9,917.1h183.8c36.2,0,65.6,29.4,65.6,65.6v0c0,36.2-29.4,65.6-65.6,65.6H196.9c-36.2,0-65.6-29.4-65.6-65.6v0
	C131.2,946.4,160.6,917.1,196.9,917.1z"/>
<polygon points="840,917.1 708.8,982.7 840,1048.3 "/>
<path d="M511.9,917.1h131.3c36.2,0,65.6,29.4,65.6,65.6v0c0,36.2-29.4,65.6-65.6,65.6H511.9c-36.2,0-65.6-29.4-65.6-65.6v0
	C446.2,946.4,475.6,917.1,511.9,917.1z"/>
<polygon points="420,1048.3 288.8,1113.9 420,1179.6 "/>
<path d="M223.1,1179.6H65.6c-36.2,0-65.6-29.4-65.6-65.6v0c0-36.2,29.4-65.6,65.6-65.6h157.5c36.2,0,65.6,29.4,65.6,65.6v0
	C288.8,1150.2,259.4,1179.6,223.1,1179.6z"/>
<polygon points="840,785.8 708.8,851.4 840,917.1 "/>
<path d="M643.1,917.1H485.6c-36.2,0-65.6-29.4-65.6-65.6v0c0-36.2,29.4-65.6,65.6-65.6h157.5c36.2,0,65.6,29.4,65.6,65.6v0
	C708.8,887.7,679.4,917.1,643.1,917.1z"/>
<g>
	<path d="M157.5,525v-52.5h-26.2c-4.9,0-9.6,2-13.1,5.4l-7.7,7.7c-8.4,8.4-19.8,13.1-31.7,13.1H63.4c-11.9,0-23.3-4.7-31.7-13.1l0,0
		c-7.2-7.2-19-7.2-26.2,0l0,0c-7.2,7.2-7.2,19,0,26.2l0,0c8.4,8.4,19.8,13.1,31.7,13.1L157.5,525L157.5,525z"/>
	<path d="M420,525V393.8H157.5V525H420z M380.6,472.5c7.2,0,13.1,5.9,13.1,13.1s-5.9,13.1-13.1,13.1s-13.1-5.9-13.1-13.1
		S373.4,472.5,380.6,472.5z"/>
</g>
<polygon points="0,656.2 131.2,590.6 0,525 "/>
<g>
	<path d="M577.5,787.5V735h-26.2c-4.9,0-9.6,2-13.1,5.4l-7.7,7.7c-8.4,8.4-19.8,13.1-31.7,13.1h-15.4c-11.9,0-23.3-4.7-31.7-13.1
		l0,0c-7.2-7.2-19-7.2-26.2,0l0,0c-7.2,7.2-7.2,19,0,26.2l0,0c8.4,8.4,19.8,13.1,31.7,13.1L577.5,787.5L577.5,787.5z"/>
	<path d="M840,787.5V656.2H577.5v131.2H840z M800.6,735c7.2,0,13.1,5.9,13.1,13.1s-5.9,13.1-13.1,13.1s-13.1-5.9-13.1-13.1
		S793.4,735,800.6,735z"/>
</g>
<path d="M196.9,525h183.8c36.2,0,65.6,29.4,65.6,65.6v0c0,36.2-29.4,65.6-65.6,65.6H196.9c-36.2,0-65.6-29.4-65.6-65.6v0
	C131.2,554.4,160.6,525,196.9,525z"/>
<polygon points="840,525 708.8,590.6 840,656.2 "/>
<path d="M511.9,525h131.3c36.2,0,65.6,29.4,65.6,65.6v0c0,36.2-29.4,65.6-65.6,65.6H511.9c-36.2,0-65.6-29.4-65.6-65.6v0
	C446.2,554.4,475.6,525,511.9,525z"/>
<polygon points="420,656.2 288.8,721.9 420,787.5 "/>
<path d="M223.1,787.5H65.6C29.4,787.5,0,758.1,0,721.9v0c0-36.2,29.4-65.6,65.6-65.6h157.5c36.2,0,65.6,29.4,65.6,65.6v0
	C288.8,758.1,259.4,787.5,223.1,787.5z"/>
<polygon points="420,525 551.2,459.4 420,393.8 "/>
<path d="M616.9,393.8h157.5c36.2,0,65.6,29.4,65.6,65.6v0c0,36.2-29.4,65.6-65.6,65.6H616.9c-36.2,0-65.6-29.4-65.6-65.6v0
	C551.2,423.1,580.6,393.8,616.9,393.8z"/>
<g>
	<path d="M262.5,0v52.5h26.2c4.9,0,9.6-2,13.1-5.4l7.7-7.7c8.4-8.4,19.8-13.1,31.7-13.1h15.4c11.9,0,23.3,4.7,31.7,13.1l0,0
		c7.2,7.2,19,7.2,26.2,0l0,0c7.2-7.2,7.2-19,0-26.2l0,0C406.2,4.7,394.8,0,382.9,0H262.5z"/>
	<path d="M0,0v131.2h262.5V0H0z M39.4,52.5c-7.2,0-13.1-5.9-13.1-13.1s5.9-13.1,13.1-13.1s13.1,5.9,13.1,13.1S46.6,52.5,39.4,52.5z"
		/>
</g>
<polygon points="0,262.5 131.2,196.9 0,131.2 "/>
<g>
	<path d="M682.5,262.5V315h26.2c4.9,0,9.6-2,13.1-5.4l7.7-7.7c8.4-8.4,19.8-13.1,31.7-13.1h15.4c11.9,0,23.3,4.7,31.7,13.1l0,0
		c7.2,7.2,19,7.2,26.2,0l0,0c7.2-7.2,7.2-19,0-26.2l0,0c-8.4-8.4-19.8-13.1-31.7-13.1L682.5,262.5L682.5,262.5z"/>
	<path d="M420,262.5v131.2h262.5V262.5H420z M459.4,315c-7.2,0-13.1-5.9-13.1-13.1s5.9-13.1,13.1-13.1s13.1,5.9,13.1,13.1
		S466.6,315,459.4,315z"/>
</g>
<path d="M196.9,131.2h183.8c36.2,0,65.6,29.4,65.6,65.6v0c0,36.2-29.4,65.6-65.6,65.6H196.9c-36.2,0-65.6-29.4-65.6-65.6v0
	C131.2,160.6,160.6,131.2,196.9,131.2z"/>
<polygon points="840,131.2 708.8,196.9 840,262.5 "/>
<path d="M511.9,131.2h131.3c36.2,0,65.6,29.4,65.6,65.6v0c0,36.2-29.4,65.6-65.6,65.6H511.9c-36.2,0-65.6-29.4-65.6-65.6v0
	C446.2,160.6,475.6,131.2,511.9,131.2z"/>
<polygon points="420,262.5 288.8,328.1 420,393.8 "/>
<path d="M223.1,393.8H65.6C29.4,393.8,0,364.4,0,328.1v0c0-36.2,29.4-65.6,65.6-65.6h157.5c36.2,0,65.6,29.4,65.6,65.6v0
	C288.8,364.4,259.4,393.8,223.1,393.8z"/>
<polygon points="420,131.2 551.2,65.6 420,0 "/>
<path d="M616.9,0h157.5C810.6,0,840,29.4,840,65.6v0c0,36.2-29.4,65.6-65.6,65.6H616.9c-36.2,0-65.6-29.4-65.6-65.6v0
	C551.2,29.4,580.6,0,616.9,0z"/>
</svg>
